M48
; DRILL file {KiCad (5.1.8)-1} date 01/11/21 16:48:50
; FORMAT={-:-/ absolute / metric / decimal}
; #@! TF.CreationDate,2021-01-11T16:48:50+00:00
; #@! TF.GenerationSoftware,Kicad,Pcbnew,(5.1.8)-1
; #@! TF.FileFunction,Plated,1,2,PTH
FMAT,2
METRIC
T1C0.600
T2C0.750
T3C0.762
T4C0.800
T5C0.900
T6C1.000
T7C1.100
T8C3.200
%
G90
G05
T1
X120.7Y-72.55
X126.8Y-83.0
X128.3Y-72.55
X128.3Y-84.6
X129.7Y-64.0
X129.7Y-67.9
X131.25Y-65.25
X131.25Y-67.95
X132.8Y-61.15
X132.8Y-68.0
X136.2Y-98.6
X137.5Y-101.2
X138.2Y-83.0
X138.2Y-84.6
X138.8Y-106.2
X140.1Y-110.7
X140.1Y-115.6
X141.4Y-98.6
X141.4Y-101.2
X141.4Y-106.2
X141.7Y-110.7
X141.7Y-118.45
X154.5Y-106.25
X155.25Y-85.0
X155.25Y-96.5
X155.95Y-114.0
X157.0Y-91.0
X157.0Y-96.5
X158.7Y-83.5
X158.7Y-96.5
X159.0Y-81.0
X160.0Y-114.05
X160.5Y-86.5
X160.5Y-88.0
X161.25Y-106.25
X164.5Y-88.0
X166.0Y-86.5
X167.5Y-81.0
T2
X124.0Y-116.0
X126.0Y-116.0
T3
X144.0Y-123.0
X146.0Y-123.0
X148.0Y-123.0
X150.0Y-123.0
X172.0Y-78.0
X172.0Y-80.0
X172.0Y-82.0
X172.0Y-84.0
T4
X166.0Y-93.0
X166.0Y-95.54
X166.0Y-98.08
X173.62Y-93.0
X173.62Y-95.54
X173.62Y-98.08
X163.5Y-103.0
X173.66Y-103.0
X121.8Y-79.0
X124.3Y-79.0
X165.0Y-56.8
X165.0Y-61.8
X144.0Y-91.0
X144.0Y-93.54
X144.0Y-96.08
X144.0Y-98.62
X144.0Y-101.16
X144.0Y-103.7
X144.0Y-106.24
X144.0Y-108.78
X151.62Y-91.0
X151.62Y-93.54
X151.62Y-96.08
X151.62Y-98.62
X151.62Y-101.16
X151.62Y-103.7
X151.62Y-106.24
X151.62Y-108.78
X122.0Y-102.0
X127.0Y-102.0
X121.8Y-87.3
X126.8Y-87.3
X163.5Y-108.0
X173.66Y-108.0
X165.0Y-67.0
X175.16Y-67.0
T5
X166.74Y-116.46
X167.76Y-119.0
X168.78Y-116.46
X169.8Y-119.0
X128.0Y-123.0
X128.0Y-126.3
X130.5Y-123.0
X130.5Y-126.3
X133.0Y-123.0
X133.0Y-126.3
T6
X173.0Y-72.0
X123.0Y-108.0
X125.54Y-108.0
X128.08Y-108.0
X130.62Y-108.0
X124.2Y-58.95
X124.2Y-61.49
X124.2Y-64.03
X124.2Y-66.57
X126.74Y-58.95
X126.74Y-61.49
X126.74Y-64.03
X126.74Y-66.57
T7
X122.0Y-90.5
X122.0Y-97.0
X126.5Y-90.5
X126.5Y-97.0
X168.0Y-57.0
X168.0Y-61.5
X174.5Y-57.0
X174.5Y-61.5
T8
X181.0Y-125.0
X181.0Y-55.0
X115.0Y-55.0
X115.0Y-125.0
T0
M30
