M48
; DRILL file {KiCad (5.1.7)-1} date 12/08/20 21:47:55
; FORMAT={-:-/ absolute / metric / decimal}
; #@! TF.CreationDate,2020-12-08T21:47:55+00:00
; #@! TF.GenerationSoftware,Kicad,Pcbnew,(5.1.7)-1
; #@! TF.FileFunction,Plated,1,2,PTH
FMAT,2
METRIC
T1C0.400
T2C0.750
T3C0.800
T4C0.900
T5C0.910
T6C1.000
T7C1.500
%
G90
G05
T1
X112.3Y-94.3
X113.7Y-73.3
X114.2Y-86.0
X115.4Y-84.7
X116.5Y-70.1
X120.0Y-72.0
X120.0Y-73.3
X120.0Y-77.1
X120.0Y-79.6
X120.0Y-80.9
X120.0Y-82.2
X120.0Y-83.4
X120.1Y-94.3
X120.4Y-105.7
X126.0Y-78.3
X134.0Y-73.3
X137.0Y-72.0
X137.7Y-86.0
X138.0Y-93.5
X138.3Y-84.7
X140.5Y-70.7
X142.5Y-77.1
X142.5Y-79.6
X143.7Y-80.9
X143.7Y-103.2
X146.1Y-83.4
X150.5Y-73.1
X152.4Y-77.3
T2
X107.0Y-75.5
X107.0Y-77.5
X156.0Y-115.5
X156.0Y-117.5
X156.0Y-87.5
X156.0Y-89.5
X156.0Y-91.5
X156.0Y-93.5
T3
X149.0Y-102.0
X149.0Y-104.54
X149.0Y-107.08
X156.62Y-102.0
X156.62Y-104.54
X156.62Y-107.08
X123.0Y-98.38
X123.0Y-106.0
X125.54Y-98.38
X125.54Y-106.0
X128.08Y-98.38
X128.08Y-106.0
X130.62Y-98.38
X130.62Y-106.0
X133.16Y-98.38
X133.16Y-106.0
X135.7Y-98.38
X135.7Y-106.0
X138.24Y-98.38
X138.24Y-106.0
X140.78Y-98.38
X140.78Y-106.0
T4
X107.5Y-119.0
X109.5Y-119.0
X111.5Y-119.0
T5
X127.5Y-115.5
X130.0Y-115.5
X132.5Y-115.5
X135.0Y-115.5
T6
X149.88Y-65.46
X149.88Y-68.0
X152.42Y-65.46
X152.42Y-68.0
X154.96Y-65.46
X154.96Y-68.0
X157.5Y-65.46
X157.5Y-68.0
X106.6Y-82.5
X106.0Y-67.0
X108.54Y-67.0
X111.08Y-67.0
X113.62Y-67.0
T7
X105.4Y-119.0
X113.6Y-119.0
T0
M30
