<?xml version="1.0" standalone="no"?>
 <!DOCTYPE svg PUBLIC "-//W3C//DTD SVG 1.1//EN" 
 "http://www.w3.org/Graphics/SVG/1.1/DTD/svg11.dtd"> 
<svg
  xmlns:svg="http://www.w3.org/2000/svg"
  xmlns="http://www.w3.org/2000/svg"
  xmlns:xlink="http://www.w3.org/1999/xlink"
  version="1.1"
  width="9.682480cm" height="7.523480cm" viewBox="0 0 38120 29620">
<title>SVG Picture created as main-F_Fab.svg date 2020/12/08 21:52:19 </title>
  <desc>Picture generated by PCBNEW </desc>
<g style="fill:#000000; fill-opacity:1;stroke:#000000; stroke-opacity:1;
stroke-linecap:round; stroke-linejoin:round;"
 transform="translate(0 0) scale(1 1)">
</g>
<g style="fill:#000000; fill-opacity:0.0; 
stroke:#000000; stroke-width:-0.000393701; stroke-opacity:1; 
stroke-linecap:round; stroke-linejoin:round;">
</g>
<g style="fill:#000000; fill-opacity:0.0; 
stroke:#000000; stroke-width:39.3701; stroke-opacity:1; 
stroke-linecap:round; stroke-linejoin:round;">
<path d="M14815 5132
L15012 4936
" />
<path d="M15012 4936
L14815 4739
" />
<path d="M14815 5132
L14815 12526
" />
<path d="M14815 2485
L21902 2485
" />
<path d="M14815 2485
L14815 4739
" />
<path d="M14815 12526
L21902 12526
" />
<path d="M21902 12526
L21902 2485
" />
<path d="M25302 17632
L25695 17239
" />
<path d="M25302 20239
L25302 17632
" />
<path d="M27802 20239
L25302 20239
" />
<path d="M27802 17239
L27802 20239
" />
<path d="M25695 17239
L27802 17239
" />
<path d="M14709 19063
L14315 18670
" />
<path d="M22315 19063
L14709 19063
" />
<path d="M22315 16563
L22315 19063
" />
<path d="M14315 16563
L22315 16563
" />
<path d="M14315 18670
L14315 16563
" />
<circle cx="9500.84" cy="18723.4" r="689.257" /> 
<path d="M8319 17542
L8319 19904
" />
<path d="M10681 17542
L8319 17542
" />
<path d="M10681 19904
L10681 17542
" />
<path d="M8319 19904
L10681 19904
" />
<circle cx="27217.4" cy="8093.5" r="689.257" /> 
<path d="M28398 6912
L26036 6912
" />
<path d="M28398 9274
L28398 6912
" />
<path d="M26036 9274
L28398 9274
" />
<path d="M26036 6912
L26036 9274
" />
<path d="M8713 26873
L8713 25298
" />
<path d="M9500 26873
L8713 26873
" />
<path d="M9500 25298
L9500 26873
" />
<path d="M11193 25298
L11193 23565
" />
<path d="M7807 25298
L11193 25298
" />
<path d="M7807 23565
L7807 25298
" />
<path d="M7807 23565
L11193 23565
" />
<path d="M10130 15888
L8870 15888
" />
<path d="M10130 15258
L10130 15888
" />
<path d="M8870 15258
L10130 15258
" />
<path d="M8870 15888
L8870 15258
" />
<path d="M26548 21257
L26548 22517
" />
<path d="M25918 21257
L26548 21257
" />
<path d="M25918 22517
L25918 21257
" />
<path d="M26548 22517
L25918 22517
" />
<path d="M28649 21794
L27389 21794
" />
<path d="M28649 21164
L28649 21794
" />
<path d="M27389 21164
L28649 21164
" />
<path d="M27389 21794
L27389 21164
" />
<path d="M25398 4853
L24898 4353
" />
<path d="M28898 4853
L25398 4853
" />
<path d="M28898 2853
L28898 4853
" />
<path d="M24898 2853
L28898 2853
" />
<path d="M24898 4353
L24898 2853
" />
<path d="M27138 22286
L27138 24609
" />
<path d="M28910 22286
L27138 22286
" />
<path d="M28910 24609
L28910 22286
" />
<path d="M27138 24609
L28910 24609
" />
<path d="M26977 24770
L27469 24770
" />
<path d="M26977 24278
L26977 24770
" />
<path d="M8109 10562
L7859 10312
" />
<path d="M8859 10562
L8109 10562
" />
<path d="M8859 9562
L8859 10562
" />
<path d="M7859 9562
L8859 9562
" />
<path d="M7859 10312
L7859 9562
" />
<path d="M7847 6538
L7847 8861
" />
<path d="M9618 6538
L7847 6538
" />
<path d="M9618 8861
L9618 6538
" />
<path d="M7847 8861
L9618 8861
" />
<path d="M7685 9022
L8178 9022
" />
<path d="M7685 8530
L7685 9022
" />
<path d="M11622 4459
L7622 4459
" />
<path d="M11622 3459
L11622 4459
" />
<path d="M7872 3459
L11622 3459
" />
<path d="M7622 3709
L7872 3459
" />
<path d="M7622 4459
L7622 3709
" />
<path d="M27138 11262
L27138 15160
" />
<path d="M28910 11262
L27138 11262
" />
<path d="M28910 15160
L28910 11262
" />
<path d="M27138 15160
L28910 15160
" />
<path d="M26977 15321
L27469 15321
" />
<path d="M26977 14829
L26977 15321
" />
</g>
<g style="fill:#000000; fill-opacity:0.0; 
stroke:#000000; stroke-width:78.7402; stroke-opacity:1; 
stroke-linecap:round; stroke-linejoin:round;">
<path d="M15091 22266
L15091 25298
" />
<path d="M21036 22266
L15091 22266
" />
<path d="M21036 25298
L21036 22266
" />
<path d="M15091 25298
L21036 25298
" />
</g>
<g style="fill:#000000; fill-opacity:0.0; 
stroke:#000000; stroke-width:39.3701; stroke-opacity:1; 
stroke-linecap:round; stroke-linejoin:round;">
<path d="M12571 6016
L12571 7276
" />
<path d="M11941 6016
L12571 6016
" />
<path d="M11941 7276
L11941 6016
" />
<path d="M12571 7276
L11941 7276
" />
<path d="M12571 8634
L12571 9894
" />
<path d="M11941 8634
L12571 8634
" />
<path d="M11941 9894
L11941 8634
" />
<path d="M12571 9894
L11941 9894
" />
<path d="M10130 14117
L8870 14117
" />
<path d="M10130 13487
L10130 14117
" />
<path d="M8870 13487
L10130 13487
" />
<path d="M8870 14117
L8870 13487
" />
<path d="M23989 7453
L23989 8713
" />
<path d="M23359 7453
L23989 7453
" />
<path d="M23359 8713
L23359 7453
" />
<path d="M23989 8713
L23359 8713
" />
<g >
</g>
<g >
</g>
<g >
</g>
<g >
</g>
<g >
</g>
<g >
</g>
<g >
</g>
<g >
</g>
<g >
</g>
<g >
</g>
<g >
</g>
<g >
</g>
<g >
</g>
<g >
</g>
<g >
</g>
<g >
</g>
<g >
</g>
<g >
</g>
<g >
</g>
<g >
</g>
<g >
</g>
<g >
</g>
<g >
</g>
<g >
</g>
</g>
<g style="fill:#000000; fill-opacity:0.0; 
stroke:#000000; stroke-width:39.3701; stroke-opacity:1; 
stroke-linecap:round; stroke-linejoin:round;">
</g>
<g style="fill:#000000; fill-opacity:0.0; 
stroke:#000000; stroke-width:59.0551; stroke-opacity:1; 
stroke-linecap:round; stroke-linejoin:round;">
<text x="30957.5" y="25691.9"
textLength="7444.6" font-size="524.934" lengthAdjust="spacingAndGlyphs"
text-anchor="middle" opacity="0">MountingHole_3.2mm_M3</text>
<path d="M27367 25673
L27367 25279
L27498 25560
L27629 25279
L27629 25673
" />
<path d="M27873 25673
L27836 25654
L27817 25635
L27798 25598
L27798 25485
L27817 25448
L27836 25429
L27873 25410
L27929 25410
L27967 25429
L27986 25448
L28004 25485
L28004 25598
L27986 25635
L27967 25654
L27929 25673
L27873 25673
" />
<path d="M28342 25410
L28342 25673
" />
<path d="M28173 25410
L28173 25616
L28192 25654
L28229 25673
L28285 25673
L28323 25654
L28342 25635
" />
<path d="M28529 25410
L28529 25673
" />
<path d="M28529 25448
L28548 25429
L28585 25410
L28642 25410
L28679 25429
L28698 25466
L28698 25673
" />
<path d="M28829 25410
L28979 25410
" />
<path d="M28885 25279
L28885 25616
L28904 25654
L28942 25673
L28979 25673
" />
<path d="M29110 25673
L29110 25410
" />
<path d="M29110 25279
L29092 25298
L29110 25316
L29129 25298
L29110 25279
L29110 25316
" />
<path d="M29298 25410
L29298 25673
" />
<path d="M29298 25448
L29317 25429
L29354 25410
L29410 25410
L29448 25429
L29467 25466
L29467 25673
" />
<path d="M29823 25410
L29823 25729
L29804 25766
L29785 25785
L29748 25804
L29692 25804
L29654 25785
" />
<path d="M29823 25654
L29785 25673
L29710 25673
L29673 25654
L29654 25635
L29635 25598
L29635 25485
L29654 25448
L29673 25429
L29710 25410
L29785 25410
L29823 25429
" />
<path d="M30010 25673
L30010 25279
" />
<path d="M30010 25466
L30235 25466
" />
<path d="M30235 25673
L30235 25279
" />
<path d="M30479 25673
L30441 25654
L30423 25635
L30404 25598
L30404 25485
L30423 25448
L30441 25429
L30479 25410
L30535 25410
L30573 25429
L30591 25448
L30610 25485
L30610 25598
L30591 25635
L30573 25654
L30535 25673
L30479 25673
" />
<path d="M30835 25673
L30798 25654
L30779 25616
L30779 25279
" />
<path d="M31135 25654
L31098 25673
L31023 25673
L30985 25654
L30966 25616
L30966 25466
L30985 25429
L31023 25410
L31098 25410
L31135 25429
L31154 25466
L31154 25504
L30966 25541
" />
<path d="M31229 25710
L31529 25710
" />
<path d="M31585 25279
L31829 25279
L31698 25429
L31754 25429
L31791 25448
L31810 25466
L31829 25504
L31829 25598
L31810 25635
L31791 25654
L31754 25673
L31641 25673
L31604 25654
L31585 25635
" />
<path d="M31998 25635
L32016 25654
L31998 25673
L31979 25654
L31998 25635
L31998 25673
" />
<path d="M32166 25316
L32185 25298
L32223 25279
L32316 25279
L32354 25298
L32372 25316
L32391 25354
L32391 25391
L32372 25448
L32148 25673
L32391 25673
" />
<path d="M32560 25673
L32560 25410
" />
<path d="M32560 25448
L32579 25429
L32616 25410
L32672 25410
L32710 25429
L32729 25466
L32729 25673
" />
<path d="M32729 25466
L32747 25429
L32785 25410
L32841 25410
L32879 25429
L32897 25466
L32897 25673
" />
<path d="M33085 25673
L33085 25410
" />
<path d="M33085 25448
L33104 25429
L33141 25410
L33197 25410
L33235 25429
L33254 25466
L33254 25673
" />
<path d="M33254 25466
L33272 25429
L33310 25410
L33366 25410
L33404 25429
L33422 25466
L33422 25673
" />
<path d="M33516 25710
L33816 25710
" />
<path d="M33910 25673
L33910 25279
L34041 25560
L34172 25279
L34172 25673
" />
<path d="M34322 25279
L34566 25279
L34435 25429
L34491 25429
L34528 25448
L34547 25466
L34566 25504
L34566 25598
L34547 25635
L34528 25654
L34491 25673
L34378 25673
L34341 25654
L34322 25635
" />
<text x="31075.6" y="24038.4"
textLength="1764.06" font-size="524.934" lengthAdjust="spacingAndGlyphs"
text-anchor="middle" opacity="0">REF**</text>
<path d="M30550 24019
L30419 23832
" />
<path d="M30325 24019
L30325 23625
L30475 23625
L30513 23644
L30531 23663
L30550 23700
L30550 23757
L30531 23794
L30513 23813
L30475 23832
L30325 23832
" />
<path d="M30719 23813
L30850 23813
" />
<path d="M30906 24019
L30719 24019
L30719 23625
L30906 23625
" />
<path d="M31206 23813
L31075 23813
" />
<path d="M31075 24019
L31075 23625
L31263 23625
" />
<path d="M31469 23625
L31469 23719
" />
<path d="M31375 23682
L31469 23719
L31563 23682
" />
<path d="M31413 23794
L31469 23719
L31525 23794
" />
<path d="M31769 23625
L31769 23719
" />
<path d="M31675 23682
L31769 23719
L31863 23682
" />
<path d="M31713 23794
L31769 23719
L31825 23794
" />
<text x="30957.5" y="5810.04"
textLength="7444.6" font-size="524.934" lengthAdjust="spacingAndGlyphs"
text-anchor="middle" opacity="0">MountingHole_3.2mm_M3</text>
<path d="M27367 5791
L27367 5397
L27498 5678
L27629 5397
L27629 5791
" />
<path d="M27873 5791
L27836 5772
L27817 5753
L27798 5716
L27798 5603
L27817 5566
L27836 5547
L27873 5528
L27929 5528
L27967 5547
L27986 5566
L28004 5603
L28004 5716
L27986 5753
L27967 5772
L27929 5791
L27873 5791
" />
<path d="M28342 5528
L28342 5791
" />
<path d="M28173 5528
L28173 5735
L28192 5772
L28229 5791
L28285 5791
L28323 5772
L28342 5753
" />
<path d="M28529 5528
L28529 5791
" />
<path d="M28529 5566
L28548 5547
L28585 5528
L28642 5528
L28679 5547
L28698 5585
L28698 5791
" />
<path d="M28829 5528
L28979 5528
" />
<path d="M28885 5397
L28885 5735
L28904 5772
L28942 5791
L28979 5791
" />
<path d="M29110 5791
L29110 5528
" />
<path d="M29110 5397
L29092 5416
L29110 5435
L29129 5416
L29110 5397
L29110 5435
" />
<path d="M29298 5528
L29298 5791
" />
<path d="M29298 5566
L29317 5547
L29354 5528
L29410 5528
L29448 5547
L29467 5585
L29467 5791
" />
<path d="M29823 5528
L29823 5847
L29804 5885
L29785 5903
L29748 5922
L29692 5922
L29654 5903
" />
<path d="M29823 5772
L29785 5791
L29710 5791
L29673 5772
L29654 5753
L29635 5716
L29635 5603
L29654 5566
L29673 5547
L29710 5528
L29785 5528
L29823 5547
" />
<path d="M30010 5791
L30010 5397
" />
<path d="M30010 5585
L30235 5585
" />
<path d="M30235 5791
L30235 5397
" />
<path d="M30479 5791
L30441 5772
L30423 5753
L30404 5716
L30404 5603
L30423 5566
L30441 5547
L30479 5528
L30535 5528
L30573 5547
L30591 5566
L30610 5603
L30610 5716
L30591 5753
L30573 5772
L30535 5791
L30479 5791
" />
<path d="M30835 5791
L30798 5772
L30779 5735
L30779 5397
" />
<path d="M31135 5772
L31098 5791
L31023 5791
L30985 5772
L30966 5735
L30966 5585
L30985 5547
L31023 5528
L31098 5528
L31135 5547
L31154 5585
L31154 5622
L30966 5660
" />
<path d="M31229 5828
L31529 5828
" />
<path d="M31585 5397
L31829 5397
L31698 5547
L31754 5547
L31791 5566
L31810 5585
L31829 5622
L31829 5716
L31810 5753
L31791 5772
L31754 5791
L31641 5791
L31604 5772
L31585 5753
" />
<path d="M31998 5753
L32016 5772
L31998 5791
L31979 5772
L31998 5753
L31998 5791
" />
<path d="M32166 5435
L32185 5416
L32223 5397
L32316 5397
L32354 5416
L32372 5435
L32391 5472
L32391 5510
L32372 5566
L32148 5791
L32391 5791
" />
<path d="M32560 5791
L32560 5528
" />
<path d="M32560 5566
L32579 5547
L32616 5528
L32672 5528
L32710 5547
L32729 5585
L32729 5791
" />
<path d="M32729 5585
L32747 5547
L32785 5528
L32841 5528
L32879 5547
L32897 5585
L32897 5791
" />
<path d="M33085 5791
L33085 5528
" />
<path d="M33085 5566
L33104 5547
L33141 5528
L33197 5528
L33235 5547
L33254 5585
L33254 5791
" />
<path d="M33254 5585
L33272 5547
L33310 5528
L33366 5528
L33404 5547
L33422 5585
L33422 5791
" />
<path d="M33516 5828
L33816 5828
" />
<path d="M33910 5791
L33910 5397
L34041 5678
L34172 5397
L34172 5791
" />
<path d="M34322 5397
L34566 5397
L34435 5547
L34491 5547
L34528 5566
L34547 5585
L34566 5622
L34566 5716
L34547 5753
L34528 5772
L34491 5791
L34378 5791
L34341 5772
L34322 5753
" />
<text x="31075.6" y="4156.5"
textLength="1764.06" font-size="524.934" lengthAdjust="spacingAndGlyphs"
text-anchor="middle" opacity="0">REF**</text>
<path d="M30550 4137
L30419 3950
" />
<path d="M30325 4137
L30325 3744
L30475 3744
L30513 3762
L30531 3781
L30550 3819
L30550 3875
L30531 3912
L30513 3931
L30475 3950
L30325 3950
" />
<path d="M30719 3931
L30850 3931
" />
<path d="M30906 4137
L30719 4137
L30719 3744
L30906 3744
" />
<path d="M31206 3931
L31075 3931
" />
<path d="M31075 4137
L31075 3744
L31263 3744
" />
<path d="M31469 3744
L31469 3837
" />
<path d="M31375 3800
L31469 3837
L31563 3800
" />
<path d="M31413 3912
L31469 3837
L31525 3912
" />
<path d="M31769 3744
L31769 3837
" />
<path d="M31675 3800
L31769 3837
L31863 3800
" />
<path d="M31713 3912
L31769 3837
L31825 3912
" />
<text x="4973.28" y="25691.9"
textLength="7444.6" font-size="524.934" lengthAdjust="spacingAndGlyphs"
text-anchor="middle" opacity="0">MountingHole_3.2mm_M3</text>
<path d="M1383 25673
L1383 25279
L1514 25560
L1645 25279
L1645 25673
" />
<path d="M1889 25673
L1851 25654
L1833 25635
L1814 25598
L1814 25485
L1833 25448
L1851 25429
L1889 25410
L1945 25410
L1983 25429
L2001 25448
L2020 25485
L2020 25598
L2001 25635
L1983 25654
L1945 25673
L1889 25673
" />
<path d="M2357 25410
L2357 25673
" />
<path d="M2189 25410
L2189 25616
L2208 25654
L2245 25673
L2301 25673
L2339 25654
L2357 25635
" />
<path d="M2545 25410
L2545 25673
" />
<path d="M2545 25448
L2564 25429
L2601 25410
L2657 25410
L2695 25429
L2714 25466
L2714 25673
" />
<path d="M2845 25410
L2995 25410
" />
<path d="M2901 25279
L2901 25616
L2920 25654
L2957 25673
L2995 25673
" />
<path d="M3126 25673
L3126 25410
" />
<path d="M3126 25279
L3107 25298
L3126 25316
L3145 25298
L3126 25279
L3126 25316
" />
<path d="M3314 25410
L3314 25673
" />
<path d="M3314 25448
L3332 25429
L3370 25410
L3426 25410
L3464 25429
L3482 25466
L3482 25673
" />
<path d="M3839 25410
L3839 25729
L3820 25766
L3801 25785
L3764 25804
L3707 25804
L3670 25785
" />
<path d="M3839 25654
L3801 25673
L3726 25673
L3689 25654
L3670 25635
L3651 25598
L3651 25485
L3670 25448
L3689 25429
L3726 25410
L3801 25410
L3839 25429
" />
<path d="M4026 25673
L4026 25279
" />
<path d="M4026 25466
L4251 25466
" />
<path d="M4251 25673
L4251 25279
" />
<path d="M4495 25673
L4457 25654
L4438 25635
L4420 25598
L4420 25485
L4438 25448
L4457 25429
L4495 25410
L4551 25410
L4588 25429
L4607 25448
L4626 25485
L4626 25598
L4607 25635
L4588 25654
L4551 25673
L4495 25673
" />
<path d="M4851 25673
L4813 25654
L4795 25616
L4795 25279
" />
<path d="M5151 25654
L5113 25673
L5038 25673
L5001 25654
L4982 25616
L4982 25466
L5001 25429
L5038 25410
L5113 25410
L5151 25429
L5170 25466
L5170 25504
L4982 25541
" />
<path d="M5245 25710
L5545 25710
" />
<path d="M5601 25279
L5845 25279
L5713 25429
L5770 25429
L5807 25448
L5826 25466
L5845 25504
L5845 25598
L5826 25635
L5807 25654
L5770 25673
L5657 25673
L5620 25654
L5601 25635
" />
<path d="M6013 25635
L6032 25654
L6013 25673
L5995 25654
L6013 25635
L6013 25673
" />
<path d="M6182 25316
L6201 25298
L6238 25279
L6332 25279
L6369 25298
L6388 25316
L6407 25354
L6407 25391
L6388 25448
L6163 25673
L6407 25673
" />
<path d="M6576 25673
L6576 25410
" />
<path d="M6576 25448
L6594 25429
L6632 25410
L6688 25410
L6726 25429
L6744 25466
L6744 25673
" />
<path d="M6744 25466
L6763 25429
L6801 25410
L6857 25410
L6894 25429
L6913 25466
L6913 25673
" />
<path d="M7101 25673
L7101 25410
" />
<path d="M7101 25448
L7119 25429
L7157 25410
L7213 25410
L7251 25429
L7269 25466
L7269 25673
" />
<path d="M7269 25466
L7288 25429
L7326 25410
L7382 25410
L7419 25429
L7438 25466
L7438 25673
" />
<path d="M7532 25710
L7832 25710
" />
<path d="M7926 25673
L7926 25279
L8057 25560
L8188 25279
L8188 25673
" />
<path d="M8338 25279
L8582 25279
L8450 25429
L8507 25429
L8544 25448
L8563 25466
L8582 25504
L8582 25598
L8563 25635
L8544 25654
L8507 25673
L8394 25673
L8357 25654
L8338 25635
" />
<text x="5091.39" y="24038.4"
textLength="1764.06" font-size="524.934" lengthAdjust="spacingAndGlyphs"
text-anchor="middle" opacity="0">REF**</text>
<path d="M4566 24019
L4435 23832
" />
<path d="M4341 24019
L4341 23625
L4491 23625
L4528 23644
L4547 23663
L4566 23700
L4566 23757
L4547 23794
L4528 23813
L4491 23832
L4341 23832
" />
<path d="M4735 23813
L4866 23813
" />
<path d="M4922 24019
L4735 24019
L4735 23625
L4922 23625
" />
<path d="M5222 23813
L5091 23813
" />
<path d="M5091 24019
L5091 23625
L5278 23625
" />
<path d="M5485 23625
L5485 23719
" />
<path d="M5391 23682
L5485 23719
L5578 23682
" />
<path d="M5428 23794
L5485 23719
L5541 23794
" />
<path d="M5785 23625
L5785 23719
" />
<path d="M5691 23682
L5785 23719
L5878 23682
" />
<path d="M5728 23794
L5785 23719
L5841 23794
" />
<text x="4973.28" y="5810.04"
textLength="7444.6" font-size="524.934" lengthAdjust="spacingAndGlyphs"
text-anchor="middle" opacity="0">MountingHole_3.2mm_M3</text>
<path d="M1383 5791
L1383 5397
L1514 5678
L1645 5397
L1645 5791
" />
<path d="M1889 5791
L1851 5772
L1833 5753
L1814 5716
L1814 5603
L1833 5566
L1851 5547
L1889 5528
L1945 5528
L1983 5547
L2001 5566
L2020 5603
L2020 5716
L2001 5753
L1983 5772
L1945 5791
L1889 5791
" />
<path d="M2357 5528
L2357 5791
" />
<path d="M2189 5528
L2189 5735
L2208 5772
L2245 5791
L2301 5791
L2339 5772
L2357 5753
" />
<path d="M2545 5528
L2545 5791
" />
<path d="M2545 5566
L2564 5547
L2601 5528
L2657 5528
L2695 5547
L2714 5585
L2714 5791
" />
<path d="M2845 5528
L2995 5528
" />
<path d="M2901 5397
L2901 5735
L2920 5772
L2957 5791
L2995 5791
" />
<path d="M3126 5791
L3126 5528
" />
<path d="M3126 5397
L3107 5416
L3126 5435
L3145 5416
L3126 5397
L3126 5435
" />
<path d="M3314 5528
L3314 5791
" />
<path d="M3314 5566
L3332 5547
L3370 5528
L3426 5528
L3464 5547
L3482 5585
L3482 5791
" />
<path d="M3839 5528
L3839 5847
L3820 5885
L3801 5903
L3764 5922
L3707 5922
L3670 5903
" />
<path d="M3839 5772
L3801 5791
L3726 5791
L3689 5772
L3670 5753
L3651 5716
L3651 5603
L3670 5566
L3689 5547
L3726 5528
L3801 5528
L3839 5547
" />
<path d="M4026 5791
L4026 5397
" />
<path d="M4026 5585
L4251 5585
" />
<path d="M4251 5791
L4251 5397
" />
<path d="M4495 5791
L4457 5772
L4438 5753
L4420 5716
L4420 5603
L4438 5566
L4457 5547
L4495 5528
L4551 5528
L4588 5547
L4607 5566
L4626 5603
L4626 5716
L4607 5753
L4588 5772
L4551 5791
L4495 5791
" />
<path d="M4851 5791
L4813 5772
L4795 5735
L4795 5397
" />
<path d="M5151 5772
L5113 5791
L5038 5791
L5001 5772
L4982 5735
L4982 5585
L5001 5547
L5038 5528
L5113 5528
L5151 5547
L5170 5585
L5170 5622
L4982 5660
" />
<path d="M5245 5828
L5545 5828
" />
<path d="M5601 5397
L5845 5397
L5713 5547
L5770 5547
L5807 5566
L5826 5585
L5845 5622
L5845 5716
L5826 5753
L5807 5772
L5770 5791
L5657 5791
L5620 5772
L5601 5753
" />
<path d="M6013 5753
L6032 5772
L6013 5791
L5995 5772
L6013 5753
L6013 5791
" />
<path d="M6182 5435
L6201 5416
L6238 5397
L6332 5397
L6369 5416
L6388 5435
L6407 5472
L6407 5510
L6388 5566
L6163 5791
L6407 5791
" />
<path d="M6576 5791
L6576 5528
" />
<path d="M6576 5566
L6594 5547
L6632 5528
L6688 5528
L6726 5547
L6744 5585
L6744 5791
" />
<path d="M6744 5585
L6763 5547
L6801 5528
L6857 5528
L6894 5547
L6913 5585
L6913 5791
" />
<path d="M7101 5791
L7101 5528
" />
<path d="M7101 5566
L7119 5547
L7157 5528
L7213 5528
L7251 5547
L7269 5585
L7269 5791
" />
<path d="M7269 5585
L7288 5547
L7326 5528
L7382 5528
L7419 5547
L7438 5585
L7438 5791
" />
<path d="M7532 5828
L7832 5828
" />
<path d="M7926 5791
L7926 5397
L8057 5678
L8188 5397
L8188 5791
" />
<path d="M8338 5397
L8582 5397
L8450 5547
L8507 5547
L8544 5566
L8563 5585
L8582 5622
L8582 5716
L8563 5753
L8544 5772
L8507 5791
L8394 5791
L8357 5772
L8338 5753
" />
<text x="5091.39" y="4156.5"
textLength="1764.06" font-size="524.934" lengthAdjust="spacingAndGlyphs"
text-anchor="middle" opacity="0">REF**</text>
<path d="M4566 4137
L4435 3950
" />
<path d="M4341 4137
L4341 3744
L4491 3744
L4528 3762
L4547 3781
L4566 3819
L4566 3875
L4547 3912
L4528 3931
L4491 3950
L4341 3950
" />
<path d="M4735 3931
L4866 3931
" />
<path d="M4922 4137
L4735 4137
L4735 3744
L4922 3744
" />
<path d="M5222 3931
L5091 3931
" />
<path d="M5091 4137
L5091 3744
L5278 3744
" />
<path d="M5485 3744
L5485 3837
" />
<path d="M5391 3800
L5485 3837
L5578 3800
" />
<path d="M5428 3912
L5485 3837
L5541 3912
" />
<path d="M5785 3744
L5785 3837
" />
<path d="M5691 3800
L5785 3837
L5878 3800
" />
<path d="M5728 3912
L5785 3837
L5841 3912
" />
<text x="18359.1" y="13408.5"
textLength="5794.81" font-size="524.934" lengthAdjust="spacingAndGlyphs"
text-anchor="middle" opacity="0">ESP32-WROOM-32</text>
<path d="M15593 13183
L15725 13183
" />
<path d="M15781 13389
L15593 13389
L15593 12996
L15781 12996
" />
<path d="M15931 13370
L15987 13389
L16081 13389
L16118 13370
L16137 13352
L16156 13314
L16156 13277
L16137 13239
L16118 13220
L16081 13202
L16006 13183
L15968 13164
L15950 13145
L15931 13108
L15931 13071
L15950 13033
L15968 13014
L16006 12996
L16100 12996
L16156 13014
" />
<path d="M16324 13389
L16324 12996
L16474 12996
L16512 13014
L16531 13033
L16549 13071
L16549 13127
L16531 13164
L16512 13183
L16474 13202
L16324 13202
" />
<path d="M16681 12996
L16924 12996
L16793 13145
L16849 13145
L16887 13164
L16906 13183
L16924 13220
L16924 13314
L16906 13352
L16887 13370
L16849 13389
L16737 13389
L16699 13370
L16681 13352
" />
<path d="M17074 13033
L17093 13014
L17131 12996
L17224 12996
L17262 13014
L17281 13033
L17299 13071
L17299 13108
L17281 13164
L17056 13389
L17299 13389
" />
<path d="M17468 13239
L17768 13239
" />
<path d="M17918 12996
L18012 13389
L18087 13108
L18162 13389
L18255 12996
" />
<path d="M18630 13389
L18499 13202
" />
<path d="M18405 13389
L18405 12996
L18555 12996
L18593 13014
L18612 13033
L18630 13071
L18630 13127
L18612 13164
L18593 13183
L18555 13202
L18405 13202
" />
<path d="M18874 12996
L18949 12996
L18987 13014
L19024 13052
L19043 13127
L19043 13258
L19024 13333
L18987 13370
L18949 13389
L18874 13389
L18837 13370
L18799 13333
L18780 13258
L18780 13127
L18799 13052
L18837 13014
L18874 12996
" />
<path d="M19287 12996
L19362 12996
L19399 13014
L19437 13052
L19455 13127
L19455 13258
L19437 13333
L19399 13370
L19362 13389
L19287 13389
L19249 13370
L19212 13333
L19193 13258
L19193 13127
L19212 13052
L19249 13014
L19287 12996
" />
<path d="M19624 13389
L19624 12996
L19755 13277
L19887 12996
L19887 13389
" />
<path d="M20074 13239
L20374 13239
" />
<path d="M20524 12996
L20768 12996
L20636 13145
L20693 13145
L20730 13164
L20749 13183
L20768 13220
L20768 13314
L20749 13352
L20730 13370
L20693 13389
L20580 13389
L20543 13370
L20524 13352
" />
<path d="M20918 13033
L20936 13014
L20974 12996
L21068 12996
L21105 13014
L21124 13033
L21143 13071
L21143 13108
L21124 13164
L20899 13389
L21143 13389
" />
<text x="18359.1" y="8880.91"
textLength="864.173" font-size="524.934" lengthAdjust="spacingAndGlyphs"
text-anchor="middle" opacity="0">U3</text>
<path d="M18059 8468
L18059 8787
L18077 8824
L18096 8843
L18134 8862
L18209 8862
L18246 8843
L18265 8824
L18284 8787
L18284 8468
" />
<path d="M18434 8468
L18677 8468
L18546 8618
L18602 8618
L18640 8637
L18659 8655
L18677 8693
L18677 8787
L18659 8824
L18640 8843
L18602 8862
L18490 8862
L18452 8843
L18434 8824
" />
<text x="26552" y="20853.3"
textLength="1614.08" font-size="524.934" lengthAdjust="spacingAndGlyphs"
text-anchor="middle" opacity="0">4N25</text>
<path d="M26045 20572
L26045 20834
" />
<path d="M25952 20422
L25858 20703
L26102 20703
" />
<path d="M26252 20834
L26252 20440
L26477 20834
L26477 20440
" />
<path d="M26645 20478
L26664 20459
L26702 20440
L26795 20440
L26833 20459
L26851 20478
L26870 20515
L26870 20553
L26851 20609
L26627 20834
L26870 20834
" />
<path d="M27226 20440
L27039 20440
L27020 20628
L27039 20609
L27076 20590
L27170 20590
L27208 20609
L27226 20628
L27245 20665
L27245 20759
L27226 20797
L27208 20815
L27170 20834
L27076 20834
L27039 20815
L27020 20797
" />
<text x="26552" y="18936"
textLength="864.173" font-size="524.934" lengthAdjust="spacingAndGlyphs"
text-anchor="middle" opacity="0">U2</text>
<path d="M26252 18523
L26252 18842
L26270 18879
L26289 18898
L26327 18917
L26402 18917
L26439 18898
L26458 18879
L26477 18842
L26477 18523
" />
<path d="M26645 18561
L26664 18542
L26702 18523
L26795 18523
L26833 18542
L26851 18561
L26870 18598
L26870 18636
L26851 18692
L26627 18917
L26870 18917
" />
<g transform="rotate(-90 22733.1 17814)">
<text x="22733.1" y="18010.8"
textLength="1576.58" font-size="524.934" lengthAdjust="spacingAndGlyphs"
text-anchor="middle" opacity="0">4020</text>
</g>
<path d="M22648 18301
L22911 18301
" />
<path d="M22498 18395
L22779 18488
L22779 18245
" />
<path d="M22517 18020
L22517 17982
L22536 17945
L22555 17926
L22592 17907
L22667 17888
L22761 17888
L22836 17907
L22873 17926
L22892 17945
L22911 17982
L22911 18020
L22892 18057
L22873 18076
L22836 18095
L22761 18113
L22667 18113
L22592 18095
L22555 18076
L22536 18057
L22517 18020
" />
<path d="M22555 17738
L22536 17720
L22517 17682
L22517 17589
L22536 17551
L22555 17532
L22592 17514
L22630 17514
L22686 17532
L22911 17757
L22911 17514
" />
<path d="M22517 17270
L22517 17232
L22536 17195
L22555 17176
L22592 17157
L22667 17139
L22761 17139
L22836 17157
L22873 17176
L22892 17195
L22911 17232
L22911 17270
L22892 17307
L22873 17326
L22836 17345
L22761 17364
L22667 17364
L22592 17345
L22555 17326
L22536 17307
L22517 17270
" />
<g transform="rotate(-90 18315.8 17814)">
<text x="18315.8" y="18010.8"
textLength="864.173" font-size="524.934" lengthAdjust="spacingAndGlyphs"
text-anchor="middle" opacity="0">U1</text>
</g>
<path d="M18100 18113
L18418 18113
L18456 18095
L18475 18076
L18493 18038
L18493 17963
L18475 17926
L18456 17907
L18418 17888
L18100 17888
" />
<path d="M18493 17495
L18493 17720
" />
<path d="M18493 17607
L18100 17607
L18156 17645
L18193 17682
L18212 17720
" />
<g transform="rotate(-90 11134.7 18723.4)">
<text x="11134.7" y="18920.3"
textLength="1857.8" font-size="524.934" lengthAdjust="spacingAndGlyphs"
text-anchor="middle" opacity="0">RESET</text>
</g>
<path d="M11312 19295
L11125 19426
" />
<path d="M11312 19520
L10919 19520
L10919 19370
L10937 19332
L10956 19313
L10994 19295
L11050 19295
L11087 19313
L11106 19332
L11125 19370
L11125 19520
" />
<path d="M11106 19126
L11106 18995
" />
<path d="M11312 18939
L11312 19126
L10919 19126
L10919 18939
" />
<path d="M11294 18789
L11312 18732
L11312 18639
L11294 18601
L11275 18582
L11237 18564
L11200 18564
L11162 18582
L11144 18601
L11125 18639
L11106 18714
L11087 18751
L11069 18770
L11031 18789
L10994 18789
L10956 18770
L10937 18751
L10919 18714
L10919 18620
L10937 18564
" />
<path d="M11106 18395
L11106 18264
" />
<path d="M11312 18207
L11312 18395
L10919 18395
L10919 18207
" />
<path d="M10919 18095
L10919 17870
" />
<path d="M11312 17982
L10919 17982
" />
<g transform="rotate(-90 7906.36 18723.4)">
<text x="7906.36" y="18920.3"
textLength="1276.62" font-size="524.934" lengthAdjust="spacingAndGlyphs"
text-anchor="middle" opacity="0">SW3</text>
</g>
<path d="M8065 19248
L8084 19192
L8084 19098
L8065 19060
L8046 19042
L8009 19023
L7971 19023
L7934 19042
L7915 19060
L7896 19098
L7878 19173
L7859 19210
L7840 19229
L7803 19248
L7765 19248
L7728 19229
L7709 19210
L7690 19173
L7690 19079
L7709 19023
" />
<path d="M7690 18892
L8084 18798
L7803 18723
L8084 18648
L7690 18554
" />
<path d="M7690 18442
L7690 18198
L7840 18329
L7840 18273
L7859 18235
L7878 18217
L7915 18198
L8009 18198
L8046 18217
L8065 18235
L8084 18273
L8084 18385
L8065 18423
L8046 18442
" />
<text x="27217.4" y="9924.21"
textLength="1595.33" font-size="524.934" lengthAdjust="spacingAndGlyphs"
text-anchor="middle" opacity="0">BOOT</text>
<path d="M26683 9699
L26739 9717
L26758 9736
L26776 9774
L26776 9830
L26758 9867
L26739 9886
L26701 9905
L26551 9905
L26551 9511
L26683 9511
L26720 9530
L26739 9549
L26758 9586
L26758 9624
L26739 9661
L26720 9680
L26683 9699
L26551 9699
" />
<path d="M27020 9511
L27095 9511
L27133 9530
L27170 9568
L27189 9642
L27189 9774
L27170 9849
L27133 9886
L27095 9905
L27020 9905
L26983 9886
L26945 9849
L26926 9774
L26926 9642
L26945 9568
L26983 9530
L27020 9511
" />
<path d="M27432 9511
L27507 9511
L27545 9530
L27582 9568
L27601 9642
L27601 9774
L27582 9849
L27545 9886
L27507 9905
L27432 9905
L27395 9886
L27357 9849
L27339 9774
L27339 9642
L27357 9568
L27395 9530
L27432 9511
" />
<path d="M27714 9511
L27939 9511
" />
<path d="M27826 9905
L27826 9511
" />
<text x="27217.4" y="6695.87"
textLength="1276.62" font-size="524.934" lengthAdjust="spacingAndGlyphs"
text-anchor="middle" opacity="0">SW2</text>
<path d="M26692 6658
L26748 6677
L26842 6677
L26879 6658
L26898 6639
L26917 6602
L26917 6564
L26898 6527
L26879 6508
L26842 6489
L26767 6470
L26729 6452
L26711 6433
L26692 6395
L26692 6358
L26711 6320
L26729 6302
L26767 6283
L26861 6283
L26917 6302
" />
<path d="M27048 6283
L27142 6677
L27217 6395
L27292 6677
L27386 6283
" />
<path d="M27517 6320
L27536 6302
L27573 6283
L27667 6283
L27704 6302
L27723 6320
L27742 6358
L27742 6395
L27723 6452
L27498 6677
L27742 6677
" />
<text x="9382.73" y="27660.4"
textLength="2663.95" font-size="524.934" lengthAdjust="spacingAndGlyphs"
text-anchor="middle" opacity="0">SW_SPDT</text>
<path d="M8164 27622
L8220 27641
L8314 27641
L8351 27622
L8370 27604
L8389 27566
L8389 27529
L8370 27491
L8351 27472
L8314 27454
L8239 27435
L8201 27416
L8182 27397
L8164 27360
L8164 27322
L8182 27285
L8201 27266
L8239 27247
L8332 27247
L8389 27266
" />
<path d="M8520 27247
L8614 27641
L8689 27360
L8764 27641
L8857 27247
" />
<path d="M8914 27679
L9214 27679
" />
<path d="M9288 27622
L9345 27641
L9438 27641
L9476 27622
L9495 27604
L9513 27566
L9513 27529
L9495 27491
L9476 27472
L9438 27454
L9363 27435
L9326 27416
L9307 27397
L9288 27360
L9288 27322
L9307 27285
L9326 27266
L9363 27247
L9457 27247
L9513 27266
" />
<path d="M9682 27641
L9682 27247
L9832 27247
L9870 27266
L9888 27285
L9907 27322
L9907 27379
L9888 27416
L9870 27435
L9832 27454
L9682 27454
" />
<path d="M10076 27641
L10076 27247
L10170 27247
L10226 27266
L10263 27304
L10282 27341
L10301 27416
L10301 27472
L10282 27547
L10263 27585
L10226 27622
L10170 27641
L10076 27641
" />
<path d="M10413 27247
L10638 27247
" />
<path d="M10526 27641
L10526 27247
" />
</g>
<g style="fill:#000000; fill-opacity:0.0; 
stroke:#000000; stroke-width:39.3701; stroke-opacity:1; 
stroke-linecap:round; stroke-linejoin:round;">
<text x="9618.95" y="25199.8"
textLength="676.697" font-size="262.467" lengthAdjust="spacingAndGlyphs"
text-anchor="middle" opacity="0">SW1</text>
<path d="M9356 25181
L9384 25190
L9431 25190
L9450 25181
L9459 25171
L9468 25152
L9468 25134
L9459 25115
L9450 25106
L9431 25096
L9393 25087
L9375 25077
L9365 25068
L9356 25049
L9356 25031
L9365 25012
L9375 25002
L9393 24993
L9440 24993
L9468 25002
" />
<path d="M9534 24993
L9581 25190
L9618 25049
L9656 25190
L9703 24993
" />
<path d="M9881 25190
L9768 25190
" />
<path d="M9825 25190
L9825 24993
L9806 25021
L9787 25040
L9768 25049
" />
</g>
<g style="fill:#000000; fill-opacity:0.0; 
stroke:#000000; stroke-width:59.0551; stroke-opacity:1; 
stroke-linecap:round; stroke-linejoin:round;">
<text x="9500.84" y="16487.2"
textLength="1513.5" font-size="524.934" lengthAdjust="spacingAndGlyphs"
text-anchor="middle" opacity="0">10kR</text>
<path d="M9069 16468
L8844 16468
" />
<path d="M8957 16468
L8957 16074
L8919 16130
L8882 16168
L8844 16187
" />
<path d="M9313 16074
L9350 16074
L9388 16093
L9407 16112
L9425 16149
L9444 16224
L9444 16318
L9425 16393
L9407 16430
L9388 16449
L9350 16468
L9313 16468
L9275 16449
L9257 16430
L9238 16393
L9219 16318
L9219 16224
L9238 16149
L9257 16112
L9275 16093
L9313 16074
" />
<path d="M9613 16468
L9613 16074
" />
<path d="M9650 16318
L9763 16468
" />
<path d="M9763 16205
L9613 16355
" />
<path d="M10157 16468
L10025 16280
" />
<path d="M9932 16468
L9932 16074
L10082 16074
L10119 16093
L10138 16112
L10157 16149
L10157 16205
L10138 16243
L10119 16262
L10082 16280
L9932 16280
" />
</g>
<g style="fill:#000000; fill-opacity:0.0; 
stroke:#000000; stroke-width:47.2441; stroke-opacity:1; 
stroke-linecap:round; stroke-linejoin:round;">
<text x="9500.84" y="15731.3"
textLength="691.695" font-size="419.947" lengthAdjust="spacingAndGlyphs"
text-anchor="middle" opacity="0">R3</text>
<path d="M9448 15716
L9343 15566
" />
<path d="M9268 15716
L9268 15401
L9388 15401
L9418 15416
L9433 15431
L9448 15461
L9448 15506
L9433 15536
L9418 15551
L9388 15566
L9268 15566
" />
<path d="M9553 15401
L9748 15401
L9643 15521
L9688 15521
L9718 15536
L9733 15551
L9748 15581
L9748 15656
L9733 15686
L9718 15701
L9688 15716
L9598 15716
L9568 15701
L9553 15686
" />
</g>
<g style="fill:#000000; fill-opacity:0.0; 
stroke:#000000; stroke-width:59.0551; stroke-opacity:1; 
stroke-linecap:round; stroke-linejoin:round;">
<g transform="rotate(-90 26949.7 21887.8)">
<text x="26949.7" y="22084.6"
textLength="1186.28" font-size="524.934" lengthAdjust="spacingAndGlyphs"
text-anchor="middle" opacity="0">620</text>
</g>
<path d="M26734 22187
L26734 22262
L26752 22300
L26771 22318
L26827 22356
L26902 22375
L27052 22375
L27090 22356
L27109 22337
L27127 22300
L27127 22225
L27109 22187
L27090 22169
L27052 22150
L26959 22150
L26921 22169
L26902 22187
L26884 22225
L26884 22300
L26902 22337
L26921 22356
L26959 22375
" />
<path d="M26771 22000
L26752 21981
L26734 21944
L26734 21850
L26752 21812
L26771 21794
L26809 21775
L26846 21775
L26902 21794
L27127 22019
L27127 21775
" />
<path d="M26734 21531
L26734 21494
L26752 21456
L26771 21437
L26809 21419
L26884 21400
L26977 21400
L27052 21419
L27090 21437
L27109 21456
L27127 21494
L27127 21531
L27109 21569
L27090 21587
L27052 21606
L26977 21625
L26884 21625
L26809 21606
L26771 21587
L26752 21569
L26734 21531
" />
</g>
<g style="fill:#000000; fill-opacity:0.0; 
stroke:#000000; stroke-width:47.2441; stroke-opacity:1; 
stroke-linecap:round; stroke-linejoin:round;">
<g transform="rotate(-90 26233.1 21887.8)">
<text x="26233.1" y="22045.3"
textLength="691.695" font-size="419.947" lengthAdjust="spacingAndGlyphs"
text-anchor="middle" opacity="0">R2</text>
</g>
<path d="M26375 21940
L26225 22045
" />
<path d="M26375 22120
L26060 22120
L26060 22000
L26075 21970
L26090 21955
L26120 21940
L26165 21940
L26195 21955
L26210 21970
L26225 22000
L26225 22120
" />
<path d="M26090 21820
L26075 21805
L26060 21775
L26060 21700
L26075 21670
L26090 21655
L26120 21640
L26150 21640
L26195 21655
L26375 21835
L26375 21640
" />
</g>
<g style="fill:#000000; fill-opacity:0.0; 
stroke:#000000; stroke-width:59.0551; stroke-opacity:1; 
stroke-linecap:round; stroke-linejoin:round;">
<text x="28019.5" y="22392.7"
textLength="1130.03" font-size="524.934" lengthAdjust="spacingAndGlyphs"
text-anchor="middle" opacity="0">10k</text>
<path d="M27785 22373
L27560 22373
" />
<path d="M27672 22373
L27672 21980
L27635 22036
L27597 22074
L27560 22092
" />
<path d="M28028 21980
L28066 21980
L28103 21999
L28122 22017
L28141 22055
L28160 22130
L28160 22223
L28141 22298
L28122 22336
L28103 22355
L28066 22373
L28028 22373
L27991 22355
L27972 22336
L27953 22298
L27935 22223
L27935 22130
L27953 22055
L27972 22017
L27991 21999
L28028 21980
" />
<path d="M28328 22373
L28328 21980
" />
<path d="M28366 22223
L28478 22373
" />
<path d="M28478 22111
L28328 22261
" />
</g>
<g style="fill:#000000; fill-opacity:0.0; 
stroke:#000000; stroke-width:47.2441; stroke-opacity:1; 
stroke-linecap:round; stroke-linejoin:round;">
<text x="28019.5" y="21636.8"
textLength="691.695" font-size="419.947" lengthAdjust="spacingAndGlyphs"
text-anchor="middle" opacity="0">R1</text>
<path d="M27967 21621
L27862 21471
" />
<path d="M27787 21621
L27787 21306
L27907 21306
L27937 21321
L27952 21336
L27967 21366
L27967 21411
L27952 21441
L27937 21456
L27907 21471
L27787 21471
" />
<path d="M28267 21621
L28087 21621
" />
<path d="M28177 21621
L28177 21306
L28147 21351
L28117 21381
L28087 21396
" />
</g>
<g style="fill:#000000; fill-opacity:0.0; 
stroke:#000000; stroke-width:59.0551; stroke-opacity:1; 
stroke-linecap:round; stroke-linejoin:round;">
<g transform="rotate(-90 29315.8 3853.35)">
<text x="29315.8" y="4050.2"
textLength="6716.84" font-size="524.934" lengthAdjust="spacingAndGlyphs"
text-anchor="middle" opacity="0">Conn_02x04_Odd_Even</text>
</g>
<path d="M29456 6862
L29475 6881
L29493 6937
L29493 6974
L29475 7031
L29437 7068
L29400 7087
L29325 7106
L29268 7106
L29193 7087
L29156 7068
L29118 7031
L29100 6974
L29100 6937
L29118 6881
L29137 6862
" />
<path d="M29493 6637
L29475 6674
L29456 6693
L29418 6712
L29306 6712
L29268 6693
L29250 6674
L29231 6637
L29231 6581
L29250 6543
L29268 6524
L29306 6506
L29418 6506
L29456 6524
L29475 6543
L29493 6581
L29493 6637
" />
<path d="M29231 6337
L29493 6337
" />
<path d="M29268 6337
L29250 6318
L29231 6281
L29231 6224
L29250 6187
L29287 6168
L29493 6168
" />
<path d="M29231 5981
L29493 5981
" />
<path d="M29268 5981
L29250 5962
L29231 5924
L29231 5868
L29250 5831
L29287 5812
L29493 5812
" />
<path d="M29531 5718
L29531 5418
" />
<path d="M29100 5250
L29100 5212
L29118 5175
L29137 5156
L29175 5137
L29250 5118
L29343 5118
L29418 5137
L29456 5156
L29475 5175
L29493 5212
L29493 5250
L29475 5287
L29456 5306
L29418 5325
L29343 5343
L29250 5343
L29175 5325
L29137 5306
L29118 5287
L29100 5250
" />
<path d="M29137 4968
L29118 4950
L29100 4912
L29100 4818
L29118 4781
L29137 4762
L29175 4743
L29212 4743
L29268 4762
L29493 4987
L29493 4743
" />
<path d="M29493 4612
L29231 4406
" />
<path d="M29231 4612
L29493 4406
" />
<path d="M29100 4181
L29100 4143
L29118 4106
L29137 4087
L29175 4068
L29250 4050
L29343 4050
L29418 4068
L29456 4087
L29475 4106
L29493 4143
L29493 4181
L29475 4218
L29456 4237
L29418 4256
L29343 4275
L29250 4275
L29175 4256
L29137 4237
L29118 4218
L29100 4181
" />
<path d="M29231 3712
L29493 3712
" />
<path d="M29081 3806
L29362 3900
L29362 3656
" />
<path d="M29531 3600
L29531 3300
" />
<path d="M29100 3131
L29100 3056
L29118 3019
L29156 2981
L29231 2962
L29362 2962
L29437 2981
L29475 3019
L29493 3056
L29493 3131
L29475 3169
L29437 3206
L29362 3225
L29231 3225
L29156 3206
L29118 3169
L29100 3131
" />
<path d="M29493 2625
L29100 2625
" />
<path d="M29475 2625
L29493 2662
L29493 2737
L29475 2775
L29456 2794
L29418 2812
L29306 2812
L29268 2794
L29250 2775
L29231 2737
L29231 2662
L29250 2625
" />
<path d="M29493 2269
L29100 2269
" />
<path d="M29475 2269
L29493 2306
L29493 2381
L29475 2419
L29456 2437
L29418 2456
L29306 2456
L29268 2437
L29250 2419
L29231 2381
L29231 2306
L29250 2269
" />
<path d="M29531 2175
L29531 1875
" />
<path d="M29287 1781
L29287 1650
" />
<path d="M29493 1594
L29493 1781
L29100 1781
L29100 1594
" />
<path d="M29231 1463
L29493 1369
L29231 1275
" />
<path d="M29475 975
L29493 1013
L29493 1088
L29475 1125
L29437 1144
L29287 1144
L29250 1125
L29231 1088
L29231 1013
L29250 975
L29287 956
L29325 956
L29362 1144
" />
<path d="M29231 788
L29493 788
" />
<path d="M29268 788
L29250 769
L29231 731
L29231 675
L29250 638
L29287 619
L29493 619
" />
<text x="26898.5" y="4050.2"
textLength="751.687" font-size="524.934" lengthAdjust="spacingAndGlyphs"
text-anchor="middle" opacity="0">J6</text>
<path d="M26767 3637
L26767 3918
L26748 3975
L26711 4012
L26654 4031
L26617 4031
" />
<path d="M27123 3637
L27048 3637
L27010 3656
L26992 3675
L26954 3731
L26935 3806
L26935 3956
L26954 3993
L26973 4012
L27010 4031
L27085 4031
L27123 4012
L27142 3993
L27160 3956
L27160 3862
L27142 3825
L27123 3806
L27085 3787
L27010 3787
L26973 3806
L26954 3825
L26935 3862
" />
<g transform="rotate(-90 29382.7 23447.8)">
<text x="29382.7" y="23644.7"
textLength="3657.57" font-size="524.934" lengthAdjust="spacingAndGlyphs"
text-anchor="middle" opacity="0">Anemometer</text>
</g>
<path d="M29448 25163
L29448 24975
" />
<path d="M29560 25200
L29167 25069
L29560 24938
" />
<path d="M29298 24807
L29560 24807
" />
<path d="M29335 24807
L29317 24788
L29298 24750
L29298 24694
L29317 24657
L29354 24638
L29560 24638
" />
<path d="M29542 24300
L29560 24338
L29560 24413
L29542 24450
L29504 24469
L29354 24469
L29317 24450
L29298 24413
L29298 24338
L29317 24300
L29354 24282
L29392 24282
L29429 24469
" />
<path d="M29560 24113
L29298 24113
" />
<path d="M29335 24113
L29317 24094
L29298 24057
L29298 24000
L29317 23963
L29354 23944
L29560 23944
" />
<path d="M29354 23944
L29317 23925
L29298 23888
L29298 23832
L29317 23794
L29354 23775
L29560 23775
" />
<path d="M29560 23532
L29542 23569
L29523 23588
L29485 23607
L29373 23607
L29335 23588
L29317 23569
L29298 23532
L29298 23475
L29317 23438
L29335 23419
L29373 23400
L29485 23400
L29523 23419
L29542 23438
L29560 23475
L29560 23532
" />
<path d="M29560 23232
L29298 23232
" />
<path d="M29335 23232
L29317 23213
L29298 23175
L29298 23119
L29317 23082
L29354 23063
L29560 23063
" />
<path d="M29354 23063
L29317 23044
L29298 23007
L29298 22951
L29317 22913
L29354 22894
L29560 22894
" />
<path d="M29542 22557
L29560 22594
L29560 22669
L29542 22707
L29504 22726
L29354 22726
L29317 22707
L29298 22669
L29298 22594
L29317 22557
L29354 22538
L29392 22538
L29429 22726
" />
<path d="M29298 22426
L29298 22276
" />
<path d="M29167 22369
L29504 22369
L29542 22351
L29560 22313
L29560 22276
" />
<path d="M29542 21994
L29560 22032
L29560 22107
L29542 22144
L29504 22163
L29354 22163
L29317 22144
L29298 22107
L29298 22032
L29317 21994
L29354 21976
L29392 21976
L29429 22163
" />
<path d="M29560 21807
L29298 21807
" />
<path d="M29373 21807
L29335 21788
L29317 21769
L29298 21732
L29298 21694
" />
<g transform="rotate(-90 28398.5 23447.8)">
<text x="28398.5" y="23644.7"
textLength="751.687" font-size="524.934" lengthAdjust="spacingAndGlyphs"
text-anchor="middle" opacity="0">J5</text>
</g>
<path d="M28182 23579
L28464 23579
L28520 23597
L28557 23635
L28576 23691
L28576 23729
" />
<path d="M28182 23204
L28182 23391
L28370 23410
L28351 23391
L28332 23354
L28332 23260
L28351 23222
L28370 23204
L28407 23185
L28501 23185
L28539 23204
L28557 23222
L28576 23260
L28576 23354
L28557 23391
L28539 23410
" />
<g transform="rotate(-90 9276.43 10062)">
<text x="9276.43" y="10258.9"
textLength="4313.74" font-size="524.934" lengthAdjust="spacingAndGlyphs"
text-anchor="middle" opacity="0">Battery Status</text>
</g>
<path d="M9248 11955
L9267 11899
L9285 11880
L9323 11861
L9379 11861
L9417 11880
L9435 11899
L9454 11936
L9454 12086
L9060 12086
L9060 11955
L9079 11918
L9098 11899
L9135 11880
L9173 11880
L9210 11899
L9229 11918
L9248 11955
L9248 12086
" />
<path d="M9454 11524
L9248 11524
L9210 11543
L9192 11580
L9192 11655
L9210 11693
" />
<path d="M9435 11524
L9454 11561
L9454 11655
L9435 11693
L9398 11711
L9360 11711
L9323 11693
L9304 11655
L9304 11561
L9285 11524
" />
<path d="M9192 11393
L9192 11243
" />
<path d="M9060 11336
L9398 11336
L9435 11318
L9454 11280
L9454 11243
" />
<path d="M9192 11168
L9192 11018
" />
<path d="M9060 11111
L9398 11111
L9435 11093
L9454 11055
L9454 11018
" />
<path d="M9435 10736
L9454 10774
L9454 10849
L9435 10886
L9398 10905
L9248 10905
L9210 10886
L9192 10849
L9192 10774
L9210 10736
L9248 10718
L9285 10718
L9323 10905
" />
<path d="M9454 10549
L9192 10549
" />
<path d="M9267 10549
L9229 10530
L9210 10511
L9192 10474
L9192 10436
" />
<path d="M9192 10343
L9454 10249
" />
<path d="M9192 10155
L9454 10249
L9548 10286
L9567 10305
L9585 10343
" />
<path d="M9435 9724
L9454 9668
L9454 9574
L9435 9537
L9417 9518
L9379 9499
L9342 9499
L9304 9518
L9285 9537
L9267 9574
L9248 9649
L9229 9687
L9210 9705
L9173 9724
L9135 9724
L9098 9705
L9079 9687
L9060 9649
L9060 9555
L9079 9499
" />
<path d="M9192 9387
L9192 9237
" />
<path d="M9060 9330
L9398 9330
L9435 9312
L9454 9274
L9454 9237
" />
<path d="M9454 8937
L9248 8937
L9210 8955
L9192 8993
L9192 9068
L9210 9105
" />
<path d="M9435 8937
L9454 8974
L9454 9068
L9435 9105
L9398 9124
L9360 9124
L9323 9105
L9304 9068
L9304 8974
L9285 8937
" />
<path d="M9192 8805
L9192 8655
" />
<path d="M9060 8749
L9398 8749
L9435 8730
L9454 8693
L9454 8655
" />
<path d="M9192 8355
L9454 8355
" />
<path d="M9192 8524
L9398 8524
L9435 8505
L9454 8468
L9454 8412
L9435 8374
L9417 8355
" />
<path d="M9435 8187
L9454 8149
L9454 8074
L9435 8037
L9398 8018
L9379 8018
L9342 8037
L9323 8074
L9323 8130
L9304 8168
L9267 8187
L9248 8187
L9210 8168
L9192 8130
L9192 8074
L9210 8037
" />
<text x="8359.11" y="10258.9"
textLength="751.687" font-size="524.934" lengthAdjust="spacingAndGlyphs"
text-anchor="middle" opacity="0">J4</text>
<path d="M8227 9846
L8227 10127
L8209 10183
L8171 10221
L8115 10240
L8077 10240
" />
<path d="M8584 9977
L8584 10240
" />
<path d="M8490 9827
L8396 10108
L8640 10108
" />
<g transform="rotate(-90 10091.4 7699.8)">
<text x="10091.4" y="7896.65"
textLength="5344.86" font-size="524.934" lengthAdjust="spacingAndGlyphs"
text-anchor="middle" opacity="0">Charge Controller</text>
</g>
<path d="M10232 10015
L10250 10033
L10269 10090
L10269 10127
L10250 10183
L10213 10221
L10175 10240
L10100 10258
L10044 10258
L9969 10240
L9932 10221
L9894 10183
L9875 10127
L9875 10090
L9894 10033
L9913 10015
" />
<path d="M10269 9846
L9875 9846
" />
<path d="M10269 9677
L10063 9677
L10025 9696
L10007 9733
L10007 9790
L10025 9827
L10044 9846
" />
<path d="M10269 9321
L10063 9321
L10025 9340
L10007 9377
L10007 9452
L10025 9490
" />
<path d="M10250 9321
L10269 9358
L10269 9452
L10250 9490
L10213 9508
L10175 9508
L10138 9490
L10119 9452
L10119 9358
L10100 9321
" />
<path d="M10269 9133
L10007 9133
" />
<path d="M10082 9133
L10044 9115
L10025 9096
L10007 9059
L10007 9021
" />
<path d="M10007 8721
L10325 8721
L10363 8740
L10381 8759
L10400 8796
L10400 8852
L10381 8890
" />
<path d="M10250 8721
L10269 8759
L10269 8834
L10250 8871
L10232 8890
L10194 8909
L10082 8909
L10044 8890
L10025 8871
L10007 8834
L10007 8759
L10025 8721
" />
<path d="M10250 8384
L10269 8421
L10269 8496
L10250 8534
L10213 8552
L10063 8552
L10025 8534
L10007 8496
L10007 8421
L10025 8384
L10063 8365
L10100 8365
L10138 8552
" />
<path d="M10232 7671
L10250 7690
L10269 7746
L10269 7784
L10250 7840
L10213 7877
L10175 7896
L10100 7915
L10044 7915
L9969 7896
L9932 7877
L9894 7840
L9875 7784
L9875 7746
L9894 7690
L9913 7671
" />
<path d="M10269 7446
L10250 7484
L10232 7502
L10194 7521
L10082 7521
L10044 7502
L10025 7484
L10007 7446
L10007 7390
L10025 7352
L10044 7334
L10082 7315
L10194 7315
L10232 7334
L10250 7352
L10269 7390
L10269 7446
" />
<path d="M10007 7146
L10269 7146
" />
<path d="M10044 7146
L10025 7127
L10007 7090
L10007 7034
L10025 6996
L10063 6978
L10269 6978
" />
<path d="M10007 6846
L10007 6696
" />
<path d="M9875 6790
L10213 6790
L10250 6771
L10269 6734
L10269 6696
" />
<path d="M10269 6565
L10007 6565
" />
<path d="M10082 6565
L10044 6546
L10025 6528
L10007 6490
L10007 6453
" />
<path d="M10269 6265
L10250 6303
L10232 6321
L10194 6340
L10082 6340
L10044 6321
L10025 6303
L10007 6265
L10007 6209
L10025 6171
L10044 6153
L10082 6134
L10194 6134
L10232 6153
L10250 6171
L10269 6209
L10269 6265
" />
<path d="M10269 5909
L10250 5946
L10213 5965
L9875 5965
" />
<path d="M10269 5703
L10250 5740
L10213 5759
L9875 5759
" />
<path d="M10250 5403
L10269 5440
L10269 5515
L10250 5553
L10213 5571
L10063 5571
L10025 5553
L10007 5515
L10007 5440
L10025 5403
L10063 5384
L10100 5384
L10138 5571
" />
<path d="M10269 5215
L10007 5215
" />
<path d="M10082 5215
L10044 5196
L10025 5178
L10007 5140
L10007 5103
" />
<g transform="rotate(-90 9107.14 7699.8)">
<text x="9107.14" y="7896.65"
textLength="751.687" font-size="524.934" lengthAdjust="spacingAndGlyphs"
text-anchor="middle" opacity="0">J3</text>
</g>
<path d="M8891 7831
L9172 7831
L9229 7849
L9266 7887
L9285 7943
L9285 7981
" />
<path d="M8891 7681
L8891 7437
L9041 7568
L9041 7512
L9060 7474
L9079 7456
L9116 7437
L9210 7437
L9247 7456
L9266 7474
L9285 7512
L9285 7624
L9266 7662
L9247 7681
" />
<g transform="rotate(-90 12213.4 3959.65)">
<text x="12213.4" y="4156.5"
textLength="4276.25" font-size="524.934" lengthAdjust="spacingAndGlyphs"
text-anchor="middle" opacity="0">BuckConverter</text>
</g>
<path d="M12185 5834
L12204 5778
L12222 5759
L12260 5740
L12316 5740
L12354 5759
L12372 5778
L12391 5815
L12391 5965
L11997 5965
L11997 5834
L12016 5796
L12035 5778
L12072 5759
L12110 5759
L12147 5778
L12166 5796
L12185 5834
L12185 5965
" />
<path d="M12129 5403
L12391 5403
" />
<path d="M12129 5571
L12335 5571
L12372 5553
L12391 5515
L12391 5459
L12372 5421
L12354 5403
" />
<path d="M12372 5047
L12391 5084
L12391 5159
L12372 5196
L12354 5215
L12316 5234
L12204 5234
L12166 5215
L12147 5196
L12129 5159
L12129 5084
L12147 5047
" />
<path d="M12391 4878
L11997 4878
" />
<path d="M12241 4840
L12391 4728
" />
<path d="M12129 4728
L12279 4878
" />
<path d="M12354 4334
L12372 4353
L12391 4409
L12391 4447
L12372 4503
L12335 4540
L12297 4559
L12222 4578
L12166 4578
L12091 4559
L12054 4540
L12016 4503
L11997 4447
L11997 4409
L12016 4353
L12035 4334
" />
<path d="M12391 4109
L12372 4147
L12354 4165
L12316 4184
L12204 4184
L12166 4165
L12147 4147
L12129 4109
L12129 4053
L12147 4015
L12166 3997
L12204 3978
L12316 3978
L12354 3997
L12372 4015
L12391 4053
L12391 4109
" />
<path d="M12129 3809
L12391 3809
" />
<path d="M12166 3809
L12147 3790
L12129 3753
L12129 3697
L12147 3659
L12185 3640
L12391 3640
" />
<path d="M12129 3490
L12391 3397
L12129 3303
" />
<path d="M12372 3003
L12391 3041
L12391 3116
L12372 3153
L12335 3172
L12185 3172
L12147 3153
L12129 3116
L12129 3041
L12147 3003
L12185 2984
L12222 2984
L12260 3172
" />
<path d="M12391 2816
L12129 2816
" />
<path d="M12204 2816
L12166 2797
L12147 2778
L12129 2741
L12129 2703
" />
<path d="M12129 2628
L12129 2478
" />
<path d="M11997 2572
L12335 2572
L12372 2553
L12391 2516
L12391 2478
" />
<path d="M12372 2197
L12391 2234
L12391 2309
L12372 2347
L12335 2366
L12185 2366
L12147 2347
L12129 2309
L12129 2234
L12147 2197
L12185 2178
L12222 2178
L12260 2366
" />
<path d="M12391 2009
L12129 2009
" />
<path d="M12204 2009
L12166 1991
L12147 1972
L12129 1934
L12129 1897
" />
<text x="9622.89" y="4156.5"
textLength="751.687" font-size="524.934" lengthAdjust="spacingAndGlyphs"
text-anchor="middle" opacity="0">J2</text>
<path d="M9491 3744
L9491 4025
L9472 4081
L9435 4119
L9379 4137
L9341 4137
" />
<path d="M9660 3781
L9679 3762
L9716 3744
L9810 3744
L9847 3762
L9866 3781
L9885 3819
L9885 3856
L9866 3912
L9641 4137
L9885 4137
" />
<g transform="rotate(-90 29382.7 13211.6)">
<text x="29382.7" y="13408.5"
textLength="4163.76" font-size="524.934" lengthAdjust="spacingAndGlyphs"
text-anchor="middle" opacity="0">Sound Sensor</text>
</g>
<path d="M29542 15180
L29560 15123
L29560 15030
L29542 14992
L29523 14973
L29485 14955
L29448 14955
L29410 14973
L29392 14992
L29373 15030
L29354 15105
L29335 15142
L29317 15161
L29279 15180
L29242 15180
L29204 15161
L29185 15142
L29167 15105
L29167 15011
L29185 14955
" />
<path d="M29560 14730
L29542 14767
L29523 14786
L29485 14805
L29373 14805
L29335 14786
L29317 14767
L29298 14730
L29298 14673
L29317 14636
L29335 14617
L29373 14598
L29485 14598
L29523 14617
L29542 14636
L29560 14673
L29560 14730
" />
<path d="M29298 14261
L29560 14261
" />
<path d="M29298 14430
L29504 14430
L29542 14411
L29560 14373
L29560 14317
L29542 14280
L29523 14261
" />
<path d="M29298 14074
L29560 14074
" />
<path d="M29335 14074
L29317 14055
L29298 14017
L29298 13961
L29317 13924
L29354 13905
L29560 13905
" />
<path d="M29560 13549
L29167 13549
" />
<path d="M29542 13549
L29560 13586
L29560 13661
L29542 13699
L29523 13717
L29485 13736
L29373 13736
L29335 13717
L29317 13699
L29298 13661
L29298 13586
L29317 13549
" />
<path d="M29542 13080
L29560 13024
L29560 12930
L29542 12892
L29523 12874
L29485 12855
L29448 12855
L29410 12874
L29392 12892
L29373 12930
L29354 13005
L29335 13042
L29317 13061
L29279 13080
L29242 13080
L29204 13061
L29185 13042
L29167 13005
L29167 12911
L29185 12855
" />
<path d="M29542 12536
L29560 12574
L29560 12649
L29542 12686
L29504 12705
L29354 12705
L29317 12686
L29298 12649
L29298 12574
L29317 12536
L29354 12517
L29392 12517
L29429 12705
" />
<path d="M29298 12349
L29560 12349
" />
<path d="M29335 12349
L29317 12330
L29298 12292
L29298 12236
L29317 12199
L29354 12180
L29560 12180
" />
<path d="M29542 12011
L29560 11974
L29560 11899
L29542 11861
L29504 11843
L29485 11843
L29448 11861
L29429 11899
L29429 11955
L29410 11993
L29373 12011
L29354 12011
L29317 11993
L29298 11955
L29298 11899
L29317 11861
" />
<path d="M29560 11618
L29542 11655
L29523 11674
L29485 11693
L29373 11693
L29335 11674
L29317 11655
L29298 11618
L29298 11561
L29317 11524
L29335 11505
L29373 11486
L29485 11486
L29523 11505
L29542 11524
L29560 11561
L29560 11618
" />
<path d="M29560 11318
L29298 11318
" />
<path d="M29373 11318
L29335 11299
L29317 11280
L29298 11243
L29298 11205
" />
<g transform="rotate(-90 28398.5 13211.6)">
<text x="28398.5" y="13408.5"
textLength="751.687" font-size="524.934" lengthAdjust="spacingAndGlyphs"
text-anchor="middle" opacity="0">J1</text>
</g>
<path d="M28182 13342
L28464 13342
L28520 13361
L28557 13399
L28576 13455
L28576 13492
" />
<path d="M28576 12949
L28576 13174
" />
<path d="M28576 13061
L28182 13061
L28239 13099
L28276 13136
L28295 13174
" />
</g>
<g style="fill:#000000; fill-opacity:0.0; 
stroke:#000000; stroke-width:100; stroke-opacity:1; 
stroke-linecap:round; stroke-linejoin:round;">
<text x="18063.8" y="24032.5"
textLength="1291.06" font-size="666.667" lengthAdjust="spacingAndGlyphs"
text-anchor="middle" opacity="0">IC1</text>
<path d="M17575 24008
L17575 23508
" />
<path d="M18099 23961
L18075 23984
L18004 24008
L17956 24008
L17885 23984
L17837 23937
L17813 23889
L17790 23794
L17790 23722
L17813 23627
L17837 23580
L17885 23532
L17956 23508
L18004 23508
L18075 23532
L18099 23556
" />
<path d="M18575 24008
L18290 24008
" />
<path d="M18432 24008
L18432 23508
L18385 23580
L18337 23627
L18290 23651
" />
</g>
<g style="fill:#000000; fill-opacity:0.0; 
stroke:#000000; stroke-width:59.0551; stroke-opacity:1; 
stroke-linecap:round; stroke-linejoin:round;">
<g transform="rotate(-90 12985.1 6646.65)">
<text x="12985.1" y="6843.5"
textLength="1761.05" font-size="524.934" lengthAdjust="spacingAndGlyphs"
text-anchor="middle" opacity="0">0.1uF</text>
</g>
<path d="M12769 7293
L12769 7255
L12788 7218
L12806 7199
L12844 7180
L12919 7162
L13013 7162
L13088 7180
L13125 7199
L13144 7218
L13163 7255
L13163 7293
L13144 7330
L13125 7349
L13088 7368
L13013 7387
L12919 7387
L12844 7368
L12806 7349
L12788 7330
L12769 7293
" />
<path d="M13125 6993
L13144 6974
L13163 6993
L13144 7012
L13125 6993
L13163 6993
" />
<path d="M13163 6599
L13163 6824
" />
<path d="M13163 6712
L12769 6712
L12825 6749
L12863 6787
L12881 6824
" />
<path d="M12900 6262
L13163 6262
" />
<path d="M12900 6431
L13106 6431
L13144 6412
L13163 6374
L13163 6318
L13144 6281
L13125 6262
" />
<path d="M12956 5943
L12956 6074
" />
<path d="M13163 6074
L12769 6074
L12769 5887
" />
</g>
<g style="fill:#000000; fill-opacity:0.0; 
stroke:#000000; stroke-width:47.2441; stroke-opacity:1; 
stroke-linecap:round; stroke-linejoin:round;">
<g transform="rotate(-90 12256.7 6646.65)">
<text x="12256.7" y="6804.13"
textLength="691.695" font-size="419.947" lengthAdjust="spacingAndGlyphs"
text-anchor="middle" opacity="0">C4</text>
</g>
<path d="M12369 6699
L12384 6714
L12399 6759
L12399 6789
L12384 6834
L12354 6864
L12324 6879
L12264 6894
L12219 6894
L12159 6879
L12129 6864
L12099 6834
L12084 6789
L12084 6759
L12099 6714
L12114 6699
" />
<path d="M12189 6429
L12399 6429
" />
<path d="M12069 6504
L12294 6579
L12294 6384
" />
</g>
<g style="fill:#000000; fill-opacity:0.0; 
stroke:#000000; stroke-width:59.0551; stroke-opacity:1; 
stroke-linecap:round; stroke-linejoin:round;">
<g transform="rotate(-90 12985.1 9264.76)">
<text x="12985.1" y="9461.61"
textLength="1504.99" font-size="524.934" lengthAdjust="spacingAndGlyphs"
text-anchor="middle" opacity="0">22uF</text>
</g>
<path d="M12806 9911
L12788 9892
L12769 9855
L12769 9761
L12788 9724
L12806 9705
L12844 9686
L12881 9686
L12938 9705
L13163 9930
L13163 9686
" />
<path d="M12806 9536
L12788 9517
L12769 9480
L12769 9386
L12788 9349
L12806 9330
L12844 9311
L12881 9311
L12938 9330
L13163 9555
L13163 9311
" />
<path d="M12900 8974
L13163 8974
" />
<path d="M12900 9142
L13106 9142
L13144 9124
L13163 9086
L13163 9030
L13144 8992
L13125 8974
" />
<path d="M12956 8655
L12956 8786
" />
<path d="M13163 8786
L12769 8786
L12769 8599
" />
</g>
<g style="fill:#000000; fill-opacity:0.0; 
stroke:#000000; stroke-width:47.2441; stroke-opacity:1; 
stroke-linecap:round; stroke-linejoin:round;">
<g transform="rotate(-90 12256.7 9264.76)">
<text x="12256.7" y="9422.24"
textLength="691.695" font-size="419.947" lengthAdjust="spacingAndGlyphs"
text-anchor="middle" opacity="0">C3</text>
</g>
<path d="M12369 9317
L12384 9332
L12399 9377
L12399 9407
L12384 9452
L12354 9482
L12324 9497
L12264 9512
L12219 9512
L12159 9497
L12129 9482
L12099 9452
L12084 9407
L12084 9377
L12099 9332
L12114 9317
" />
<path d="M12084 9212
L12084 9017
L12204 9122
L12204 9077
L12219 9047
L12234 9032
L12264 9017
L12339 9017
L12369 9032
L12384 9047
L12399 9077
L12399 9167
L12384 9197
L12369 9212
" />
</g>
<g style="fill:#000000; fill-opacity:0.0; 
stroke:#000000; stroke-width:59.0551; stroke-opacity:1; 
stroke-linecap:round; stroke-linejoin:round;">
<text x="9500.84" y="14727.4"
textLength="1692.46" font-size="524.934" lengthAdjust="spacingAndGlyphs"
text-anchor="middle" opacity="0">0.1uF</text>
<path d="M8854 14314
L8891 14314
L8929 14333
L8947 14352
L8966 14389
L8985 14464
L8985 14558
L8966 14633
L8947 14671
L8929 14689
L8891 14708
L8854 14708
L8816 14689
L8797 14671
L8779 14633
L8760 14558
L8760 14464
L8779 14389
L8797 14352
L8816 14333
L8854 14314
" />
<path d="M9154 14671
L9172 14689
L9154 14708
L9135 14689
L9154 14671
L9154 14708
" />
<path d="M9547 14708
L9322 14708
" />
<path d="M9435 14708
L9435 14314
L9397 14371
L9360 14408
L9322 14427
" />
<path d="M9885 14446
L9885 14708
" />
<path d="M9716 14446
L9716 14652
L9735 14689
L9772 14708
L9828 14708
L9866 14689
L9885 14671
" />
<path d="M10203 14502
L10072 14502
" />
<path d="M10072 14708
L10072 14314
L10260 14314
" />
</g>
<g style="fill:#000000; fill-opacity:0.0; 
stroke:#000000; stroke-width:47.2441; stroke-opacity:1; 
stroke-linecap:round; stroke-linejoin:round;">
<text x="9500.84" y="13959.6"
textLength="691.695" font-size="419.947" lengthAdjust="spacingAndGlyphs"
text-anchor="middle" opacity="0">C2</text>
<path d="M9448 13914
L9433 13929
L9388 13944
L9358 13944
L9313 13929
L9283 13899
L9268 13869
L9253 13809
L9253 13764
L9268 13704
L9283 13674
L9313 13644
L9358 13629
L9388 13629
L9433 13644
L9448 13659
" />
<path d="M9568 13659
L9583 13644
L9613 13629
L9688 13629
L9718 13644
L9733 13659
L9748 13689
L9748 13719
L9733 13764
L9553 13944
L9748 13944
" />
</g>
<g style="fill:#000000; fill-opacity:0.0; 
stroke:#000000; stroke-width:59.0551; stroke-opacity:1; 
stroke-linecap:round; stroke-linejoin:round;">
<g transform="rotate(-90 24402.4 8083.66)">
<text x="24402.4" y="8280.51"
textLength="1692.46" font-size="524.934" lengthAdjust="spacingAndGlyphs"
text-anchor="middle" opacity="0">0.1uF</text>
</g>
<path d="M24186 8730
L24186 8692
L24205 8655
L24224 8636
L24261 8617
L24336 8599
L24430 8599
L24505 8617
L24543 8636
L24561 8655
L24580 8692
L24580 8730
L24561 8767
L24543 8786
L24505 8805
L24430 8824
L24336 8824
L24261 8805
L24224 8786
L24205 8767
L24186 8730
" />
<path d="M24543 8430
L24561 8411
L24580 8430
L24561 8449
L24543 8430
L24580 8430
" />
<path d="M24580 8036
L24580 8261
" />
<path d="M24580 8149
L24186 8149
L24243 8186
L24280 8224
L24299 8261
" />
<path d="M24318 7699
L24580 7699
" />
<path d="M24318 7868
L24524 7868
L24561 7849
L24580 7811
L24580 7755
L24561 7718
L24543 7699
" />
<path d="M24374 7380
L24374 7511
" />
<path d="M24580 7511
L24186 7511
L24186 7324
" />
</g>
<g style="fill:#000000; fill-opacity:0.0; 
stroke:#000000; stroke-width:47.2441; stroke-opacity:1; 
stroke-linecap:round; stroke-linejoin:round;">
<g transform="rotate(-90 23674.1 8083.66)">
<text x="23674.1" y="8241.14"
textLength="691.695" font-size="419.947" lengthAdjust="spacingAndGlyphs"
text-anchor="middle" opacity="0">C1</text>
</g>
<path d="M23786 8136
L23801 8151
L23816 8196
L23816 8226
L23801 8271
L23771 8301
L23741 8316
L23681 8331
L23636 8331
L23576 8316
L23546 8301
L23516 8271
L23501 8226
L23501 8196
L23516 8151
L23531 8136
" />
<path d="M23816 7836
L23816 8016
" />
<path d="M23816 7926
L23501 7926
L23546 7956
L23576 7986
L23591 8016
" />
<g >
</g>
</g>
<g style="fill:#000000; fill-opacity:0.0; 
stroke:#000000; stroke-width:47.2441; stroke-opacity:1; 
stroke-linecap:round; stroke-linejoin:round;">
</g>
<g style="fill:#000000; fill-opacity:0.0; 
stroke:#000000; stroke-width:39.3701; stroke-opacity:1; 
stroke-linecap:round; stroke-linejoin:round;">
<path d="M32926 1991
L32926 25810
" />
<path d="M3004 1991
L32926 1991
" />
<path d="M3004 25810
L3004 1991
" />
<path d="M32926 25810
L3004 25810
" />
<g >
</g>
<g >
</g>
<g >
</g>
<g >
</g>
<g >
</g>
<g >
</g>
<g >
</g>
<g >
</g>
<g >
</g>
<g >
</g>
<g >
</g>
<g >
</g>
<g >
</g>
<g >
</g>
<g >
</g>
<g >
</g>
<g >
</g>
<g >
</g>
<g >
</g>
<g >
</g>
<g >
</g>
<g >
</g>
<g >
</g>
<g >
</g>
<g >
</g>
</g> 
</svg>
