M48
; DRILL file {KiCad (5.1.8)-1} date 01/08/21 10:56:23
; FORMAT={-:-/ absolute / metric / decimal}
; #@! TF.CreationDate,2021-01-08T10:56:23+00:00
; #@! TF.GenerationSoftware,Kicad,Pcbnew,(5.1.8)-1
; #@! TF.FileFunction,Plated,1,2,PTH
FMAT,2
METRIC
T1C0.600
T2C0.750
T3C0.762
T4C0.800
T5C0.900
T6C1.000
T7C1.100
T8C3.200
%
G90
G05
T1
X121.4Y-72.9
X124.0Y-56.0
X126.9Y-83.0
X128.3Y-84.6
X128.4Y-72.9
X129.0Y-56.0
X129.7Y-64.0
X129.7Y-67.9
X131.2Y-65.25
X131.2Y-67.9
X133.6Y-62.7
X133.6Y-67.805
X136.2Y-98.6
X137.5Y-101.2
X138.2Y-83.0
X138.2Y-84.6
X138.8Y-106.2
X140.1Y-110.7
X140.1Y-115.6
X141.4Y-98.6
X141.4Y-101.2
X141.4Y-106.2
X141.7Y-110.7
X141.7Y-118.2
X154.4Y-85.9
X154.4Y-96.3
X154.5Y-104.0
X154.5Y-114.9
X155.9Y-85.9
X155.9Y-96.3
X158.3Y-114.9
X158.5Y-91.0
X158.5Y-98.0
X158.8Y-78.3
X159.9Y-104.0
X160.0Y-81.5
X160.0Y-83.4
X163.7Y-83.4
X165.0Y-81.5
X166.3Y-78.3
T2
X126.0Y-118.0
X128.0Y-118.0
T3
X172.0Y-78.0
X172.0Y-80.0
X172.0Y-82.0
X172.0Y-84.0
X144.0Y-123.0
X146.0Y-123.0
X148.0Y-123.0
X150.0Y-123.0
T4
X164.0Y-108.0
X174.16Y-108.0
X121.5Y-79.0
X124.0Y-79.0
X165.0Y-67.0
X175.16Y-67.0
X122.0Y-102.0
X127.0Y-102.0
X144.0Y-91.0
X144.0Y-93.54
X144.0Y-96.08
X144.0Y-98.62
X144.0Y-101.16
X144.0Y-103.7
X144.0Y-106.24
X144.0Y-108.78
X151.62Y-91.0
X151.62Y-93.54
X151.62Y-96.08
X151.62Y-98.62
X151.62Y-101.16
X151.62Y-103.7
X151.62Y-106.24
X151.62Y-108.78
X164.0Y-103.0
X174.16Y-103.0
X166.0Y-93.0
X166.0Y-95.54
X166.0Y-98.08
X173.62Y-93.0
X173.62Y-95.54
X173.62Y-98.08
X121.8Y-87.3
X126.8Y-87.3
X165.0Y-56.8
X165.0Y-61.8
T5
X166.74Y-116.46
X167.76Y-119.0
X168.78Y-116.46
X169.8Y-119.0
X125.4Y-125.0
X125.4Y-128.3
X127.9Y-125.0
X127.9Y-128.3
X130.4Y-125.0
X130.4Y-128.3
T6
X124.0Y-60.0
X124.0Y-62.54
X124.0Y-65.08
X124.0Y-67.62
X126.54Y-60.0
X126.54Y-62.54
X126.54Y-65.08
X126.54Y-67.62
X123.0Y-111.0
X125.54Y-111.0
X128.08Y-111.0
X130.62Y-111.0
X174.0Y-72.0
T7
X168.0Y-57.0
X168.0Y-61.5
X174.5Y-57.0
X174.5Y-61.5
X122.0Y-90.5
X122.0Y-97.0
X126.5Y-90.5
X126.5Y-97.0
T8
X181.0Y-55.0
X115.0Y-125.0
X181.0Y-125.0
X115.0Y-55.0
T0
M30
