<?xml version="1.0" standalone="no"?>
 <!DOCTYPE svg PUBLIC "-//W3C//DTD SVG 1.1//EN" 
 "http://www.w3.org/Graphics/SVG/1.1/DTD/svg11.dtd"> 
<svg
  xmlns:svg="http://www.w3.org/2000/svg"
  xmlns="http://www.w3.org/2000/svg"
  xmlns:xlink="http://www.w3.org/1999/xlink"
  version="1.1"
  width="9.682480cm" height="7.523480cm" viewBox="0 0 38120 29620">
<title>SVG Picture created as main-F_SilkS.svg date 2020/12/08 21:52:19 </title>
  <desc>Picture generated by PCBNEW </desc>
<g style="fill:#000000; fill-opacity:1;stroke:#000000; stroke-opacity:1;
stroke-linecap:round; stroke-linejoin:round;"
 transform="translate(0 0) scale(1 1)">
</g>
<g style="fill:#000000; fill-opacity:0.0; 
stroke:#000000; stroke-width:-0.000393701; stroke-opacity:1; 
stroke-linecap:round; stroke-linejoin:round;">
</g>
<g style="fill:#000000; fill-opacity:0.0; 
stroke:#000000; stroke-width:47.2441; stroke-opacity:1; 
stroke-linecap:round; stroke-linejoin:round;">
<path d="M14768 4965
L14618 4965
" />
<path d="M14768 2437
L14768 4965
" />
<path d="M21949 2437
L21949 4965
" />
<path d="M14768 2437
L21949 2437
" />
<path d="M21949 12573
L21555 12573
" />
<path d="M21949 12266
L21949 12573
" />
<path d="M14768 12573
L15162 12573
" />
<path d="M14768 12266
L14768 12573
" />
<path d="M27437 17215
L26945 17215
" />
<path d="M27437 20262
L27437 17215
" />
<path d="M25666 20262
L27437 20262
" />
<path d="M25666 17215
L25666 20262
" />
<path d="M26158 17215
L25666 17215
" />
<path d="M26158.3 17215.6 A393.701 393.701 0.0 0 0 26945.7 17215.6" />
<path d="M14292 16928
L14292 17420
" />
<path d="M22339 16928
L14292 16928
" />
<path d="M22339 18699
L22339 16928
" />
<path d="M14292 18699
L22339 18699
" />
<path d="M14292 18207
L14292 18699
" />
<path d="M14292.2 18207.7 A393.701 393.701 0.0 0 0 14292.2 17420.3" />
<path d="M10772 19995
L10772 17451
" />
<path d="M8989 19995
L10012 19995
" />
<path d="M8229 19995
L8229 17451
" />
<path d="M8989 17451
L10012 17451
" />
<path d="M8241 19995
L8229 19995
" />
<path d="M10772 19995
L10760 19995
" />
<path d="M10772 17451
L10760 17451
" />
<path d="M8229 17451
L8241 17451
" />
<path d="M25945 9365
L28489 9365
" />
<path d="M25945 7581
L25945 8605
" />
<path d="M25945 6821
L28489 6821
" />
<path d="M28489 7581
L28489 8605
" />
<path d="M25945 6833
L25945 6821
" />
<path d="M25945 9365
L25945 9353
" />
<path d="M28489 9365
L28489 9353
" />
<path d="M28489 6821
L28489 6833
" />
</g>
<g style="fill:#000000; fill-opacity:0.0; 
stroke:#000000; stroke-width:59.0551; stroke-opacity:1; 
stroke-linecap:round; stroke-linejoin:round;">
<path d="M10288 25337
L11193 25337
" />
<path d="M7807 25337
L8674 25337
" />
<path d="M7807 23526
L11193 23526
" />
</g>
<g style="fill:#000000; fill-opacity:0.0; 
stroke:#000000; stroke-width:47.2441; stroke-opacity:1; 
stroke-linecap:round; stroke-linejoin:round;">
<path d="M9214 15932
L9787 15932
" />
<path d="M9214 15215
L9787 15215
" />
<path d="M26591 22174
L26591 21601
" />
<path d="M25874 22174
L25874 21601
" />
<path d="M27733 21837
L28305 21837
" />
<path d="M27733 21121
L28305 21121
" />
<path d="M24874 4876
L24874 4353
" />
<path d="M25398 4876
L24874 4876
" />
<path d="M24874 3853
L24874 2829
" />
<path d="M25898 3853
L24874 3853
" />
<path d="M25898 4876
L25898 3853
" />
<path d="M24874 2829
L28922 2829
" />
<path d="M25898 4876
L28922 4876
" />
<path d="M28922 4876
L28922 2829
" />
<path d="M26977 24770
L27469 24770
" />
<path d="M26977 24278
L26977 24770
" />
<path d="M28713 23447
L28516 23447
" />
<path d="M28516 23408
L28713 23408
" />
<path d="M28516 23487
L28516 23408
" />
<path d="M28713 23487
L28516 23487
" />
<path d="M28122 22243
L28122 22483
" />
<path d="M27611 22243
L27611 22483
" />
<path d="M28122 24652
L28122 24412
" />
<path d="M27611 24652
L27611 24412
" />
<path d="M27335 23250
L27095 23250
" />
<path d="M27335 22483
L27335 23250
" />
<path d="M28713 22483
L27335 22483
" />
<path d="M28713 24412
L28713 22483
" />
<path d="M27335 24412
L28713 24412
" />
<path d="M27335 23644
L27335 24412
" />
<path d="M27095 23644
L27335 23644
" />
<path d="M27055 23959
L27055 24077
" />
<path d="M27016 24077
L27095 24077
" />
<path d="M27016 23959
L27016 24077
" />
<path d="M27095 23959
L27016 23959
" />
<path d="M27095 22243
L27095 24652
" />
<path d="M28953 22243
L27095 22243
" />
<path d="M28953 24652
L28953 22243
" />
<path d="M27095 24652
L28953 24652
" />
<path d="M7835 10585
L7835 10062
" />
<path d="M8359 10585
L7835 10585
" />
<path d="M8859 10585
L8859 9538
" />
<path d="M8859 9538
L8882 9538
" />
<path d="M8859 10585
L8882 10585
" />
<path d="M8882 10585
L8882 9538
" />
<path d="M7685 9022
L8178 9022
" />
<path d="M7685 8530
L7685 9022
" />
<path d="M9422 7699
L9225 7699
" />
<path d="M9225 7660
L9422 7660
" />
<path d="M9225 7739
L9225 7660
" />
<path d="M9422 7739
L9225 7739
" />
<path d="M8831 6495
L8831 6735
" />
<path d="M8319 6495
L8319 6735
" />
<path d="M8831 8904
L8831 8664
" />
<path d="M8319 8904
L8319 8664
" />
<path d="M8044 7502
L7803 7502
" />
<path d="M8044 6735
L8044 7502
" />
<path d="M9422 6735
L8044 6735
" />
<path d="M9422 8664
L9422 6735
" />
<path d="M8044 8664
L9422 8664
" />
<path d="M8044 7896
L8044 8664
" />
<path d="M7803 7896
L8044 7896
" />
<path d="M7764 8211
L7764 8329
" />
<path d="M7725 8329
L7803 8329
" />
<path d="M7725 8211
L7725 8329
" />
<path d="M7803 8211
L7725 8211
" />
<path d="M7803 6495
L7803 8904
" />
<path d="M9662 6495
L7803 6495
" />
<path d="M9662 8904
L9662 6495
" />
<path d="M7803 8904
L9662 8904
" />
<path d="M7599 3959
L7599 3436
" />
<path d="M7599 3436
L8122 3436
" />
<path d="M8622 3436
L11646 3436
" />
<path d="M11646 4483
L11646 3436
" />
<path d="M8622 4483
L11646 4483
" />
<path d="M8622 4483
L8622 3436
" />
<path d="M26977 15321
L27469 15321
" />
<path d="M26977 14829
L26977 15321
" />
<path d="M28713 12424
L28516 12424
" />
<path d="M28516 12384
L28713 12384
" />
<path d="M28516 12463
L28516 12384
" />
<path d="M28713 12463
L28516 12463
" />
<path d="M28713 13211
L28516 13211
" />
<path d="M28516 13172
L28713 13172
" />
<path d="M28516 13250
L28516 13172
" />
<path d="M28713 13250
L28516 13250
" />
<path d="M28713 13999
L28516 13999
" />
<path d="M28516 13959
L28713 13959
" />
<path d="M28516 14038
L28516 13959
" />
<path d="M28713 14038
L28516 14038
" />
<path d="M28122 11219
L28122 11459
" />
<path d="M27611 11219
L27611 11459
" />
<path d="M28122 15203
L28122 14963
" />
<path d="M27611 15203
L27611 14963
" />
<path d="M27335 12227
L27095 12227
" />
<path d="M27335 11459
L27335 12227
" />
<path d="M28713 11459
L27335 11459
" />
<path d="M28713 14963
L28713 11459
" />
<path d="M27335 14963
L28713 14963
" />
<path d="M27335 14195
L27335 14963
" />
<path d="M27095 14195
L27335 14195
" />
<path d="M27055 14510
L27055 14628
" />
<path d="M27016 14628
L27095 14628
" />
<path d="M27016 14510
L27016 14628
" />
<path d="M27095 14510
L27016 14510
" />
<path d="M27095 11219
L27095 15203
" />
<path d="M28953 11219
L27095 11219
" />
<path d="M28953 15203
L28953 11219
" />
<path d="M27095 15203
L28953 15203
" />
</g>
<g style="fill:#000000; fill-opacity:0.0; 
stroke:#000000; stroke-width:39.3701; stroke-opacity:1; 
stroke-linecap:round; stroke-linejoin:round;">
<path d="M21036 22266
L21036 25298
" />
</g>
<g style="fill:#000000; fill-opacity:1.0; 
stroke:#000000; stroke-width:0; stroke-opacity:1; 
stroke-linecap:round; stroke-linejoin:round;">
<circle cx="21036.3" cy="22266.7" r="19.685" /> 
</g>
<g style="fill:#000000; fill-opacity:1.0; 
stroke:#000000; stroke-width:39.3701; stroke-opacity:1; 
stroke-linecap:round; stroke-linejoin:round;">
</g>
<g style="fill:#000000; fill-opacity:0.0; 
stroke:#000000; stroke-width:39.3701; stroke-opacity:1; 
stroke-linecap:round; stroke-linejoin:round;">
<path d="M21036 25298
L21036 22266
" />
</g>
<g style="fill:#000000; fill-opacity:1.0; 
stroke:#000000; stroke-width:0; stroke-opacity:1; 
stroke-linecap:round; stroke-linejoin:round;">
<circle cx="21036.3" cy="25298.2" r="19.685" /> 
</g>
<g style="fill:#000000; fill-opacity:1.0; 
stroke:#000000; stroke-width:39.3701; stroke-opacity:1; 
stroke-linecap:round; stroke-linejoin:round;">
</g>
<g style="fill:#000000; fill-opacity:0.0; 
stroke:#000000; stroke-width:39.3701; stroke-opacity:1; 
stroke-linecap:round; stroke-linejoin:round;">
<path d="M15091 25298
L15091 22266
" />
</g>
<g style="fill:#000000; fill-opacity:1.0; 
stroke:#000000; stroke-width:0; stroke-opacity:1; 
stroke-linecap:round; stroke-linejoin:round;">
<circle cx="15091.4" cy="25298.2" r="19.685" /> 
</g>
<g style="fill:#000000; fill-opacity:1.0; 
stroke:#000000; stroke-width:39.3701; stroke-opacity:1; 
stroke-linecap:round; stroke-linejoin:round;">
</g>
<g style="fill:#000000; fill-opacity:0.0; 
stroke:#000000; stroke-width:39.3701; stroke-opacity:1; 
stroke-linecap:round; stroke-linejoin:round;">
<path d="M15091 22266
L15091 25298
" />
</g>
<g style="fill:#000000; fill-opacity:1.0; 
stroke:#000000; stroke-width:0; stroke-opacity:1; 
stroke-linecap:round; stroke-linejoin:round;">
<circle cx="15091.4" cy="22266.7" r="19.685" /> 
<circle cx="21036.3" cy="22266.7" r="19.685" /> 
</g>
<g style="fill:#000000; fill-opacity:1.0; 
stroke:#000000; stroke-width:39.3701; stroke-opacity:1; 
stroke-linecap:round; stroke-linejoin:round;">
</g>
<g style="fill:#000000; fill-opacity:0.0; 
stroke:#000000; stroke-width:39.3701; stroke-opacity:1; 
stroke-linecap:round; stroke-linejoin:round;">
<path d="M20032 22266
L21036 22266
" />
</g>
<g style="fill:#000000; fill-opacity:1.0; 
stroke:#000000; stroke-width:0; stroke-opacity:1; 
stroke-linecap:round; stroke-linejoin:round;">
<circle cx="20032.3" cy="22266.7" r="19.685" /> 
</g>
<g style="fill:#000000; fill-opacity:1.0; 
stroke:#000000; stroke-width:39.3701; stroke-opacity:1; 
stroke-linecap:round; stroke-linejoin:round;">
</g>
<g style="fill:#000000; fill-opacity:0.0; 
stroke:#000000; stroke-width:39.3701; stroke-opacity:1; 
stroke-linecap:round; stroke-linejoin:round;">
<path d="M21036 22266
L20032 22266
" />
</g>
<g style="fill:#000000; fill-opacity:1.0; 
stroke:#000000; stroke-width:0; stroke-opacity:1; 
stroke-linecap:round; stroke-linejoin:round;">
<circle cx="15091.4" cy="25298.2" r="19.685" /> 
</g>
<g style="fill:#000000; fill-opacity:1.0; 
stroke:#000000; stroke-width:39.3701; stroke-opacity:1; 
stroke-linecap:round; stroke-linejoin:round;">
</g>
<g style="fill:#000000; fill-opacity:0.0; 
stroke:#000000; stroke-width:39.3701; stroke-opacity:1; 
stroke-linecap:round; stroke-linejoin:round;">
<path d="M21036 25298
L15091 25298
" />
</g>
<g style="fill:#000000; fill-opacity:1.0; 
stroke:#000000; stroke-width:0; stroke-opacity:1; 
stroke-linecap:round; stroke-linejoin:round;">
<circle cx="21036.3" cy="25298.2" r="19.685" /> 
</g>
<g style="fill:#000000; fill-opacity:1.0; 
stroke:#000000; stroke-width:39.3701; stroke-opacity:1; 
stroke-linecap:round; stroke-linejoin:round;">
</g>
<g style="fill:#000000; fill-opacity:0.0; 
stroke:#000000; stroke-width:39.3701; stroke-opacity:1; 
stroke-linecap:round; stroke-linejoin:round;">
<path d="M15091 25298
L21036 25298
" />
</g>
<g style="fill:#000000; fill-opacity:1.0; 
stroke:#000000; stroke-width:0; stroke-opacity:1; 
stroke-linecap:round; stroke-linejoin:round;">
<circle cx="16095.3" cy="22266.7" r="19.685" /> 
</g>
<g style="fill:#000000; fill-opacity:1.0; 
stroke:#000000; stroke-width:39.3701; stroke-opacity:1; 
stroke-linecap:round; stroke-linejoin:round;">
</g>
<g style="fill:#000000; fill-opacity:0.0; 
stroke:#000000; stroke-width:39.3701; stroke-opacity:1; 
stroke-linecap:round; stroke-linejoin:round;">
<path d="M15091 22266
L16095 22266
" />
</g>
<g style="fill:#000000; fill-opacity:1.0; 
stroke:#000000; stroke-width:0; stroke-opacity:1; 
stroke-linecap:round; stroke-linejoin:round;">
<circle cx="15091.4" cy="22266.7" r="19.685" /> 
</g>
<g style="fill:#000000; fill-opacity:1.0; 
stroke:#000000; stroke-width:39.3701; stroke-opacity:1; 
stroke-linecap:round; stroke-linejoin:round;">
</g>
<g style="fill:#000000; fill-opacity:0.0; 
stroke:#000000; stroke-width:39.3701; stroke-opacity:1; 
stroke-linecap:round; stroke-linejoin:round;">
<path d="M16095 22266
L15091 22266
" />
</g>
<g style="fill:#000000; fill-opacity:0.0; 
stroke:#000000; stroke-width:47.2441; stroke-opacity:1; 
stroke-linecap:round; stroke-linejoin:round;">
<path d="M12615 6926
L12615 6366
" />
<path d="M11898 6926
L11898 6366
" />
<path d="M12615 9544
L12615 8984
" />
<path d="M11898 9544
L11898 8984
" />
<path d="M9220 14160
L9780 14160
" />
<path d="M9220 13443
L9780 13443
" />
<path d="M24032 8363
L24032 7803
" />
<path d="M23315 8363
L23315 7803
" />
</g>
<g style="fill:#000000; fill-opacity:0.0; 
stroke:#000000; stroke-width:59.0551; stroke-opacity:1; 
stroke-linecap:round; stroke-linejoin:round;">
<g transform="rotate(-90 14181.9 12003)">
<text x="14181.9" y="12199.8"
textLength="864.173" font-size="524.934" lengthAdjust="spacingAndGlyphs"
text-anchor="middle" opacity="0">U3</text>
</g>
<path d="M13966 12302
L14285 12302
L14322 12284
L14341 12265
L14360 12227
L14360 12152
L14341 12115
L14322 12096
L14285 12077
L13966 12077
" />
<path d="M13966 11927
L13966 11684
L14116 11815
L14116 11759
L14135 11721
L14153 11702
L14191 11684
L14285 11684
L14322 11702
L14341 11721
L14360 11759
L14360 11871
L14341 11909
L14322 11927
" />
<text x="26552" y="17018.7"
textLength="864.173" font-size="524.934" lengthAdjust="spacingAndGlyphs"
text-anchor="middle" opacity="0">U2</text>
<path d="M26252 16606
L26252 16924
L26270 16962
L26289 16981
L26327 16999
L26402 16999
L26439 16981
L26458 16962
L26477 16924
L26477 16606
" />
<path d="M26645 16643
L26664 16625
L26702 16606
L26795 16606
L26833 16625
L26851 16643
L26870 16681
L26870 16718
L26851 16774
L26627 16999
L26870 16999
" />
<g transform="rotate(-90 13898.5 17814)">
<text x="13898.5" y="18010.8"
textLength="864.173" font-size="524.934" lengthAdjust="spacingAndGlyphs"
text-anchor="middle" opacity="0">U1</text>
</g>
<path d="M13682 18113
L14001 18113
L14039 18095
L14057 18076
L14076 18038
L14076 17963
L14057 17926
L14039 17907
L14001 17888
L13682 17888
" />
<path d="M14076 17495
L14076 17720
" />
<path d="M14076 17607
L13682 17607
L13739 17645
L13776 17682
L13795 17720
" />
<g transform="rotate(-90 7906.36 18723.4)">
<text x="7906.36" y="18920.3"
textLength="1276.62" font-size="524.934" lengthAdjust="spacingAndGlyphs"
text-anchor="middle" opacity="0">SW3</text>
</g>
<path d="M8065 19248
L8084 19192
L8084 19098
L8065 19060
L8046 19042
L8009 19023
L7971 19023
L7934 19042
L7915 19060
L7896 19098
L7878 19173
L7859 19210
L7840 19229
L7803 19248
L7765 19248
L7728 19229
L7709 19210
L7690 19173
L7690 19079
L7709 19023
" />
<path d="M7690 18892
L8084 18798
L7803 18723
L8084 18648
L7690 18554
" />
<path d="M7690 18442
L7690 18198
L7840 18329
L7840 18273
L7859 18235
L7878 18217
L7915 18198
L8009 18198
L8046 18217
L8065 18235
L8084 18273
L8084 18385
L8065 18423
L8046 18442
" />
<text x="27217.4" y="6695.87"
textLength="1276.62" font-size="524.934" lengthAdjust="spacingAndGlyphs"
text-anchor="middle" opacity="0">SW2</text>
<path d="M26692 6658
L26748 6677
L26842 6677
L26879 6658
L26898 6639
L26917 6602
L26917 6564
L26898 6527
L26879 6508
L26842 6489
L26767 6470
L26729 6452
L26711 6433
L26692 6395
L26692 6358
L26711 6320
L26729 6302
L26767 6283
L26861 6283
L26917 6302
" />
<path d="M27048 6283
L27142 6677
L27217 6395
L27292 6677
L27386 6283
" />
<path d="M27517 6320
L27536 6302
L27573 6283
L27667 6283
L27704 6302
L27723 6320
L27742 6358
L27742 6395
L27723 6452
L27498 6677
L27742 6677
" />
<text x="9264.62" y="23211.6"
textLength="1276.62" font-size="524.934" lengthAdjust="spacingAndGlyphs"
text-anchor="middle" opacity="0">SW1</text>
<path d="M8739 23174
L8795 23192
L8889 23192
L8927 23174
L8945 23155
L8964 23117
L8964 23080
L8945 23042
L8927 23024
L8889 23005
L8814 22986
L8777 22967
L8758 22949
L8739 22911
L8739 22874
L8758 22836
L8777 22817
L8814 22799
L8908 22799
L8964 22817
" />
<path d="M9095 22799
L9189 23192
L9264 22911
L9339 23192
L9433 22799
" />
<path d="M9789 23192
L9564 23192
" />
<path d="M9677 23192
L9677 22799
L9639 22855
L9602 22892
L9564 22911
" />
<text x="9500.84" y="15054.1"
textLength="845.426" font-size="524.934" lengthAdjust="spacingAndGlyphs"
text-anchor="middle" opacity="0">R3</text>
<path d="M9435 15035
L9303 14847
" />
<path d="M9210 15035
L9210 14641
L9360 14641
L9397 14660
L9416 14679
L9435 14716
L9435 14772
L9416 14810
L9397 14829
L9360 14847
L9210 14847
" />
<path d="M9566 14641
L9810 14641
L9678 14791
L9735 14791
L9772 14810
L9791 14829
L9810 14866
L9810 14960
L9791 14997
L9772 15016
L9735 15035
L9622 15035
L9585 15016
L9566 14997
" />
<g transform="rotate(-90 25516.6 21887.8)">
<text x="25516.6" y="22084.6"
textLength="845.426" font-size="524.934" lengthAdjust="spacingAndGlyphs"
text-anchor="middle" opacity="0">R2</text>
</g>
<path d="M25694 21953
L25507 22084
" />
<path d="M25694 22178
L25300 22178
L25300 22028
L25319 21990
L25338 21972
L25375 21953
L25432 21953
L25469 21972
L25488 21990
L25507 22028
L25507 22178
" />
<path d="M25338 21803
L25319 21784
L25300 21747
L25300 21653
L25319 21615
L25338 21597
L25375 21578
L25413 21578
L25469 21597
L25694 21822
L25694 21578
" />
<text x="28019.5" y="20959.6"
textLength="845.426" font-size="524.934" lengthAdjust="spacingAndGlyphs"
text-anchor="middle" opacity="0">R1</text>
<path d="M27953 20940
L27822 20753
" />
<path d="M27728 20940
L27728 20547
L27878 20547
L27916 20565
L27935 20584
L27953 20622
L27953 20678
L27935 20715
L27916 20734
L27878 20753
L27728 20753
" />
<path d="M28328 20940
L28103 20940
" />
<path d="M28216 20940
L28216 20547
L28178 20603
L28141 20640
L28103 20659
" />
<g transform="rotate(-90 24481.2 3853.35)">
<text x="24481.2" y="4050.2"
textLength="751.687" font-size="524.934" lengthAdjust="spacingAndGlyphs"
text-anchor="middle" opacity="0">J6</text>
</g>
<path d="M24265 3984
L24546 3984
L24603 4003
L24640 4040
L24659 4097
L24659 4134
" />
<path d="M24265 3628
L24265 3703
L24284 3740
L24303 3759
L24359 3797
L24434 3815
L24584 3815
L24621 3797
L24640 3778
L24659 3740
L24659 3665
L24640 3628
L24621 3609
L24584 3590
L24490 3590
L24453 3609
L24434 3628
L24415 3665
L24415 3740
L24434 3778
L24453 3797
L24490 3815
" />
<g transform="rotate(-90 26666.2 23447.8)">
<text x="26666.2" y="23644.7"
textLength="751.687" font-size="524.934" lengthAdjust="spacingAndGlyphs"
text-anchor="middle" opacity="0">J5</text>
</g>
<path d="M26450 23579
L26731 23579
L26788 23597
L26825 23635
L26844 23691
L26844 23729
" />
<path d="M26450 23204
L26450 23391
L26638 23410
L26619 23391
L26600 23354
L26600 23260
L26619 23222
L26638 23204
L26675 23185
L26769 23185
L26806 23204
L26825 23222
L26844 23260
L26844 23354
L26825 23391
L26806 23410
" />
<g transform="rotate(-90 7441.79 10062)">
<text x="7441.79" y="10258.9"
textLength="751.687" font-size="524.934" lengthAdjust="spacingAndGlyphs"
text-anchor="middle" opacity="0">J4</text>
</g>
<path d="M7226 10193
L7507 10193
L7563 10211
L7601 10249
L7619 10305
L7619 10343
" />
<path d="M7357 9837
L7619 9837
" />
<path d="M7207 9930
L7488 10024
L7488 9780
" />
<g transform="rotate(-90 7374.86 7699.8)">
<text x="7374.86" y="7896.65"
textLength="751.687" font-size="524.934" lengthAdjust="spacingAndGlyphs"
text-anchor="middle" opacity="0">J3</text>
</g>
<path d="M7159 7831
L7440 7831
L7496 7849
L7534 7887
L7552 7943
L7552 7981
" />
<path d="M7159 7681
L7159 7437
L7309 7568
L7309 7512
L7327 7474
L7346 7456
L7384 7437
L7477 7437
L7515 7456
L7534 7474
L7552 7512
L7552 7624
L7534 7662
L7515 7681
" />
<g transform="rotate(-90 7032.34 3959.65)">
<text x="7032.34" y="4156.5"
textLength="751.687" font-size="524.934" lengthAdjust="spacingAndGlyphs"
text-anchor="middle" opacity="0">J2</text>
</g>
<path d="M6816 4090
L7097 4090
L7154 4109
L7191 4147
L7210 4203
L7210 4240
" />
<path d="M6854 3922
L6835 3903
L6816 3865
L6816 3772
L6835 3734
L6854 3715
L6891 3697
L6929 3697
L6985 3715
L7210 3940
L7210 3697
" />
<g transform="rotate(-90 26666.2 13211.6)">
<text x="26666.2" y="13408.5"
textLength="751.687" font-size="524.934" lengthAdjust="spacingAndGlyphs"
text-anchor="middle" opacity="0">J1</text>
</g>
<path d="M26450 13342
L26731 13342
L26788 13361
L26825 13399
L26844 13455
L26844 13492
" />
<path d="M26844 12949
L26844 13174
" />
<path d="M26844 13061
L26450 13061
L26506 13099
L26544 13136
L26563 13174
" />
</g>
<g style="fill:#000000; fill-opacity:0.0; 
stroke:#000000; stroke-width:100; stroke-opacity:1; 
stroke-linecap:round; stroke-linejoin:round;">
<text x="18063.8" y="24032.5"
textLength="1291.06" font-size="666.667" lengthAdjust="spacingAndGlyphs"
text-anchor="middle" opacity="0">IC1</text>
<path d="M17575 24008
L17575 23508
" />
<path d="M18099 23961
L18075 23984
L18004 24008
L17956 24008
L17885 23984
L17837 23937
L17813 23889
L17790 23794
L17790 23722
L17813 23627
L17837 23580
L17885 23532
L17956 23508
L18004 23508
L18075 23532
L18099 23556
" />
<path d="M18575 24008
L18290 24008
" />
<path d="M18432 24008
L18432 23508
L18385 23580
L18337 23627
L18290 23651
" />
</g>
<g style="fill:#000000; fill-opacity:0.0; 
stroke:#000000; stroke-width:59.0551; stroke-opacity:1; 
stroke-linecap:round; stroke-linejoin:round;">
<g transform="rotate(-90 11528.4 6646.65)">
<text x="11528.4" y="6843.5"
textLength="898.654" font-size="524.934" lengthAdjust="spacingAndGlyphs"
text-anchor="middle" opacity="0">C4</text>
</g>
<path d="M11669 6712
L11687 6731
L11706 6787
L11706 6824
L11687 6880
L11650 6918
L11612 6937
L11537 6955
L11481 6955
L11406 6937
L11369 6918
L11331 6880
L11312 6824
L11312 6787
L11331 6731
L11350 6712
" />
<path d="M11444 6374
L11706 6374
" />
<path d="M11294 6468
L11575 6562
L11575 6318
" />
<g transform="rotate(-90 11528.4 9264.76)">
<text x="11528.4" y="9461.61"
textLength="845.426" font-size="524.934" lengthAdjust="spacingAndGlyphs"
text-anchor="middle" opacity="0">C3</text>
</g>
<path d="M11669 9330
L11687 9349
L11706 9405
L11706 9442
L11687 9499
L11650 9536
L11612 9555
L11537 9574
L11481 9574
L11406 9555
L11369 9536
L11331 9499
L11312 9442
L11312 9405
L11331 9349
L11350 9330
" />
<path d="M11312 9199
L11312 8955
L11462 9086
L11462 9030
L11481 8992
L11500 8974
L11537 8955
L11631 8955
L11669 8974
L11687 8992
L11706 9030
L11706 9142
L11687 9180
L11669 9199
" />
<text x="9500.84" y="13270.7"
textLength="845.426" font-size="524.934" lengthAdjust="spacingAndGlyphs"
text-anchor="middle" opacity="0">C2</text>
<path d="M9435 13214
L9416 13233
L9360 13251
L9322 13251
L9266 13233
L9229 13195
L9210 13158
L9191 13083
L9191 13026
L9210 12951
L9229 12914
L9266 12876
L9322 12858
L9360 12858
L9416 12876
L9435 12895
" />
<path d="M9585 12895
L9603 12876
L9641 12858
L9735 12858
L9772 12876
L9791 12895
L9810 12933
L9810 12970
L9791 13026
L9566 13251
L9810 13251
" />
<g transform="rotate(-90 22945.7 8083.66)">
<text x="22945.7" y="8280.51"
textLength="845.426" font-size="524.934" lengthAdjust="spacingAndGlyphs"
text-anchor="middle" opacity="0">C1</text>
</g>
<path d="M23086 8149
L23105 8168
L23123 8224
L23123 8261
L23105 8318
L23067 8355
L23030 8374
L22955 8392
L22898 8392
L22823 8374
L22786 8355
L22748 8318
L22730 8261
L22730 8224
L22748 8168
L22767 8149
" />
<path d="M23123 7774
L23123 7999
" />
<path d="M23123 7886
L22730 7886
L22786 7924
L22823 7961
L22842 7999
" />
<g >
</g>
</g>
<g style="fill:#000000; fill-opacity:0.0; 
stroke:#000000; stroke-width:59.0551; stroke-opacity:1; 
stroke-linecap:round; stroke-linejoin:round;">
</g>
<g style="fill:#000000; fill-opacity:0.0; 
stroke:#000000; stroke-width:39.3701; stroke-opacity:1; 
stroke-linecap:round; stroke-linejoin:round;">
<path d="M32926 1991
L32926 25810
" />
<path d="M3004 1991
L32926 1991
" />
<path d="M3004 25810
L3004 1991
" />
<path d="M32926 25810
L3004 25810
" />
<g >
</g>
<g >
</g>
<g >
</g>
<g >
</g>
<g >
</g>
<g >
</g>
<g >
</g>
<g >
</g>
<g >
</g>
<g >
</g>
<g >
</g>
<g >
</g>
<g >
</g>
<g >
</g>
<g >
</g>
<g >
</g>
<g >
</g>
<g >
</g>
<g >
</g>
<g >
</g>
<g >
</g>
<g >
</g>
<g >
</g>
<g >
</g>
<g >
</g>
</g> 
</svg>
