<?xml version="1.0" standalone="no"?>
 <!DOCTYPE svg PUBLIC "-//W3C//DTD SVG 1.1//EN" 
 "http://www.w3.org/Graphics/SVG/1.1/DTD/svg11.dtd"> 
<svg
  xmlns:svg="http://www.w3.org/2000/svg"
  xmlns="http://www.w3.org/2000/svg"
  xmlns:xlink="http://www.w3.org/1999/xlink"
  version="1.1"
  width="9.682480cm" height="7.523480cm" viewBox="0 0 38120 29620">
<title>SVG Picture created as main-Cmts_User.svg date 2020/12/08 21:52:19 </title>
  <desc>Picture generated by PCBNEW </desc>
<g style="fill:#000000; fill-opacity:1;stroke:#000000; stroke-opacity:1;
stroke-linecap:round; stroke-linejoin:round;"
 transform="translate(0 0) scale(1 1)">
</g>
<g style="fill:#000000; fill-opacity:0.0; 
stroke:#000000; stroke-width:-0.000393701; stroke-opacity:1; 
stroke-linecap:round; stroke-linejoin:round;">
</g>
<g style="fill:#000000; fill-opacity:0.0; 
stroke:#000000; stroke-width:59.0551; stroke-opacity:1; 
stroke-linecap:round; stroke-linejoin:round;">
<circle cx="30957.5" cy="23841.5" r="1259.84" /> 
<circle cx="30957.5" cy="3959.65" r="1259.84" /> 
<circle cx="4973.28" cy="23841.5" r="1259.84" /> 
<circle cx="4973.28" cy="3959.65" r="1259.84" /> 
</g>
<g style="fill:#000000; fill-opacity:0.0; 
stroke:#000000; stroke-width:39.3701; stroke-opacity:1; 
stroke-linecap:round; stroke-linejoin:round;">
<path d="M21666 573
L21587 652
" />
<path d="M21666 2384
L21666 573
" />
<path d="M21666 573
L21744 652
" />
<path d="M21666 2384
L21744 2306
" />
<path d="M21666 2384
L21587 2306
" />
<path d="M14737 3221
L14658 3142
" />
<path d="M12926 3221
L14737 3221
" />
<path d="M14737 3221
L14658 3300
" />
<path d="M12926 3221
L13004 3300
" />
<path d="M12926 3221
L13004 3142
" />
<path d="M21981 3221
L22059 3300
" />
<path d="M21981 3221
L22059 3142
" />
<path d="M23792 3221
L23713 3300
" />
<path d="M23792 3221
L23713 3142
" />
<path d="M21981 3221
L23792 3221
" />
<g >
</g>
<g >
</g>
<g >
</g>
<g >
</g>
<g >
</g>
<g >
</g>
<g >
</g>
<g >
</g>
<g >
</g>
<g >
</g>
<g >
</g>
<g >
</g>
<g >
</g>
<g >
</g>
<g >
</g>
<g >
</g>
<g >
</g>
<g >
</g>
<g >
</g>
<g >
</g>
<g >
</g>
<g >
</g>
<g >
</g>
<g >
</g>
</g>
<g style="fill:#000000; fill-opacity:0.0; 
stroke:#000000; stroke-width:39.3701; stroke-opacity:1; 
stroke-linecap:round; stroke-linejoin:round;">
<g transform="rotate(-90 21430 1174.21)">
<text x="21430" y="1272.64"
textLength="939.164" font-size="262.467" lengthAdjust="spacingAndGlyphs"
text-anchor="middle" opacity="0">5 mm</text>
</g>
<path d="M21322 1464
L21322 1558
L21415 1567
L21406 1558
L21397 1539
L21397 1492
L21406 1474
L21415 1464
L21434 1455
L21481 1455
L21500 1464
L21509 1474
L21519 1492
L21519 1539
L21509 1558
L21500 1567
" />
<path d="M21519 1221
L21387 1221
" />
<path d="M21406 1221
L21397 1211
L21387 1192
L21387 1164
L21397 1146
L21415 1136
L21519 1136
" />
<path d="M21415 1136
L21397 1127
L21387 1108
L21387 1080
L21397 1061
L21415 1052
L21519 1052
" />
<path d="M21519 958
L21387 958
" />
<path d="M21406 958
L21397 949
L21387 930
L21387 902
L21397 883
L21415 874
L21519 874
" />
<path d="M21415 874
L21397 864
L21387 846
L21387 818
L21397 799
L21415 789
L21519 789
" />
<text x="13949.7" y="3123.03"
textLength="913.573" font-size="262.467" lengthAdjust="spacingAndGlyphs"
text-anchor="middle" opacity="0">5 mm</text>
<path d="M13659 2916
L13565 2916
L13555 3010
L13565 3001
L13584 2991
L13630 2991
L13649 3001
L13659 3010
L13668 3029
L13668 3076
L13659 3094
L13649 3104
L13630 3113
L13584 3113
L13565 3104
L13555 3094
" />
<path d="M13902 3113
L13902 2982
" />
<path d="M13902 3001
L13912 2991
L13930 2982
L13959 2982
L13977 2991
L13987 3010
L13987 3113
" />
<path d="M13987 3010
L13996 2991
L14015 2982
L14043 2982
L14062 2991
L14071 3010
L14071 3113
" />
<path d="M14165 3113
L14165 2982
" />
<path d="M14165 3001
L14174 2991
L14193 2982
L14221 2982
L14240 2991
L14249 3010
L14249 3113
" />
<path d="M14249 3010
L14258 2991
L14277 2982
L14305 2982
L14324 2991
L14333 3010
L14333 3113
" />
<text x="23004.8" y="3123.03"
textLength="913.573" font-size="262.467" lengthAdjust="spacingAndGlyphs"
text-anchor="middle" opacity="0">5 mm</text>
<path d="M22714 2916
L22620 2916
L22611 3010
L22620 3001
L22639 2991
L22686 2991
L22704 3001
L22714 3010
L22723 3029
L22723 3076
L22714 3094
L22704 3104
L22686 3113
L22639 3113
L22620 3104
L22611 3094
" />
<path d="M22957 3113
L22957 2982
" />
<path d="M22957 3001
L22967 2991
L22986 2982
L23014 2982
L23032 2991
L23042 3010
L23042 3113
" />
<path d="M23042 3010
L23051 2991
L23070 2982
L23098 2982
L23117 2991
L23126 3010
L23126 3113
" />
<path d="M23220 3113
L23220 2982
" />
<path d="M23220 3001
L23229 2991
L23248 2982
L23276 2982
L23295 2991
L23304 3010
L23304 3113
" />
<path d="M23304 3010
L23314 2991
L23332 2982
L23360 2982
L23379 2991
L23389 3010
L23389 3113
" />
</g>
<g style="fill:#000000; fill-opacity:0.0; 
stroke:#000000; stroke-width:59.0551; stroke-opacity:1; 
stroke-linecap:round; stroke-linejoin:round;">
<text x="18359.1" y="3762.8"
textLength="2375.89" font-size="524.934" lengthAdjust="spacingAndGlyphs"
text-anchor="middle" opacity="0">Antenna</text>
<path d="M17271 3631
L17459 3631
" />
<path d="M17234 3744
L17365 3350
L17496 3744
" />
<path d="M17627 3481
L17627 3744
" />
<path d="M17627 3519
L17646 3500
L17684 3481
L17740 3481
L17777 3500
L17796 3537
L17796 3744
" />
<path d="M17927 3481
L18077 3481
" />
<path d="M17984 3350
L17984 3687
L18002 3725
L18040 3744
L18077 3744
" />
<path d="M18359 3725
L18321 3744
L18246 3744
L18209 3725
L18190 3687
L18190 3537
L18209 3500
L18246 3481
L18321 3481
L18359 3500
L18377 3537
L18377 3575
L18190 3612
" />
<path d="M18546 3481
L18546 3744
" />
<path d="M18546 3519
L18565 3500
L18602 3481
L18659 3481
L18696 3500
L18715 3537
L18715 3744
" />
<path d="M18902 3481
L18902 3744
" />
<path d="M18902 3519
L18921 3500
L18959 3481
L19015 3481
L19052 3500
L19071 3537
L19071 3744
" />
<path d="M19427 3744
L19427 3537
L19408 3500
L19371 3481
L19296 3481
L19258 3500
" />
<path d="M19427 3725
L19390 3744
L19296 3744
L19258 3725
L19240 3687
L19240 3650
L19258 3612
L19296 3594
L19390 3594
L19427 3575
" />
<text x="18359.1" y="1400.59"
textLength="5044.9" font-size="524.934" lengthAdjust="spacingAndGlyphs"
text-anchor="middle" opacity="0">KEEP-OUT ZONE</text>
<path d="M15968 1381
L15968 988
" />
<path d="M16193 1381
L16025 1156
" />
<path d="M16193 988
L15968 1213
" />
<path d="M16362 1175
L16493 1175
" />
<path d="M16549 1381
L16362 1381
L16362 988
L16549 988
" />
<path d="M16718 1175
L16849 1175
" />
<path d="M16906 1381
L16718 1381
L16718 988
L16906 988
" />
<path d="M17074 1381
L17074 988
L17224 988
L17262 1006
L17281 1025
L17299 1063
L17299 1119
L17281 1156
L17262 1175
L17224 1194
L17074 1194
" />
<path d="M17468 1231
L17768 1231
" />
<path d="M18031 988
L18106 988
L18143 1006
L18181 1044
L18199 1119
L18199 1250
L18181 1325
L18143 1363
L18106 1381
L18031 1381
L17993 1363
L17956 1325
L17937 1250
L17937 1119
L17956 1044
L17993 1006
L18031 988
" />
<path d="M18368 988
L18368 1306
L18387 1344
L18405 1363
L18443 1381
L18518 1381
L18555 1363
L18574 1344
L18593 1306
L18593 988
" />
<path d="M18724 988
L18949 988
" />
<path d="M18837 1381
L18837 988
" />
<path d="M19343 988
L19605 988
L19343 1381
L19605 1381
" />
<path d="M19830 988
L19905 988
L19943 1006
L19980 1044
L19999 1119
L19999 1250
L19980 1325
L19943 1363
L19905 1381
L19830 1381
L19793 1363
L19755 1325
L19737 1250
L19737 1119
L19755 1044
L19793 1006
L19830 988
" />
<path d="M20168 1381
L20168 988
L20393 1381
L20393 988
" />
<path d="M20580 1175
L20711 1175
" />
<path d="M20768 1381
L20580 1381
L20580 988
L20768 988
" />
<g >
</g>
</g>
<g style="fill:#000000; fill-opacity:0.0; 
stroke:#000000; stroke-width:59.0551; stroke-opacity:1; 
stroke-linecap:round; stroke-linejoin:round;">
</g>
<g style="fill:#000000; fill-opacity:0.0; 
stroke:#000000; stroke-width:39.3701; stroke-opacity:1; 
stroke-linecap:round; stroke-linejoin:round;">
<path d="M32926 1991
L32926 25810
" />
<path d="M3004 1991
L32926 1991
" />
<path d="M3004 25810
L3004 1991
" />
<path d="M32926 25810
L3004 25810
" />
<g >
</g>
<g >
</g>
<g >
</g>
<g >
</g>
<g >
</g>
<g >
</g>
<g >
</g>
<g >
</g>
<g >
</g>
<g >
</g>
<g >
</g>
<g >
</g>
<g >
</g>
<g >
</g>
<g >
</g>
<g >
</g>
<g >
</g>
<g >
</g>
<g >
</g>
<g >
</g>
<g >
</g>
<g >
</g>
<g >
</g>
<g >
</g>
<g >
</g>
</g> 
</svg>
