%FSLAX45Y45*%
G04 Gerber Fmt 4.5, Leading zero omitted, Abs format (unit mm)*
G04 Created by KiCad (PCBNEW (5.1.8)-1) date 2021-01-04 15:21:40*
%MOMM*%
%LPD*%
G01*
G04 APERTURE LIST*
%TA.AperFunction,Profile*%
%ADD10C,0.100000*%
%TD*%
%ADD11C,0.200000*%
%ADD12C,0.300000*%
G04 APERTURE END LIST*
D10*
X18600000Y-5000000D02*
X11000000Y-5000000D01*
X18600000Y-5000000D02*
X18600000Y-13000000D01*
X11000000Y-13000000D02*
X11000000Y-5000000D01*
X18600000Y-13000000D02*
X11000000Y-13000000D01*
D11*
X12110000Y-7260000D02*
X12170000Y-7320000D01*
X12170000Y-7260000D02*
X12110000Y-7320000D01*
X12370000Y-5570000D02*
X12430000Y-5630000D01*
X12430000Y-5570000D02*
X12370000Y-5630000D01*
X12660000Y-8270000D02*
X12720000Y-8330000D01*
X12720000Y-8270000D02*
X12660000Y-8330000D01*
X12800000Y-8430000D02*
X12860000Y-8490000D01*
X12860000Y-8430000D02*
X12800000Y-8490000D01*
X12810000Y-7260000D02*
X12870000Y-7320000D01*
X12870000Y-7260000D02*
X12810000Y-7320000D01*
X12870000Y-5570000D02*
X12930000Y-5630000D01*
X12930000Y-5570000D02*
X12870000Y-5630000D01*
X12940000Y-6370000D02*
X13000000Y-6430000D01*
X13000000Y-6370000D02*
X12940000Y-6430000D01*
X12940000Y-6760000D02*
X13000000Y-6820000D01*
X13000000Y-6760000D02*
X12940000Y-6820000D01*
X13090000Y-6495000D02*
X13150000Y-6555000D01*
X13150000Y-6495000D02*
X13090000Y-6555000D01*
X13090000Y-6760000D02*
X13150000Y-6820000D01*
X13150000Y-6760000D02*
X13090000Y-6820000D01*
X13330000Y-6240000D02*
X13390000Y-6300000D01*
X13390000Y-6240000D02*
X13330000Y-6300000D01*
X13330000Y-6750500D02*
X13390000Y-6810500D01*
X13390000Y-6750500D02*
X13330000Y-6810500D01*
X13450000Y-11520000D02*
X13510000Y-11580000D01*
X13510000Y-11520000D02*
X13450000Y-11580000D01*
X13450000Y-11830000D02*
X13510000Y-11890000D01*
X13510000Y-11830000D02*
X13450000Y-11890000D01*
X13590000Y-9830000D02*
X13650000Y-9890000D01*
X13650000Y-9830000D02*
X13590000Y-9890000D01*
X13720000Y-10090000D02*
X13780000Y-10150000D01*
X13780000Y-10090000D02*
X13720000Y-10150000D01*
X13790000Y-8270000D02*
X13850000Y-8330000D01*
X13850000Y-8270000D02*
X13790000Y-8330000D01*
X13790000Y-8430000D02*
X13850000Y-8490000D01*
X13850000Y-8430000D02*
X13790000Y-8490000D01*
X13850000Y-10590000D02*
X13910000Y-10650000D01*
X13910000Y-10590000D02*
X13850000Y-10650000D01*
X13980000Y-11040000D02*
X14040000Y-11100000D01*
X14040000Y-11040000D02*
X13980000Y-11100000D01*
X13980000Y-11530000D02*
X14040000Y-11590000D01*
X14040000Y-11530000D02*
X13980000Y-11590000D01*
X14110000Y-9830000D02*
X14170000Y-9890000D01*
X14170000Y-9830000D02*
X14110000Y-9890000D01*
X14110000Y-10090000D02*
X14170000Y-10150000D01*
X14170000Y-10090000D02*
X14110000Y-10150000D01*
X14110000Y-10590000D02*
X14170000Y-10650000D01*
X14170000Y-10590000D02*
X14110000Y-10650000D01*
X14140000Y-11040000D02*
X14200000Y-11100000D01*
X14200000Y-11040000D02*
X14140000Y-11100000D01*
X14140000Y-11680000D02*
X14200000Y-11740000D01*
X14200000Y-11680000D02*
X14140000Y-11740000D01*
X15410000Y-8560000D02*
X15470000Y-8620000D01*
X15470000Y-8560000D02*
X15410000Y-8620000D01*
X15410000Y-9600000D02*
X15470000Y-9660000D01*
X15470000Y-9600000D02*
X15410000Y-9660000D01*
X15420000Y-10370000D02*
X15480000Y-10430000D01*
X15480000Y-10370000D02*
X15420000Y-10430000D01*
X15420000Y-11110000D02*
X15480000Y-11170000D01*
X15480000Y-11110000D02*
X15420000Y-11170000D01*
X15560000Y-8560000D02*
X15620000Y-8620000D01*
X15620000Y-8560000D02*
X15560000Y-8620000D01*
X15560000Y-9600000D02*
X15620000Y-9660000D01*
X15620000Y-9600000D02*
X15560000Y-9660000D01*
X15820000Y-9070000D02*
X15880000Y-9130000D01*
X15880000Y-9070000D02*
X15820000Y-9130000D01*
X15820000Y-9770000D02*
X15880000Y-9830000D01*
X15880000Y-9770000D02*
X15820000Y-9830000D01*
X15850000Y-7800000D02*
X15910000Y-7860000D01*
X15910000Y-7800000D02*
X15850000Y-7860000D01*
X15960000Y-10370000D02*
X16020000Y-10430000D01*
X16020000Y-10370000D02*
X15960000Y-10430000D01*
X15970000Y-8120000D02*
X16030000Y-8180000D01*
X16030000Y-8120000D02*
X15970000Y-8180000D01*
X15970000Y-8310000D02*
X16030000Y-8370000D01*
X16030000Y-8310000D02*
X15970000Y-8370000D01*
X16100000Y-11110000D02*
X16160000Y-11170000D01*
X16160000Y-11110000D02*
X16100000Y-11170000D01*
X16340000Y-8310000D02*
X16400000Y-8370000D01*
X16400000Y-8310000D02*
X16340000Y-8370000D01*
X16470000Y-8120000D02*
X16530000Y-8180000D01*
X16530000Y-8120000D02*
X16470000Y-8180000D01*
X16600000Y-7800000D02*
X16660000Y-7860000D01*
X16660000Y-7800000D02*
X16600000Y-7860000D01*
X12637500Y-11800000D02*
G75*
G03*
X12637500Y-11800000I-37500J0D01*
G01*
X12837500Y-11800000D02*
G75*
G03*
X12837500Y-11800000I-37500J0D01*
G01*
X14400000Y-12161900D02*
X14400000Y-12238100D01*
X14361900Y-12200000D02*
X14438100Y-12200000D01*
X14600000Y-12161900D02*
X14600000Y-12238100D01*
X14561900Y-12200000D02*
X14638100Y-12200000D01*
X14800000Y-12161900D02*
X14800000Y-12238100D01*
X14761900Y-12200000D02*
X14838100Y-12200000D01*
X15000000Y-12161900D02*
X15000000Y-12238100D01*
X14961900Y-12200000D02*
X15038100Y-12200000D01*
X17200000Y-7761900D02*
X17200000Y-7838100D01*
X17161900Y-7800000D02*
X17238100Y-7800000D01*
X17200000Y-7961900D02*
X17200000Y-8038100D01*
X17161900Y-8000000D02*
X17238100Y-8000000D01*
X17200000Y-8161900D02*
X17200000Y-8238100D01*
X17161900Y-8200000D02*
X17238100Y-8200000D01*
X17200000Y-8361900D02*
X17200000Y-8438100D01*
X17161900Y-8400000D02*
X17238100Y-8400000D01*
X16428284Y-10828285D02*
X16428284Y-10771716D01*
X16371715Y-10771716D01*
X16371715Y-10828285D01*
X16428284Y-10828285D01*
X17444285Y-10828285D02*
X17444285Y-10771716D01*
X17387716Y-10771716D01*
X17387716Y-10828285D01*
X17444285Y-10828285D01*
X16528284Y-6728284D02*
X16528284Y-6671715D01*
X16471715Y-6671715D01*
X16471715Y-6728284D01*
X16528284Y-6728284D01*
X17544285Y-6728284D02*
X17544285Y-6671715D01*
X17487716Y-6671715D01*
X17487716Y-6728284D01*
X17544285Y-6728284D01*
X16628284Y-9328285D02*
X16628284Y-9271716D01*
X16571715Y-9271716D01*
X16571715Y-9328285D01*
X16628284Y-9328285D01*
X16628284Y-9582285D02*
X16628284Y-9525716D01*
X16571715Y-9525716D01*
X16571715Y-9582285D01*
X16628284Y-9582285D01*
X16628284Y-9836285D02*
X16628284Y-9779716D01*
X16571715Y-9779716D01*
X16571715Y-9836285D01*
X16628284Y-9836285D01*
X17390285Y-9328285D02*
X17390285Y-9271716D01*
X17333716Y-9271716D01*
X17333716Y-9328285D01*
X17390285Y-9328285D01*
X17390285Y-9582285D02*
X17390285Y-9525716D01*
X17333716Y-9525716D01*
X17333716Y-9582285D01*
X17390285Y-9582285D01*
X17390285Y-9836285D02*
X17390285Y-9779716D01*
X17333716Y-9779716D01*
X17333716Y-9836285D01*
X17390285Y-9836285D01*
X14428284Y-9128285D02*
X14428284Y-9071716D01*
X14371715Y-9071716D01*
X14371715Y-9128285D01*
X14428284Y-9128285D01*
X14428284Y-9382285D02*
X14428284Y-9325716D01*
X14371715Y-9325716D01*
X14371715Y-9382285D01*
X14428284Y-9382285D01*
X14428284Y-9636285D02*
X14428284Y-9579716D01*
X14371715Y-9579716D01*
X14371715Y-9636285D01*
X14428284Y-9636285D01*
X14428284Y-9890285D02*
X14428284Y-9833716D01*
X14371715Y-9833716D01*
X14371715Y-9890285D01*
X14428284Y-9890285D01*
X14428284Y-10144285D02*
X14428284Y-10087716D01*
X14371715Y-10087716D01*
X14371715Y-10144285D01*
X14428284Y-10144285D01*
X14428284Y-10398285D02*
X14428284Y-10341716D01*
X14371715Y-10341716D01*
X14371715Y-10398285D01*
X14428284Y-10398285D01*
X14428284Y-10652285D02*
X14428284Y-10595716D01*
X14371715Y-10595716D01*
X14371715Y-10652285D01*
X14428284Y-10652285D01*
X14428284Y-10906285D02*
X14428284Y-10849716D01*
X14371715Y-10849716D01*
X14371715Y-10906285D01*
X14428284Y-10906285D01*
X15190284Y-9128285D02*
X15190284Y-9071716D01*
X15133715Y-9071716D01*
X15133715Y-9128285D01*
X15190284Y-9128285D01*
X15190284Y-9382285D02*
X15190284Y-9325716D01*
X15133715Y-9325716D01*
X15133715Y-9382285D01*
X15190284Y-9382285D01*
X15190284Y-9636285D02*
X15190284Y-9579716D01*
X15133715Y-9579716D01*
X15133715Y-9636285D01*
X15190284Y-9636285D01*
X15190284Y-9890285D02*
X15190284Y-9833716D01*
X15133715Y-9833716D01*
X15133715Y-9890285D01*
X15190284Y-9890285D01*
X15190284Y-10144285D02*
X15190284Y-10087716D01*
X15133715Y-10087716D01*
X15133715Y-10144285D01*
X15190284Y-10144285D01*
X15190284Y-10398285D02*
X15190284Y-10341716D01*
X15133715Y-10341716D01*
X15133715Y-10398285D01*
X15190284Y-10398285D01*
X15190284Y-10652285D02*
X15190284Y-10595716D01*
X15133715Y-10595716D01*
X15133715Y-10652285D01*
X15190284Y-10652285D01*
X15190284Y-10906285D02*
X15190284Y-10849716D01*
X15133715Y-10849716D01*
X15133715Y-10906285D01*
X15190284Y-10906285D01*
X16528284Y-5708284D02*
X16528284Y-5651715D01*
X16471715Y-5651715D01*
X16471715Y-5708284D01*
X16528284Y-5708284D01*
X16528284Y-6208284D02*
X16528284Y-6151715D01*
X16471715Y-6151715D01*
X16471715Y-6208284D01*
X16528284Y-6208284D01*
X16428284Y-10328285D02*
X16428284Y-10271716D01*
X16371715Y-10271716D01*
X16371715Y-10328285D01*
X16428284Y-10328285D01*
X17444285Y-10328285D02*
X17444285Y-10271716D01*
X17387716Y-10271716D01*
X17387716Y-10328285D01*
X17444285Y-10328285D01*
X12208284Y-8758285D02*
X12208284Y-8701716D01*
X12151715Y-8701716D01*
X12151715Y-8758285D01*
X12208284Y-8758285D01*
X12708284Y-8758285D02*
X12708284Y-8701716D01*
X12651715Y-8701716D01*
X12651715Y-8758285D01*
X12708284Y-8758285D01*
X12228284Y-10228285D02*
X12228284Y-10171716D01*
X12171715Y-10171716D01*
X12171715Y-10228285D01*
X12228284Y-10228285D01*
X12728284Y-10228285D02*
X12728284Y-10171716D01*
X12671715Y-10171716D01*
X12671715Y-10228285D01*
X12728284Y-10228285D01*
X12178284Y-7928284D02*
X12178284Y-7871715D01*
X12121715Y-7871715D01*
X12121715Y-7928284D01*
X12178284Y-7928284D01*
X12428284Y-7928284D02*
X12428284Y-7871715D01*
X12371715Y-7871715D01*
X12371715Y-7928284D01*
X12428284Y-7928284D01*
X16674000Y-11691000D02*
X16719000Y-11646000D01*
X16674000Y-11601000D01*
X16629000Y-11646000D01*
X16674000Y-11691000D01*
X16776000Y-11945000D02*
X16821000Y-11900000D01*
X16776000Y-11855000D01*
X16731000Y-11900000D01*
X16776000Y-11945000D01*
X16878000Y-11691000D02*
X16923000Y-11646000D01*
X16878000Y-11601000D01*
X16833000Y-11646000D01*
X16878000Y-11691000D01*
X16980000Y-11945000D02*
X17025000Y-11900000D01*
X16980000Y-11855000D01*
X16935000Y-11900000D01*
X16980000Y-11945000D01*
X12540000Y-12545000D02*
X12585000Y-12500000D01*
X12540000Y-12455000D01*
X12495000Y-12500000D01*
X12540000Y-12545000D01*
X12540000Y-12875000D02*
X12585000Y-12830000D01*
X12540000Y-12785000D01*
X12495000Y-12830000D01*
X12540000Y-12875000D01*
X12790000Y-12545000D02*
X12835000Y-12500000D01*
X12790000Y-12455000D01*
X12745000Y-12500000D01*
X12790000Y-12545000D01*
X12790000Y-12875000D02*
X12835000Y-12830000D01*
X12790000Y-12785000D01*
X12745000Y-12830000D01*
X12790000Y-12875000D01*
X13040000Y-12545000D02*
X13085000Y-12500000D01*
X13040000Y-12455000D01*
X12995000Y-12500000D01*
X13040000Y-12545000D01*
X13040000Y-12875000D02*
X13085000Y-12830000D01*
X13040000Y-12785000D01*
X12995000Y-12830000D01*
X13040000Y-12875000D01*
X12350000Y-5950000D02*
X12450000Y-6050000D01*
X12450000Y-5950000D02*
X12350000Y-6050000D01*
X12450000Y-6000000D02*
G75*
G03*
X12450000Y-6000000I-50000J0D01*
G01*
X12350000Y-6204000D02*
X12450000Y-6304000D01*
X12450000Y-6204000D02*
X12350000Y-6304000D01*
X12450000Y-6254000D02*
G75*
G03*
X12450000Y-6254000I-50000J0D01*
G01*
X12350000Y-6458000D02*
X12450000Y-6558000D01*
X12450000Y-6458000D02*
X12350000Y-6558000D01*
X12450000Y-6508000D02*
G75*
G03*
X12450000Y-6508000I-50000J0D01*
G01*
X12350000Y-6712000D02*
X12450000Y-6812000D01*
X12450000Y-6712000D02*
X12350000Y-6812000D01*
X12450000Y-6762000D02*
G75*
G03*
X12450000Y-6762000I-50000J0D01*
G01*
X12604000Y-5950000D02*
X12704000Y-6050000D01*
X12704000Y-5950000D02*
X12604000Y-6050000D01*
X12704000Y-6000000D02*
G75*
G03*
X12704000Y-6000000I-50000J0D01*
G01*
X12604000Y-6204000D02*
X12704000Y-6304000D01*
X12704000Y-6204000D02*
X12604000Y-6304000D01*
X12704000Y-6254000D02*
G75*
G03*
X12704000Y-6254000I-50000J0D01*
G01*
X12604000Y-6458000D02*
X12704000Y-6558000D01*
X12704000Y-6458000D02*
X12604000Y-6558000D01*
X12704000Y-6508000D02*
G75*
G03*
X12704000Y-6508000I-50000J0D01*
G01*
X12604000Y-6712000D02*
X12704000Y-6812000D01*
X12704000Y-6712000D02*
X12604000Y-6812000D01*
X12704000Y-6762000D02*
G75*
G03*
X12704000Y-6762000I-50000J0D01*
G01*
X17350000Y-7150000D02*
X17450000Y-7250000D01*
X17450000Y-7150000D02*
X17350000Y-7250000D01*
X17450000Y-7200000D02*
G75*
G03*
X17450000Y-7200000I-50000J0D01*
G01*
X12250000Y-11050000D02*
X12350000Y-11150000D01*
X12350000Y-11050000D02*
X12250000Y-11150000D01*
X12350000Y-11100000D02*
G75*
G03*
X12350000Y-11100000I-50000J0D01*
G01*
X12504000Y-11050000D02*
X12604000Y-11150000D01*
X12604000Y-11050000D02*
X12504000Y-11150000D01*
X12604000Y-11100000D02*
G75*
G03*
X12604000Y-11100000I-50000J0D01*
G01*
X12758000Y-11050000D02*
X12858000Y-11150000D01*
X12858000Y-11050000D02*
X12758000Y-11150000D01*
X12858000Y-11100000D02*
G75*
G03*
X12858000Y-11100000I-50000J0D01*
G01*
X13012000Y-11050000D02*
X13112000Y-11150000D01*
X13112000Y-11050000D02*
X13012000Y-11150000D01*
X13112000Y-11100000D02*
G75*
G03*
X13112000Y-11100000I-50000J0D01*
G01*
X12145000Y-8995000D02*
X12255000Y-9105000D01*
X12255000Y-8995000D02*
X12145000Y-9105000D01*
X12200000Y-8995000D02*
X12200000Y-9105000D01*
X12145000Y-9050000D02*
X12255000Y-9050000D01*
X12145000Y-9645000D02*
X12255000Y-9755000D01*
X12255000Y-9645000D02*
X12145000Y-9755000D01*
X12200000Y-9645000D02*
X12200000Y-9755000D01*
X12145000Y-9700000D02*
X12255000Y-9700000D01*
X12595000Y-8995000D02*
X12705000Y-9105000D01*
X12705000Y-8995000D02*
X12595000Y-9105000D01*
X12650000Y-8995000D02*
X12650000Y-9105000D01*
X12595000Y-9050000D02*
X12705000Y-9050000D01*
X12595000Y-9645000D02*
X12705000Y-9755000D01*
X12705000Y-9645000D02*
X12595000Y-9755000D01*
X12650000Y-9645000D02*
X12650000Y-9755000D01*
X12595000Y-9700000D02*
X12705000Y-9700000D01*
X16745000Y-5645000D02*
X16855000Y-5755000D01*
X16855000Y-5645000D02*
X16745000Y-5755000D01*
X16800000Y-5645000D02*
X16800000Y-5755000D01*
X16745000Y-5700000D02*
X16855000Y-5700000D01*
X16745000Y-6095000D02*
X16855000Y-6205000D01*
X16855000Y-6095000D02*
X16745000Y-6205000D01*
X16800000Y-6095000D02*
X16800000Y-6205000D01*
X16745000Y-6150000D02*
X16855000Y-6150000D01*
X17395000Y-5645000D02*
X17505000Y-5755000D01*
X17505000Y-5645000D02*
X17395000Y-5755000D01*
X17450000Y-5645000D02*
X17450000Y-5755000D01*
X17395000Y-5700000D02*
X17505000Y-5700000D01*
X17395000Y-6095000D02*
X17505000Y-6205000D01*
X17505000Y-6095000D02*
X17395000Y-6205000D01*
X17450000Y-6095000D02*
X17450000Y-6205000D01*
X17395000Y-6150000D02*
X17505000Y-6150000D01*
X17940000Y-12340000D02*
X18260000Y-12660000D01*
X18260000Y-12340000D02*
X17940000Y-12660000D01*
X18213138Y-12613138D02*
X18213138Y-12386862D01*
X17986862Y-12386862D01*
X17986862Y-12613138D01*
X18213138Y-12613138D01*
X11340000Y-12340000D02*
X11660000Y-12660000D01*
X11660000Y-12340000D02*
X11340000Y-12660000D01*
X11613138Y-12613138D02*
X11613138Y-12386862D01*
X11386862Y-12386862D01*
X11386862Y-12613138D01*
X11613138Y-12613138D01*
X11340000Y-5340000D02*
X11660000Y-5660000D01*
X11660000Y-5340000D02*
X11340000Y-5660000D01*
X11613138Y-5613138D02*
X11613138Y-5386862D01*
X11386862Y-5386862D01*
X11386862Y-5613138D01*
X11613138Y-5613138D01*
X17940000Y-5340000D02*
X18260000Y-5660000D01*
X18260000Y-5340000D02*
X17940000Y-5660000D01*
X18213138Y-5613138D02*
X18213138Y-5386862D01*
X17986862Y-5386862D01*
X17986862Y-5613138D01*
X18213138Y-5613138D01*
D12*
X11281428Y-13470714D02*
X11281428Y-13170714D01*
X11352857Y-13170714D01*
X11395714Y-13185000D01*
X11424286Y-13213571D01*
X11438571Y-13242143D01*
X11452857Y-13299286D01*
X11452857Y-13342143D01*
X11438571Y-13399286D01*
X11424286Y-13427857D01*
X11395714Y-13456429D01*
X11352857Y-13470714D01*
X11281428Y-13470714D01*
X11581428Y-13470714D02*
X11581428Y-13270714D01*
X11581428Y-13327857D02*
X11595714Y-13299286D01*
X11610000Y-13285000D01*
X11638571Y-13270714D01*
X11667143Y-13270714D01*
X11767143Y-13470714D02*
X11767143Y-13270714D01*
X11767143Y-13170714D02*
X11752857Y-13185000D01*
X11767143Y-13199286D01*
X11781428Y-13185000D01*
X11767143Y-13170714D01*
X11767143Y-13199286D01*
X11952857Y-13470714D02*
X11924286Y-13456429D01*
X11910000Y-13427857D01*
X11910000Y-13170714D01*
X12110000Y-13470714D02*
X12081428Y-13456429D01*
X12067143Y-13427857D01*
X12067143Y-13170714D01*
X12452857Y-13470714D02*
X12452857Y-13170714D01*
X12552857Y-13385000D01*
X12652857Y-13170714D01*
X12652857Y-13470714D01*
X12924286Y-13470714D02*
X12924286Y-13313571D01*
X12910000Y-13285000D01*
X12881428Y-13270714D01*
X12824286Y-13270714D01*
X12795714Y-13285000D01*
X12924286Y-13456429D02*
X12895714Y-13470714D01*
X12824286Y-13470714D01*
X12795714Y-13456429D01*
X12781428Y-13427857D01*
X12781428Y-13399286D01*
X12795714Y-13370714D01*
X12824286Y-13356429D01*
X12895714Y-13356429D01*
X12924286Y-13342143D01*
X13067143Y-13270714D02*
X13067143Y-13570714D01*
X13067143Y-13285000D02*
X13095714Y-13270714D01*
X13152857Y-13270714D01*
X13181428Y-13285000D01*
X13195714Y-13299286D01*
X13210000Y-13327857D01*
X13210000Y-13413571D01*
X13195714Y-13442143D01*
X13181428Y-13456429D01*
X13152857Y-13470714D01*
X13095714Y-13470714D01*
X13067143Y-13456429D01*
X13338571Y-13442143D02*
X13352857Y-13456429D01*
X13338571Y-13470714D01*
X13324286Y-13456429D01*
X13338571Y-13442143D01*
X13338571Y-13470714D01*
X13338571Y-13285000D02*
X13352857Y-13299286D01*
X13338571Y-13313571D01*
X13324286Y-13299286D01*
X13338571Y-13285000D01*
X13338571Y-13313571D01*
X10935000Y-13935000D02*
X10995000Y-13995000D01*
X10995000Y-13935000D02*
X10935000Y-13995000D01*
X11338571Y-13800714D02*
X11367143Y-13800714D01*
X11395714Y-13815000D01*
X11410000Y-13829286D01*
X11424286Y-13857857D01*
X11438571Y-13915000D01*
X11438571Y-13986429D01*
X11424286Y-14043571D01*
X11410000Y-14072143D01*
X11395714Y-14086429D01*
X11367143Y-14100714D01*
X11338571Y-14100714D01*
X11310000Y-14086429D01*
X11295714Y-14072143D01*
X11281428Y-14043571D01*
X11267143Y-13986429D01*
X11267143Y-13915000D01*
X11281428Y-13857857D01*
X11295714Y-13829286D01*
X11310000Y-13815000D01*
X11338571Y-13800714D01*
X11567143Y-14072143D02*
X11581428Y-14086429D01*
X11567143Y-14100714D01*
X11552857Y-14086429D01*
X11567143Y-14072143D01*
X11567143Y-14100714D01*
X11838571Y-13800714D02*
X11781428Y-13800714D01*
X11752857Y-13815000D01*
X11738571Y-13829286D01*
X11710000Y-13872143D01*
X11695714Y-13929286D01*
X11695714Y-14043571D01*
X11710000Y-14072143D01*
X11724286Y-14086429D01*
X11752857Y-14100714D01*
X11810000Y-14100714D01*
X11838571Y-14086429D01*
X11852857Y-14072143D01*
X11867143Y-14043571D01*
X11867143Y-13972143D01*
X11852857Y-13943571D01*
X11838571Y-13929286D01*
X11810000Y-13915000D01*
X11752857Y-13915000D01*
X11724286Y-13929286D01*
X11710000Y-13943571D01*
X11695714Y-13972143D01*
X12052857Y-13800714D02*
X12081428Y-13800714D01*
X12110000Y-13815000D01*
X12124286Y-13829286D01*
X12138571Y-13857857D01*
X12152857Y-13915000D01*
X12152857Y-13986429D01*
X12138571Y-14043571D01*
X12124286Y-14072143D01*
X12110000Y-14086429D01*
X12081428Y-14100714D01*
X12052857Y-14100714D01*
X12024286Y-14086429D01*
X12010000Y-14072143D01*
X11995714Y-14043571D01*
X11981428Y-13986429D01*
X11981428Y-13915000D01*
X11995714Y-13857857D01*
X12010000Y-13829286D01*
X12024286Y-13815000D01*
X12052857Y-13800714D01*
X12281428Y-14100714D02*
X12281428Y-13900714D01*
X12281428Y-13929286D02*
X12295714Y-13915000D01*
X12324286Y-13900714D01*
X12367143Y-13900714D01*
X12395714Y-13915000D01*
X12410000Y-13943571D01*
X12410000Y-14100714D01*
X12410000Y-13943571D02*
X12424286Y-13915000D01*
X12452857Y-13900714D01*
X12495714Y-13900714D01*
X12524286Y-13915000D01*
X12538571Y-13943571D01*
X12538571Y-14100714D01*
X12681428Y-14100714D02*
X12681428Y-13900714D01*
X12681428Y-13929286D02*
X12695714Y-13915000D01*
X12724286Y-13900714D01*
X12767143Y-13900714D01*
X12795714Y-13915000D01*
X12810000Y-13943571D01*
X12810000Y-14100714D01*
X12810000Y-13943571D02*
X12824286Y-13915000D01*
X12852857Y-13900714D01*
X12895714Y-13900714D01*
X12924286Y-13915000D01*
X12938571Y-13943571D01*
X12938571Y-14100714D01*
X13524286Y-13786429D02*
X13267143Y-14172143D01*
X13910000Y-13800714D02*
X13938571Y-13800714D01*
X13967143Y-13815000D01*
X13981428Y-13829286D01*
X13995714Y-13857857D01*
X14010000Y-13915000D01*
X14010000Y-13986429D01*
X13995714Y-14043571D01*
X13981428Y-14072143D01*
X13967143Y-14086429D01*
X13938571Y-14100714D01*
X13910000Y-14100714D01*
X13881428Y-14086429D01*
X13867143Y-14072143D01*
X13852857Y-14043571D01*
X13838571Y-13986429D01*
X13838571Y-13915000D01*
X13852857Y-13857857D01*
X13867143Y-13829286D01*
X13881428Y-13815000D01*
X13910000Y-13800714D01*
X14138571Y-14072143D02*
X14152857Y-14086429D01*
X14138571Y-14100714D01*
X14124286Y-14086429D01*
X14138571Y-14072143D01*
X14138571Y-14100714D01*
X14338571Y-13800714D02*
X14367143Y-13800714D01*
X14395714Y-13815000D01*
X14410000Y-13829286D01*
X14424286Y-13857857D01*
X14438571Y-13915000D01*
X14438571Y-13986429D01*
X14424286Y-14043571D01*
X14410000Y-14072143D01*
X14395714Y-14086429D01*
X14367143Y-14100714D01*
X14338571Y-14100714D01*
X14310000Y-14086429D01*
X14295714Y-14072143D01*
X14281428Y-14043571D01*
X14267143Y-13986429D01*
X14267143Y-13915000D01*
X14281428Y-13857857D01*
X14295714Y-13829286D01*
X14310000Y-13815000D01*
X14338571Y-13800714D01*
X14552857Y-13829286D02*
X14567143Y-13815000D01*
X14595714Y-13800714D01*
X14667143Y-13800714D01*
X14695714Y-13815000D01*
X14710000Y-13829286D01*
X14724286Y-13857857D01*
X14724286Y-13886429D01*
X14710000Y-13929286D01*
X14538571Y-14100714D01*
X14724286Y-14100714D01*
X14981428Y-13900714D02*
X14981428Y-14100714D01*
X14910000Y-13786429D02*
X14838571Y-14000714D01*
X15024286Y-14000714D01*
X15124286Y-13800714D02*
X15124286Y-13857857D01*
X15238571Y-13800714D02*
X15238571Y-13857857D01*
X15681428Y-14215000D02*
X15667143Y-14200714D01*
X15638571Y-14157857D01*
X15624286Y-14129286D01*
X15610000Y-14086429D01*
X15595714Y-14015000D01*
X15595714Y-13957857D01*
X15610000Y-13886429D01*
X15624286Y-13843571D01*
X15638571Y-13815000D01*
X15667143Y-13772143D01*
X15681428Y-13757857D01*
X15924286Y-13900714D02*
X15924286Y-14100714D01*
X15852857Y-13786429D02*
X15781428Y-14000714D01*
X15967143Y-14000714D01*
X16067143Y-13829286D02*
X16081428Y-13815000D01*
X16110000Y-13800714D01*
X16181428Y-13800714D01*
X16210000Y-13815000D01*
X16224286Y-13829286D01*
X16238571Y-13857857D01*
X16238571Y-13886429D01*
X16224286Y-13929286D01*
X16052857Y-14100714D01*
X16238571Y-14100714D01*
X16595714Y-14100714D02*
X16595714Y-13800714D01*
X16724286Y-14100714D02*
X16724286Y-13943571D01*
X16710000Y-13915000D01*
X16681428Y-13900714D01*
X16638571Y-13900714D01*
X16610000Y-13915000D01*
X16595714Y-13929286D01*
X16910000Y-14100714D02*
X16881428Y-14086429D01*
X16867143Y-14072143D01*
X16852857Y-14043571D01*
X16852857Y-13957857D01*
X16867143Y-13929286D01*
X16881428Y-13915000D01*
X16910000Y-13900714D01*
X16952857Y-13900714D01*
X16981428Y-13915000D01*
X16995714Y-13929286D01*
X17010000Y-13957857D01*
X17010000Y-14043571D01*
X16995714Y-14072143D01*
X16981428Y-14086429D01*
X16952857Y-14100714D01*
X16910000Y-14100714D01*
X17181428Y-14100714D02*
X17152857Y-14086429D01*
X17138571Y-14057857D01*
X17138571Y-13800714D01*
X17410000Y-14086429D02*
X17381428Y-14100714D01*
X17324286Y-14100714D01*
X17295714Y-14086429D01*
X17281428Y-14057857D01*
X17281428Y-13943571D01*
X17295714Y-13915000D01*
X17324286Y-13900714D01*
X17381428Y-13900714D01*
X17410000Y-13915000D01*
X17424286Y-13943571D01*
X17424286Y-13972143D01*
X17281428Y-14000714D01*
X17538571Y-14086429D02*
X17567143Y-14100714D01*
X17624286Y-14100714D01*
X17652857Y-14086429D01*
X17667143Y-14057857D01*
X17667143Y-14043571D01*
X17652857Y-14015000D01*
X17624286Y-14000714D01*
X17581428Y-14000714D01*
X17552857Y-13986429D01*
X17538571Y-13957857D01*
X17538571Y-13943571D01*
X17552857Y-13915000D01*
X17581428Y-13900714D01*
X17624286Y-13900714D01*
X17652857Y-13915000D01*
X17767143Y-14215000D02*
X17781428Y-14200714D01*
X17810000Y-14157857D01*
X17824286Y-14129286D01*
X17838571Y-14086429D01*
X17852857Y-14015000D01*
X17852857Y-13957857D01*
X17838571Y-13886429D01*
X17824286Y-13843571D01*
X17810000Y-13815000D01*
X17781428Y-13772143D01*
X17767143Y-13757857D01*
X10995000Y-14361000D02*
G75*
G03*
X10995000Y-14361000I-37500J0D01*
G01*
X11338571Y-14196714D02*
X11367143Y-14196714D01*
X11395714Y-14211000D01*
X11410000Y-14225286D01*
X11424286Y-14253857D01*
X11438571Y-14311000D01*
X11438571Y-14382429D01*
X11424286Y-14439571D01*
X11410000Y-14468143D01*
X11395714Y-14482429D01*
X11367143Y-14496714D01*
X11338571Y-14496714D01*
X11310000Y-14482429D01*
X11295714Y-14468143D01*
X11281428Y-14439571D01*
X11267143Y-14382429D01*
X11267143Y-14311000D01*
X11281428Y-14253857D01*
X11295714Y-14225286D01*
X11310000Y-14211000D01*
X11338571Y-14196714D01*
X11567143Y-14468143D02*
X11581428Y-14482429D01*
X11567143Y-14496714D01*
X11552857Y-14482429D01*
X11567143Y-14468143D01*
X11567143Y-14496714D01*
X11681428Y-14196714D02*
X11881428Y-14196714D01*
X11752857Y-14496714D01*
X12138571Y-14196714D02*
X11995714Y-14196714D01*
X11981428Y-14339571D01*
X11995714Y-14325286D01*
X12024286Y-14311000D01*
X12095714Y-14311000D01*
X12124286Y-14325286D01*
X12138571Y-14339571D01*
X12152857Y-14368143D01*
X12152857Y-14439571D01*
X12138571Y-14468143D01*
X12124286Y-14482429D01*
X12095714Y-14496714D01*
X12024286Y-14496714D01*
X11995714Y-14482429D01*
X11981428Y-14468143D01*
X12281428Y-14496714D02*
X12281428Y-14296714D01*
X12281428Y-14325286D02*
X12295714Y-14311000D01*
X12324286Y-14296714D01*
X12367143Y-14296714D01*
X12395714Y-14311000D01*
X12410000Y-14339571D01*
X12410000Y-14496714D01*
X12410000Y-14339571D02*
X12424286Y-14311000D01*
X12452857Y-14296714D01*
X12495714Y-14296714D01*
X12524286Y-14311000D01*
X12538571Y-14339571D01*
X12538571Y-14496714D01*
X12681428Y-14496714D02*
X12681428Y-14296714D01*
X12681428Y-14325286D02*
X12695714Y-14311000D01*
X12724286Y-14296714D01*
X12767143Y-14296714D01*
X12795714Y-14311000D01*
X12810000Y-14339571D01*
X12810000Y-14496714D01*
X12810000Y-14339571D02*
X12824286Y-14311000D01*
X12852857Y-14296714D01*
X12895714Y-14296714D01*
X12924286Y-14311000D01*
X12938571Y-14339571D01*
X12938571Y-14496714D01*
X13524286Y-14182429D02*
X13267143Y-14568143D01*
X13910000Y-14196714D02*
X13938571Y-14196714D01*
X13967143Y-14211000D01*
X13981428Y-14225286D01*
X13995714Y-14253857D01*
X14010000Y-14311000D01*
X14010000Y-14382429D01*
X13995714Y-14439571D01*
X13981428Y-14468143D01*
X13967143Y-14482429D01*
X13938571Y-14496714D01*
X13910000Y-14496714D01*
X13881428Y-14482429D01*
X13867143Y-14468143D01*
X13852857Y-14439571D01*
X13838571Y-14382429D01*
X13838571Y-14311000D01*
X13852857Y-14253857D01*
X13867143Y-14225286D01*
X13881428Y-14211000D01*
X13910000Y-14196714D01*
X14138571Y-14468143D02*
X14152857Y-14482429D01*
X14138571Y-14496714D01*
X14124286Y-14482429D01*
X14138571Y-14468143D01*
X14138571Y-14496714D01*
X14338571Y-14196714D02*
X14367143Y-14196714D01*
X14395714Y-14211000D01*
X14410000Y-14225286D01*
X14424286Y-14253857D01*
X14438571Y-14311000D01*
X14438571Y-14382429D01*
X14424286Y-14439571D01*
X14410000Y-14468143D01*
X14395714Y-14482429D01*
X14367143Y-14496714D01*
X14338571Y-14496714D01*
X14310000Y-14482429D01*
X14295714Y-14468143D01*
X14281428Y-14439571D01*
X14267143Y-14382429D01*
X14267143Y-14311000D01*
X14281428Y-14253857D01*
X14295714Y-14225286D01*
X14310000Y-14211000D01*
X14338571Y-14196714D01*
X14538571Y-14196714D02*
X14724286Y-14196714D01*
X14624286Y-14311000D01*
X14667143Y-14311000D01*
X14695714Y-14325286D01*
X14710000Y-14339571D01*
X14724286Y-14368143D01*
X14724286Y-14439571D01*
X14710000Y-14468143D01*
X14695714Y-14482429D01*
X14667143Y-14496714D01*
X14581428Y-14496714D01*
X14552857Y-14482429D01*
X14538571Y-14468143D01*
X14910000Y-14196714D02*
X14938571Y-14196714D01*
X14967143Y-14211000D01*
X14981428Y-14225286D01*
X14995714Y-14253857D01*
X15010000Y-14311000D01*
X15010000Y-14382429D01*
X14995714Y-14439571D01*
X14981428Y-14468143D01*
X14967143Y-14482429D01*
X14938571Y-14496714D01*
X14910000Y-14496714D01*
X14881428Y-14482429D01*
X14867143Y-14468143D01*
X14852857Y-14439571D01*
X14838571Y-14382429D01*
X14838571Y-14311000D01*
X14852857Y-14253857D01*
X14867143Y-14225286D01*
X14881428Y-14211000D01*
X14910000Y-14196714D01*
X15124286Y-14196714D02*
X15124286Y-14253857D01*
X15238571Y-14196714D02*
X15238571Y-14253857D01*
X15681428Y-14611000D02*
X15667143Y-14596714D01*
X15638571Y-14553857D01*
X15624286Y-14525286D01*
X15610000Y-14482429D01*
X15595714Y-14411000D01*
X15595714Y-14353857D01*
X15610000Y-14282429D01*
X15624286Y-14239571D01*
X15638571Y-14211000D01*
X15667143Y-14168143D01*
X15681428Y-14153857D01*
X15781428Y-14225286D02*
X15795714Y-14211000D01*
X15824286Y-14196714D01*
X15895714Y-14196714D01*
X15924286Y-14211000D01*
X15938571Y-14225286D01*
X15952857Y-14253857D01*
X15952857Y-14282429D01*
X15938571Y-14325286D01*
X15767143Y-14496714D01*
X15952857Y-14496714D01*
X16310000Y-14496714D02*
X16310000Y-14196714D01*
X16438571Y-14496714D02*
X16438571Y-14339571D01*
X16424286Y-14311000D01*
X16395714Y-14296714D01*
X16352857Y-14296714D01*
X16324286Y-14311000D01*
X16310000Y-14325286D01*
X16624286Y-14496714D02*
X16595714Y-14482429D01*
X16581428Y-14468143D01*
X16567143Y-14439571D01*
X16567143Y-14353857D01*
X16581428Y-14325286D01*
X16595714Y-14311000D01*
X16624286Y-14296714D01*
X16667143Y-14296714D01*
X16695714Y-14311000D01*
X16710000Y-14325286D01*
X16724286Y-14353857D01*
X16724286Y-14439571D01*
X16710000Y-14468143D01*
X16695714Y-14482429D01*
X16667143Y-14496714D01*
X16624286Y-14496714D01*
X16895714Y-14496714D02*
X16867143Y-14482429D01*
X16852857Y-14453857D01*
X16852857Y-14196714D01*
X17124286Y-14482429D02*
X17095714Y-14496714D01*
X17038571Y-14496714D01*
X17010000Y-14482429D01*
X16995714Y-14453857D01*
X16995714Y-14339571D01*
X17010000Y-14311000D01*
X17038571Y-14296714D01*
X17095714Y-14296714D01*
X17124286Y-14311000D01*
X17138571Y-14339571D01*
X17138571Y-14368143D01*
X16995714Y-14396714D01*
X17252857Y-14482429D02*
X17281428Y-14496714D01*
X17338571Y-14496714D01*
X17367143Y-14482429D01*
X17381428Y-14453857D01*
X17381428Y-14439571D01*
X17367143Y-14411000D01*
X17338571Y-14396714D01*
X17295714Y-14396714D01*
X17267143Y-14382429D01*
X17252857Y-14353857D01*
X17252857Y-14339571D01*
X17267143Y-14311000D01*
X17295714Y-14296714D01*
X17338571Y-14296714D01*
X17367143Y-14311000D01*
X17481428Y-14611000D02*
X17495714Y-14596714D01*
X17524286Y-14553857D01*
X17538571Y-14525286D01*
X17552857Y-14482429D01*
X17567143Y-14411000D01*
X17567143Y-14353857D01*
X17552857Y-14282429D01*
X17538571Y-14239571D01*
X17524286Y-14211000D01*
X17495714Y-14168143D01*
X17481428Y-14153857D01*
X10956900Y-14718900D02*
X10956900Y-14795100D01*
X10918800Y-14757000D02*
X10995000Y-14757000D01*
X11338571Y-14592714D02*
X11367143Y-14592714D01*
X11395714Y-14607000D01*
X11410000Y-14621286D01*
X11424286Y-14649857D01*
X11438571Y-14707000D01*
X11438571Y-14778429D01*
X11424286Y-14835571D01*
X11410000Y-14864143D01*
X11395714Y-14878429D01*
X11367143Y-14892714D01*
X11338571Y-14892714D01*
X11310000Y-14878429D01*
X11295714Y-14864143D01*
X11281428Y-14835571D01*
X11267143Y-14778429D01*
X11267143Y-14707000D01*
X11281428Y-14649857D01*
X11295714Y-14621286D01*
X11310000Y-14607000D01*
X11338571Y-14592714D01*
X11567143Y-14864143D02*
X11581428Y-14878429D01*
X11567143Y-14892714D01*
X11552857Y-14878429D01*
X11567143Y-14864143D01*
X11567143Y-14892714D01*
X11681428Y-14592714D02*
X11881428Y-14592714D01*
X11752857Y-14892714D01*
X12124286Y-14592714D02*
X12067143Y-14592714D01*
X12038571Y-14607000D01*
X12024286Y-14621286D01*
X11995714Y-14664143D01*
X11981428Y-14721286D01*
X11981428Y-14835571D01*
X11995714Y-14864143D01*
X12010000Y-14878429D01*
X12038571Y-14892714D01*
X12095714Y-14892714D01*
X12124286Y-14878429D01*
X12138571Y-14864143D01*
X12152857Y-14835571D01*
X12152857Y-14764143D01*
X12138571Y-14735571D01*
X12124286Y-14721286D01*
X12095714Y-14707000D01*
X12038571Y-14707000D01*
X12010000Y-14721286D01*
X11995714Y-14735571D01*
X11981428Y-14764143D01*
X12281428Y-14892714D02*
X12281428Y-14692714D01*
X12281428Y-14721286D02*
X12295714Y-14707000D01*
X12324286Y-14692714D01*
X12367143Y-14692714D01*
X12395714Y-14707000D01*
X12410000Y-14735571D01*
X12410000Y-14892714D01*
X12410000Y-14735571D02*
X12424286Y-14707000D01*
X12452857Y-14692714D01*
X12495714Y-14692714D01*
X12524286Y-14707000D01*
X12538571Y-14735571D01*
X12538571Y-14892714D01*
X12681428Y-14892714D02*
X12681428Y-14692714D01*
X12681428Y-14721286D02*
X12695714Y-14707000D01*
X12724286Y-14692714D01*
X12767143Y-14692714D01*
X12795714Y-14707000D01*
X12810000Y-14735571D01*
X12810000Y-14892714D01*
X12810000Y-14735571D02*
X12824286Y-14707000D01*
X12852857Y-14692714D01*
X12895714Y-14692714D01*
X12924286Y-14707000D01*
X12938571Y-14735571D01*
X12938571Y-14892714D01*
X13524286Y-14578429D02*
X13267143Y-14964143D01*
X13910000Y-14592714D02*
X13938571Y-14592714D01*
X13967143Y-14607000D01*
X13981428Y-14621286D01*
X13995714Y-14649857D01*
X14010000Y-14707000D01*
X14010000Y-14778429D01*
X13995714Y-14835571D01*
X13981428Y-14864143D01*
X13967143Y-14878429D01*
X13938571Y-14892714D01*
X13910000Y-14892714D01*
X13881428Y-14878429D01*
X13867143Y-14864143D01*
X13852857Y-14835571D01*
X13838571Y-14778429D01*
X13838571Y-14707000D01*
X13852857Y-14649857D01*
X13867143Y-14621286D01*
X13881428Y-14607000D01*
X13910000Y-14592714D01*
X14138571Y-14864143D02*
X14152857Y-14878429D01*
X14138571Y-14892714D01*
X14124286Y-14878429D01*
X14138571Y-14864143D01*
X14138571Y-14892714D01*
X14338571Y-14592714D02*
X14367143Y-14592714D01*
X14395714Y-14607000D01*
X14410000Y-14621286D01*
X14424286Y-14649857D01*
X14438571Y-14707000D01*
X14438571Y-14778429D01*
X14424286Y-14835571D01*
X14410000Y-14864143D01*
X14395714Y-14878429D01*
X14367143Y-14892714D01*
X14338571Y-14892714D01*
X14310000Y-14878429D01*
X14295714Y-14864143D01*
X14281428Y-14835571D01*
X14267143Y-14778429D01*
X14267143Y-14707000D01*
X14281428Y-14649857D01*
X14295714Y-14621286D01*
X14310000Y-14607000D01*
X14338571Y-14592714D01*
X14538571Y-14592714D02*
X14724286Y-14592714D01*
X14624286Y-14707000D01*
X14667143Y-14707000D01*
X14695714Y-14721286D01*
X14710000Y-14735571D01*
X14724286Y-14764143D01*
X14724286Y-14835571D01*
X14710000Y-14864143D01*
X14695714Y-14878429D01*
X14667143Y-14892714D01*
X14581428Y-14892714D01*
X14552857Y-14878429D01*
X14538571Y-14864143D01*
X14910000Y-14592714D02*
X14938571Y-14592714D01*
X14967143Y-14607000D01*
X14981428Y-14621286D01*
X14995714Y-14649857D01*
X15010000Y-14707000D01*
X15010000Y-14778429D01*
X14995714Y-14835571D01*
X14981428Y-14864143D01*
X14967143Y-14878429D01*
X14938571Y-14892714D01*
X14910000Y-14892714D01*
X14881428Y-14878429D01*
X14867143Y-14864143D01*
X14852857Y-14835571D01*
X14838571Y-14778429D01*
X14838571Y-14707000D01*
X14852857Y-14649857D01*
X14867143Y-14621286D01*
X14881428Y-14607000D01*
X14910000Y-14592714D01*
X15124286Y-14592714D02*
X15124286Y-14649857D01*
X15238571Y-14592714D02*
X15238571Y-14649857D01*
X15681428Y-15007000D02*
X15667143Y-14992714D01*
X15638571Y-14949857D01*
X15624286Y-14921286D01*
X15610000Y-14878429D01*
X15595714Y-14807000D01*
X15595714Y-14749857D01*
X15610000Y-14678429D01*
X15624286Y-14635571D01*
X15638571Y-14607000D01*
X15667143Y-14564143D01*
X15681428Y-14549857D01*
X15838571Y-14721286D02*
X15810000Y-14707000D01*
X15795714Y-14692714D01*
X15781428Y-14664143D01*
X15781428Y-14649857D01*
X15795714Y-14621286D01*
X15810000Y-14607000D01*
X15838571Y-14592714D01*
X15895714Y-14592714D01*
X15924286Y-14607000D01*
X15938571Y-14621286D01*
X15952857Y-14649857D01*
X15952857Y-14664143D01*
X15938571Y-14692714D01*
X15924286Y-14707000D01*
X15895714Y-14721286D01*
X15838571Y-14721286D01*
X15810000Y-14735571D01*
X15795714Y-14749857D01*
X15781428Y-14778429D01*
X15781428Y-14835571D01*
X15795714Y-14864143D01*
X15810000Y-14878429D01*
X15838571Y-14892714D01*
X15895714Y-14892714D01*
X15924286Y-14878429D01*
X15938571Y-14864143D01*
X15952857Y-14835571D01*
X15952857Y-14778429D01*
X15938571Y-14749857D01*
X15924286Y-14735571D01*
X15895714Y-14721286D01*
X16310000Y-14892714D02*
X16310000Y-14592714D01*
X16438571Y-14892714D02*
X16438571Y-14735571D01*
X16424286Y-14707000D01*
X16395714Y-14692714D01*
X16352857Y-14692714D01*
X16324286Y-14707000D01*
X16310000Y-14721286D01*
X16624286Y-14892714D02*
X16595714Y-14878429D01*
X16581428Y-14864143D01*
X16567143Y-14835571D01*
X16567143Y-14749857D01*
X16581428Y-14721286D01*
X16595714Y-14707000D01*
X16624286Y-14692714D01*
X16667143Y-14692714D01*
X16695714Y-14707000D01*
X16710000Y-14721286D01*
X16724286Y-14749857D01*
X16724286Y-14835571D01*
X16710000Y-14864143D01*
X16695714Y-14878429D01*
X16667143Y-14892714D01*
X16624286Y-14892714D01*
X16895714Y-14892714D02*
X16867143Y-14878429D01*
X16852857Y-14849857D01*
X16852857Y-14592714D01*
X17124286Y-14878429D02*
X17095714Y-14892714D01*
X17038571Y-14892714D01*
X17010000Y-14878429D01*
X16995714Y-14849857D01*
X16995714Y-14735571D01*
X17010000Y-14707000D01*
X17038571Y-14692714D01*
X17095714Y-14692714D01*
X17124286Y-14707000D01*
X17138571Y-14735571D01*
X17138571Y-14764143D01*
X16995714Y-14792714D01*
X17252857Y-14878429D02*
X17281428Y-14892714D01*
X17338571Y-14892714D01*
X17367143Y-14878429D01*
X17381428Y-14849857D01*
X17381428Y-14835571D01*
X17367143Y-14807000D01*
X17338571Y-14792714D01*
X17295714Y-14792714D01*
X17267143Y-14778429D01*
X17252857Y-14749857D01*
X17252857Y-14735571D01*
X17267143Y-14707000D01*
X17295714Y-14692714D01*
X17338571Y-14692714D01*
X17367143Y-14707000D01*
X17481428Y-15007000D02*
X17495714Y-14992714D01*
X17524286Y-14949857D01*
X17538571Y-14921286D01*
X17552857Y-14878429D01*
X17567143Y-14807000D01*
X17567143Y-14749857D01*
X17552857Y-14678429D01*
X17538571Y-14635571D01*
X17524286Y-14607000D01*
X17495714Y-14564143D01*
X17481428Y-14549857D01*
X10983284Y-15181285D02*
X10983284Y-15124716D01*
X10926715Y-15124716D01*
X10926715Y-15181285D01*
X10983284Y-15181285D01*
X11338571Y-14988714D02*
X11367143Y-14988714D01*
X11395714Y-15003000D01*
X11410000Y-15017286D01*
X11424286Y-15045857D01*
X11438571Y-15103000D01*
X11438571Y-15174429D01*
X11424286Y-15231571D01*
X11410000Y-15260143D01*
X11395714Y-15274429D01*
X11367143Y-15288714D01*
X11338571Y-15288714D01*
X11310000Y-15274429D01*
X11295714Y-15260143D01*
X11281428Y-15231571D01*
X11267143Y-15174429D01*
X11267143Y-15103000D01*
X11281428Y-15045857D01*
X11295714Y-15017286D01*
X11310000Y-15003000D01*
X11338571Y-14988714D01*
X11567143Y-15260143D02*
X11581428Y-15274429D01*
X11567143Y-15288714D01*
X11552857Y-15274429D01*
X11567143Y-15260143D01*
X11567143Y-15288714D01*
X11752857Y-15117286D02*
X11724286Y-15103000D01*
X11710000Y-15088714D01*
X11695714Y-15060143D01*
X11695714Y-15045857D01*
X11710000Y-15017286D01*
X11724286Y-15003000D01*
X11752857Y-14988714D01*
X11810000Y-14988714D01*
X11838571Y-15003000D01*
X11852857Y-15017286D01*
X11867143Y-15045857D01*
X11867143Y-15060143D01*
X11852857Y-15088714D01*
X11838571Y-15103000D01*
X11810000Y-15117286D01*
X11752857Y-15117286D01*
X11724286Y-15131571D01*
X11710000Y-15145857D01*
X11695714Y-15174429D01*
X11695714Y-15231571D01*
X11710000Y-15260143D01*
X11724286Y-15274429D01*
X11752857Y-15288714D01*
X11810000Y-15288714D01*
X11838571Y-15274429D01*
X11852857Y-15260143D01*
X11867143Y-15231571D01*
X11867143Y-15174429D01*
X11852857Y-15145857D01*
X11838571Y-15131571D01*
X11810000Y-15117286D01*
X12052857Y-14988714D02*
X12081428Y-14988714D01*
X12110000Y-15003000D01*
X12124286Y-15017286D01*
X12138571Y-15045857D01*
X12152857Y-15103000D01*
X12152857Y-15174429D01*
X12138571Y-15231571D01*
X12124286Y-15260143D01*
X12110000Y-15274429D01*
X12081428Y-15288714D01*
X12052857Y-15288714D01*
X12024286Y-15274429D01*
X12010000Y-15260143D01*
X11995714Y-15231571D01*
X11981428Y-15174429D01*
X11981428Y-15103000D01*
X11995714Y-15045857D01*
X12010000Y-15017286D01*
X12024286Y-15003000D01*
X12052857Y-14988714D01*
X12281428Y-15288714D02*
X12281428Y-15088714D01*
X12281428Y-15117286D02*
X12295714Y-15103000D01*
X12324286Y-15088714D01*
X12367143Y-15088714D01*
X12395714Y-15103000D01*
X12410000Y-15131571D01*
X12410000Y-15288714D01*
X12410000Y-15131571D02*
X12424286Y-15103000D01*
X12452857Y-15088714D01*
X12495714Y-15088714D01*
X12524286Y-15103000D01*
X12538571Y-15131571D01*
X12538571Y-15288714D01*
X12681428Y-15288714D02*
X12681428Y-15088714D01*
X12681428Y-15117286D02*
X12695714Y-15103000D01*
X12724286Y-15088714D01*
X12767143Y-15088714D01*
X12795714Y-15103000D01*
X12810000Y-15131571D01*
X12810000Y-15288714D01*
X12810000Y-15131571D02*
X12824286Y-15103000D01*
X12852857Y-15088714D01*
X12895714Y-15088714D01*
X12924286Y-15103000D01*
X12938571Y-15131571D01*
X12938571Y-15288714D01*
X13524286Y-14974429D02*
X13267143Y-15360143D01*
X13910000Y-14988714D02*
X13938571Y-14988714D01*
X13967143Y-15003000D01*
X13981428Y-15017286D01*
X13995714Y-15045857D01*
X14010000Y-15103000D01*
X14010000Y-15174429D01*
X13995714Y-15231571D01*
X13981428Y-15260143D01*
X13967143Y-15274429D01*
X13938571Y-15288714D01*
X13910000Y-15288714D01*
X13881428Y-15274429D01*
X13867143Y-15260143D01*
X13852857Y-15231571D01*
X13838571Y-15174429D01*
X13838571Y-15103000D01*
X13852857Y-15045857D01*
X13867143Y-15017286D01*
X13881428Y-15003000D01*
X13910000Y-14988714D01*
X14138571Y-15260143D02*
X14152857Y-15274429D01*
X14138571Y-15288714D01*
X14124286Y-15274429D01*
X14138571Y-15260143D01*
X14138571Y-15288714D01*
X14338571Y-14988714D02*
X14367143Y-14988714D01*
X14395714Y-15003000D01*
X14410000Y-15017286D01*
X14424286Y-15045857D01*
X14438571Y-15103000D01*
X14438571Y-15174429D01*
X14424286Y-15231571D01*
X14410000Y-15260143D01*
X14395714Y-15274429D01*
X14367143Y-15288714D01*
X14338571Y-15288714D01*
X14310000Y-15274429D01*
X14295714Y-15260143D01*
X14281428Y-15231571D01*
X14267143Y-15174429D01*
X14267143Y-15103000D01*
X14281428Y-15045857D01*
X14295714Y-15017286D01*
X14310000Y-15003000D01*
X14338571Y-14988714D01*
X14538571Y-14988714D02*
X14724286Y-14988714D01*
X14624286Y-15103000D01*
X14667143Y-15103000D01*
X14695714Y-15117286D01*
X14710000Y-15131571D01*
X14724286Y-15160143D01*
X14724286Y-15231571D01*
X14710000Y-15260143D01*
X14695714Y-15274429D01*
X14667143Y-15288714D01*
X14581428Y-15288714D01*
X14552857Y-15274429D01*
X14538571Y-15260143D01*
X15010000Y-15288714D02*
X14838571Y-15288714D01*
X14924286Y-15288714D02*
X14924286Y-14988714D01*
X14895714Y-15031571D01*
X14867143Y-15060143D01*
X14838571Y-15074429D01*
X15124286Y-14988714D02*
X15124286Y-15045857D01*
X15238571Y-14988714D02*
X15238571Y-15045857D01*
X15681428Y-15403000D02*
X15667143Y-15388714D01*
X15638571Y-15345857D01*
X15624286Y-15317286D01*
X15610000Y-15274429D01*
X15595714Y-15203000D01*
X15595714Y-15145857D01*
X15610000Y-15074429D01*
X15624286Y-15031571D01*
X15638571Y-15003000D01*
X15667143Y-14960143D01*
X15681428Y-14945857D01*
X15767143Y-14988714D02*
X15952857Y-14988714D01*
X15852857Y-15103000D01*
X15895714Y-15103000D01*
X15924286Y-15117286D01*
X15938571Y-15131571D01*
X15952857Y-15160143D01*
X15952857Y-15231571D01*
X15938571Y-15260143D01*
X15924286Y-15274429D01*
X15895714Y-15288714D01*
X15810000Y-15288714D01*
X15781428Y-15274429D01*
X15767143Y-15260143D01*
X16210000Y-14988714D02*
X16152857Y-14988714D01*
X16124286Y-15003000D01*
X16110000Y-15017286D01*
X16081428Y-15060143D01*
X16067143Y-15117286D01*
X16067143Y-15231571D01*
X16081428Y-15260143D01*
X16095714Y-15274429D01*
X16124286Y-15288714D01*
X16181428Y-15288714D01*
X16210000Y-15274429D01*
X16224286Y-15260143D01*
X16238571Y-15231571D01*
X16238571Y-15160143D01*
X16224286Y-15131571D01*
X16210000Y-15117286D01*
X16181428Y-15103000D01*
X16124286Y-15103000D01*
X16095714Y-15117286D01*
X16081428Y-15131571D01*
X16067143Y-15160143D01*
X16595714Y-15288714D02*
X16595714Y-14988714D01*
X16724286Y-15288714D02*
X16724286Y-15131571D01*
X16710000Y-15103000D01*
X16681428Y-15088714D01*
X16638571Y-15088714D01*
X16610000Y-15103000D01*
X16595714Y-15117286D01*
X16910000Y-15288714D02*
X16881428Y-15274429D01*
X16867143Y-15260143D01*
X16852857Y-15231571D01*
X16852857Y-15145857D01*
X16867143Y-15117286D01*
X16881428Y-15103000D01*
X16910000Y-15088714D01*
X16952857Y-15088714D01*
X16981428Y-15103000D01*
X16995714Y-15117286D01*
X17010000Y-15145857D01*
X17010000Y-15231571D01*
X16995714Y-15260143D01*
X16981428Y-15274429D01*
X16952857Y-15288714D01*
X16910000Y-15288714D01*
X17181428Y-15288714D02*
X17152857Y-15274429D01*
X17138571Y-15245857D01*
X17138571Y-14988714D01*
X17410000Y-15274429D02*
X17381428Y-15288714D01*
X17324286Y-15288714D01*
X17295714Y-15274429D01*
X17281428Y-15245857D01*
X17281428Y-15131571D01*
X17295714Y-15103000D01*
X17324286Y-15088714D01*
X17381428Y-15088714D01*
X17410000Y-15103000D01*
X17424286Y-15131571D01*
X17424286Y-15160143D01*
X17281428Y-15188714D01*
X17538571Y-15274429D02*
X17567143Y-15288714D01*
X17624286Y-15288714D01*
X17652857Y-15274429D01*
X17667143Y-15245857D01*
X17667143Y-15231571D01*
X17652857Y-15203000D01*
X17624286Y-15188714D01*
X17581428Y-15188714D01*
X17552857Y-15174429D01*
X17538571Y-15145857D01*
X17538571Y-15131571D01*
X17552857Y-15103000D01*
X17581428Y-15088714D01*
X17624286Y-15088714D01*
X17652857Y-15103000D01*
X17767143Y-15403000D02*
X17781428Y-15388714D01*
X17810000Y-15345857D01*
X17824286Y-15317286D01*
X17838571Y-15274429D01*
X17852857Y-15203000D01*
X17852857Y-15145857D01*
X17838571Y-15074429D01*
X17824286Y-15031571D01*
X17810000Y-15003000D01*
X17781428Y-14960143D01*
X17767143Y-14945857D01*
X10950000Y-15594000D02*
X10995000Y-15549000D01*
X10950000Y-15504000D01*
X10905000Y-15549000D01*
X10950000Y-15594000D01*
X11338571Y-15384714D02*
X11367143Y-15384714D01*
X11395714Y-15399000D01*
X11410000Y-15413286D01*
X11424286Y-15441857D01*
X11438571Y-15499000D01*
X11438571Y-15570429D01*
X11424286Y-15627571D01*
X11410000Y-15656143D01*
X11395714Y-15670429D01*
X11367143Y-15684714D01*
X11338571Y-15684714D01*
X11310000Y-15670429D01*
X11295714Y-15656143D01*
X11281428Y-15627571D01*
X11267143Y-15570429D01*
X11267143Y-15499000D01*
X11281428Y-15441857D01*
X11295714Y-15413286D01*
X11310000Y-15399000D01*
X11338571Y-15384714D01*
X11567143Y-15656143D02*
X11581428Y-15670429D01*
X11567143Y-15684714D01*
X11552857Y-15670429D01*
X11567143Y-15656143D01*
X11567143Y-15684714D01*
X11724286Y-15684714D02*
X11781428Y-15684714D01*
X11810000Y-15670429D01*
X11824286Y-15656143D01*
X11852857Y-15613286D01*
X11867143Y-15556143D01*
X11867143Y-15441857D01*
X11852857Y-15413286D01*
X11838571Y-15399000D01*
X11810000Y-15384714D01*
X11752857Y-15384714D01*
X11724286Y-15399000D01*
X11710000Y-15413286D01*
X11695714Y-15441857D01*
X11695714Y-15513286D01*
X11710000Y-15541857D01*
X11724286Y-15556143D01*
X11752857Y-15570429D01*
X11810000Y-15570429D01*
X11838571Y-15556143D01*
X11852857Y-15541857D01*
X11867143Y-15513286D01*
X12052857Y-15384714D02*
X12081428Y-15384714D01*
X12110000Y-15399000D01*
X12124286Y-15413286D01*
X12138571Y-15441857D01*
X12152857Y-15499000D01*
X12152857Y-15570429D01*
X12138571Y-15627571D01*
X12124286Y-15656143D01*
X12110000Y-15670429D01*
X12081428Y-15684714D01*
X12052857Y-15684714D01*
X12024286Y-15670429D01*
X12010000Y-15656143D01*
X11995714Y-15627571D01*
X11981428Y-15570429D01*
X11981428Y-15499000D01*
X11995714Y-15441857D01*
X12010000Y-15413286D01*
X12024286Y-15399000D01*
X12052857Y-15384714D01*
X12281428Y-15684714D02*
X12281428Y-15484714D01*
X12281428Y-15513286D02*
X12295714Y-15499000D01*
X12324286Y-15484714D01*
X12367143Y-15484714D01*
X12395714Y-15499000D01*
X12410000Y-15527571D01*
X12410000Y-15684714D01*
X12410000Y-15527571D02*
X12424286Y-15499000D01*
X12452857Y-15484714D01*
X12495714Y-15484714D01*
X12524286Y-15499000D01*
X12538571Y-15527571D01*
X12538571Y-15684714D01*
X12681428Y-15684714D02*
X12681428Y-15484714D01*
X12681428Y-15513286D02*
X12695714Y-15499000D01*
X12724286Y-15484714D01*
X12767143Y-15484714D01*
X12795714Y-15499000D01*
X12810000Y-15527571D01*
X12810000Y-15684714D01*
X12810000Y-15527571D02*
X12824286Y-15499000D01*
X12852857Y-15484714D01*
X12895714Y-15484714D01*
X12924286Y-15499000D01*
X12938571Y-15527571D01*
X12938571Y-15684714D01*
X13524286Y-15370429D02*
X13267143Y-15756143D01*
X13910000Y-15384714D02*
X13938571Y-15384714D01*
X13967143Y-15399000D01*
X13981428Y-15413286D01*
X13995714Y-15441857D01*
X14010000Y-15499000D01*
X14010000Y-15570429D01*
X13995714Y-15627571D01*
X13981428Y-15656143D01*
X13967143Y-15670429D01*
X13938571Y-15684714D01*
X13910000Y-15684714D01*
X13881428Y-15670429D01*
X13867143Y-15656143D01*
X13852857Y-15627571D01*
X13838571Y-15570429D01*
X13838571Y-15499000D01*
X13852857Y-15441857D01*
X13867143Y-15413286D01*
X13881428Y-15399000D01*
X13910000Y-15384714D01*
X14138571Y-15656143D02*
X14152857Y-15670429D01*
X14138571Y-15684714D01*
X14124286Y-15670429D01*
X14138571Y-15656143D01*
X14138571Y-15684714D01*
X14338571Y-15384714D02*
X14367143Y-15384714D01*
X14395714Y-15399000D01*
X14410000Y-15413286D01*
X14424286Y-15441857D01*
X14438571Y-15499000D01*
X14438571Y-15570429D01*
X14424286Y-15627571D01*
X14410000Y-15656143D01*
X14395714Y-15670429D01*
X14367143Y-15684714D01*
X14338571Y-15684714D01*
X14310000Y-15670429D01*
X14295714Y-15656143D01*
X14281428Y-15627571D01*
X14267143Y-15570429D01*
X14267143Y-15499000D01*
X14281428Y-15441857D01*
X14295714Y-15413286D01*
X14310000Y-15399000D01*
X14338571Y-15384714D01*
X14538571Y-15384714D02*
X14724286Y-15384714D01*
X14624286Y-15499000D01*
X14667143Y-15499000D01*
X14695714Y-15513286D01*
X14710000Y-15527571D01*
X14724286Y-15556143D01*
X14724286Y-15627571D01*
X14710000Y-15656143D01*
X14695714Y-15670429D01*
X14667143Y-15684714D01*
X14581428Y-15684714D01*
X14552857Y-15670429D01*
X14538571Y-15656143D01*
X14995714Y-15384714D02*
X14852857Y-15384714D01*
X14838571Y-15527571D01*
X14852857Y-15513286D01*
X14881428Y-15499000D01*
X14952857Y-15499000D01*
X14981428Y-15513286D01*
X14995714Y-15527571D01*
X15010000Y-15556143D01*
X15010000Y-15627571D01*
X14995714Y-15656143D01*
X14981428Y-15670429D01*
X14952857Y-15684714D01*
X14881428Y-15684714D01*
X14852857Y-15670429D01*
X14838571Y-15656143D01*
X15124286Y-15384714D02*
X15124286Y-15441857D01*
X15238571Y-15384714D02*
X15238571Y-15441857D01*
X15681428Y-15799000D02*
X15667143Y-15784714D01*
X15638571Y-15741857D01*
X15624286Y-15713286D01*
X15610000Y-15670429D01*
X15595714Y-15599000D01*
X15595714Y-15541857D01*
X15610000Y-15470429D01*
X15624286Y-15427571D01*
X15638571Y-15399000D01*
X15667143Y-15356143D01*
X15681428Y-15341857D01*
X15952857Y-15684714D02*
X15781428Y-15684714D01*
X15867143Y-15684714D02*
X15867143Y-15384714D01*
X15838571Y-15427571D01*
X15810000Y-15456143D01*
X15781428Y-15470429D01*
X16138571Y-15384714D02*
X16167143Y-15384714D01*
X16195714Y-15399000D01*
X16210000Y-15413286D01*
X16224286Y-15441857D01*
X16238571Y-15499000D01*
X16238571Y-15570429D01*
X16224286Y-15627571D01*
X16210000Y-15656143D01*
X16195714Y-15670429D01*
X16167143Y-15684714D01*
X16138571Y-15684714D01*
X16110000Y-15670429D01*
X16095714Y-15656143D01*
X16081428Y-15627571D01*
X16067143Y-15570429D01*
X16067143Y-15499000D01*
X16081428Y-15441857D01*
X16095714Y-15413286D01*
X16110000Y-15399000D01*
X16138571Y-15384714D01*
X16595714Y-15684714D02*
X16595714Y-15384714D01*
X16724286Y-15684714D02*
X16724286Y-15527571D01*
X16710000Y-15499000D01*
X16681428Y-15484714D01*
X16638571Y-15484714D01*
X16610000Y-15499000D01*
X16595714Y-15513286D01*
X16910000Y-15684714D02*
X16881428Y-15670429D01*
X16867143Y-15656143D01*
X16852857Y-15627571D01*
X16852857Y-15541857D01*
X16867143Y-15513286D01*
X16881428Y-15499000D01*
X16910000Y-15484714D01*
X16952857Y-15484714D01*
X16981428Y-15499000D01*
X16995714Y-15513286D01*
X17010000Y-15541857D01*
X17010000Y-15627571D01*
X16995714Y-15656143D01*
X16981428Y-15670429D01*
X16952857Y-15684714D01*
X16910000Y-15684714D01*
X17181428Y-15684714D02*
X17152857Y-15670429D01*
X17138571Y-15641857D01*
X17138571Y-15384714D01*
X17410000Y-15670429D02*
X17381428Y-15684714D01*
X17324286Y-15684714D01*
X17295714Y-15670429D01*
X17281428Y-15641857D01*
X17281428Y-15527571D01*
X17295714Y-15499000D01*
X17324286Y-15484714D01*
X17381428Y-15484714D01*
X17410000Y-15499000D01*
X17424286Y-15527571D01*
X17424286Y-15556143D01*
X17281428Y-15584714D01*
X17538571Y-15670429D02*
X17567143Y-15684714D01*
X17624286Y-15684714D01*
X17652857Y-15670429D01*
X17667143Y-15641857D01*
X17667143Y-15627571D01*
X17652857Y-15599000D01*
X17624286Y-15584714D01*
X17581428Y-15584714D01*
X17552857Y-15570429D01*
X17538571Y-15541857D01*
X17538571Y-15527571D01*
X17552857Y-15499000D01*
X17581428Y-15484714D01*
X17624286Y-15484714D01*
X17652857Y-15499000D01*
X17767143Y-15799000D02*
X17781428Y-15784714D01*
X17810000Y-15741857D01*
X17824286Y-15713286D01*
X17838571Y-15670429D01*
X17852857Y-15599000D01*
X17852857Y-15541857D01*
X17838571Y-15470429D01*
X17824286Y-15427571D01*
X17810000Y-15399000D01*
X17781428Y-15356143D01*
X17767143Y-15341857D01*
X10895000Y-15895000D02*
X10995000Y-15995000D01*
X10995000Y-15895000D02*
X10895000Y-15995000D01*
X10995000Y-15945000D02*
G75*
G03*
X10995000Y-15945000I-50000J0D01*
G01*
X11438571Y-16080714D02*
X11267143Y-16080714D01*
X11352857Y-16080714D02*
X11352857Y-15780714D01*
X11324286Y-15823571D01*
X11295714Y-15852143D01*
X11267143Y-15866429D01*
X11567143Y-16052143D02*
X11581428Y-16066429D01*
X11567143Y-16080714D01*
X11552857Y-16066429D01*
X11567143Y-16052143D01*
X11567143Y-16080714D01*
X11767143Y-15780714D02*
X11795714Y-15780714D01*
X11824286Y-15795000D01*
X11838571Y-15809286D01*
X11852857Y-15837857D01*
X11867143Y-15895000D01*
X11867143Y-15966429D01*
X11852857Y-16023571D01*
X11838571Y-16052143D01*
X11824286Y-16066429D01*
X11795714Y-16080714D01*
X11767143Y-16080714D01*
X11738571Y-16066429D01*
X11724286Y-16052143D01*
X11710000Y-16023571D01*
X11695714Y-15966429D01*
X11695714Y-15895000D01*
X11710000Y-15837857D01*
X11724286Y-15809286D01*
X11738571Y-15795000D01*
X11767143Y-15780714D01*
X12052857Y-15780714D02*
X12081428Y-15780714D01*
X12110000Y-15795000D01*
X12124286Y-15809286D01*
X12138571Y-15837857D01*
X12152857Y-15895000D01*
X12152857Y-15966429D01*
X12138571Y-16023571D01*
X12124286Y-16052143D01*
X12110000Y-16066429D01*
X12081428Y-16080714D01*
X12052857Y-16080714D01*
X12024286Y-16066429D01*
X12010000Y-16052143D01*
X11995714Y-16023571D01*
X11981428Y-15966429D01*
X11981428Y-15895000D01*
X11995714Y-15837857D01*
X12010000Y-15809286D01*
X12024286Y-15795000D01*
X12052857Y-15780714D01*
X12281428Y-16080714D02*
X12281428Y-15880714D01*
X12281428Y-15909286D02*
X12295714Y-15895000D01*
X12324286Y-15880714D01*
X12367143Y-15880714D01*
X12395714Y-15895000D01*
X12410000Y-15923571D01*
X12410000Y-16080714D01*
X12410000Y-15923571D02*
X12424286Y-15895000D01*
X12452857Y-15880714D01*
X12495714Y-15880714D01*
X12524286Y-15895000D01*
X12538571Y-15923571D01*
X12538571Y-16080714D01*
X12681428Y-16080714D02*
X12681428Y-15880714D01*
X12681428Y-15909286D02*
X12695714Y-15895000D01*
X12724286Y-15880714D01*
X12767143Y-15880714D01*
X12795714Y-15895000D01*
X12810000Y-15923571D01*
X12810000Y-16080714D01*
X12810000Y-15923571D02*
X12824286Y-15895000D01*
X12852857Y-15880714D01*
X12895714Y-15880714D01*
X12924286Y-15895000D01*
X12938571Y-15923571D01*
X12938571Y-16080714D01*
X13524286Y-15766429D02*
X13267143Y-16152143D01*
X13910000Y-15780714D02*
X13938571Y-15780714D01*
X13967143Y-15795000D01*
X13981428Y-15809286D01*
X13995714Y-15837857D01*
X14010000Y-15895000D01*
X14010000Y-15966429D01*
X13995714Y-16023571D01*
X13981428Y-16052143D01*
X13967143Y-16066429D01*
X13938571Y-16080714D01*
X13910000Y-16080714D01*
X13881428Y-16066429D01*
X13867143Y-16052143D01*
X13852857Y-16023571D01*
X13838571Y-15966429D01*
X13838571Y-15895000D01*
X13852857Y-15837857D01*
X13867143Y-15809286D01*
X13881428Y-15795000D01*
X13910000Y-15780714D01*
X14138571Y-16052143D02*
X14152857Y-16066429D01*
X14138571Y-16080714D01*
X14124286Y-16066429D01*
X14138571Y-16052143D01*
X14138571Y-16080714D01*
X14338571Y-15780714D02*
X14367143Y-15780714D01*
X14395714Y-15795000D01*
X14410000Y-15809286D01*
X14424286Y-15837857D01*
X14438571Y-15895000D01*
X14438571Y-15966429D01*
X14424286Y-16023571D01*
X14410000Y-16052143D01*
X14395714Y-16066429D01*
X14367143Y-16080714D01*
X14338571Y-16080714D01*
X14310000Y-16066429D01*
X14295714Y-16052143D01*
X14281428Y-16023571D01*
X14267143Y-15966429D01*
X14267143Y-15895000D01*
X14281428Y-15837857D01*
X14295714Y-15809286D01*
X14310000Y-15795000D01*
X14338571Y-15780714D01*
X14538571Y-15780714D02*
X14724286Y-15780714D01*
X14624286Y-15895000D01*
X14667143Y-15895000D01*
X14695714Y-15909286D01*
X14710000Y-15923571D01*
X14724286Y-15952143D01*
X14724286Y-16023571D01*
X14710000Y-16052143D01*
X14695714Y-16066429D01*
X14667143Y-16080714D01*
X14581428Y-16080714D01*
X14552857Y-16066429D01*
X14538571Y-16052143D01*
X14867143Y-16080714D02*
X14924286Y-16080714D01*
X14952857Y-16066429D01*
X14967143Y-16052143D01*
X14995714Y-16009286D01*
X15010000Y-15952143D01*
X15010000Y-15837857D01*
X14995714Y-15809286D01*
X14981428Y-15795000D01*
X14952857Y-15780714D01*
X14895714Y-15780714D01*
X14867143Y-15795000D01*
X14852857Y-15809286D01*
X14838571Y-15837857D01*
X14838571Y-15909286D01*
X14852857Y-15937857D01*
X14867143Y-15952143D01*
X14895714Y-15966429D01*
X14952857Y-15966429D01*
X14981428Y-15952143D01*
X14995714Y-15937857D01*
X15010000Y-15909286D01*
X15124286Y-15780714D02*
X15124286Y-15837857D01*
X15238571Y-15780714D02*
X15238571Y-15837857D01*
X15681428Y-16195000D02*
X15667143Y-16180714D01*
X15638571Y-16137857D01*
X15624286Y-16109286D01*
X15610000Y-16066429D01*
X15595714Y-15995000D01*
X15595714Y-15937857D01*
X15610000Y-15866429D01*
X15624286Y-15823571D01*
X15638571Y-15795000D01*
X15667143Y-15752143D01*
X15681428Y-15737857D01*
X15952857Y-16080714D02*
X15781428Y-16080714D01*
X15867143Y-16080714D02*
X15867143Y-15780714D01*
X15838571Y-15823571D01*
X15810000Y-15852143D01*
X15781428Y-15866429D01*
X16052857Y-15780714D02*
X16238571Y-15780714D01*
X16138571Y-15895000D01*
X16181428Y-15895000D01*
X16210000Y-15909286D01*
X16224286Y-15923571D01*
X16238571Y-15952143D01*
X16238571Y-16023571D01*
X16224286Y-16052143D01*
X16210000Y-16066429D01*
X16181428Y-16080714D01*
X16095714Y-16080714D01*
X16067143Y-16066429D01*
X16052857Y-16052143D01*
X16595714Y-16080714D02*
X16595714Y-15780714D01*
X16724286Y-16080714D02*
X16724286Y-15923571D01*
X16710000Y-15895000D01*
X16681428Y-15880714D01*
X16638571Y-15880714D01*
X16610000Y-15895000D01*
X16595714Y-15909286D01*
X16910000Y-16080714D02*
X16881428Y-16066429D01*
X16867143Y-16052143D01*
X16852857Y-16023571D01*
X16852857Y-15937857D01*
X16867143Y-15909286D01*
X16881428Y-15895000D01*
X16910000Y-15880714D01*
X16952857Y-15880714D01*
X16981428Y-15895000D01*
X16995714Y-15909286D01*
X17010000Y-15937857D01*
X17010000Y-16023571D01*
X16995714Y-16052143D01*
X16981428Y-16066429D01*
X16952857Y-16080714D01*
X16910000Y-16080714D01*
X17181428Y-16080714D02*
X17152857Y-16066429D01*
X17138571Y-16037857D01*
X17138571Y-15780714D01*
X17410000Y-16066429D02*
X17381428Y-16080714D01*
X17324286Y-16080714D01*
X17295714Y-16066429D01*
X17281428Y-16037857D01*
X17281428Y-15923571D01*
X17295714Y-15895000D01*
X17324286Y-15880714D01*
X17381428Y-15880714D01*
X17410000Y-15895000D01*
X17424286Y-15923571D01*
X17424286Y-15952143D01*
X17281428Y-15980714D01*
X17538571Y-16066429D02*
X17567143Y-16080714D01*
X17624286Y-16080714D01*
X17652857Y-16066429D01*
X17667143Y-16037857D01*
X17667143Y-16023571D01*
X17652857Y-15995000D01*
X17624286Y-15980714D01*
X17581428Y-15980714D01*
X17552857Y-15966429D01*
X17538571Y-15937857D01*
X17538571Y-15923571D01*
X17552857Y-15895000D01*
X17581428Y-15880714D01*
X17624286Y-15880714D01*
X17652857Y-15895000D01*
X17767143Y-16195000D02*
X17781428Y-16180714D01*
X17810000Y-16137857D01*
X17824286Y-16109286D01*
X17838571Y-16066429D01*
X17852857Y-15995000D01*
X17852857Y-15937857D01*
X17838571Y-15866429D01*
X17824286Y-15823571D01*
X17810000Y-15795000D01*
X17781428Y-15752143D01*
X17767143Y-15737857D01*
X10885000Y-16286000D02*
X10995000Y-16396000D01*
X10995000Y-16286000D02*
X10885000Y-16396000D01*
X10940000Y-16286000D02*
X10940000Y-16396000D01*
X10885000Y-16341000D02*
X10995000Y-16341000D01*
X11438571Y-16476714D02*
X11267143Y-16476714D01*
X11352857Y-16476714D02*
X11352857Y-16176714D01*
X11324286Y-16219571D01*
X11295714Y-16248143D01*
X11267143Y-16262429D01*
X11567143Y-16448143D02*
X11581428Y-16462429D01*
X11567143Y-16476714D01*
X11552857Y-16462429D01*
X11567143Y-16448143D01*
X11567143Y-16476714D01*
X11867143Y-16476714D02*
X11695714Y-16476714D01*
X11781428Y-16476714D02*
X11781428Y-16176714D01*
X11752857Y-16219571D01*
X11724286Y-16248143D01*
X11695714Y-16262429D01*
X12052857Y-16176714D02*
X12081428Y-16176714D01*
X12110000Y-16191000D01*
X12124286Y-16205286D01*
X12138571Y-16233857D01*
X12152857Y-16291000D01*
X12152857Y-16362429D01*
X12138571Y-16419571D01*
X12124286Y-16448143D01*
X12110000Y-16462429D01*
X12081428Y-16476714D01*
X12052857Y-16476714D01*
X12024286Y-16462429D01*
X12010000Y-16448143D01*
X11995714Y-16419571D01*
X11981428Y-16362429D01*
X11981428Y-16291000D01*
X11995714Y-16233857D01*
X12010000Y-16205286D01*
X12024286Y-16191000D01*
X12052857Y-16176714D01*
X12281428Y-16476714D02*
X12281428Y-16276714D01*
X12281428Y-16305286D02*
X12295714Y-16291000D01*
X12324286Y-16276714D01*
X12367143Y-16276714D01*
X12395714Y-16291000D01*
X12410000Y-16319571D01*
X12410000Y-16476714D01*
X12410000Y-16319571D02*
X12424286Y-16291000D01*
X12452857Y-16276714D01*
X12495714Y-16276714D01*
X12524286Y-16291000D01*
X12538571Y-16319571D01*
X12538571Y-16476714D01*
X12681428Y-16476714D02*
X12681428Y-16276714D01*
X12681428Y-16305286D02*
X12695714Y-16291000D01*
X12724286Y-16276714D01*
X12767143Y-16276714D01*
X12795714Y-16291000D01*
X12810000Y-16319571D01*
X12810000Y-16476714D01*
X12810000Y-16319571D02*
X12824286Y-16291000D01*
X12852857Y-16276714D01*
X12895714Y-16276714D01*
X12924286Y-16291000D01*
X12938571Y-16319571D01*
X12938571Y-16476714D01*
X13524286Y-16162429D02*
X13267143Y-16548143D01*
X13910000Y-16176714D02*
X13938571Y-16176714D01*
X13967143Y-16191000D01*
X13981428Y-16205286D01*
X13995714Y-16233857D01*
X14010000Y-16291000D01*
X14010000Y-16362429D01*
X13995714Y-16419571D01*
X13981428Y-16448143D01*
X13967143Y-16462429D01*
X13938571Y-16476714D01*
X13910000Y-16476714D01*
X13881428Y-16462429D01*
X13867143Y-16448143D01*
X13852857Y-16419571D01*
X13838571Y-16362429D01*
X13838571Y-16291000D01*
X13852857Y-16233857D01*
X13867143Y-16205286D01*
X13881428Y-16191000D01*
X13910000Y-16176714D01*
X14138571Y-16448143D02*
X14152857Y-16462429D01*
X14138571Y-16476714D01*
X14124286Y-16462429D01*
X14138571Y-16448143D01*
X14138571Y-16476714D01*
X14338571Y-16176714D02*
X14367143Y-16176714D01*
X14395714Y-16191000D01*
X14410000Y-16205286D01*
X14424286Y-16233857D01*
X14438571Y-16291000D01*
X14438571Y-16362429D01*
X14424286Y-16419571D01*
X14410000Y-16448143D01*
X14395714Y-16462429D01*
X14367143Y-16476714D01*
X14338571Y-16476714D01*
X14310000Y-16462429D01*
X14295714Y-16448143D01*
X14281428Y-16419571D01*
X14267143Y-16362429D01*
X14267143Y-16291000D01*
X14281428Y-16233857D01*
X14295714Y-16205286D01*
X14310000Y-16191000D01*
X14338571Y-16176714D01*
X14695714Y-16276714D02*
X14695714Y-16476714D01*
X14624286Y-16162429D02*
X14552857Y-16376714D01*
X14738571Y-16376714D01*
X14824286Y-16176714D02*
X15010000Y-16176714D01*
X14910000Y-16291000D01*
X14952857Y-16291000D01*
X14981428Y-16305286D01*
X14995714Y-16319571D01*
X15010000Y-16348143D01*
X15010000Y-16419571D01*
X14995714Y-16448143D01*
X14981428Y-16462429D01*
X14952857Y-16476714D01*
X14867143Y-16476714D01*
X14838571Y-16462429D01*
X14824286Y-16448143D01*
X15124286Y-16176714D02*
X15124286Y-16233857D01*
X15238571Y-16176714D02*
X15238571Y-16233857D01*
X15681428Y-16591000D02*
X15667143Y-16576714D01*
X15638571Y-16533857D01*
X15624286Y-16505286D01*
X15610000Y-16462429D01*
X15595714Y-16391000D01*
X15595714Y-16333857D01*
X15610000Y-16262429D01*
X15624286Y-16219571D01*
X15638571Y-16191000D01*
X15667143Y-16148143D01*
X15681428Y-16133857D01*
X15838571Y-16305286D02*
X15810000Y-16291000D01*
X15795714Y-16276714D01*
X15781428Y-16248143D01*
X15781428Y-16233857D01*
X15795714Y-16205286D01*
X15810000Y-16191000D01*
X15838571Y-16176714D01*
X15895714Y-16176714D01*
X15924286Y-16191000D01*
X15938571Y-16205286D01*
X15952857Y-16233857D01*
X15952857Y-16248143D01*
X15938571Y-16276714D01*
X15924286Y-16291000D01*
X15895714Y-16305286D01*
X15838571Y-16305286D01*
X15810000Y-16319571D01*
X15795714Y-16333857D01*
X15781428Y-16362429D01*
X15781428Y-16419571D01*
X15795714Y-16448143D01*
X15810000Y-16462429D01*
X15838571Y-16476714D01*
X15895714Y-16476714D01*
X15924286Y-16462429D01*
X15938571Y-16448143D01*
X15952857Y-16419571D01*
X15952857Y-16362429D01*
X15938571Y-16333857D01*
X15924286Y-16319571D01*
X15895714Y-16305286D01*
X16310000Y-16476714D02*
X16310000Y-16176714D01*
X16438571Y-16476714D02*
X16438571Y-16319571D01*
X16424286Y-16291000D01*
X16395714Y-16276714D01*
X16352857Y-16276714D01*
X16324286Y-16291000D01*
X16310000Y-16305286D01*
X16624286Y-16476714D02*
X16595714Y-16462429D01*
X16581428Y-16448143D01*
X16567143Y-16419571D01*
X16567143Y-16333857D01*
X16581428Y-16305286D01*
X16595714Y-16291000D01*
X16624286Y-16276714D01*
X16667143Y-16276714D01*
X16695714Y-16291000D01*
X16710000Y-16305286D01*
X16724286Y-16333857D01*
X16724286Y-16419571D01*
X16710000Y-16448143D01*
X16695714Y-16462429D01*
X16667143Y-16476714D01*
X16624286Y-16476714D01*
X16895714Y-16476714D02*
X16867143Y-16462429D01*
X16852857Y-16433857D01*
X16852857Y-16176714D01*
X17124286Y-16462429D02*
X17095714Y-16476714D01*
X17038571Y-16476714D01*
X17010000Y-16462429D01*
X16995714Y-16433857D01*
X16995714Y-16319571D01*
X17010000Y-16291000D01*
X17038571Y-16276714D01*
X17095714Y-16276714D01*
X17124286Y-16291000D01*
X17138571Y-16319571D01*
X17138571Y-16348143D01*
X16995714Y-16376714D01*
X17252857Y-16462429D02*
X17281428Y-16476714D01*
X17338571Y-16476714D01*
X17367143Y-16462429D01*
X17381428Y-16433857D01*
X17381428Y-16419571D01*
X17367143Y-16391000D01*
X17338571Y-16376714D01*
X17295714Y-16376714D01*
X17267143Y-16362429D01*
X17252857Y-16333857D01*
X17252857Y-16319571D01*
X17267143Y-16291000D01*
X17295714Y-16276714D01*
X17338571Y-16276714D01*
X17367143Y-16291000D01*
X17481428Y-16591000D02*
X17495714Y-16576714D01*
X17524286Y-16533857D01*
X17538571Y-16505286D01*
X17552857Y-16462429D01*
X17567143Y-16391000D01*
X17567143Y-16333857D01*
X17552857Y-16262429D01*
X17538571Y-16219571D01*
X17524286Y-16191000D01*
X17495714Y-16148143D01*
X17481428Y-16133857D01*
X10675000Y-16577000D02*
X10995000Y-16897000D01*
X10995000Y-16577000D02*
X10675000Y-16897000D01*
X10948138Y-16850138D02*
X10948138Y-16623862D01*
X10721862Y-16623862D01*
X10721862Y-16850138D01*
X10948138Y-16850138D01*
X11252857Y-16572714D02*
X11438571Y-16572714D01*
X11338571Y-16687000D01*
X11381428Y-16687000D01*
X11410000Y-16701286D01*
X11424286Y-16715571D01*
X11438571Y-16744143D01*
X11438571Y-16815572D01*
X11424286Y-16844143D01*
X11410000Y-16858429D01*
X11381428Y-16872714D01*
X11295714Y-16872714D01*
X11267143Y-16858429D01*
X11252857Y-16844143D01*
X11567143Y-16844143D02*
X11581428Y-16858429D01*
X11567143Y-16872714D01*
X11552857Y-16858429D01*
X11567143Y-16844143D01*
X11567143Y-16872714D01*
X11695714Y-16601286D02*
X11710000Y-16587000D01*
X11738571Y-16572714D01*
X11810000Y-16572714D01*
X11838571Y-16587000D01*
X11852857Y-16601286D01*
X11867143Y-16629857D01*
X11867143Y-16658429D01*
X11852857Y-16701286D01*
X11681428Y-16872714D01*
X11867143Y-16872714D01*
X12052857Y-16572714D02*
X12081428Y-16572714D01*
X12110000Y-16587000D01*
X12124286Y-16601286D01*
X12138571Y-16629857D01*
X12152857Y-16687000D01*
X12152857Y-16758429D01*
X12138571Y-16815572D01*
X12124286Y-16844143D01*
X12110000Y-16858429D01*
X12081428Y-16872714D01*
X12052857Y-16872714D01*
X12024286Y-16858429D01*
X12010000Y-16844143D01*
X11995714Y-16815572D01*
X11981428Y-16758429D01*
X11981428Y-16687000D01*
X11995714Y-16629857D01*
X12010000Y-16601286D01*
X12024286Y-16587000D01*
X12052857Y-16572714D01*
X12281428Y-16872714D02*
X12281428Y-16672714D01*
X12281428Y-16701286D02*
X12295714Y-16687000D01*
X12324286Y-16672714D01*
X12367143Y-16672714D01*
X12395714Y-16687000D01*
X12410000Y-16715571D01*
X12410000Y-16872714D01*
X12410000Y-16715571D02*
X12424286Y-16687000D01*
X12452857Y-16672714D01*
X12495714Y-16672714D01*
X12524286Y-16687000D01*
X12538571Y-16715571D01*
X12538571Y-16872714D01*
X12681428Y-16872714D02*
X12681428Y-16672714D01*
X12681428Y-16701286D02*
X12695714Y-16687000D01*
X12724286Y-16672714D01*
X12767143Y-16672714D01*
X12795714Y-16687000D01*
X12810000Y-16715571D01*
X12810000Y-16872714D01*
X12810000Y-16715571D02*
X12824286Y-16687000D01*
X12852857Y-16672714D01*
X12895714Y-16672714D01*
X12924286Y-16687000D01*
X12938571Y-16715571D01*
X12938571Y-16872714D01*
X13524286Y-16558429D02*
X13267143Y-16944143D01*
X13910000Y-16572714D02*
X13938571Y-16572714D01*
X13967143Y-16587000D01*
X13981428Y-16601286D01*
X13995714Y-16629857D01*
X14010000Y-16687000D01*
X14010000Y-16758429D01*
X13995714Y-16815572D01*
X13981428Y-16844143D01*
X13967143Y-16858429D01*
X13938571Y-16872714D01*
X13910000Y-16872714D01*
X13881428Y-16858429D01*
X13867143Y-16844143D01*
X13852857Y-16815572D01*
X13838571Y-16758429D01*
X13838571Y-16687000D01*
X13852857Y-16629857D01*
X13867143Y-16601286D01*
X13881428Y-16587000D01*
X13910000Y-16572714D01*
X14138571Y-16844143D02*
X14152857Y-16858429D01*
X14138571Y-16872714D01*
X14124286Y-16858429D01*
X14138571Y-16844143D01*
X14138571Y-16872714D01*
X14438571Y-16872714D02*
X14267143Y-16872714D01*
X14352857Y-16872714D02*
X14352857Y-16572714D01*
X14324286Y-16615571D01*
X14295714Y-16644143D01*
X14267143Y-16658429D01*
X14552857Y-16601286D02*
X14567143Y-16587000D01*
X14595714Y-16572714D01*
X14667143Y-16572714D01*
X14695714Y-16587000D01*
X14710000Y-16601286D01*
X14724286Y-16629857D01*
X14724286Y-16658429D01*
X14710000Y-16701286D01*
X14538571Y-16872714D01*
X14724286Y-16872714D01*
X14981428Y-16572714D02*
X14924286Y-16572714D01*
X14895714Y-16587000D01*
X14881428Y-16601286D01*
X14852857Y-16644143D01*
X14838571Y-16701286D01*
X14838571Y-16815572D01*
X14852857Y-16844143D01*
X14867143Y-16858429D01*
X14895714Y-16872714D01*
X14952857Y-16872714D01*
X14981428Y-16858429D01*
X14995714Y-16844143D01*
X15010000Y-16815572D01*
X15010000Y-16744143D01*
X14995714Y-16715571D01*
X14981428Y-16701286D01*
X14952857Y-16687000D01*
X14895714Y-16687000D01*
X14867143Y-16701286D01*
X14852857Y-16715571D01*
X14838571Y-16744143D01*
X15124286Y-16572714D02*
X15124286Y-16629857D01*
X15238571Y-16572714D02*
X15238571Y-16629857D01*
X15681428Y-16987000D02*
X15667143Y-16972714D01*
X15638571Y-16929857D01*
X15624286Y-16901286D01*
X15610000Y-16858429D01*
X15595714Y-16787000D01*
X15595714Y-16729857D01*
X15610000Y-16658429D01*
X15624286Y-16615571D01*
X15638571Y-16587000D01*
X15667143Y-16544143D01*
X15681428Y-16529857D01*
X15924286Y-16672714D02*
X15924286Y-16872714D01*
X15852857Y-16558429D02*
X15781428Y-16772714D01*
X15967143Y-16772714D01*
X16310000Y-16872714D02*
X16310000Y-16572714D01*
X16438571Y-16872714D02*
X16438571Y-16715571D01*
X16424286Y-16687000D01*
X16395714Y-16672714D01*
X16352857Y-16672714D01*
X16324286Y-16687000D01*
X16310000Y-16701286D01*
X16624286Y-16872714D02*
X16595714Y-16858429D01*
X16581428Y-16844143D01*
X16567143Y-16815572D01*
X16567143Y-16729857D01*
X16581428Y-16701286D01*
X16595714Y-16687000D01*
X16624286Y-16672714D01*
X16667143Y-16672714D01*
X16695714Y-16687000D01*
X16710000Y-16701286D01*
X16724286Y-16729857D01*
X16724286Y-16815572D01*
X16710000Y-16844143D01*
X16695714Y-16858429D01*
X16667143Y-16872714D01*
X16624286Y-16872714D01*
X16895714Y-16872714D02*
X16867143Y-16858429D01*
X16852857Y-16829857D01*
X16852857Y-16572714D01*
X17124286Y-16858429D02*
X17095714Y-16872714D01*
X17038571Y-16872714D01*
X17010000Y-16858429D01*
X16995714Y-16829857D01*
X16995714Y-16715571D01*
X17010000Y-16687000D01*
X17038571Y-16672714D01*
X17095714Y-16672714D01*
X17124286Y-16687000D01*
X17138571Y-16715571D01*
X17138571Y-16744143D01*
X16995714Y-16772714D01*
X17252857Y-16858429D02*
X17281428Y-16872714D01*
X17338571Y-16872714D01*
X17367143Y-16858429D01*
X17381428Y-16829857D01*
X17381428Y-16815572D01*
X17367143Y-16787000D01*
X17338571Y-16772714D01*
X17295714Y-16772714D01*
X17267143Y-16758429D01*
X17252857Y-16729857D01*
X17252857Y-16715571D01*
X17267143Y-16687000D01*
X17295714Y-16672714D01*
X17338571Y-16672714D01*
X17367143Y-16687000D01*
X17481428Y-16987000D02*
X17495714Y-16972714D01*
X17524286Y-16929857D01*
X17538571Y-16901286D01*
X17552857Y-16858429D01*
X17567143Y-16787000D01*
X17567143Y-16729857D01*
X17552857Y-16658429D01*
X17538571Y-16615571D01*
X17524286Y-16587000D01*
X17495714Y-16544143D01*
X17481428Y-16529857D01*
M02*
