%TF.GenerationSoftware,KiCad,Pcbnew,(5.1.8)-1*%
%TF.CreationDate,2021-01-04T15:21:09+00:00*%
%TF.ProjectId,main,6d61696e-2e6b-4696-9361-645f70636258,2.2*%
%TF.SameCoordinates,Original*%
%TF.FileFunction,Soldermask,Top*%
%TF.FilePolarity,Negative*%
%FSLAX46Y46*%
G04 Gerber Fmt 4.6, Leading zero omitted, Abs format (unit mm)*
G04 Created by KiCad (PCBNEW (5.1.8)-1) date 2021-01-04 15:21:09*
%MOMM*%
%LPD*%
G01*
G04 APERTURE LIST*
%ADD10C,1.500000*%
%ADD11C,2.300000*%
%ADD12R,1.500000X1.500000*%
%ADD13C,1.524000*%
%ADD14R,1.524000X1.524000*%
%ADD15C,6.400000*%
%ADD16O,2.400000X1.600000*%
%ADD17R,2.400000X1.600000*%
%ADD18C,2.000000*%
%ADD19O,1.600000X1.600000*%
%ADD20C,1.600000*%
%ADD21R,1.600000X1.600000*%
%ADD22C,1.400000*%
%ADD23R,1.400000X1.400000*%
%ADD24O,1.700000X1.700000*%
%ADD25R,1.700000X1.700000*%
%ADD26O,1.200000X1.750000*%
G04 APERTURE END LIST*
D10*
%TO.C,J7*%
X166740000Y-116460000D03*
D11*
X162270000Y-121300000D03*
D10*
X167760000Y-119000000D03*
X168780000Y-116460000D03*
D12*
X169800000Y-119000000D03*
D11*
X174270000Y-121300000D03*
%TD*%
D13*
%TO.C,J6*%
X144000000Y-122000000D03*
X146000000Y-122000000D03*
X148000000Y-122000000D03*
D14*
X150000000Y-122000000D03*
%TD*%
D13*
%TO.C,J5*%
X172000000Y-84000000D03*
X172000000Y-82000000D03*
X172000000Y-80000000D03*
D14*
X172000000Y-78000000D03*
%TD*%
D15*
%TO.C,H4*%
X115000000Y-55000000D03*
%TD*%
%TO.C,H3*%
X181000000Y-55000000D03*
%TD*%
%TO.C,H2*%
X181000000Y-125000000D03*
%TD*%
%TO.C,H1*%
X115000000Y-125000000D03*
%TD*%
D16*
%TO.C,U1*%
X151620000Y-91000000D03*
X144000000Y-108780000D03*
X151620000Y-93540000D03*
X144000000Y-106240000D03*
X151620000Y-96080000D03*
X144000000Y-103700000D03*
X151620000Y-98620000D03*
X144000000Y-101160000D03*
X151620000Y-101160000D03*
X144000000Y-98620000D03*
X151620000Y-103700000D03*
X144000000Y-96080000D03*
X151620000Y-106240000D03*
X144000000Y-93540000D03*
X151620000Y-108780000D03*
D17*
X144000000Y-91000000D03*
%TD*%
D18*
%TO.C,SW3*%
X174500000Y-57000000D03*
X174500000Y-61500000D03*
X168000000Y-57000000D03*
X168000000Y-61500000D03*
%TD*%
%TO.C,SW2*%
X122000000Y-90500000D03*
X126500000Y-90500000D03*
X122000000Y-97000000D03*
X126500000Y-97000000D03*
%TD*%
D19*
%TO.C,R3*%
X175160000Y-67000000D03*
D20*
X165000000Y-67000000D03*
%TD*%
D19*
%TO.C,R2*%
X174160000Y-108000000D03*
D20*
X164000000Y-108000000D03*
%TD*%
D19*
%TO.C,R1*%
X174160000Y-103000000D03*
D20*
X164000000Y-103000000D03*
%TD*%
%TO.C,C4*%
X127000000Y-102000000D03*
X122000000Y-102000000D03*
%TD*%
%TO.C,C3*%
X121500000Y-79000000D03*
D21*
X124000000Y-79000000D03*
%TD*%
D20*
%TO.C,C2*%
X165000000Y-56800000D03*
X165000000Y-61800000D03*
%TD*%
%TO.C,C1*%
X126800000Y-87300000D03*
X121800000Y-87300000D03*
%TD*%
D22*
%TO.C,SW1*%
X130400000Y-128300000D03*
X127900000Y-128300000D03*
X125400000Y-128300000D03*
X130400000Y-125000000D03*
X127900000Y-125000000D03*
D23*
X125400000Y-125000000D03*
%TD*%
D16*
%TO.C,U2*%
X173620000Y-93000000D03*
X166000000Y-98080000D03*
X173620000Y-95540000D03*
X166000000Y-95540000D03*
X173620000Y-98080000D03*
D17*
X166000000Y-93000000D03*
%TD*%
D24*
%TO.C,J4*%
X126540000Y-67620000D03*
X124000000Y-67620000D03*
X126540000Y-65080000D03*
X124000000Y-65080000D03*
X126540000Y-62540000D03*
X124000000Y-62540000D03*
X126540000Y-60000000D03*
D25*
X124000000Y-60000000D03*
%TD*%
%TO.C,J3*%
X174000000Y-72000000D03*
%TD*%
D26*
%TO.C,J1*%
X126000000Y-118000000D03*
G36*
G01*
X128600000Y-117374999D02*
X128600000Y-118625001D01*
G75*
G02*
X128350001Y-118875000I-249999J0D01*
G01*
X127649999Y-118875000D01*
G75*
G02*
X127400000Y-118625001I0J249999D01*
G01*
X127400000Y-117374999D01*
G75*
G02*
X127649999Y-117125000I249999J0D01*
G01*
X128350001Y-117125000D01*
G75*
G02*
X128600000Y-117374999I0J-249999D01*
G01*
G37*
%TD*%
D24*
%TO.C,J2*%
X130620000Y-111000000D03*
X128080000Y-111000000D03*
X125540000Y-111000000D03*
D25*
X123000000Y-111000000D03*
%TD*%
M02*
