%TF.GenerationSoftware,KiCad,Pcbnew,(5.1.8)-1*%
%TF.CreationDate,2021-01-04T15:21:09+00:00*%
%TF.ProjectId,main,6d61696e-2e6b-4696-9361-645f70636258,2.2*%
%TF.SameCoordinates,Original*%
%TF.FileFunction,Other,Fab,Top*%
%FSLAX46Y46*%
G04 Gerber Fmt 4.6, Leading zero omitted, Abs format (unit mm)*
G04 Created by KiCad (PCBNEW (5.1.8)-1) date 2021-01-04 15:21:09*
%MOMM*%
%LPD*%
G01*
G04 APERTURE LIST*
%ADD10C,0.100000*%
%ADD11C,0.150000*%
%ADD12C,0.129000*%
G04 APERTURE END LIST*
D10*
%TO.C,J7*%
X174370000Y-119500000D02*
X173860000Y-119000000D01*
X173860000Y-119000000D02*
X174370000Y-118500000D01*
X174470000Y-127500000D02*
X162070000Y-127500000D01*
X174470000Y-114100000D02*
X174470000Y-127500000D01*
X162070000Y-114100000D02*
X174470000Y-114100000D01*
X162070000Y-127500000D02*
X162070000Y-114100000D01*
%TO.C,J6*%
X141900000Y-119100000D02*
X152100000Y-119100000D01*
X141900000Y-124200000D02*
X141900000Y-119100000D01*
X152100000Y-124200000D02*
X141900000Y-124200000D01*
X152100000Y-119100000D02*
X152100000Y-124200000D01*
X151000000Y-124200000D02*
X150000000Y-122900000D01*
X150000000Y-122900000D02*
X149000000Y-124200000D01*
%TO.C,J5*%
X169100000Y-86100000D02*
X169100000Y-75900000D01*
X174200000Y-86100000D02*
X169100000Y-86100000D01*
X174200000Y-75900000D02*
X174200000Y-86100000D01*
X169100000Y-75900000D02*
X174200000Y-75900000D01*
X174200000Y-77000000D02*
X172900000Y-78000000D01*
X172900000Y-78000000D02*
X174200000Y-79000000D01*
%TO.C,U1*%
X144635000Y-90730000D02*
X145635000Y-89730000D01*
X144635000Y-110050000D02*
X144635000Y-90730000D01*
X150985000Y-110050000D02*
X144635000Y-110050000D01*
X150985000Y-89730000D02*
X150985000Y-110050000D01*
X145635000Y-89730000D02*
X150985000Y-89730000D01*
%TO.C,SW3*%
X171250000Y-56250000D02*
X174250000Y-56250000D01*
X174250000Y-56250000D02*
X174250000Y-62250000D01*
X174250000Y-62250000D02*
X168250000Y-62250000D01*
X168250000Y-62250000D02*
X168250000Y-56250000D01*
X168250000Y-56250000D02*
X171250000Y-56250000D01*
X173265564Y-59250000D02*
G75*
G03*
X173265564Y-59250000I-2015564J0D01*
G01*
%TO.C,SW2*%
X121250000Y-93750000D02*
X121250000Y-90750000D01*
X121250000Y-90750000D02*
X127250000Y-90750000D01*
X127250000Y-90750000D02*
X127250000Y-96750000D01*
X127250000Y-96750000D02*
X121250000Y-96750000D01*
X121250000Y-96750000D02*
X121250000Y-93750000D01*
X126265564Y-93750000D02*
G75*
G03*
X126265564Y-93750000I-2015564J0D01*
G01*
%TO.C,R3*%
X166930000Y-65750000D02*
X166930000Y-68250000D01*
X166930000Y-68250000D02*
X173230000Y-68250000D01*
X173230000Y-68250000D02*
X173230000Y-65750000D01*
X173230000Y-65750000D02*
X166930000Y-65750000D01*
X165000000Y-67000000D02*
X166930000Y-67000000D01*
X175160000Y-67000000D02*
X173230000Y-67000000D01*
%TO.C,R2*%
X165930000Y-106750000D02*
X165930000Y-109250000D01*
X165930000Y-109250000D02*
X172230000Y-109250000D01*
X172230000Y-109250000D02*
X172230000Y-106750000D01*
X172230000Y-106750000D02*
X165930000Y-106750000D01*
X164000000Y-108000000D02*
X165930000Y-108000000D01*
X174160000Y-108000000D02*
X172230000Y-108000000D01*
%TO.C,R1*%
X165930000Y-101750000D02*
X165930000Y-104250000D01*
X165930000Y-104250000D02*
X172230000Y-104250000D01*
X172230000Y-104250000D02*
X172230000Y-101750000D01*
X172230000Y-101750000D02*
X165930000Y-101750000D01*
X164000000Y-103000000D02*
X165930000Y-103000000D01*
X174160000Y-103000000D02*
X172230000Y-103000000D01*
%TO.C,C4*%
X122350000Y-101050000D02*
X122350000Y-102950000D01*
X122350000Y-102950000D02*
X126650000Y-102950000D01*
X126650000Y-102950000D02*
X126650000Y-101050000D01*
X126650000Y-101050000D02*
X122350000Y-101050000D01*
%TO.C,C3*%
X125900000Y-79000000D02*
G75*
G03*
X125900000Y-79000000I-3150000J0D01*
G01*
X125443972Y-80373500D02*
X124813972Y-80373500D01*
X125128972Y-80688500D02*
X125128972Y-80058500D01*
%TO.C,C2*%
X164050000Y-61450000D02*
X165950000Y-61450000D01*
X165950000Y-61450000D02*
X165950000Y-57150000D01*
X165950000Y-57150000D02*
X164050000Y-57150000D01*
X164050000Y-57150000D02*
X164050000Y-61450000D01*
%TO.C,C1*%
X122150000Y-86350000D02*
X122150000Y-88250000D01*
X122150000Y-88250000D02*
X126450000Y-88250000D01*
X126450000Y-88250000D02*
X126450000Y-86350000D01*
X126450000Y-86350000D02*
X122150000Y-86350000D01*
%TO.C,SW1*%
X124400000Y-124650000D02*
X132400000Y-124650000D01*
X132400000Y-124650000D02*
X132400000Y-128650000D01*
X132400000Y-128650000D02*
X123400000Y-128650000D01*
X123400000Y-128650000D02*
X123400000Y-125650000D01*
X126150000Y-128650000D02*
X126150000Y-130650000D01*
X126150000Y-130650000D02*
X127650000Y-130650000D01*
X127650000Y-130650000D02*
X127650000Y-128650000D01*
X124400000Y-124650000D02*
X123400000Y-125650000D01*
%TO.C,U2*%
X166635000Y-92730000D02*
X167635000Y-91730000D01*
X166635000Y-99350000D02*
X166635000Y-92730000D01*
X172985000Y-99350000D02*
X166635000Y-99350000D01*
X172985000Y-91730000D02*
X172985000Y-99350000D01*
X167635000Y-91730000D02*
X172985000Y-91730000D01*
%TO.C,J4*%
X122730000Y-60000000D02*
X124000000Y-58730000D01*
X122730000Y-68890000D02*
X122730000Y-60000000D01*
X127810000Y-68890000D02*
X122730000Y-68890000D01*
X127810000Y-58730000D02*
X127810000Y-68890000D01*
X124000000Y-58730000D02*
X127810000Y-58730000D01*
%TO.C,J3*%
X172730000Y-71365000D02*
X173365000Y-70730000D01*
X172730000Y-73270000D02*
X172730000Y-71365000D01*
X175270000Y-73270000D02*
X172730000Y-73270000D01*
X175270000Y-70730000D02*
X175270000Y-73270000D01*
X173365000Y-70730000D02*
X175270000Y-70730000D01*
%TO.C,J1*%
X124050000Y-119700000D02*
X129950000Y-119700000D01*
X124050000Y-115200000D02*
X124050000Y-119700000D01*
X129950000Y-115200000D02*
X124050000Y-115200000D01*
X129950000Y-119700000D02*
X129950000Y-115200000D01*
X130360000Y-120110000D02*
X130360000Y-118860000D01*
X129110000Y-120110000D02*
X130360000Y-120110000D01*
%TO.C,J2*%
X131890000Y-112270000D02*
X121730000Y-112270000D01*
X131890000Y-109730000D02*
X131890000Y-112270000D01*
X122365000Y-109730000D02*
X131890000Y-109730000D01*
X121730000Y-110365000D02*
X122365000Y-109730000D01*
X121730000Y-112270000D02*
X121730000Y-110365000D01*
%TD*%
%TO.C,J7*%
D11*
X164632857Y-112816666D02*
X165109047Y-112816666D01*
X164537619Y-113102380D02*
X164870952Y-112102380D01*
X165204285Y-113102380D01*
X165537619Y-112435714D02*
X165537619Y-113102380D01*
X165537619Y-112530952D02*
X165585238Y-112483333D01*
X165680476Y-112435714D01*
X165823333Y-112435714D01*
X165918571Y-112483333D01*
X165966190Y-112578571D01*
X165966190Y-113102380D01*
X166823333Y-113054761D02*
X166728095Y-113102380D01*
X166537619Y-113102380D01*
X166442380Y-113054761D01*
X166394761Y-112959523D01*
X166394761Y-112578571D01*
X166442380Y-112483333D01*
X166537619Y-112435714D01*
X166728095Y-112435714D01*
X166823333Y-112483333D01*
X166870952Y-112578571D01*
X166870952Y-112673809D01*
X166394761Y-112769047D01*
X167299523Y-113102380D02*
X167299523Y-112435714D01*
X167299523Y-112530952D02*
X167347142Y-112483333D01*
X167442380Y-112435714D01*
X167585238Y-112435714D01*
X167680476Y-112483333D01*
X167728095Y-112578571D01*
X167728095Y-113102380D01*
X167728095Y-112578571D02*
X167775714Y-112483333D01*
X167870952Y-112435714D01*
X168013809Y-112435714D01*
X168109047Y-112483333D01*
X168156666Y-112578571D01*
X168156666Y-113102380D01*
X168775714Y-113102380D02*
X168680476Y-113054761D01*
X168632857Y-113007142D01*
X168585238Y-112911904D01*
X168585238Y-112626190D01*
X168632857Y-112530952D01*
X168680476Y-112483333D01*
X168775714Y-112435714D01*
X168918571Y-112435714D01*
X169013809Y-112483333D01*
X169061428Y-112530952D01*
X169109047Y-112626190D01*
X169109047Y-112911904D01*
X169061428Y-113007142D01*
X169013809Y-113054761D01*
X168918571Y-113102380D01*
X168775714Y-113102380D01*
X169537619Y-113102380D02*
X169537619Y-112435714D01*
X169537619Y-112530952D02*
X169585238Y-112483333D01*
X169680476Y-112435714D01*
X169823333Y-112435714D01*
X169918571Y-112483333D01*
X169966190Y-112578571D01*
X169966190Y-113102380D01*
X169966190Y-112578571D02*
X170013809Y-112483333D01*
X170109047Y-112435714D01*
X170251904Y-112435714D01*
X170347142Y-112483333D01*
X170394761Y-112578571D01*
X170394761Y-113102380D01*
X171251904Y-113054761D02*
X171156666Y-113102380D01*
X170966190Y-113102380D01*
X170870952Y-113054761D01*
X170823333Y-112959523D01*
X170823333Y-112578571D01*
X170870952Y-112483333D01*
X170966190Y-112435714D01*
X171156666Y-112435714D01*
X171251904Y-112483333D01*
X171299523Y-112578571D01*
X171299523Y-112673809D01*
X170823333Y-112769047D01*
X171585238Y-112435714D02*
X171966190Y-112435714D01*
X171728095Y-112102380D02*
X171728095Y-112959523D01*
X171775714Y-113054761D01*
X171870952Y-113102380D01*
X171966190Y-113102380D01*
X172680476Y-113054761D02*
X172585238Y-113102380D01*
X172394761Y-113102380D01*
X172299523Y-113054761D01*
X172251904Y-112959523D01*
X172251904Y-112578571D01*
X172299523Y-112483333D01*
X172394761Y-112435714D01*
X172585238Y-112435714D01*
X172680476Y-112483333D01*
X172728095Y-112578571D01*
X172728095Y-112673809D01*
X172251904Y-112769047D01*
X173156666Y-113102380D02*
X173156666Y-112435714D01*
X173156666Y-112626190D02*
X173204285Y-112530952D01*
X173251904Y-112483333D01*
X173347142Y-112435714D01*
X173442380Y-112435714D01*
X168436666Y-123672380D02*
X168436666Y-124386666D01*
X168389047Y-124529523D01*
X168293809Y-124624761D01*
X168150952Y-124672380D01*
X168055714Y-124672380D01*
X168817619Y-123672380D02*
X169484285Y-123672380D01*
X169055714Y-124672380D01*
%TO.C,J6*%
X145050952Y-126642380D02*
X145050952Y-125642380D01*
X145289047Y-125642380D01*
X145431904Y-125690000D01*
X145527142Y-125785238D01*
X145574761Y-125880476D01*
X145622380Y-126070952D01*
X145622380Y-126213809D01*
X145574761Y-126404285D01*
X145527142Y-126499523D01*
X145431904Y-126594761D01*
X145289047Y-126642380D01*
X145050952Y-126642380D01*
X146050952Y-126642380D02*
X146050952Y-125642380D01*
X146050952Y-126118571D02*
X146622380Y-126118571D01*
X146622380Y-126642380D02*
X146622380Y-125642380D01*
X146955714Y-125642380D02*
X147527142Y-125642380D01*
X147241428Y-126642380D02*
X147241428Y-125642380D01*
X147812857Y-125737619D02*
X147860476Y-125690000D01*
X147955714Y-125642380D01*
X148193809Y-125642380D01*
X148289047Y-125690000D01*
X148336666Y-125737619D01*
X148384285Y-125832857D01*
X148384285Y-125928095D01*
X148336666Y-126070952D01*
X147765238Y-126642380D01*
X148384285Y-126642380D01*
X148765238Y-125737619D02*
X148812857Y-125690000D01*
X148908095Y-125642380D01*
X149146190Y-125642380D01*
X149241428Y-125690000D01*
X149289047Y-125737619D01*
X149336666Y-125832857D01*
X149336666Y-125928095D01*
X149289047Y-126070952D01*
X148717619Y-126642380D01*
X149336666Y-126642380D01*
X147666666Y-119452380D02*
X147666666Y-120166666D01*
X147619047Y-120309523D01*
X147523809Y-120404761D01*
X147380952Y-120452380D01*
X147285714Y-120452380D01*
X148571428Y-119452380D02*
X148380952Y-119452380D01*
X148285714Y-119500000D01*
X148238095Y-119547619D01*
X148142857Y-119690476D01*
X148095238Y-119880952D01*
X148095238Y-120261904D01*
X148142857Y-120357142D01*
X148190476Y-120404761D01*
X148285714Y-120452380D01*
X148476190Y-120452380D01*
X148571428Y-120404761D01*
X148619047Y-120357142D01*
X148666666Y-120261904D01*
X148666666Y-120023809D01*
X148619047Y-119928571D01*
X148571428Y-119880952D01*
X148476190Y-119833333D01*
X148285714Y-119833333D01*
X148190476Y-119880952D01*
X148142857Y-119928571D01*
X148095238Y-120023809D01*
%TO.C,J5*%
X175785238Y-75830000D02*
X175737619Y-75972857D01*
X175737619Y-76210952D01*
X175785238Y-76306190D01*
X175832857Y-76353809D01*
X175928095Y-76401428D01*
X176023333Y-76401428D01*
X176118571Y-76353809D01*
X176166190Y-76306190D01*
X176213809Y-76210952D01*
X176261428Y-76020476D01*
X176309047Y-75925238D01*
X176356666Y-75877619D01*
X176451904Y-75830000D01*
X176547142Y-75830000D01*
X176642380Y-75877619D01*
X176690000Y-75925238D01*
X176737619Y-76020476D01*
X176737619Y-76258571D01*
X176690000Y-76401428D01*
X175737619Y-76972857D02*
X175785238Y-76877619D01*
X175832857Y-76830000D01*
X175928095Y-76782380D01*
X176213809Y-76782380D01*
X176309047Y-76830000D01*
X176356666Y-76877619D01*
X176404285Y-76972857D01*
X176404285Y-77115714D01*
X176356666Y-77210952D01*
X176309047Y-77258571D01*
X176213809Y-77306190D01*
X175928095Y-77306190D01*
X175832857Y-77258571D01*
X175785238Y-77210952D01*
X175737619Y-77115714D01*
X175737619Y-76972857D01*
X176404285Y-78163333D02*
X175737619Y-78163333D01*
X176404285Y-77734761D02*
X175880476Y-77734761D01*
X175785238Y-77782380D01*
X175737619Y-77877619D01*
X175737619Y-78020476D01*
X175785238Y-78115714D01*
X175832857Y-78163333D01*
X176404285Y-78639523D02*
X175737619Y-78639523D01*
X176309047Y-78639523D02*
X176356666Y-78687142D01*
X176404285Y-78782380D01*
X176404285Y-78925238D01*
X176356666Y-79020476D01*
X176261428Y-79068095D01*
X175737619Y-79068095D01*
X175737619Y-79972857D02*
X176737619Y-79972857D01*
X175785238Y-79972857D02*
X175737619Y-79877619D01*
X175737619Y-79687142D01*
X175785238Y-79591904D01*
X175832857Y-79544285D01*
X175928095Y-79496666D01*
X176213809Y-79496666D01*
X176309047Y-79544285D01*
X176356666Y-79591904D01*
X176404285Y-79687142D01*
X176404285Y-79877619D01*
X176356666Y-79972857D01*
X175785238Y-81163333D02*
X175737619Y-81306190D01*
X175737619Y-81544285D01*
X175785238Y-81639523D01*
X175832857Y-81687142D01*
X175928095Y-81734761D01*
X176023333Y-81734761D01*
X176118571Y-81687142D01*
X176166190Y-81639523D01*
X176213809Y-81544285D01*
X176261428Y-81353809D01*
X176309047Y-81258571D01*
X176356666Y-81210952D01*
X176451904Y-81163333D01*
X176547142Y-81163333D01*
X176642380Y-81210952D01*
X176690000Y-81258571D01*
X176737619Y-81353809D01*
X176737619Y-81591904D01*
X176690000Y-81734761D01*
X175785238Y-82544285D02*
X175737619Y-82449047D01*
X175737619Y-82258571D01*
X175785238Y-82163333D01*
X175880476Y-82115714D01*
X176261428Y-82115714D01*
X176356666Y-82163333D01*
X176404285Y-82258571D01*
X176404285Y-82449047D01*
X176356666Y-82544285D01*
X176261428Y-82591904D01*
X176166190Y-82591904D01*
X176070952Y-82115714D01*
X176404285Y-83020476D02*
X175737619Y-83020476D01*
X176309047Y-83020476D02*
X176356666Y-83068095D01*
X176404285Y-83163333D01*
X176404285Y-83306190D01*
X176356666Y-83401428D01*
X176261428Y-83449047D01*
X175737619Y-83449047D01*
X175785238Y-83877619D02*
X175737619Y-83972857D01*
X175737619Y-84163333D01*
X175785238Y-84258571D01*
X175880476Y-84306190D01*
X175928095Y-84306190D01*
X176023333Y-84258571D01*
X176070952Y-84163333D01*
X176070952Y-84020476D01*
X176118571Y-83925238D01*
X176213809Y-83877619D01*
X176261428Y-83877619D01*
X176356666Y-83925238D01*
X176404285Y-84020476D01*
X176404285Y-84163333D01*
X176356666Y-84258571D01*
X175737619Y-84877619D02*
X175785238Y-84782380D01*
X175832857Y-84734761D01*
X175928095Y-84687142D01*
X176213809Y-84687142D01*
X176309047Y-84734761D01*
X176356666Y-84782380D01*
X176404285Y-84877619D01*
X176404285Y-85020476D01*
X176356666Y-85115714D01*
X176309047Y-85163333D01*
X176213809Y-85210952D01*
X175928095Y-85210952D01*
X175832857Y-85163333D01*
X175785238Y-85115714D01*
X175737619Y-85020476D01*
X175737619Y-84877619D01*
X175737619Y-85639523D02*
X176404285Y-85639523D01*
X176213809Y-85639523D02*
X176309047Y-85687142D01*
X176356666Y-85734761D01*
X176404285Y-85830000D01*
X176404285Y-85925238D01*
X170547619Y-79666666D02*
X169833333Y-79666666D01*
X169690476Y-79619047D01*
X169595238Y-79523809D01*
X169547619Y-79380952D01*
X169547619Y-79285714D01*
X170547619Y-80619047D02*
X170547619Y-80142857D01*
X170071428Y-80095238D01*
X170119047Y-80142857D01*
X170166666Y-80238095D01*
X170166666Y-80476190D01*
X170119047Y-80571428D01*
X170071428Y-80619047D01*
X169976190Y-80666666D01*
X169738095Y-80666666D01*
X169642857Y-80619047D01*
X169595238Y-80571428D01*
X169547619Y-80476190D01*
X169547619Y-80238095D01*
X169595238Y-80142857D01*
X169642857Y-80095238D01*
%TO.C,H4*%
X110214285Y-59652380D02*
X110214285Y-58652380D01*
X110547619Y-59366666D01*
X110880952Y-58652380D01*
X110880952Y-59652380D01*
X111500000Y-59652380D02*
X111404761Y-59604761D01*
X111357142Y-59557142D01*
X111309523Y-59461904D01*
X111309523Y-59176190D01*
X111357142Y-59080952D01*
X111404761Y-59033333D01*
X111500000Y-58985714D01*
X111642857Y-58985714D01*
X111738095Y-59033333D01*
X111785714Y-59080952D01*
X111833333Y-59176190D01*
X111833333Y-59461904D01*
X111785714Y-59557142D01*
X111738095Y-59604761D01*
X111642857Y-59652380D01*
X111500000Y-59652380D01*
X112690476Y-58985714D02*
X112690476Y-59652380D01*
X112261904Y-58985714D02*
X112261904Y-59509523D01*
X112309523Y-59604761D01*
X112404761Y-59652380D01*
X112547619Y-59652380D01*
X112642857Y-59604761D01*
X112690476Y-59557142D01*
X113166666Y-58985714D02*
X113166666Y-59652380D01*
X113166666Y-59080952D02*
X113214285Y-59033333D01*
X113309523Y-58985714D01*
X113452380Y-58985714D01*
X113547619Y-59033333D01*
X113595238Y-59128571D01*
X113595238Y-59652380D01*
X113928571Y-58985714D02*
X114309523Y-58985714D01*
X114071428Y-58652380D02*
X114071428Y-59509523D01*
X114119047Y-59604761D01*
X114214285Y-59652380D01*
X114309523Y-59652380D01*
X114642857Y-59652380D02*
X114642857Y-58985714D01*
X114642857Y-58652380D02*
X114595238Y-58700000D01*
X114642857Y-58747619D01*
X114690476Y-58700000D01*
X114642857Y-58652380D01*
X114642857Y-58747619D01*
X115119047Y-58985714D02*
X115119047Y-59652380D01*
X115119047Y-59080952D02*
X115166666Y-59033333D01*
X115261904Y-58985714D01*
X115404761Y-58985714D01*
X115500000Y-59033333D01*
X115547619Y-59128571D01*
X115547619Y-59652380D01*
X116452380Y-58985714D02*
X116452380Y-59795238D01*
X116404761Y-59890476D01*
X116357142Y-59938095D01*
X116261904Y-59985714D01*
X116119047Y-59985714D01*
X116023809Y-59938095D01*
X116452380Y-59604761D02*
X116357142Y-59652380D01*
X116166666Y-59652380D01*
X116071428Y-59604761D01*
X116023809Y-59557142D01*
X115976190Y-59461904D01*
X115976190Y-59176190D01*
X116023809Y-59080952D01*
X116071428Y-59033333D01*
X116166666Y-58985714D01*
X116357142Y-58985714D01*
X116452380Y-59033333D01*
X116928571Y-59652380D02*
X116928571Y-58652380D01*
X116928571Y-59128571D02*
X117500000Y-59128571D01*
X117500000Y-59652380D02*
X117500000Y-58652380D01*
X118119047Y-59652380D02*
X118023809Y-59604761D01*
X117976190Y-59557142D01*
X117928571Y-59461904D01*
X117928571Y-59176190D01*
X117976190Y-59080952D01*
X118023809Y-59033333D01*
X118119047Y-58985714D01*
X118261904Y-58985714D01*
X118357142Y-59033333D01*
X118404761Y-59080952D01*
X118452380Y-59176190D01*
X118452380Y-59461904D01*
X118404761Y-59557142D01*
X118357142Y-59604761D01*
X118261904Y-59652380D01*
X118119047Y-59652380D01*
X119023809Y-59652380D02*
X118928571Y-59604761D01*
X118880952Y-59509523D01*
X118880952Y-58652380D01*
X119785714Y-59604761D02*
X119690476Y-59652380D01*
X119500000Y-59652380D01*
X119404761Y-59604761D01*
X119357142Y-59509523D01*
X119357142Y-59128571D01*
X119404761Y-59033333D01*
X119500000Y-58985714D01*
X119690476Y-58985714D01*
X119785714Y-59033333D01*
X119833333Y-59128571D01*
X119833333Y-59223809D01*
X119357142Y-59319047D01*
X114538095Y-55452380D02*
X114538095Y-54452380D01*
X114538095Y-54928571D02*
X115109523Y-54928571D01*
X115109523Y-55452380D02*
X115109523Y-54452380D01*
X116014285Y-54785714D02*
X116014285Y-55452380D01*
X115776190Y-54404761D02*
X115538095Y-55119047D01*
X116157142Y-55119047D01*
%TO.C,H3*%
X176214285Y-59652380D02*
X176214285Y-58652380D01*
X176547619Y-59366666D01*
X176880952Y-58652380D01*
X176880952Y-59652380D01*
X177500000Y-59652380D02*
X177404761Y-59604761D01*
X177357142Y-59557142D01*
X177309523Y-59461904D01*
X177309523Y-59176190D01*
X177357142Y-59080952D01*
X177404761Y-59033333D01*
X177500000Y-58985714D01*
X177642857Y-58985714D01*
X177738095Y-59033333D01*
X177785714Y-59080952D01*
X177833333Y-59176190D01*
X177833333Y-59461904D01*
X177785714Y-59557142D01*
X177738095Y-59604761D01*
X177642857Y-59652380D01*
X177500000Y-59652380D01*
X178690476Y-58985714D02*
X178690476Y-59652380D01*
X178261904Y-58985714D02*
X178261904Y-59509523D01*
X178309523Y-59604761D01*
X178404761Y-59652380D01*
X178547619Y-59652380D01*
X178642857Y-59604761D01*
X178690476Y-59557142D01*
X179166666Y-58985714D02*
X179166666Y-59652380D01*
X179166666Y-59080952D02*
X179214285Y-59033333D01*
X179309523Y-58985714D01*
X179452380Y-58985714D01*
X179547619Y-59033333D01*
X179595238Y-59128571D01*
X179595238Y-59652380D01*
X179928571Y-58985714D02*
X180309523Y-58985714D01*
X180071428Y-58652380D02*
X180071428Y-59509523D01*
X180119047Y-59604761D01*
X180214285Y-59652380D01*
X180309523Y-59652380D01*
X180642857Y-59652380D02*
X180642857Y-58985714D01*
X180642857Y-58652380D02*
X180595238Y-58700000D01*
X180642857Y-58747619D01*
X180690476Y-58700000D01*
X180642857Y-58652380D01*
X180642857Y-58747619D01*
X181119047Y-58985714D02*
X181119047Y-59652380D01*
X181119047Y-59080952D02*
X181166666Y-59033333D01*
X181261904Y-58985714D01*
X181404761Y-58985714D01*
X181500000Y-59033333D01*
X181547619Y-59128571D01*
X181547619Y-59652380D01*
X182452380Y-58985714D02*
X182452380Y-59795238D01*
X182404761Y-59890476D01*
X182357142Y-59938095D01*
X182261904Y-59985714D01*
X182119047Y-59985714D01*
X182023809Y-59938095D01*
X182452380Y-59604761D02*
X182357142Y-59652380D01*
X182166666Y-59652380D01*
X182071428Y-59604761D01*
X182023809Y-59557142D01*
X181976190Y-59461904D01*
X181976190Y-59176190D01*
X182023809Y-59080952D01*
X182071428Y-59033333D01*
X182166666Y-58985714D01*
X182357142Y-58985714D01*
X182452380Y-59033333D01*
X182928571Y-59652380D02*
X182928571Y-58652380D01*
X182928571Y-59128571D02*
X183500000Y-59128571D01*
X183500000Y-59652380D02*
X183500000Y-58652380D01*
X184119047Y-59652380D02*
X184023809Y-59604761D01*
X183976190Y-59557142D01*
X183928571Y-59461904D01*
X183928571Y-59176190D01*
X183976190Y-59080952D01*
X184023809Y-59033333D01*
X184119047Y-58985714D01*
X184261904Y-58985714D01*
X184357142Y-59033333D01*
X184404761Y-59080952D01*
X184452380Y-59176190D01*
X184452380Y-59461904D01*
X184404761Y-59557142D01*
X184357142Y-59604761D01*
X184261904Y-59652380D01*
X184119047Y-59652380D01*
X185023809Y-59652380D02*
X184928571Y-59604761D01*
X184880952Y-59509523D01*
X184880952Y-58652380D01*
X185785714Y-59604761D02*
X185690476Y-59652380D01*
X185500000Y-59652380D01*
X185404761Y-59604761D01*
X185357142Y-59509523D01*
X185357142Y-59128571D01*
X185404761Y-59033333D01*
X185500000Y-58985714D01*
X185690476Y-58985714D01*
X185785714Y-59033333D01*
X185833333Y-59128571D01*
X185833333Y-59223809D01*
X185357142Y-59319047D01*
X180538095Y-55452380D02*
X180538095Y-54452380D01*
X180538095Y-54928571D02*
X181109523Y-54928571D01*
X181109523Y-55452380D02*
X181109523Y-54452380D01*
X181490476Y-54452380D02*
X182109523Y-54452380D01*
X181776190Y-54833333D01*
X181919047Y-54833333D01*
X182014285Y-54880952D01*
X182061904Y-54928571D01*
X182109523Y-55023809D01*
X182109523Y-55261904D01*
X182061904Y-55357142D01*
X182014285Y-55404761D01*
X181919047Y-55452380D01*
X181633333Y-55452380D01*
X181538095Y-55404761D01*
X181490476Y-55357142D01*
%TO.C,H2*%
X176214285Y-129652380D02*
X176214285Y-128652380D01*
X176547619Y-129366666D01*
X176880952Y-128652380D01*
X176880952Y-129652380D01*
X177500000Y-129652380D02*
X177404761Y-129604761D01*
X177357142Y-129557142D01*
X177309523Y-129461904D01*
X177309523Y-129176190D01*
X177357142Y-129080952D01*
X177404761Y-129033333D01*
X177500000Y-128985714D01*
X177642857Y-128985714D01*
X177738095Y-129033333D01*
X177785714Y-129080952D01*
X177833333Y-129176190D01*
X177833333Y-129461904D01*
X177785714Y-129557142D01*
X177738095Y-129604761D01*
X177642857Y-129652380D01*
X177500000Y-129652380D01*
X178690476Y-128985714D02*
X178690476Y-129652380D01*
X178261904Y-128985714D02*
X178261904Y-129509523D01*
X178309523Y-129604761D01*
X178404761Y-129652380D01*
X178547619Y-129652380D01*
X178642857Y-129604761D01*
X178690476Y-129557142D01*
X179166666Y-128985714D02*
X179166666Y-129652380D01*
X179166666Y-129080952D02*
X179214285Y-129033333D01*
X179309523Y-128985714D01*
X179452380Y-128985714D01*
X179547619Y-129033333D01*
X179595238Y-129128571D01*
X179595238Y-129652380D01*
X179928571Y-128985714D02*
X180309523Y-128985714D01*
X180071428Y-128652380D02*
X180071428Y-129509523D01*
X180119047Y-129604761D01*
X180214285Y-129652380D01*
X180309523Y-129652380D01*
X180642857Y-129652380D02*
X180642857Y-128985714D01*
X180642857Y-128652380D02*
X180595238Y-128700000D01*
X180642857Y-128747619D01*
X180690476Y-128700000D01*
X180642857Y-128652380D01*
X180642857Y-128747619D01*
X181119047Y-128985714D02*
X181119047Y-129652380D01*
X181119047Y-129080952D02*
X181166666Y-129033333D01*
X181261904Y-128985714D01*
X181404761Y-128985714D01*
X181500000Y-129033333D01*
X181547619Y-129128571D01*
X181547619Y-129652380D01*
X182452380Y-128985714D02*
X182452380Y-129795238D01*
X182404761Y-129890476D01*
X182357142Y-129938095D01*
X182261904Y-129985714D01*
X182119047Y-129985714D01*
X182023809Y-129938095D01*
X182452380Y-129604761D02*
X182357142Y-129652380D01*
X182166666Y-129652380D01*
X182071428Y-129604761D01*
X182023809Y-129557142D01*
X181976190Y-129461904D01*
X181976190Y-129176190D01*
X182023809Y-129080952D01*
X182071428Y-129033333D01*
X182166666Y-128985714D01*
X182357142Y-128985714D01*
X182452380Y-129033333D01*
X182928571Y-129652380D02*
X182928571Y-128652380D01*
X182928571Y-129128571D02*
X183500000Y-129128571D01*
X183500000Y-129652380D02*
X183500000Y-128652380D01*
X184119047Y-129652380D02*
X184023809Y-129604761D01*
X183976190Y-129557142D01*
X183928571Y-129461904D01*
X183928571Y-129176190D01*
X183976190Y-129080952D01*
X184023809Y-129033333D01*
X184119047Y-128985714D01*
X184261904Y-128985714D01*
X184357142Y-129033333D01*
X184404761Y-129080952D01*
X184452380Y-129176190D01*
X184452380Y-129461904D01*
X184404761Y-129557142D01*
X184357142Y-129604761D01*
X184261904Y-129652380D01*
X184119047Y-129652380D01*
X185023809Y-129652380D02*
X184928571Y-129604761D01*
X184880952Y-129509523D01*
X184880952Y-128652380D01*
X185785714Y-129604761D02*
X185690476Y-129652380D01*
X185500000Y-129652380D01*
X185404761Y-129604761D01*
X185357142Y-129509523D01*
X185357142Y-129128571D01*
X185404761Y-129033333D01*
X185500000Y-128985714D01*
X185690476Y-128985714D01*
X185785714Y-129033333D01*
X185833333Y-129128571D01*
X185833333Y-129223809D01*
X185357142Y-129319047D01*
X180538095Y-125452380D02*
X180538095Y-124452380D01*
X180538095Y-124928571D02*
X181109523Y-124928571D01*
X181109523Y-125452380D02*
X181109523Y-124452380D01*
X181538095Y-124547619D02*
X181585714Y-124500000D01*
X181680952Y-124452380D01*
X181919047Y-124452380D01*
X182014285Y-124500000D01*
X182061904Y-124547619D01*
X182109523Y-124642857D01*
X182109523Y-124738095D01*
X182061904Y-124880952D01*
X181490476Y-125452380D01*
X182109523Y-125452380D01*
%TO.C,H1*%
X110214285Y-129652380D02*
X110214285Y-128652380D01*
X110547619Y-129366666D01*
X110880952Y-128652380D01*
X110880952Y-129652380D01*
X111500000Y-129652380D02*
X111404761Y-129604761D01*
X111357142Y-129557142D01*
X111309523Y-129461904D01*
X111309523Y-129176190D01*
X111357142Y-129080952D01*
X111404761Y-129033333D01*
X111500000Y-128985714D01*
X111642857Y-128985714D01*
X111738095Y-129033333D01*
X111785714Y-129080952D01*
X111833333Y-129176190D01*
X111833333Y-129461904D01*
X111785714Y-129557142D01*
X111738095Y-129604761D01*
X111642857Y-129652380D01*
X111500000Y-129652380D01*
X112690476Y-128985714D02*
X112690476Y-129652380D01*
X112261904Y-128985714D02*
X112261904Y-129509523D01*
X112309523Y-129604761D01*
X112404761Y-129652380D01*
X112547619Y-129652380D01*
X112642857Y-129604761D01*
X112690476Y-129557142D01*
X113166666Y-128985714D02*
X113166666Y-129652380D01*
X113166666Y-129080952D02*
X113214285Y-129033333D01*
X113309523Y-128985714D01*
X113452380Y-128985714D01*
X113547619Y-129033333D01*
X113595238Y-129128571D01*
X113595238Y-129652380D01*
X113928571Y-128985714D02*
X114309523Y-128985714D01*
X114071428Y-128652380D02*
X114071428Y-129509523D01*
X114119047Y-129604761D01*
X114214285Y-129652380D01*
X114309523Y-129652380D01*
X114642857Y-129652380D02*
X114642857Y-128985714D01*
X114642857Y-128652380D02*
X114595238Y-128700000D01*
X114642857Y-128747619D01*
X114690476Y-128700000D01*
X114642857Y-128652380D01*
X114642857Y-128747619D01*
X115119047Y-128985714D02*
X115119047Y-129652380D01*
X115119047Y-129080952D02*
X115166666Y-129033333D01*
X115261904Y-128985714D01*
X115404761Y-128985714D01*
X115500000Y-129033333D01*
X115547619Y-129128571D01*
X115547619Y-129652380D01*
X116452380Y-128985714D02*
X116452380Y-129795238D01*
X116404761Y-129890476D01*
X116357142Y-129938095D01*
X116261904Y-129985714D01*
X116119047Y-129985714D01*
X116023809Y-129938095D01*
X116452380Y-129604761D02*
X116357142Y-129652380D01*
X116166666Y-129652380D01*
X116071428Y-129604761D01*
X116023809Y-129557142D01*
X115976190Y-129461904D01*
X115976190Y-129176190D01*
X116023809Y-129080952D01*
X116071428Y-129033333D01*
X116166666Y-128985714D01*
X116357142Y-128985714D01*
X116452380Y-129033333D01*
X116928571Y-129652380D02*
X116928571Y-128652380D01*
X116928571Y-129128571D02*
X117500000Y-129128571D01*
X117500000Y-129652380D02*
X117500000Y-128652380D01*
X118119047Y-129652380D02*
X118023809Y-129604761D01*
X117976190Y-129557142D01*
X117928571Y-129461904D01*
X117928571Y-129176190D01*
X117976190Y-129080952D01*
X118023809Y-129033333D01*
X118119047Y-128985714D01*
X118261904Y-128985714D01*
X118357142Y-129033333D01*
X118404761Y-129080952D01*
X118452380Y-129176190D01*
X118452380Y-129461904D01*
X118404761Y-129557142D01*
X118357142Y-129604761D01*
X118261904Y-129652380D01*
X118119047Y-129652380D01*
X119023809Y-129652380D02*
X118928571Y-129604761D01*
X118880952Y-129509523D01*
X118880952Y-128652380D01*
X119785714Y-129604761D02*
X119690476Y-129652380D01*
X119500000Y-129652380D01*
X119404761Y-129604761D01*
X119357142Y-129509523D01*
X119357142Y-129128571D01*
X119404761Y-129033333D01*
X119500000Y-128985714D01*
X119690476Y-128985714D01*
X119785714Y-129033333D01*
X119833333Y-129128571D01*
X119833333Y-129223809D01*
X119357142Y-129319047D01*
X114538095Y-125452380D02*
X114538095Y-124452380D01*
X114538095Y-124928571D02*
X115109523Y-124928571D01*
X115109523Y-125452380D02*
X115109523Y-124452380D01*
X116109523Y-125452380D02*
X115538095Y-125452380D01*
X115823809Y-125452380D02*
X115823809Y-124452380D01*
X115728571Y-124595238D01*
X115633333Y-124690476D01*
X115538095Y-124738095D01*
%TO.C,U1*%
X146571904Y-110895714D02*
X146571904Y-111562380D01*
X146333809Y-110514761D02*
X146095714Y-111229047D01*
X146714761Y-111229047D01*
X147286190Y-110562380D02*
X147381428Y-110562380D01*
X147476666Y-110610000D01*
X147524285Y-110657619D01*
X147571904Y-110752857D01*
X147619523Y-110943333D01*
X147619523Y-111181428D01*
X147571904Y-111371904D01*
X147524285Y-111467142D01*
X147476666Y-111514761D01*
X147381428Y-111562380D01*
X147286190Y-111562380D01*
X147190952Y-111514761D01*
X147143333Y-111467142D01*
X147095714Y-111371904D01*
X147048095Y-111181428D01*
X147048095Y-110943333D01*
X147095714Y-110752857D01*
X147143333Y-110657619D01*
X147190952Y-110610000D01*
X147286190Y-110562380D01*
X148000476Y-110657619D02*
X148048095Y-110610000D01*
X148143333Y-110562380D01*
X148381428Y-110562380D01*
X148476666Y-110610000D01*
X148524285Y-110657619D01*
X148571904Y-110752857D01*
X148571904Y-110848095D01*
X148524285Y-110990952D01*
X147952857Y-111562380D01*
X148571904Y-111562380D01*
X149190952Y-110562380D02*
X149286190Y-110562380D01*
X149381428Y-110610000D01*
X149429047Y-110657619D01*
X149476666Y-110752857D01*
X149524285Y-110943333D01*
X149524285Y-111181428D01*
X149476666Y-111371904D01*
X149429047Y-111467142D01*
X149381428Y-111514761D01*
X149286190Y-111562380D01*
X149190952Y-111562380D01*
X149095714Y-111514761D01*
X149048095Y-111467142D01*
X149000476Y-111371904D01*
X148952857Y-111181428D01*
X148952857Y-110943333D01*
X149000476Y-110752857D01*
X149048095Y-110657619D01*
X149095714Y-110610000D01*
X149190952Y-110562380D01*
X147048095Y-99342380D02*
X147048095Y-100151904D01*
X147095714Y-100247142D01*
X147143333Y-100294761D01*
X147238571Y-100342380D01*
X147429047Y-100342380D01*
X147524285Y-100294761D01*
X147571904Y-100247142D01*
X147619523Y-100151904D01*
X147619523Y-99342380D01*
X148619523Y-100342380D02*
X148048095Y-100342380D01*
X148333809Y-100342380D02*
X148333809Y-99342380D01*
X148238571Y-99485238D01*
X148143333Y-99580476D01*
X148048095Y-99628095D01*
%TO.C,SW3*%
X170297619Y-64152380D02*
X169964285Y-63676190D01*
X169726190Y-64152380D02*
X169726190Y-63152380D01*
X170107142Y-63152380D01*
X170202380Y-63200000D01*
X170250000Y-63247619D01*
X170297619Y-63342857D01*
X170297619Y-63485714D01*
X170250000Y-63580952D01*
X170202380Y-63628571D01*
X170107142Y-63676190D01*
X169726190Y-63676190D01*
X170726190Y-63628571D02*
X171059523Y-63628571D01*
X171202380Y-64152380D02*
X170726190Y-64152380D01*
X170726190Y-63152380D01*
X171202380Y-63152380D01*
X171583333Y-64104761D02*
X171726190Y-64152380D01*
X171964285Y-64152380D01*
X172059523Y-64104761D01*
X172107142Y-64057142D01*
X172154761Y-63961904D01*
X172154761Y-63866666D01*
X172107142Y-63771428D01*
X172059523Y-63723809D01*
X171964285Y-63676190D01*
X171773809Y-63628571D01*
X171678571Y-63580952D01*
X171630952Y-63533333D01*
X171583333Y-63438095D01*
X171583333Y-63342857D01*
X171630952Y-63247619D01*
X171678571Y-63200000D01*
X171773809Y-63152380D01*
X172011904Y-63152380D01*
X172154761Y-63200000D01*
X172583333Y-63628571D02*
X172916666Y-63628571D01*
X173059523Y-64152380D02*
X172583333Y-64152380D01*
X172583333Y-63152380D01*
X173059523Y-63152380D01*
X173345238Y-63152380D02*
X173916666Y-63152380D01*
X173630952Y-64152380D02*
X173630952Y-63152380D01*
X169916666Y-59654761D02*
X170059523Y-59702380D01*
X170297619Y-59702380D01*
X170392857Y-59654761D01*
X170440476Y-59607142D01*
X170488095Y-59511904D01*
X170488095Y-59416666D01*
X170440476Y-59321428D01*
X170392857Y-59273809D01*
X170297619Y-59226190D01*
X170107142Y-59178571D01*
X170011904Y-59130952D01*
X169964285Y-59083333D01*
X169916666Y-58988095D01*
X169916666Y-58892857D01*
X169964285Y-58797619D01*
X170011904Y-58750000D01*
X170107142Y-58702380D01*
X170345238Y-58702380D01*
X170488095Y-58750000D01*
X170821428Y-58702380D02*
X171059523Y-59702380D01*
X171250000Y-58988095D01*
X171440476Y-59702380D01*
X171678571Y-58702380D01*
X171964285Y-58702380D02*
X172583333Y-58702380D01*
X172250000Y-59083333D01*
X172392857Y-59083333D01*
X172488095Y-59130952D01*
X172535714Y-59178571D01*
X172583333Y-59273809D01*
X172583333Y-59511904D01*
X172535714Y-59607142D01*
X172488095Y-59654761D01*
X172392857Y-59702380D01*
X172107142Y-59702380D01*
X172011904Y-59654761D01*
X171964285Y-59607142D01*
%TO.C,SW2*%
X128628571Y-94607142D02*
X128676190Y-94464285D01*
X128723809Y-94416666D01*
X128819047Y-94369047D01*
X128961904Y-94369047D01*
X129057142Y-94416666D01*
X129104761Y-94464285D01*
X129152380Y-94559523D01*
X129152380Y-94940476D01*
X128152380Y-94940476D01*
X128152380Y-94607142D01*
X128200000Y-94511904D01*
X128247619Y-94464285D01*
X128342857Y-94416666D01*
X128438095Y-94416666D01*
X128533333Y-94464285D01*
X128580952Y-94511904D01*
X128628571Y-94607142D01*
X128628571Y-94940476D01*
X128152380Y-93750000D02*
X128152380Y-93559523D01*
X128200000Y-93464285D01*
X128295238Y-93369047D01*
X128485714Y-93321428D01*
X128819047Y-93321428D01*
X129009523Y-93369047D01*
X129104761Y-93464285D01*
X129152380Y-93559523D01*
X129152380Y-93750000D01*
X129104761Y-93845238D01*
X129009523Y-93940476D01*
X128819047Y-93988095D01*
X128485714Y-93988095D01*
X128295238Y-93940476D01*
X128200000Y-93845238D01*
X128152380Y-93750000D01*
X128152380Y-92702380D02*
X128152380Y-92511904D01*
X128200000Y-92416666D01*
X128295238Y-92321428D01*
X128485714Y-92273809D01*
X128819047Y-92273809D01*
X129009523Y-92321428D01*
X129104761Y-92416666D01*
X129152380Y-92511904D01*
X129152380Y-92702380D01*
X129104761Y-92797619D01*
X129009523Y-92892857D01*
X128819047Y-92940476D01*
X128485714Y-92940476D01*
X128295238Y-92892857D01*
X128200000Y-92797619D01*
X128152380Y-92702380D01*
X128152380Y-91988095D02*
X128152380Y-91416666D01*
X129152380Y-91702380D02*
X128152380Y-91702380D01*
X124654761Y-95083333D02*
X124702380Y-94940476D01*
X124702380Y-94702380D01*
X124654761Y-94607142D01*
X124607142Y-94559523D01*
X124511904Y-94511904D01*
X124416666Y-94511904D01*
X124321428Y-94559523D01*
X124273809Y-94607142D01*
X124226190Y-94702380D01*
X124178571Y-94892857D01*
X124130952Y-94988095D01*
X124083333Y-95035714D01*
X123988095Y-95083333D01*
X123892857Y-95083333D01*
X123797619Y-95035714D01*
X123750000Y-94988095D01*
X123702380Y-94892857D01*
X123702380Y-94654761D01*
X123750000Y-94511904D01*
X123702380Y-94178571D02*
X124702380Y-93940476D01*
X123988095Y-93750000D01*
X124702380Y-93559523D01*
X123702380Y-93321428D01*
X123797619Y-92988095D02*
X123750000Y-92940476D01*
X123702380Y-92845238D01*
X123702380Y-92607142D01*
X123750000Y-92511904D01*
X123797619Y-92464285D01*
X123892857Y-92416666D01*
X123988095Y-92416666D01*
X124130952Y-92464285D01*
X124702380Y-93035714D01*
X124702380Y-92416666D01*
%TO.C,R3*%
X168984761Y-69822380D02*
X168413333Y-69822380D01*
X168699047Y-69822380D02*
X168699047Y-68822380D01*
X168603809Y-68965238D01*
X168508571Y-69060476D01*
X168413333Y-69108095D01*
X169603809Y-68822380D02*
X169699047Y-68822380D01*
X169794285Y-68870000D01*
X169841904Y-68917619D01*
X169889523Y-69012857D01*
X169937142Y-69203333D01*
X169937142Y-69441428D01*
X169889523Y-69631904D01*
X169841904Y-69727142D01*
X169794285Y-69774761D01*
X169699047Y-69822380D01*
X169603809Y-69822380D01*
X169508571Y-69774761D01*
X169460952Y-69727142D01*
X169413333Y-69631904D01*
X169365714Y-69441428D01*
X169365714Y-69203333D01*
X169413333Y-69012857D01*
X169460952Y-68917619D01*
X169508571Y-68870000D01*
X169603809Y-68822380D01*
X170365714Y-69822380D02*
X170365714Y-68822380D01*
X170460952Y-69441428D02*
X170746666Y-69822380D01*
X170746666Y-69155714D02*
X170365714Y-69536666D01*
X171746666Y-69822380D02*
X171413333Y-69346190D01*
X171175238Y-69822380D02*
X171175238Y-68822380D01*
X171556190Y-68822380D01*
X171651428Y-68870000D01*
X171699047Y-68917619D01*
X171746666Y-69012857D01*
X171746666Y-69155714D01*
X171699047Y-69250952D01*
X171651428Y-69298571D01*
X171556190Y-69346190D01*
X171175238Y-69346190D01*
X169913333Y-67452380D02*
X169580000Y-66976190D01*
X169341904Y-67452380D02*
X169341904Y-66452380D01*
X169722857Y-66452380D01*
X169818095Y-66500000D01*
X169865714Y-66547619D01*
X169913333Y-66642857D01*
X169913333Y-66785714D01*
X169865714Y-66880952D01*
X169818095Y-66928571D01*
X169722857Y-66976190D01*
X169341904Y-66976190D01*
X170246666Y-66452380D02*
X170865714Y-66452380D01*
X170532380Y-66833333D01*
X170675238Y-66833333D01*
X170770476Y-66880952D01*
X170818095Y-66928571D01*
X170865714Y-67023809D01*
X170865714Y-67261904D01*
X170818095Y-67357142D01*
X170770476Y-67404761D01*
X170675238Y-67452380D01*
X170389523Y-67452380D01*
X170294285Y-67404761D01*
X170246666Y-67357142D01*
%TO.C,R2*%
X168318095Y-109822380D02*
X168127619Y-109822380D01*
X168032380Y-109870000D01*
X167984761Y-109917619D01*
X167889523Y-110060476D01*
X167841904Y-110250952D01*
X167841904Y-110631904D01*
X167889523Y-110727142D01*
X167937142Y-110774761D01*
X168032380Y-110822380D01*
X168222857Y-110822380D01*
X168318095Y-110774761D01*
X168365714Y-110727142D01*
X168413333Y-110631904D01*
X168413333Y-110393809D01*
X168365714Y-110298571D01*
X168318095Y-110250952D01*
X168222857Y-110203333D01*
X168032380Y-110203333D01*
X167937142Y-110250952D01*
X167889523Y-110298571D01*
X167841904Y-110393809D01*
X168794285Y-109917619D02*
X168841904Y-109870000D01*
X168937142Y-109822380D01*
X169175238Y-109822380D01*
X169270476Y-109870000D01*
X169318095Y-109917619D01*
X169365714Y-110012857D01*
X169365714Y-110108095D01*
X169318095Y-110250952D01*
X168746666Y-110822380D01*
X169365714Y-110822380D01*
X169984761Y-109822380D02*
X170080000Y-109822380D01*
X170175238Y-109870000D01*
X170222857Y-109917619D01*
X170270476Y-110012857D01*
X170318095Y-110203333D01*
X170318095Y-110441428D01*
X170270476Y-110631904D01*
X170222857Y-110727142D01*
X170175238Y-110774761D01*
X170080000Y-110822380D01*
X169984761Y-110822380D01*
X169889523Y-110774761D01*
X169841904Y-110727142D01*
X169794285Y-110631904D01*
X169746666Y-110441428D01*
X169746666Y-110203333D01*
X169794285Y-110012857D01*
X169841904Y-109917619D01*
X169889523Y-109870000D01*
X169984761Y-109822380D01*
X168913333Y-108452380D02*
X168580000Y-107976190D01*
X168341904Y-108452380D02*
X168341904Y-107452380D01*
X168722857Y-107452380D01*
X168818095Y-107500000D01*
X168865714Y-107547619D01*
X168913333Y-107642857D01*
X168913333Y-107785714D01*
X168865714Y-107880952D01*
X168818095Y-107928571D01*
X168722857Y-107976190D01*
X168341904Y-107976190D01*
X169294285Y-107547619D02*
X169341904Y-107500000D01*
X169437142Y-107452380D01*
X169675238Y-107452380D01*
X169770476Y-107500000D01*
X169818095Y-107547619D01*
X169865714Y-107642857D01*
X169865714Y-107738095D01*
X169818095Y-107880952D01*
X169246666Y-108452380D01*
X169865714Y-108452380D01*
%TO.C,R1*%
X168484761Y-105822380D02*
X167913333Y-105822380D01*
X168199047Y-105822380D02*
X168199047Y-104822380D01*
X168103809Y-104965238D01*
X168008571Y-105060476D01*
X167913333Y-105108095D01*
X169103809Y-104822380D02*
X169199047Y-104822380D01*
X169294285Y-104870000D01*
X169341904Y-104917619D01*
X169389523Y-105012857D01*
X169437142Y-105203333D01*
X169437142Y-105441428D01*
X169389523Y-105631904D01*
X169341904Y-105727142D01*
X169294285Y-105774761D01*
X169199047Y-105822380D01*
X169103809Y-105822380D01*
X169008571Y-105774761D01*
X168960952Y-105727142D01*
X168913333Y-105631904D01*
X168865714Y-105441428D01*
X168865714Y-105203333D01*
X168913333Y-105012857D01*
X168960952Y-104917619D01*
X169008571Y-104870000D01*
X169103809Y-104822380D01*
X169865714Y-105822380D02*
X169865714Y-104822380D01*
X169960952Y-105441428D02*
X170246666Y-105822380D01*
X170246666Y-105155714D02*
X169865714Y-105536666D01*
X168913333Y-103452380D02*
X168580000Y-102976190D01*
X168341904Y-103452380D02*
X168341904Y-102452380D01*
X168722857Y-102452380D01*
X168818095Y-102500000D01*
X168865714Y-102547619D01*
X168913333Y-102642857D01*
X168913333Y-102785714D01*
X168865714Y-102880952D01*
X168818095Y-102928571D01*
X168722857Y-102976190D01*
X168341904Y-102976190D01*
X169865714Y-103452380D02*
X169294285Y-103452380D01*
X169580000Y-103452380D02*
X169580000Y-102452380D01*
X169484761Y-102595238D01*
X169389523Y-102690476D01*
X169294285Y-102738095D01*
%TO.C,C4*%
X122857142Y-103652380D02*
X122952380Y-103652380D01*
X123047619Y-103700000D01*
X123095238Y-103747619D01*
X123142857Y-103842857D01*
X123190476Y-104033333D01*
X123190476Y-104271428D01*
X123142857Y-104461904D01*
X123095238Y-104557142D01*
X123047619Y-104604761D01*
X122952380Y-104652380D01*
X122857142Y-104652380D01*
X122761904Y-104604761D01*
X122714285Y-104557142D01*
X122666666Y-104461904D01*
X122619047Y-104271428D01*
X122619047Y-104033333D01*
X122666666Y-103842857D01*
X122714285Y-103747619D01*
X122761904Y-103700000D01*
X122857142Y-103652380D01*
X123619047Y-104557142D02*
X123666666Y-104604761D01*
X123619047Y-104652380D01*
X123571428Y-104604761D01*
X123619047Y-104557142D01*
X123619047Y-104652380D01*
X124619047Y-104652380D02*
X124047619Y-104652380D01*
X124333333Y-104652380D02*
X124333333Y-103652380D01*
X124238095Y-103795238D01*
X124142857Y-103890476D01*
X124047619Y-103938095D01*
X125476190Y-103985714D02*
X125476190Y-104652380D01*
X125047619Y-103985714D02*
X125047619Y-104509523D01*
X125095238Y-104604761D01*
X125190476Y-104652380D01*
X125333333Y-104652380D01*
X125428571Y-104604761D01*
X125476190Y-104557142D01*
X126285714Y-104128571D02*
X125952380Y-104128571D01*
X125952380Y-104652380D02*
X125952380Y-103652380D01*
X126428571Y-103652380D01*
D12*
X124356666Y-102307142D02*
X124315714Y-102348095D01*
X124192857Y-102389047D01*
X124110952Y-102389047D01*
X123988095Y-102348095D01*
X123906190Y-102266190D01*
X123865238Y-102184285D01*
X123824285Y-102020476D01*
X123824285Y-101897619D01*
X123865238Y-101733809D01*
X123906190Y-101651904D01*
X123988095Y-101570000D01*
X124110952Y-101529047D01*
X124192857Y-101529047D01*
X124315714Y-101570000D01*
X124356666Y-101610952D01*
X125093809Y-101815714D02*
X125093809Y-102389047D01*
X124889047Y-101488095D02*
X124684285Y-102102380D01*
X125216666Y-102102380D01*
%TO.C,C3*%
D11*
X121107142Y-74147619D02*
X121154761Y-74100000D01*
X121250000Y-74052380D01*
X121488095Y-74052380D01*
X121583333Y-74100000D01*
X121630952Y-74147619D01*
X121678571Y-74242857D01*
X121678571Y-74338095D01*
X121630952Y-74480952D01*
X121059523Y-75052380D01*
X121678571Y-75052380D01*
X122059523Y-74147619D02*
X122107142Y-74100000D01*
X122202380Y-74052380D01*
X122440476Y-74052380D01*
X122535714Y-74100000D01*
X122583333Y-74147619D01*
X122630952Y-74242857D01*
X122630952Y-74338095D01*
X122583333Y-74480952D01*
X122011904Y-75052380D01*
X122630952Y-75052380D01*
X123488095Y-74385714D02*
X123488095Y-75052380D01*
X123059523Y-74385714D02*
X123059523Y-74909523D01*
X123107142Y-75004761D01*
X123202380Y-75052380D01*
X123345238Y-75052380D01*
X123440476Y-75004761D01*
X123488095Y-74957142D01*
X124297619Y-74528571D02*
X123964285Y-74528571D01*
X123964285Y-75052380D02*
X123964285Y-74052380D01*
X124440476Y-74052380D01*
X122583333Y-79357142D02*
X122535714Y-79404761D01*
X122392857Y-79452380D01*
X122297619Y-79452380D01*
X122154761Y-79404761D01*
X122059523Y-79309523D01*
X122011904Y-79214285D01*
X121964285Y-79023809D01*
X121964285Y-78880952D01*
X122011904Y-78690476D01*
X122059523Y-78595238D01*
X122154761Y-78500000D01*
X122297619Y-78452380D01*
X122392857Y-78452380D01*
X122535714Y-78500000D01*
X122583333Y-78547619D01*
X122916666Y-78452380D02*
X123535714Y-78452380D01*
X123202380Y-78833333D01*
X123345238Y-78833333D01*
X123440476Y-78880952D01*
X123488095Y-78928571D01*
X123535714Y-79023809D01*
X123535714Y-79261904D01*
X123488095Y-79357142D01*
X123440476Y-79404761D01*
X123345238Y-79452380D01*
X123059523Y-79452380D01*
X122964285Y-79404761D01*
X122916666Y-79357142D01*
%TO.C,C2*%
X166652380Y-60942857D02*
X166652380Y-60847619D01*
X166700000Y-60752380D01*
X166747619Y-60704761D01*
X166842857Y-60657142D01*
X167033333Y-60609523D01*
X167271428Y-60609523D01*
X167461904Y-60657142D01*
X167557142Y-60704761D01*
X167604761Y-60752380D01*
X167652380Y-60847619D01*
X167652380Y-60942857D01*
X167604761Y-61038095D01*
X167557142Y-61085714D01*
X167461904Y-61133333D01*
X167271428Y-61180952D01*
X167033333Y-61180952D01*
X166842857Y-61133333D01*
X166747619Y-61085714D01*
X166700000Y-61038095D01*
X166652380Y-60942857D01*
X167557142Y-60180952D02*
X167604761Y-60133333D01*
X167652380Y-60180952D01*
X167604761Y-60228571D01*
X167557142Y-60180952D01*
X167652380Y-60180952D01*
X167652380Y-59180952D02*
X167652380Y-59752380D01*
X167652380Y-59466666D02*
X166652380Y-59466666D01*
X166795238Y-59561904D01*
X166890476Y-59657142D01*
X166938095Y-59752380D01*
X166985714Y-58323809D02*
X167652380Y-58323809D01*
X166985714Y-58752380D02*
X167509523Y-58752380D01*
X167604761Y-58704761D01*
X167652380Y-58609523D01*
X167652380Y-58466666D01*
X167604761Y-58371428D01*
X167557142Y-58323809D01*
X167128571Y-57514285D02*
X167128571Y-57847619D01*
X167652380Y-57847619D02*
X166652380Y-57847619D01*
X166652380Y-57371428D01*
D12*
X165307142Y-59443333D02*
X165348095Y-59484285D01*
X165389047Y-59607142D01*
X165389047Y-59689047D01*
X165348095Y-59811904D01*
X165266190Y-59893809D01*
X165184285Y-59934761D01*
X165020476Y-59975714D01*
X164897619Y-59975714D01*
X164733809Y-59934761D01*
X164651904Y-59893809D01*
X164570000Y-59811904D01*
X164529047Y-59689047D01*
X164529047Y-59607142D01*
X164570000Y-59484285D01*
X164610952Y-59443333D01*
X164610952Y-59115714D02*
X164570000Y-59074761D01*
X164529047Y-58992857D01*
X164529047Y-58788095D01*
X164570000Y-58706190D01*
X164610952Y-58665238D01*
X164692857Y-58624285D01*
X164774761Y-58624285D01*
X164897619Y-58665238D01*
X165389047Y-59156666D01*
X165389047Y-58624285D01*
%TO.C,C1*%
D11*
X122657142Y-88952380D02*
X122752380Y-88952380D01*
X122847619Y-89000000D01*
X122895238Y-89047619D01*
X122942857Y-89142857D01*
X122990476Y-89333333D01*
X122990476Y-89571428D01*
X122942857Y-89761904D01*
X122895238Y-89857142D01*
X122847619Y-89904761D01*
X122752380Y-89952380D01*
X122657142Y-89952380D01*
X122561904Y-89904761D01*
X122514285Y-89857142D01*
X122466666Y-89761904D01*
X122419047Y-89571428D01*
X122419047Y-89333333D01*
X122466666Y-89142857D01*
X122514285Y-89047619D01*
X122561904Y-89000000D01*
X122657142Y-88952380D01*
X123419047Y-89857142D02*
X123466666Y-89904761D01*
X123419047Y-89952380D01*
X123371428Y-89904761D01*
X123419047Y-89857142D01*
X123419047Y-89952380D01*
X124419047Y-89952380D02*
X123847619Y-89952380D01*
X124133333Y-89952380D02*
X124133333Y-88952380D01*
X124038095Y-89095238D01*
X123942857Y-89190476D01*
X123847619Y-89238095D01*
X125276190Y-89285714D02*
X125276190Y-89952380D01*
X124847619Y-89285714D02*
X124847619Y-89809523D01*
X124895238Y-89904761D01*
X124990476Y-89952380D01*
X125133333Y-89952380D01*
X125228571Y-89904761D01*
X125276190Y-89857142D01*
X126085714Y-89428571D02*
X125752380Y-89428571D01*
X125752380Y-89952380D02*
X125752380Y-88952380D01*
X126228571Y-88952380D01*
D12*
X124156666Y-87607142D02*
X124115714Y-87648095D01*
X123992857Y-87689047D01*
X123910952Y-87689047D01*
X123788095Y-87648095D01*
X123706190Y-87566190D01*
X123665238Y-87484285D01*
X123624285Y-87320476D01*
X123624285Y-87197619D01*
X123665238Y-87033809D01*
X123706190Y-86951904D01*
X123788095Y-86870000D01*
X123910952Y-86829047D01*
X123992857Y-86829047D01*
X124115714Y-86870000D01*
X124156666Y-86910952D01*
X124975714Y-87689047D02*
X124484285Y-87689047D01*
X124730000Y-87689047D02*
X124730000Y-86829047D01*
X124648095Y-86951904D01*
X124566190Y-87033809D01*
X124484285Y-87074761D01*
%TO.C,SW1*%
D11*
X124004761Y-133104761D02*
X124147619Y-133152380D01*
X124385714Y-133152380D01*
X124480952Y-133104761D01*
X124528571Y-133057142D01*
X124576190Y-132961904D01*
X124576190Y-132866666D01*
X124528571Y-132771428D01*
X124480952Y-132723809D01*
X124385714Y-132676190D01*
X124195238Y-132628571D01*
X124100000Y-132580952D01*
X124052380Y-132533333D01*
X124004761Y-132438095D01*
X124004761Y-132342857D01*
X124052380Y-132247619D01*
X124100000Y-132200000D01*
X124195238Y-132152380D01*
X124433333Y-132152380D01*
X124576190Y-132200000D01*
X124909523Y-132152380D02*
X125147619Y-133152380D01*
X125338095Y-132438095D01*
X125528571Y-133152380D01*
X125766666Y-132152380D01*
X125909523Y-133247619D02*
X126671428Y-133247619D01*
X126861904Y-133104761D02*
X127004761Y-133152380D01*
X127242857Y-133152380D01*
X127338095Y-133104761D01*
X127385714Y-133057142D01*
X127433333Y-132961904D01*
X127433333Y-132866666D01*
X127385714Y-132771428D01*
X127338095Y-132723809D01*
X127242857Y-132676190D01*
X127052380Y-132628571D01*
X126957142Y-132580952D01*
X126909523Y-132533333D01*
X126861904Y-132438095D01*
X126861904Y-132342857D01*
X126909523Y-132247619D01*
X126957142Y-132200000D01*
X127052380Y-132152380D01*
X127290476Y-132152380D01*
X127433333Y-132200000D01*
X127861904Y-133152380D02*
X127861904Y-132152380D01*
X128242857Y-132152380D01*
X128338095Y-132200000D01*
X128385714Y-132247619D01*
X128433333Y-132342857D01*
X128433333Y-132485714D01*
X128385714Y-132580952D01*
X128338095Y-132628571D01*
X128242857Y-132676190D01*
X127861904Y-132676190D01*
X128861904Y-133152380D02*
X128861904Y-132152380D01*
X129100000Y-132152380D01*
X129242857Y-132200000D01*
X129338095Y-132295238D01*
X129385714Y-132390476D01*
X129433333Y-132580952D01*
X129433333Y-132723809D01*
X129385714Y-132914285D01*
X129338095Y-133009523D01*
X129242857Y-133104761D01*
X129100000Y-133152380D01*
X128861904Y-133152380D01*
X129719047Y-132152380D02*
X130290476Y-132152380D01*
X130004761Y-133152380D02*
X130004761Y-132152380D01*
D10*
X127033333Y-126902380D02*
X127104761Y-126926190D01*
X127223809Y-126926190D01*
X127271428Y-126902380D01*
X127295238Y-126878571D01*
X127319047Y-126830952D01*
X127319047Y-126783333D01*
X127295238Y-126735714D01*
X127271428Y-126711904D01*
X127223809Y-126688095D01*
X127128571Y-126664285D01*
X127080952Y-126640476D01*
X127057142Y-126616666D01*
X127033333Y-126569047D01*
X127033333Y-126521428D01*
X127057142Y-126473809D01*
X127080952Y-126450000D01*
X127128571Y-126426190D01*
X127247619Y-126426190D01*
X127319047Y-126450000D01*
X127485714Y-126426190D02*
X127604761Y-126926190D01*
X127700000Y-126569047D01*
X127795238Y-126926190D01*
X127914285Y-126426190D01*
X128366666Y-126926190D02*
X128080952Y-126926190D01*
X128223809Y-126926190D02*
X128223809Y-126426190D01*
X128176190Y-126497619D01*
X128128571Y-126545238D01*
X128080952Y-126569047D01*
%TO.C,U2*%
D11*
X168524285Y-100195714D02*
X168524285Y-100862380D01*
X168286190Y-99814761D02*
X168048095Y-100529047D01*
X168667142Y-100529047D01*
X169048095Y-100862380D02*
X169048095Y-99862380D01*
X169619523Y-100862380D01*
X169619523Y-99862380D01*
X170048095Y-99957619D02*
X170095714Y-99910000D01*
X170190952Y-99862380D01*
X170429047Y-99862380D01*
X170524285Y-99910000D01*
X170571904Y-99957619D01*
X170619523Y-100052857D01*
X170619523Y-100148095D01*
X170571904Y-100290952D01*
X170000476Y-100862380D01*
X170619523Y-100862380D01*
X171524285Y-99862380D02*
X171048095Y-99862380D01*
X171000476Y-100338571D01*
X171048095Y-100290952D01*
X171143333Y-100243333D01*
X171381428Y-100243333D01*
X171476666Y-100290952D01*
X171524285Y-100338571D01*
X171571904Y-100433809D01*
X171571904Y-100671904D01*
X171524285Y-100767142D01*
X171476666Y-100814761D01*
X171381428Y-100862380D01*
X171143333Y-100862380D01*
X171048095Y-100814761D01*
X171000476Y-100767142D01*
X169048095Y-94992380D02*
X169048095Y-95801904D01*
X169095714Y-95897142D01*
X169143333Y-95944761D01*
X169238571Y-95992380D01*
X169429047Y-95992380D01*
X169524285Y-95944761D01*
X169571904Y-95897142D01*
X169619523Y-95801904D01*
X169619523Y-94992380D01*
X170048095Y-95087619D02*
X170095714Y-95040000D01*
X170190952Y-94992380D01*
X170429047Y-94992380D01*
X170524285Y-95040000D01*
X170571904Y-95087619D01*
X170619523Y-95182857D01*
X170619523Y-95278095D01*
X170571904Y-95420952D01*
X170000476Y-95992380D01*
X170619523Y-95992380D01*
%TO.C,J4*%
X117627142Y-70307142D02*
X117579523Y-70354761D01*
X117436666Y-70402380D01*
X117341428Y-70402380D01*
X117198571Y-70354761D01*
X117103333Y-70259523D01*
X117055714Y-70164285D01*
X117008095Y-69973809D01*
X117008095Y-69830952D01*
X117055714Y-69640476D01*
X117103333Y-69545238D01*
X117198571Y-69450000D01*
X117341428Y-69402380D01*
X117436666Y-69402380D01*
X117579523Y-69450000D01*
X117627142Y-69497619D01*
X118198571Y-70402380D02*
X118103333Y-70354761D01*
X118055714Y-70307142D01*
X118008095Y-70211904D01*
X118008095Y-69926190D01*
X118055714Y-69830952D01*
X118103333Y-69783333D01*
X118198571Y-69735714D01*
X118341428Y-69735714D01*
X118436666Y-69783333D01*
X118484285Y-69830952D01*
X118531904Y-69926190D01*
X118531904Y-70211904D01*
X118484285Y-70307142D01*
X118436666Y-70354761D01*
X118341428Y-70402380D01*
X118198571Y-70402380D01*
X118960476Y-69735714D02*
X118960476Y-70402380D01*
X118960476Y-69830952D02*
X119008095Y-69783333D01*
X119103333Y-69735714D01*
X119246190Y-69735714D01*
X119341428Y-69783333D01*
X119389047Y-69878571D01*
X119389047Y-70402380D01*
X119865238Y-69735714D02*
X119865238Y-70402380D01*
X119865238Y-69830952D02*
X119912857Y-69783333D01*
X120008095Y-69735714D01*
X120150952Y-69735714D01*
X120246190Y-69783333D01*
X120293809Y-69878571D01*
X120293809Y-70402380D01*
X120531904Y-70497619D02*
X121293809Y-70497619D01*
X121722380Y-69402380D02*
X121817619Y-69402380D01*
X121912857Y-69450000D01*
X121960476Y-69497619D01*
X122008095Y-69592857D01*
X122055714Y-69783333D01*
X122055714Y-70021428D01*
X122008095Y-70211904D01*
X121960476Y-70307142D01*
X121912857Y-70354761D01*
X121817619Y-70402380D01*
X121722380Y-70402380D01*
X121627142Y-70354761D01*
X121579523Y-70307142D01*
X121531904Y-70211904D01*
X121484285Y-70021428D01*
X121484285Y-69783333D01*
X121531904Y-69592857D01*
X121579523Y-69497619D01*
X121627142Y-69450000D01*
X121722380Y-69402380D01*
X122436666Y-69497619D02*
X122484285Y-69450000D01*
X122579523Y-69402380D01*
X122817619Y-69402380D01*
X122912857Y-69450000D01*
X122960476Y-69497619D01*
X123008095Y-69592857D01*
X123008095Y-69688095D01*
X122960476Y-69830952D01*
X122389047Y-70402380D01*
X123008095Y-70402380D01*
X123341428Y-70402380D02*
X123865238Y-69735714D01*
X123341428Y-69735714D02*
X123865238Y-70402380D01*
X124436666Y-69402380D02*
X124531904Y-69402380D01*
X124627142Y-69450000D01*
X124674761Y-69497619D01*
X124722380Y-69592857D01*
X124770000Y-69783333D01*
X124770000Y-70021428D01*
X124722380Y-70211904D01*
X124674761Y-70307142D01*
X124627142Y-70354761D01*
X124531904Y-70402380D01*
X124436666Y-70402380D01*
X124341428Y-70354761D01*
X124293809Y-70307142D01*
X124246190Y-70211904D01*
X124198571Y-70021428D01*
X124198571Y-69783333D01*
X124246190Y-69592857D01*
X124293809Y-69497619D01*
X124341428Y-69450000D01*
X124436666Y-69402380D01*
X125627142Y-69735714D02*
X125627142Y-70402380D01*
X125389047Y-69354761D02*
X125150952Y-70069047D01*
X125770000Y-70069047D01*
X125912857Y-70497619D02*
X126674761Y-70497619D01*
X127103333Y-69402380D02*
X127293809Y-69402380D01*
X127389047Y-69450000D01*
X127484285Y-69545238D01*
X127531904Y-69735714D01*
X127531904Y-70069047D01*
X127484285Y-70259523D01*
X127389047Y-70354761D01*
X127293809Y-70402380D01*
X127103333Y-70402380D01*
X127008095Y-70354761D01*
X126912857Y-70259523D01*
X126865238Y-70069047D01*
X126865238Y-69735714D01*
X126912857Y-69545238D01*
X127008095Y-69450000D01*
X127103333Y-69402380D01*
X128389047Y-70402380D02*
X128389047Y-69402380D01*
X128389047Y-70354761D02*
X128293809Y-70402380D01*
X128103333Y-70402380D01*
X128008095Y-70354761D01*
X127960476Y-70307142D01*
X127912857Y-70211904D01*
X127912857Y-69926190D01*
X127960476Y-69830952D01*
X128008095Y-69783333D01*
X128103333Y-69735714D01*
X128293809Y-69735714D01*
X128389047Y-69783333D01*
X129293809Y-70402380D02*
X129293809Y-69402380D01*
X129293809Y-70354761D02*
X129198571Y-70402380D01*
X129008095Y-70402380D01*
X128912857Y-70354761D01*
X128865238Y-70307142D01*
X128817619Y-70211904D01*
X128817619Y-69926190D01*
X128865238Y-69830952D01*
X128912857Y-69783333D01*
X129008095Y-69735714D01*
X129198571Y-69735714D01*
X129293809Y-69783333D01*
X129531904Y-70497619D02*
X130293809Y-70497619D01*
X130531904Y-69878571D02*
X130865238Y-69878571D01*
X131008095Y-70402380D02*
X130531904Y-70402380D01*
X130531904Y-69402380D01*
X131008095Y-69402380D01*
X131341428Y-69735714D02*
X131579523Y-70402380D01*
X131817619Y-69735714D01*
X132579523Y-70354761D02*
X132484285Y-70402380D01*
X132293809Y-70402380D01*
X132198571Y-70354761D01*
X132150952Y-70259523D01*
X132150952Y-69878571D01*
X132198571Y-69783333D01*
X132293809Y-69735714D01*
X132484285Y-69735714D01*
X132579523Y-69783333D01*
X132627142Y-69878571D01*
X132627142Y-69973809D01*
X132150952Y-70069047D01*
X133055714Y-69735714D02*
X133055714Y-70402380D01*
X133055714Y-69830952D02*
X133103333Y-69783333D01*
X133198571Y-69735714D01*
X133341428Y-69735714D01*
X133436666Y-69783333D01*
X133484285Y-69878571D01*
X133484285Y-70402380D01*
X124722380Y-64143333D02*
X125436666Y-64143333D01*
X125579523Y-64190952D01*
X125674761Y-64286190D01*
X125722380Y-64429047D01*
X125722380Y-64524285D01*
X125055714Y-63238571D02*
X125722380Y-63238571D01*
X124674761Y-63476666D02*
X125389047Y-63714761D01*
X125389047Y-63095714D01*
%TO.C,J3*%
X169190476Y-74258571D02*
X169333333Y-74306190D01*
X169380952Y-74353809D01*
X169428571Y-74449047D01*
X169428571Y-74591904D01*
X169380952Y-74687142D01*
X169333333Y-74734761D01*
X169238095Y-74782380D01*
X168857142Y-74782380D01*
X168857142Y-73782380D01*
X169190476Y-73782380D01*
X169285714Y-73830000D01*
X169333333Y-73877619D01*
X169380952Y-73972857D01*
X169380952Y-74068095D01*
X169333333Y-74163333D01*
X169285714Y-74210952D01*
X169190476Y-74258571D01*
X168857142Y-74258571D01*
X170285714Y-74782380D02*
X170285714Y-74258571D01*
X170238095Y-74163333D01*
X170142857Y-74115714D01*
X169952380Y-74115714D01*
X169857142Y-74163333D01*
X170285714Y-74734761D02*
X170190476Y-74782380D01*
X169952380Y-74782380D01*
X169857142Y-74734761D01*
X169809523Y-74639523D01*
X169809523Y-74544285D01*
X169857142Y-74449047D01*
X169952380Y-74401428D01*
X170190476Y-74401428D01*
X170285714Y-74353809D01*
X170619047Y-74115714D02*
X171000000Y-74115714D01*
X170761904Y-73782380D02*
X170761904Y-74639523D01*
X170809523Y-74734761D01*
X170904761Y-74782380D01*
X171000000Y-74782380D01*
X171190476Y-74115714D02*
X171571428Y-74115714D01*
X171333333Y-73782380D02*
X171333333Y-74639523D01*
X171380952Y-74734761D01*
X171476190Y-74782380D01*
X171571428Y-74782380D01*
X172285714Y-74734761D02*
X172190476Y-74782380D01*
X172000000Y-74782380D01*
X171904761Y-74734761D01*
X171857142Y-74639523D01*
X171857142Y-74258571D01*
X171904761Y-74163333D01*
X172000000Y-74115714D01*
X172190476Y-74115714D01*
X172285714Y-74163333D01*
X172333333Y-74258571D01*
X172333333Y-74353809D01*
X171857142Y-74449047D01*
X172761904Y-74782380D02*
X172761904Y-74115714D01*
X172761904Y-74306190D02*
X172809523Y-74210952D01*
X172857142Y-74163333D01*
X172952380Y-74115714D01*
X173047619Y-74115714D01*
X173285714Y-74115714D02*
X173523809Y-74782380D01*
X173761904Y-74115714D02*
X173523809Y-74782380D01*
X173428571Y-75020476D01*
X173380952Y-75068095D01*
X173285714Y-75115714D01*
X174857142Y-74734761D02*
X175000000Y-74782380D01*
X175238095Y-74782380D01*
X175333333Y-74734761D01*
X175380952Y-74687142D01*
X175428571Y-74591904D01*
X175428571Y-74496666D01*
X175380952Y-74401428D01*
X175333333Y-74353809D01*
X175238095Y-74306190D01*
X175047619Y-74258571D01*
X174952380Y-74210952D01*
X174904761Y-74163333D01*
X174857142Y-74068095D01*
X174857142Y-73972857D01*
X174904761Y-73877619D01*
X174952380Y-73830000D01*
X175047619Y-73782380D01*
X175285714Y-73782380D01*
X175428571Y-73830000D01*
X175714285Y-74115714D02*
X176095238Y-74115714D01*
X175857142Y-73782380D02*
X175857142Y-74639523D01*
X175904761Y-74734761D01*
X176000000Y-74782380D01*
X176095238Y-74782380D01*
X176857142Y-74782380D02*
X176857142Y-74258571D01*
X176809523Y-74163333D01*
X176714285Y-74115714D01*
X176523809Y-74115714D01*
X176428571Y-74163333D01*
X176857142Y-74734761D02*
X176761904Y-74782380D01*
X176523809Y-74782380D01*
X176428571Y-74734761D01*
X176380952Y-74639523D01*
X176380952Y-74544285D01*
X176428571Y-74449047D01*
X176523809Y-74401428D01*
X176761904Y-74401428D01*
X176857142Y-74353809D01*
X177190476Y-74115714D02*
X177571428Y-74115714D01*
X177333333Y-73782380D02*
X177333333Y-74639523D01*
X177380952Y-74734761D01*
X177476190Y-74782380D01*
X177571428Y-74782380D01*
X178333333Y-74115714D02*
X178333333Y-74782380D01*
X177904761Y-74115714D02*
X177904761Y-74639523D01*
X177952380Y-74734761D01*
X178047619Y-74782380D01*
X178190476Y-74782380D01*
X178285714Y-74734761D01*
X178333333Y-74687142D01*
X178761904Y-74734761D02*
X178857142Y-74782380D01*
X179047619Y-74782380D01*
X179142857Y-74734761D01*
X179190476Y-74639523D01*
X179190476Y-74591904D01*
X179142857Y-74496666D01*
X179047619Y-74449047D01*
X178904761Y-74449047D01*
X178809523Y-74401428D01*
X178761904Y-74306190D01*
X178761904Y-74258571D01*
X178809523Y-74163333D01*
X178904761Y-74115714D01*
X179047619Y-74115714D01*
X179142857Y-74163333D01*
X173452380Y-72333333D02*
X174166666Y-72333333D01*
X174309523Y-72380952D01*
X174404761Y-72476190D01*
X174452380Y-72619047D01*
X174452380Y-72714285D01*
X173452380Y-71952380D02*
X173452380Y-71333333D01*
X173833333Y-71666666D01*
X173833333Y-71523809D01*
X173880952Y-71428571D01*
X173928571Y-71380952D01*
X174023809Y-71333333D01*
X174261904Y-71333333D01*
X174357142Y-71380952D01*
X174404761Y-71428571D01*
X174452380Y-71523809D01*
X174452380Y-71809523D01*
X174404761Y-71904761D01*
X174357142Y-71952380D01*
%TO.C,J1*%
X121119047Y-114357142D02*
X121071428Y-114404761D01*
X120928571Y-114452380D01*
X120833333Y-114452380D01*
X120690476Y-114404761D01*
X120595238Y-114309523D01*
X120547619Y-114214285D01*
X120500000Y-114023809D01*
X120500000Y-113880952D01*
X120547619Y-113690476D01*
X120595238Y-113595238D01*
X120690476Y-113500000D01*
X120833333Y-113452380D01*
X120928571Y-113452380D01*
X121071428Y-113500000D01*
X121119047Y-113547619D01*
X121547619Y-114452380D02*
X121547619Y-113452380D01*
X121976190Y-114452380D02*
X121976190Y-113928571D01*
X121928571Y-113833333D01*
X121833333Y-113785714D01*
X121690476Y-113785714D01*
X121595238Y-113833333D01*
X121547619Y-113880952D01*
X122880952Y-114452380D02*
X122880952Y-113928571D01*
X122833333Y-113833333D01*
X122738095Y-113785714D01*
X122547619Y-113785714D01*
X122452380Y-113833333D01*
X122880952Y-114404761D02*
X122785714Y-114452380D01*
X122547619Y-114452380D01*
X122452380Y-114404761D01*
X122404761Y-114309523D01*
X122404761Y-114214285D01*
X122452380Y-114119047D01*
X122547619Y-114071428D01*
X122785714Y-114071428D01*
X122880952Y-114023809D01*
X123357142Y-114452380D02*
X123357142Y-113785714D01*
X123357142Y-113976190D02*
X123404761Y-113880952D01*
X123452380Y-113833333D01*
X123547619Y-113785714D01*
X123642857Y-113785714D01*
X124404761Y-113785714D02*
X124404761Y-114595238D01*
X124357142Y-114690476D01*
X124309523Y-114738095D01*
X124214285Y-114785714D01*
X124071428Y-114785714D01*
X123976190Y-114738095D01*
X124404761Y-114404761D02*
X124309523Y-114452380D01*
X124119047Y-114452380D01*
X124023809Y-114404761D01*
X123976190Y-114357142D01*
X123928571Y-114261904D01*
X123928571Y-113976190D01*
X123976190Y-113880952D01*
X124023809Y-113833333D01*
X124119047Y-113785714D01*
X124309523Y-113785714D01*
X124404761Y-113833333D01*
X125261904Y-114404761D02*
X125166666Y-114452380D01*
X124976190Y-114452380D01*
X124880952Y-114404761D01*
X124833333Y-114309523D01*
X124833333Y-113928571D01*
X124880952Y-113833333D01*
X124976190Y-113785714D01*
X125166666Y-113785714D01*
X125261904Y-113833333D01*
X125309523Y-113928571D01*
X125309523Y-114023809D01*
X124833333Y-114119047D01*
X127071428Y-114357142D02*
X127023809Y-114404761D01*
X126880952Y-114452380D01*
X126785714Y-114452380D01*
X126642857Y-114404761D01*
X126547619Y-114309523D01*
X126500000Y-114214285D01*
X126452380Y-114023809D01*
X126452380Y-113880952D01*
X126500000Y-113690476D01*
X126547619Y-113595238D01*
X126642857Y-113500000D01*
X126785714Y-113452380D01*
X126880952Y-113452380D01*
X127023809Y-113500000D01*
X127071428Y-113547619D01*
X127642857Y-114452380D02*
X127547619Y-114404761D01*
X127500000Y-114357142D01*
X127452380Y-114261904D01*
X127452380Y-113976190D01*
X127500000Y-113880952D01*
X127547619Y-113833333D01*
X127642857Y-113785714D01*
X127785714Y-113785714D01*
X127880952Y-113833333D01*
X127928571Y-113880952D01*
X127976190Y-113976190D01*
X127976190Y-114261904D01*
X127928571Y-114357142D01*
X127880952Y-114404761D01*
X127785714Y-114452380D01*
X127642857Y-114452380D01*
X128404761Y-113785714D02*
X128404761Y-114452380D01*
X128404761Y-113880952D02*
X128452380Y-113833333D01*
X128547619Y-113785714D01*
X128690476Y-113785714D01*
X128785714Y-113833333D01*
X128833333Y-113928571D01*
X128833333Y-114452380D01*
X129166666Y-113785714D02*
X129547619Y-113785714D01*
X129309523Y-113452380D02*
X129309523Y-114309523D01*
X129357142Y-114404761D01*
X129452380Y-114452380D01*
X129547619Y-114452380D01*
X129880952Y-114452380D02*
X129880952Y-113785714D01*
X129880952Y-113976190D02*
X129928571Y-113880952D01*
X129976190Y-113833333D01*
X130071428Y-113785714D01*
X130166666Y-113785714D01*
X130642857Y-114452380D02*
X130547619Y-114404761D01*
X130500000Y-114357142D01*
X130452380Y-114261904D01*
X130452380Y-113976190D01*
X130500000Y-113880952D01*
X130547619Y-113833333D01*
X130642857Y-113785714D01*
X130785714Y-113785714D01*
X130880952Y-113833333D01*
X130928571Y-113880952D01*
X130976190Y-113976190D01*
X130976190Y-114261904D01*
X130928571Y-114357142D01*
X130880952Y-114404761D01*
X130785714Y-114452380D01*
X130642857Y-114452380D01*
X131547619Y-114452380D02*
X131452380Y-114404761D01*
X131404761Y-114309523D01*
X131404761Y-113452380D01*
X132071428Y-114452380D02*
X131976190Y-114404761D01*
X131928571Y-114309523D01*
X131928571Y-113452380D01*
X132833333Y-114404761D02*
X132738095Y-114452380D01*
X132547619Y-114452380D01*
X132452380Y-114404761D01*
X132404761Y-114309523D01*
X132404761Y-113928571D01*
X132452380Y-113833333D01*
X132547619Y-113785714D01*
X132738095Y-113785714D01*
X132833333Y-113833333D01*
X132880952Y-113928571D01*
X132880952Y-114023809D01*
X132404761Y-114119047D01*
X133309523Y-114452380D02*
X133309523Y-113785714D01*
X133309523Y-113976190D02*
X133357142Y-113880952D01*
X133404761Y-113833333D01*
X133500000Y-113785714D01*
X133595238Y-113785714D01*
X126666666Y-115952380D02*
X126666666Y-116666666D01*
X126619047Y-116809523D01*
X126523809Y-116904761D01*
X126380952Y-116952380D01*
X126285714Y-116952380D01*
X127666666Y-116952380D02*
X127095238Y-116952380D01*
X127380952Y-116952380D02*
X127380952Y-115952380D01*
X127285714Y-116095238D01*
X127190476Y-116190476D01*
X127095238Y-116238095D01*
%TO.C,J2*%
X133318571Y-115761904D02*
X133366190Y-115619047D01*
X133413809Y-115571428D01*
X133509047Y-115523809D01*
X133651904Y-115523809D01*
X133747142Y-115571428D01*
X133794761Y-115619047D01*
X133842380Y-115714285D01*
X133842380Y-116095238D01*
X132842380Y-116095238D01*
X132842380Y-115761904D01*
X132890000Y-115666666D01*
X132937619Y-115619047D01*
X133032857Y-115571428D01*
X133128095Y-115571428D01*
X133223333Y-115619047D01*
X133270952Y-115666666D01*
X133318571Y-115761904D01*
X133318571Y-116095238D01*
X133175714Y-114666666D02*
X133842380Y-114666666D01*
X133175714Y-115095238D02*
X133699523Y-115095238D01*
X133794761Y-115047619D01*
X133842380Y-114952380D01*
X133842380Y-114809523D01*
X133794761Y-114714285D01*
X133747142Y-114666666D01*
X133794761Y-113761904D02*
X133842380Y-113857142D01*
X133842380Y-114047619D01*
X133794761Y-114142857D01*
X133747142Y-114190476D01*
X133651904Y-114238095D01*
X133366190Y-114238095D01*
X133270952Y-114190476D01*
X133223333Y-114142857D01*
X133175714Y-114047619D01*
X133175714Y-113857142D01*
X133223333Y-113761904D01*
X133842380Y-113333333D02*
X132842380Y-113333333D01*
X133461428Y-113238095D02*
X133842380Y-112952380D01*
X133175714Y-112952380D02*
X133556666Y-113333333D01*
X133747142Y-111952380D02*
X133794761Y-112000000D01*
X133842380Y-112142857D01*
X133842380Y-112238095D01*
X133794761Y-112380952D01*
X133699523Y-112476190D01*
X133604285Y-112523809D01*
X133413809Y-112571428D01*
X133270952Y-112571428D01*
X133080476Y-112523809D01*
X132985238Y-112476190D01*
X132890000Y-112380952D01*
X132842380Y-112238095D01*
X132842380Y-112142857D01*
X132890000Y-112000000D01*
X132937619Y-111952380D01*
X133842380Y-111380952D02*
X133794761Y-111476190D01*
X133747142Y-111523809D01*
X133651904Y-111571428D01*
X133366190Y-111571428D01*
X133270952Y-111523809D01*
X133223333Y-111476190D01*
X133175714Y-111380952D01*
X133175714Y-111238095D01*
X133223333Y-111142857D01*
X133270952Y-111095238D01*
X133366190Y-111047619D01*
X133651904Y-111047619D01*
X133747142Y-111095238D01*
X133794761Y-111142857D01*
X133842380Y-111238095D01*
X133842380Y-111380952D01*
X133175714Y-110619047D02*
X133842380Y-110619047D01*
X133270952Y-110619047D02*
X133223333Y-110571428D01*
X133175714Y-110476190D01*
X133175714Y-110333333D01*
X133223333Y-110238095D01*
X133318571Y-110190476D01*
X133842380Y-110190476D01*
X133175714Y-109809523D02*
X133842380Y-109571428D01*
X133175714Y-109333333D01*
X133794761Y-108571428D02*
X133842380Y-108666666D01*
X133842380Y-108857142D01*
X133794761Y-108952380D01*
X133699523Y-109000000D01*
X133318571Y-109000000D01*
X133223333Y-108952380D01*
X133175714Y-108857142D01*
X133175714Y-108666666D01*
X133223333Y-108571428D01*
X133318571Y-108523809D01*
X133413809Y-108523809D01*
X133509047Y-109000000D01*
X133842380Y-108095238D02*
X133175714Y-108095238D01*
X133366190Y-108095238D02*
X133270952Y-108047619D01*
X133223333Y-108000000D01*
X133175714Y-107904761D01*
X133175714Y-107809523D01*
X133175714Y-107619047D02*
X133175714Y-107238095D01*
X132842380Y-107476190D02*
X133699523Y-107476190D01*
X133794761Y-107428571D01*
X133842380Y-107333333D01*
X133842380Y-107238095D01*
X133794761Y-106523809D02*
X133842380Y-106619047D01*
X133842380Y-106809523D01*
X133794761Y-106904761D01*
X133699523Y-106952380D01*
X133318571Y-106952380D01*
X133223333Y-106904761D01*
X133175714Y-106809523D01*
X133175714Y-106619047D01*
X133223333Y-106523809D01*
X133318571Y-106476190D01*
X133413809Y-106476190D01*
X133509047Y-106952380D01*
X133842380Y-106047619D02*
X133175714Y-106047619D01*
X133366190Y-106047619D02*
X133270952Y-106000000D01*
X133223333Y-105952380D01*
X133175714Y-105857142D01*
X133175714Y-105761904D01*
X126476666Y-110452380D02*
X126476666Y-111166666D01*
X126429047Y-111309523D01*
X126333809Y-111404761D01*
X126190952Y-111452380D01*
X126095714Y-111452380D01*
X126905238Y-110547619D02*
X126952857Y-110500000D01*
X127048095Y-110452380D01*
X127286190Y-110452380D01*
X127381428Y-110500000D01*
X127429047Y-110547619D01*
X127476666Y-110642857D01*
X127476666Y-110738095D01*
X127429047Y-110880952D01*
X126857619Y-111452380D01*
X127476666Y-111452380D01*
%TD*%
M02*
