<?xml version="1.0" standalone="no"?>
 <!DOCTYPE svg PUBLIC "-//W3C//DTD SVG 1.1//EN" 
 "http://www.w3.org/Graphics/SVG/1.1/DTD/svg11.dtd"> 
<svg
  xmlns:svg="http://www.w3.org/2000/svg"
  xmlns="http://www.w3.org/2000/svg"
  xmlns:xlink="http://www.w3.org/1999/xlink"
  version="1.1"
  width="9.682480cm" height="7.523480cm" viewBox="0 0 38120 29620">
<title>SVG Picture created as main-F_CrtYd.svg date 2020/12/08 21:52:19 </title>
  <desc>Picture generated by PCBNEW </desc>
<g style="fill:#000000; fill-opacity:1;stroke:#000000; stroke-opacity:1;
stroke-linecap:round; stroke-linejoin:round;"
 transform="translate(0 0) scale(1 1)">
</g>
<g style="fill:#000000; fill-opacity:0.0; 
stroke:#000000; stroke-width:-0.000393701; stroke-opacity:1; 
stroke-linecap:round; stroke-linejoin:round;">
</g>
<g style="fill:#000000; fill-opacity:0.0; 
stroke:#000000; stroke-width:19.685; stroke-opacity:1; 
stroke-linecap:round; stroke-linejoin:round;">
<circle cx="30957.5" cy="23841.5" r="1358.27" /> 
<circle cx="30957.5" cy="3959.65" r="1358.27" /> 
<circle cx="4973.28" cy="23841.5" r="1358.27" /> 
<circle cx="4973.28" cy="3959.65" r="1358.27" /> 
<path d="M22197 4857
L23969 4857
" />
<path d="M12748 4857
L14520 4857
" />
<path d="M23969 416
L23969 4857
" />
<path d="M12748 416
L12748 4857
" />
<path d="M12748 416
L23969 416
" />
<path d="M22197 4857
L22197 12817
" />
<path d="M14520 12817
L22197 12817
" />
<path d="M14520 12817
L14520 4857
" />
<path d="M28634 17128
L24481 17128
" />
<path d="M28634 20337
L28634 17128
" />
<path d="M24481 20337
L28634 20337
" />
<path d="M24481 17128
L24481 20337
" />
<path d="M14205 15731
L14205 19884
" />
<path d="M22414 15731
L14205 15731
" />
<path d="M22414 19884
L22414 15731
" />
<path d="M14205 19884
L22414 19884
" />
<path d="M8162 20711
L8162 16735
" />
<path d="M10839 20711
L10839 16735
" />
<path d="M8162 20711
L10839 20711
" />
<path d="M10839 16735
L8162 16735
" />
<path d="M25229 6754
L29205 6754
" />
<path d="M25229 9432
L29205 9432
" />
<path d="M25229 6754
L25229 9432
" />
<path d="M29205 9432
L29205 6754
" />
<path d="M7256 23369
L11744 23369
" />
<path d="M7256 27069
L7256 23369
" />
<path d="M11744 27069
L7256 27069
" />
<path d="M11744 23369
L11744 27069
" />
<path d="M10398 16014
L8603 16014
" />
<path d="M10398 15132
L10398 16014
" />
<path d="M8603 15132
L10398 15132
" />
<path d="M8603 16014
L8603 15132
" />
<path d="M26674 20990
L26674 22785
" />
<path d="M25792 20990
L26674 20990
" />
<path d="M25792 22785
L25792 20990
" />
<path d="M26674 22785
L25792 22785
" />
<path d="M28917 21920
L27121 21920
" />
<path d="M28917 21038
L28917 21920
" />
<path d="M27121 21038
L28917 21038
" />
<path d="M27121 21920
L27121 21038
" />
<path d="M24689 2640
L24689 5062
" />
<path d="M29099 2640
L24689 2640
" />
<path d="M29099 5062
L29099 2640
" />
<path d="M24689 5062
L29099 5062
" />
<path d="M26941 22089
L26941 24806
" />
<path d="M29107 22089
L26941 22089
" />
<path d="M29107 24806
L29107 22089
" />
<path d="M26941 24806
L29107 24806
" />
<path d="M7650 9353
L7650 10770
" />
<path d="M9067 9353
L7650 9353
" />
<path d="M9067 10770
L9067 9353
" />
<path d="M7650 10770
L9067 10770
" />
<path d="M7650 6341
L7650 9058
" />
<path d="M9815 6341
L7650 6341
" />
<path d="M9815 9058
L9815 6341
" />
<path d="M7650 9058
L9815 9058
" />
<path d="M11823 4668
L7414 4668
" />
<path d="M11823 3270
L11823 4668
" />
<path d="M7414 3270
L11823 3270
" />
<path d="M7414 4668
L7414 3270
" />
<path d="M26941 11065
L26941 15357
" />
<path d="M29107 11065
L26941 11065
" />
<path d="M29107 15357
L29107 11065
" />
<path d="M26941 15357
L29107 15357
" />
</g>
<g style="fill:#000000; fill-opacity:0.0; 
stroke:#000000; stroke-width:39.3701; stroke-opacity:1; 
stroke-linecap:round; stroke-linejoin:round;">
<path d="M14697 25691
L14697 21873
" />
<path d="M21429 25691
L14697 25691
" />
<path d="M21429 21873
L21429 25691
" />
<path d="M14697 21873
L21429 21873
" />
</g>
<g style="fill:#000000; fill-opacity:0.0; 
stroke:#000000; stroke-width:19.685; stroke-opacity:1; 
stroke-linecap:round; stroke-linejoin:round;">
<path d="M12709 5741
L12709 7552
" />
<path d="M11803 5741
L12709 5741
" />
<path d="M11803 7552
L11803 5741
" />
<path d="M12709 7552
L11803 7552
" />
<path d="M12709 8359
L12709 10170
" />
<path d="M11803 8359
L12709 8359
" />
<path d="M11803 10170
L11803 8359
" />
<path d="M12709 10170
L11803 10170
" />
<path d="M10406 14254
L8595 14254
" />
<path d="M10406 13349
L10406 14254
" />
<path d="M8595 13349
L10406 13349
" />
<path d="M8595 14254
L8595 13349
" />
<path d="M24126 7178
L24126 8989
" />
<path d="M23221 7178
L24126 7178
" />
<path d="M23221 8989
L23221 7178
" />
<path d="M24126 8989
L23221 8989
" />
<g >
</g>
<g >
</g>
<g >
</g>
<g >
</g>
<g >
</g>
<g >
</g>
<g >
</g>
<g >
</g>
<g >
</g>
<g >
</g>
<g >
</g>
<g >
</g>
<g >
</g>
<g >
</g>
<g >
</g>
<g >
</g>
<g >
</g>
<g >
</g>
<g >
</g>
<g >
</g>
<g >
</g>
<g >
</g>
<g >
</g>
<g >
</g>
<g >
</g>
</g>
<g style="fill:#000000; fill-opacity:0.0; 
stroke:#000000; stroke-width:19.685; stroke-opacity:1; 
stroke-linecap:round; stroke-linejoin:round;">
</g>
<g style="fill:#000000; fill-opacity:0.0; 
stroke:#000000; stroke-width:39.3701; stroke-opacity:1; 
stroke-linecap:round; stroke-linejoin:round;">
<path d="M32926 1991
L32926 25810
" />
<path d="M3004 1991
L32926 1991
" />
<path d="M3004 25810
L3004 1991
" />
<path d="M32926 25810
L3004 25810
" />
<g >
</g>
<g >
</g>
<g >
</g>
<g >
</g>
<g >
</g>
<g >
</g>
<g >
</g>
<g >
</g>
<g >
</g>
<g >
</g>
<g >
</g>
<g >
</g>
<g >
</g>
<g >
</g>
<g >
</g>
<g >
</g>
<g >
</g>
<g >
</g>
<g >
</g>
<g >
</g>
<g >
</g>
<g >
</g>
<g >
</g>
<g >
</g>
<g >
</g>
</g> 
</svg>
