<?xml version="1.0" standalone="no"?>
 <!DOCTYPE svg PUBLIC "-//W3C//DTD SVG 1.1//EN" 
 "http://www.w3.org/Graphics/SVG/1.1/DTD/svg11.dtd"> 
<svg
  xmlns:svg="http://www.w3.org/2000/svg"
  xmlns="http://www.w3.org/2000/svg"
  xmlns:xlink="http://www.w3.org/1999/xlink"
  version="1.1"
  width="9.682480cm" height="7.523480cm" viewBox="0 0 38120 29620">
<title>SVG Picture created as main-F_Paste.svg date 2020/12/08 21:52:19 </title>
  <desc>Picture generated by PCBNEW </desc>
<g style="fill:#000000; fill-opacity:1;stroke:#000000; stroke-opacity:1;
stroke-linecap:round; stroke-linejoin:round;"
 transform="translate(0 0) scale(1 1)">
</g>
<g style="fill:#000000; fill-opacity:0.0; 
stroke:#000000; stroke-width:-0.000393701; stroke-opacity:1; 
stroke-linecap:round; stroke-linejoin:round;">
<g >
</g>
<g >
</g>
<g >
</g>
<g >
</g>
<g >
</g>
<g style="fill:#000000; fill-opacity:0.0; 
stroke:#000000; stroke-width:-0.000393701; stroke-opacity:1; 
stroke-linecap:round; stroke-linejoin:round;">
</g>
<g style="fill:#000000; fill-opacity:0.0; 
stroke:#000000; stroke-width:0; stroke-opacity:1; 
stroke-linecap:round; stroke-linejoin:round;">
</g>
<g style="fill:#000000; fill-opacity:1.0; 
stroke:#000000; stroke-width:0; stroke-opacity:1; 
stroke-linecap:round; stroke-linejoin:round;">
<path style="fill:#000000; fill-opacity:1.0; 
stroke:#000000; stroke-width:0; stroke-opacity:1; 
stroke-linecap:round; stroke-linejoin:round;fill-rule:evenodd;"
d="M 21311.9,5611.22
21311.9,5256.89
22099.3,5256.89
22099.3,5611.22
Z" /> 
<path style="fill:#000000; fill-opacity:1.0; 
stroke:#000000; stroke-width:0; stroke-opacity:1; 
stroke-linecap:round; stroke-linejoin:round;fill-rule:evenodd;"
d="M 21311.9,6111.22
21311.9,5756.89
22099.3,5756.89
22099.3,6111.22
Z" /> 
<path style="fill:#000000; fill-opacity:1.0; 
stroke:#000000; stroke-width:0; stroke-opacity:1; 
stroke-linecap:round; stroke-linejoin:round;fill-rule:evenodd;"
d="M 21311.9,6611.22
21311.9,6256.89
22099.3,6256.89
22099.3,6611.22
Z" /> 
<path style="fill:#000000; fill-opacity:1.0; 
stroke:#000000; stroke-width:0; stroke-opacity:1; 
stroke-linecap:round; stroke-linejoin:round;fill-rule:evenodd;"
d="M 21311.9,7111.22
21311.9,6756.89
22099.3,6756.89
22099.3,7111.22
Z" /> 
<path style="fill:#000000; fill-opacity:1.0; 
stroke:#000000; stroke-width:0; stroke-opacity:1; 
stroke-linecap:round; stroke-linejoin:round;fill-rule:evenodd;"
d="M 21311.9,7611.22
21311.9,7256.89
22099.3,7256.89
22099.3,7611.22
Z" /> 
<path style="fill:#000000; fill-opacity:1.0; 
stroke:#000000; stroke-width:0; stroke-opacity:1; 
stroke-linecap:round; stroke-linejoin:round;fill-rule:evenodd;"
d="M 21311.9,8111.22
21311.9,7756.89
22099.3,7756.89
22099.3,8111.22
Z" /> 
<path style="fill:#000000; fill-opacity:1.0; 
stroke:#000000; stroke-width:0; stroke-opacity:1; 
stroke-linecap:round; stroke-linejoin:round;fill-rule:evenodd;"
d="M 21311.9,8611.22
21311.9,8256.89
22099.3,8256.89
22099.3,8611.22
Z" /> 
<path style="fill:#000000; fill-opacity:1.0; 
stroke:#000000; stroke-width:0; stroke-opacity:1; 
stroke-linecap:round; stroke-linejoin:round;fill-rule:evenodd;"
d="M 21311.9,9111.22
21311.9,8756.89
22099.3,8756.89
22099.3,9111.22
Z" /> 
<path style="fill:#000000; fill-opacity:1.0; 
stroke:#000000; stroke-width:0; stroke-opacity:1; 
stroke-linecap:round; stroke-linejoin:round;fill-rule:evenodd;"
d="M 21311.9,9611.22
21311.9,9256.89
22099.3,9256.89
22099.3,9611.22
Z" /> 
<path style="fill:#000000; fill-opacity:1.0; 
stroke:#000000; stroke-width:0; stroke-opacity:1; 
stroke-linecap:round; stroke-linejoin:round;fill-rule:evenodd;"
d="M 21311.9,10111.2
21311.9,9756.89
22099.3,9756.89
22099.3,10111.2
Z" /> 
<path style="fill:#000000; fill-opacity:1.0; 
stroke:#000000; stroke-width:0; stroke-opacity:1; 
stroke-linecap:round; stroke-linejoin:round;fill-rule:evenodd;"
d="M 21311.9,10611.2
21311.9,10256.9
22099.3,10256.9
22099.3,10611.2
Z" /> 
<path style="fill:#000000; fill-opacity:1.0; 
stroke:#000000; stroke-width:0; stroke-opacity:1; 
stroke-linecap:round; stroke-linejoin:round;fill-rule:evenodd;"
d="M 21311.9,11111.2
21311.9,10756.9
22099.3,10756.9
22099.3,11111.2
Z" /> 
<path style="fill:#000000; fill-opacity:1.0; 
stroke:#000000; stroke-width:0; stroke-opacity:1; 
stroke-linecap:round; stroke-linejoin:round;fill-rule:evenodd;"
d="M 21311.9,11611.2
21311.9,11256.9
22099.3,11256.9
22099.3,11611.2
Z" /> 
<path style="fill:#000000; fill-opacity:1.0; 
stroke:#000000; stroke-width:0; stroke-opacity:1; 
stroke-linecap:round; stroke-linejoin:round;fill-rule:evenodd;"
d="M 21311.9,12111.2
21311.9,11756.9
22099.3,11756.9
22099.3,12111.2
Z" /> 
<path style="fill:#000000; fill-opacity:1.0; 
stroke:#000000; stroke-width:0; stroke-opacity:1; 
stroke-linecap:round; stroke-linejoin:round;fill-rule:evenodd;"
d="M 20786.3,12721.5
20431.9,12721.5
20431.9,11934.1
20786.3,11934.1
Z" /> 
<path style="fill:#000000; fill-opacity:1.0; 
stroke:#000000; stroke-width:0; stroke-opacity:1; 
stroke-linecap:round; stroke-linejoin:round;fill-rule:evenodd;"
d="M 20286.3,12721.5
19931.9,12721.5
19931.9,11934.1
20286.3,11934.1
Z" /> 
<path style="fill:#000000; fill-opacity:1.0; 
stroke:#000000; stroke-width:0; stroke-opacity:1; 
stroke-linecap:round; stroke-linejoin:round;fill-rule:evenodd;"
d="M 19786.3,12721.5
19431.9,12721.5
19431.9,11934.1
19786.3,11934.1
Z" /> 
<path style="fill:#000000; fill-opacity:1.0; 
stroke:#000000; stroke-width:0; stroke-opacity:1; 
stroke-linecap:round; stroke-linejoin:round;fill-rule:evenodd;"
d="M 19286.3,12721.5
18931.9,12721.5
18931.9,11934.1
19286.3,11934.1
Z" /> 
<path style="fill:#000000; fill-opacity:1.0; 
stroke:#000000; stroke-width:0; stroke-opacity:1; 
stroke-linecap:round; stroke-linejoin:round;fill-rule:evenodd;"
d="M 18786.3,12721.5
18431.9,12721.5
18431.9,11934.1
18786.3,11934.1
Z" /> 
<path style="fill:#000000; fill-opacity:1.0; 
stroke:#000000; stroke-width:0; stroke-opacity:1; 
stroke-linecap:round; stroke-linejoin:round;fill-rule:evenodd;"
d="M 18286.3,12721.5
17931.9,12721.5
17931.9,11934.1
18286.3,11934.1
Z" /> 
<path style="fill:#000000; fill-opacity:1.0; 
stroke:#000000; stroke-width:0; stroke-opacity:1; 
stroke-linecap:round; stroke-linejoin:round;fill-rule:evenodd;"
d="M 17786.3,12721.5
17431.9,12721.5
17431.9,11934.1
17786.3,11934.1
Z" /> 
<path style="fill:#000000; fill-opacity:1.0; 
stroke:#000000; stroke-width:0; stroke-opacity:1; 
stroke-linecap:round; stroke-linejoin:round;fill-rule:evenodd;"
d="M 17286.3,12721.5
16931.9,12721.5
16931.9,11934.1
17286.3,11934.1
Z" /> 
<path style="fill:#000000; fill-opacity:1.0; 
stroke:#000000; stroke-width:0; stroke-opacity:1; 
stroke-linecap:round; stroke-linejoin:round;fill-rule:evenodd;"
d="M 16786.3,12721.5
16431.9,12721.5
16431.9,11934.1
16786.3,11934.1
Z" /> 
<path style="fill:#000000; fill-opacity:1.0; 
stroke:#000000; stroke-width:0; stroke-opacity:1; 
stroke-linecap:round; stroke-linejoin:round;fill-rule:evenodd;"
d="M 16286.3,12721.5
15931.9,12721.5
15931.9,11934.1
16286.3,11934.1
Z" /> 
<path style="fill:#000000; fill-opacity:1.0; 
stroke:#000000; stroke-width:0; stroke-opacity:1; 
stroke-linecap:round; stroke-linejoin:round;fill-rule:evenodd;"
d="M 14619,12111.2
14619,11756.9
15406.4,11756.9
15406.4,12111.2
Z" /> 
<path style="fill:#000000; fill-opacity:1.0; 
stroke:#000000; stroke-width:0; stroke-opacity:1; 
stroke-linecap:round; stroke-linejoin:round;fill-rule:evenodd;"
d="M 14619,11611.2
14619,11256.9
15406.4,11256.9
15406.4,11611.2
Z" /> 
<path style="fill:#000000; fill-opacity:1.0; 
stroke:#000000; stroke-width:0; stroke-opacity:1; 
stroke-linecap:round; stroke-linejoin:round;fill-rule:evenodd;"
d="M 14619,11111.2
14619,10756.9
15406.4,10756.9
15406.4,11111.2
Z" /> 
<path style="fill:#000000; fill-opacity:1.0; 
stroke:#000000; stroke-width:0; stroke-opacity:1; 
stroke-linecap:round; stroke-linejoin:round;fill-rule:evenodd;"
d="M 14619,10611.2
14619,10256.9
15406.4,10256.9
15406.4,10611.2
Z" /> 
<path style="fill:#000000; fill-opacity:1.0; 
stroke:#000000; stroke-width:0; stroke-opacity:1; 
stroke-linecap:round; stroke-linejoin:round;fill-rule:evenodd;"
d="M 14619,10111.2
14619,9756.89
15406.4,9756.89
15406.4,10111.2
Z" /> 
<path style="fill:#000000; fill-opacity:1.0; 
stroke:#000000; stroke-width:0; stroke-opacity:1; 
stroke-linecap:round; stroke-linejoin:round;fill-rule:evenodd;"
d="M 14619,9611.22
14619,9256.89
15406.4,9256.89
15406.4,9611.22
Z" /> 
<path style="fill:#000000; fill-opacity:1.0; 
stroke:#000000; stroke-width:0; stroke-opacity:1; 
stroke-linecap:round; stroke-linejoin:round;fill-rule:evenodd;"
d="M 14619,9111.22
14619,8756.89
15406.4,8756.89
15406.4,9111.22
Z" /> 
<path style="fill:#000000; fill-opacity:1.0; 
stroke:#000000; stroke-width:0; stroke-opacity:1; 
stroke-linecap:round; stroke-linejoin:round;fill-rule:evenodd;"
d="M 14619,8611.22
14619,8256.89
15406.4,8256.89
15406.4,8611.22
Z" /> 
<path style="fill:#000000; fill-opacity:1.0; 
stroke:#000000; stroke-width:0; stroke-opacity:1; 
stroke-linecap:round; stroke-linejoin:round;fill-rule:evenodd;"
d="M 14619,8111.22
14619,7756.89
15406.4,7756.89
15406.4,8111.22
Z" /> 
<path style="fill:#000000; fill-opacity:1.0; 
stroke:#000000; stroke-width:0; stroke-opacity:1; 
stroke-linecap:round; stroke-linejoin:round;fill-rule:evenodd;"
d="M 14619,7611.22
14619,7256.89
15406.4,7256.89
15406.4,7611.22
Z" /> 
<path style="fill:#000000; fill-opacity:1.0; 
stroke:#000000; stroke-width:0; stroke-opacity:1; 
stroke-linecap:round; stroke-linejoin:round;fill-rule:evenodd;"
d="M 14619,7111.22
14619,6756.89
15406.4,6756.89
15406.4,7111.22
Z" /> 
<path style="fill:#000000; fill-opacity:1.0; 
stroke:#000000; stroke-width:0; stroke-opacity:1; 
stroke-linecap:round; stroke-linejoin:round;fill-rule:evenodd;"
d="M 14619,6611.22
14619,6256.89
15406.4,6256.89
15406.4,6611.22
Z" /> 
<path style="fill:#000000; fill-opacity:1.0; 
stroke:#000000; stroke-width:0; stroke-opacity:1; 
stroke-linecap:round; stroke-linejoin:round;fill-rule:evenodd;"
d="M 14619,6111.22
14619,5756.89
15406.4,5756.89
15406.4,6111.22
Z" /> 
<path style="fill:#000000; fill-opacity:1.0; 
stroke:#000000; stroke-width:0; stroke-opacity:1; 
stroke-linecap:round; stroke-linejoin:round;fill-rule:evenodd;"
d="M 14619,5611.22
14619,5256.89
15406.4,5256.89
15406.4,5611.22
Z" /> 
<path style="fill:#000000; fill-opacity:1.0; 
stroke:#000000; stroke-width:0; stroke-opacity:1; 
stroke-linecap:round; stroke-linejoin:round;fill-rule:evenodd;"
d="M 16981.2,9371.06
16981.2,7402.56
18949.7,7402.56
18949.7,9371.06
Z" /> 
</g>
<g >
</g>
<g >
</g>
<g >
</g>
<g style="fill:#000000; fill-opacity:1.0; 
stroke:#000000; stroke-width:0; stroke-opacity:1; 
stroke-linecap:round; stroke-linejoin:round;">
<path style="fill:#000000; fill-opacity:1.0; 
stroke:#000000; stroke-width:0; stroke-opacity:1; 
stroke-linecap:round; stroke-linejoin:round;fill-rule:evenodd;"
d="M 10642.6,17461.6
10130.8,17461.6
10130.8,16851.4
10642.6,16851.4
Z" /> 
<path style="fill:#000000; fill-opacity:1.0; 
stroke:#000000; stroke-width:0; stroke-opacity:1; 
stroke-linecap:round; stroke-linejoin:round;fill-rule:evenodd;"
d="M 8870.92,17461.6
8359.11,17461.6
8359.11,16851.4
8870.92,16851.4
Z" /> 
<path style="fill:#000000; fill-opacity:1.0; 
stroke:#000000; stroke-width:0; stroke-opacity:1; 
stroke-linecap:round; stroke-linejoin:round;fill-rule:evenodd;"
d="M 8870.92,20595.5
8359.11,20595.5
8359.11,19985.2
8870.92,19985.2
Z" /> 
<path style="fill:#000000; fill-opacity:1.0; 
stroke:#000000; stroke-width:0; stroke-opacity:1; 
stroke-linecap:round; stroke-linejoin:round;fill-rule:evenodd;"
d="M 10642.6,20595.5
10130.8,20595.5
10130.8,19985.2
10642.6,19985.2
Z" /> 
</g>
<g >
</g>
<g style="fill:#000000; fill-opacity:1.0; 
stroke:#000000; stroke-width:0; stroke-opacity:1; 
stroke-linecap:round; stroke-linejoin:round;">
<path style="fill:#000000; fill-opacity:1.0; 
stroke:#000000; stroke-width:0; stroke-opacity:1; 
stroke-linecap:round; stroke-linejoin:round;fill-rule:evenodd;"
d="M 28479.2,9235.24
28479.2,8723.43
29089.4,8723.43
29089.4,9235.24
Z" /> 
<path style="fill:#000000; fill-opacity:1.0; 
stroke:#000000; stroke-width:0; stroke-opacity:1; 
stroke-linecap:round; stroke-linejoin:round;fill-rule:evenodd;"
d="M 28479.2,7463.58
28479.2,6951.77
29089.4,6951.77
29089.4,7463.58
Z" /> 
<path style="fill:#000000; fill-opacity:1.0; 
stroke:#000000; stroke-width:0; stroke-opacity:1; 
stroke-linecap:round; stroke-linejoin:round;fill-rule:evenodd;"
d="M 25345.3,7463.58
25345.3,6951.77
25955.6,6951.77
25955.6,7463.58
Z" /> 
<path style="fill:#000000; fill-opacity:1.0; 
stroke:#000000; stroke-width:0; stroke-opacity:1; 
stroke-linecap:round; stroke-linejoin:round;fill-rule:evenodd;"
d="M 25345.3,9235.24
25345.3,8723.43
25955.6,8723.43
25955.6,9235.24
Z" /> 
</g>
<g >
</g>
<g >
</g>
<g style="fill:#000000; fill-opacity:1.0; 
stroke:#000000; stroke-width:0; stroke-opacity:1; 
stroke-linecap:round; stroke-linejoin:round;">
<path style="fill:#000000; fill-opacity:1.0; 
stroke:#000000; stroke-width:0; stroke-opacity:1; 
stroke-linecap:round; stroke-linejoin:round;fill-rule:evenodd;"
d="M 10209.3,15229.8
10218.9,15231.2
10228.2,15233.6
10237.3,15236.8
10246.1,15241
10254.3,15245.9
10262.1,15251.7
10269.3,15258.2
10275.7,15265.3
10281.5,15273.1
10286.5,15281.4
10290.6,15290.1
10293.8,15299.2
10296.2,15308.6
10297.6,15318.1
10298.1,15327.8
10298.1,15819.9
10297.6,15829.5
10296.2,15839.1
10293.8,15848.5
10290.6,15857.5
10286.5,15866.3
10281.5,15874.6
10275.7,15882.3
10269.3,15889.5
10262.1,15896
10254.3,15901.7
10246.1,15906.7
10237.3,15910.8
10228.2,15914.1
10218.9,15916.4
10209.3,15917.8
10199.7,15918.3
9953.6,15918.3
9943.95,15917.8
9934.4,15916.4
9925.03,15914.1
9915.93,15910.8
9907.2,15906.7
9898.92,15901.7
9891.16,15896
9884,15889.5
9877.52,15882.3
9871.76,15874.6
9866.8,15866.3
9862.67,15857.5
9859.41,15848.5
9857.07,15839.1
9855.65,15829.5
9855.17,15819.9
9855.17,15327.8
9855.65,15318.1
9857.07,15308.6
9859.41,15299.2
9862.67,15290.1
9866.8,15281.4
9871.76,15273.1
9877.52,15265.3
9884,15258.2
9891.16,15251.7
9898.92,15245.9
9907.2,15241
9915.93,15236.8
9925.03,15233.6
9934.4,15231.2
9943.95,15229.8
9953.6,15229.3
10199.7,15229.3
Z" /> 
<path style="fill:#000000; fill-opacity:1.0; 
stroke:#000000; stroke-width:0; stroke-opacity:1; 
stroke-linecap:round; stroke-linejoin:round;fill-rule:evenodd;"
d="M 9057.74,15229.8
9067.29,15231.2
9076.66,15233.6
9085.75,15236.8
9094.49,15241
9102.77,15245.9
9110.53,15251.7
9117.69,15258.2
9124.17,15265.3
9129.93,15273.1
9134.89,15281.4
9139.02,15290.1
9142.27,15299.2
9144.62,15308.6
9146.04,15318.1
9146.51,15327.8
9146.51,15819.9
9146.04,15829.5
9144.62,15839.1
9142.27,15848.5
9139.02,15857.5
9134.89,15866.3
9129.93,15874.6
9124.17,15882.3
9117.69,15889.5
9110.53,15896
9102.77,15901.7
9094.49,15906.7
9085.75,15910.8
9076.66,15914.1
9067.29,15916.4
9057.74,15917.8
9048.09,15918.3
8802.02,15918.3
8792.38,15917.8
8782.82,15916.4
8773.45,15914.1
8764.36,15910.8
8755.63,15906.7
8747.34,15901.7
8739.58,15896
8732.43,15889.5
8725.94,15882.3
8720.19,15874.6
8715.22,15866.3
8711.09,15857.5
8707.84,15848.5
8705.49,15839.1
8704.07,15829.5
8703.6,15819.9
8703.6,15327.8
8704.07,15318.1
8705.49,15308.6
8707.84,15299.2
8711.09,15290.1
8715.22,15281.4
8720.19,15273.1
8725.94,15265.3
8732.43,15258.2
8739.58,15251.7
8747.34,15245.9
8755.63,15241
8764.36,15236.8
8773.45,15233.6
8782.82,15231.2
8792.38,15229.8
8802.02,15229.3
9048.09,15229.3
Z" /> 
</g>
<g >
</g>
<g style="fill:#000000; fill-opacity:1.0; 
stroke:#000000; stroke-width:0; stroke-opacity:1; 
stroke-linecap:round; stroke-linejoin:round;">
<path style="fill:#000000; fill-opacity:1.0; 
stroke:#000000; stroke-width:0; stroke-opacity:1; 
stroke-linecap:round; stroke-linejoin:round;fill-rule:evenodd;"
d="M 26488.8,21091
26498.4,21092.4
26507.8,21094.8
26516.9,21098
26525.6,21102.2
26533.9,21107.1
26541.6,21112.9
26548.8,21119.4
26555.3,21126.5
26561,21134.3
26566,21142.6
26570.1,21151.3
26573.4,21160.4
26575.7,21169.8
26577.1,21179.3
26577.6,21189
26577.6,21435
26577.1,21444.7
26575.7,21454.2
26573.4,21463.6
26570.1,21472.7
26566,21481.4
26561,21489.7
26555.3,21497.5
26548.8,21504.6
26541.6,21511.1
26533.9,21516.9
26525.6,21521.8
26516.9,21526
26507.8,21529.2
26498.4,21531.6
26488.8,21533
26479.2,21533.5
25987.1,21533.5
25977.4,21533
25967.9,21531.6
25958.5,21529.2
25949.4,21526
25940.7,21521.8
25932.4,21516.9
25924.6,21511.1
25917.5,21504.6
25911,21497.5
25905.2,21489.7
25900.3,21481.4
25896.1,21472.7
25892.9,21463.6
25890.5,21454.2
25889.1,21444.7
25888.6,21435
25888.6,21189
25889.1,21179.3
25890.5,21169.8
25892.9,21160.4
25896.1,21151.3
25900.3,21142.6
25905.2,21134.3
25911,21126.5
25917.5,21119.4
25924.6,21112.9
25932.4,21107.1
25940.7,21102.2
25949.4,21098
25958.5,21094.8
25967.9,21092.4
25977.4,21091
25987.1,21090.6
26479.2,21090.6
Z" /> 
<path style="fill:#000000; fill-opacity:1.0; 
stroke:#000000; stroke-width:0; stroke-opacity:1; 
stroke-linecap:round; stroke-linejoin:round;fill-rule:evenodd;"
d="M 26488.8,22242.6
26498.4,22244
26507.8,22246.4
26516.9,22249.6
26525.6,22253.7
26533.9,22258.7
26541.6,22264.5
26548.8,22271
26555.3,22278.1
26561,22285.9
26566,22294.2
26570.1,22302.9
26573.4,22312
26575.7,22321.3
26577.1,22330.9
26577.6,22340.6
26577.6,22586.6
26577.1,22596.3
26575.7,22605.8
26573.4,22615.2
26570.1,22624.3
26566,22633
26561,22641.3
26555.3,22649.1
26548.8,22656.2
26541.6,22662.7
26533.9,22668.5
26525.6,22673.4
26516.9,22677.5
26507.8,22680.8
26498.4,22683.1
26488.8,22684.6
26479.2,22685
25987.1,22685
25977.4,22684.6
25967.9,22683.1
25958.5,22680.8
25949.4,22677.5
25940.7,22673.4
25932.4,22668.5
25924.6,22662.7
25917.5,22656.2
25911,22649.1
25905.2,22641.3
25900.3,22633
25896.1,22624.3
25892.9,22615.2
25890.5,22605.8
25889.1,22596.3
25888.6,22586.6
25888.6,22340.6
25889.1,22330.9
25890.5,22321.3
25892.9,22312
25896.1,22302.9
25900.3,22294.2
25905.2,22285.9
25911,22278.1
25917.5,22271
25924.6,22264.5
25932.4,22258.7
25940.7,22253.7
25949.4,22249.6
25958.5,22246.4
25967.9,22244
25977.4,22242.6
25987.1,22242.1
26479.2,22242.1
Z" /> 
</g>
<g >
</g>
<g style="fill:#000000; fill-opacity:1.0; 
stroke:#000000; stroke-width:0; stroke-opacity:1; 
stroke-linecap:round; stroke-linejoin:round;">
<path style="fill:#000000; fill-opacity:1.0; 
stroke:#000000; stroke-width:0; stroke-opacity:1; 
stroke-linecap:round; stroke-linejoin:round;fill-rule:evenodd;"
d="M 28728,21135.3
28737.6,21136.7
28746.9,21139.1
28756,21142.3
28764.8,21146.5
28773,21151.4
28780.8,21157.2
28788,21163.7
28794.4,21170.8
28800.2,21178.6
28805.2,21186.9
28809.3,21195.6
28812.6,21204.7
28814.9,21214.1
28816.3,21223.6
28816.8,21233.3
28816.8,21725.4
28816.3,21735
28814.9,21744.6
28812.6,21754
28809.3,21763.1
28805.2,21771.8
28800.2,21780.1
28794.4,21787.8
28788,21795
28780.8,21801.5
28773,21807.2
28764.8,21812.2
28756,21816.3
28746.9,21819.6
28737.6,21821.9
28728,21823.3
28718.4,21823.8
28472.3,21823.8
28462.7,21823.3
28453.1,21821.9
28443.7,21819.6
28434.6,21816.3
28425.9,21812.2
28417.6,21807.2
28409.9,21801.5
28402.7,21795
28396.2,21787.8
28390.5,21780.1
28385.5,21771.8
28381.4,21763.1
28378.1,21754
28375.8,21744.6
28374.3,21735
28373.9,21725.4
28373.9,21233.3
28374.3,21223.6
28375.8,21214.1
28378.1,21204.7
28381.4,21195.6
28385.5,21186.9
28390.5,21178.6
28396.2,21170.8
28402.7,21163.7
28409.9,21157.2
28417.6,21151.4
28425.9,21146.5
28434.6,21142.3
28443.7,21139.1
28453.1,21136.7
28462.7,21135.3
28472.3,21134.8
28718.4,21134.8
Z" /> 
<path style="fill:#000000; fill-opacity:1.0; 
stroke:#000000; stroke-width:0; stroke-opacity:1; 
stroke-linecap:round; stroke-linejoin:round;fill-rule:evenodd;"
d="M 27576.4,21135.3
27586,21136.7
27595.4,21139.1
27604.5,21142.3
27613.2,21146.5
27621.5,21151.4
27629.2,21157.2
27636.4,21163.7
27642.9,21170.8
27648.6,21178.6
27653.6,21186.9
27657.7,21195.6
27661,21204.7
27663.3,21214.1
27664.7,21223.6
27665.2,21233.3
27665.2,21725.4
27664.7,21735
27663.3,21744.6
27661,21754
27657.7,21763.1
27653.6,21771.8
27648.6,21780.1
27642.9,21787.8
27636.4,21795
27629.2,21801.5
27621.5,21807.2
27613.2,21812.2
27604.5,21816.3
27595.4,21819.6
27586,21821.9
27576.4,21823.3
27566.8,21823.8
27320.7,21823.8
27311.1,21823.3
27301.5,21821.9
27292.2,21819.6
27283.1,21816.3
27274.3,21812.2
27266,21807.2
27258.3,21801.5
27251.1,21795
27244.6,21787.8
27238.9,21780.1
27233.9,21771.8
27229.8,21763.1
27226.5,21754
27224.2,21744.6
27222.8,21735
27222.3,21725.4
27222.3,21233.3
27222.8,21223.6
27224.2,21214.1
27226.5,21204.7
27229.8,21195.6
27233.9,21186.9
27238.9,21178.6
27244.6,21170.8
27251.1,21163.7
27258.3,21157.2
27266,21151.4
27274.3,21146.5
27283.1,21142.3
27292.2,21139.1
27301.5,21136.7
27311.1,21135.3
27320.7,21134.8
27566.8,21134.8
Z" /> 
</g>
<g >
</g>
<g >
</g>
<g >
</g>
<g >
</g>
<g >
</g>
<g >
</g>
<g >
</g>
<g >
</g>
<g style="fill:#000000; fill-opacity:1.0; 
stroke:#000000; stroke-width:0; stroke-opacity:1; 
stroke-linecap:round; stroke-linejoin:round;">
<path style="fill:#000000; fill-opacity:1.0; 
stroke:#000000; stroke-width:0; stroke-opacity:1; 
stroke-linecap:round; stroke-linejoin:round;fill-rule:evenodd;"
d="M 12522.3,5840.04
12531.9,5841.46
12541.2,5843.81
12550.3,5847.06
12559.1,5851.19
12567.3,5856.15
12575.1,5861.91
12582.3,5868.39
12588.7,5875.55
12594.5,5883.31
12599.5,5891.59
12603.6,5900.33
12606.8,5909.42
12609.2,5918.79
12610.6,5928.34
12611.1,5937.99
12611.1,6193.9
12610.6,6203.55
12609.2,6213.1
12606.8,6222.47
12603.6,6231.56
12599.5,6240.3
12594.5,6248.58
12588.7,6256.34
12582.3,6263.49
12575.1,6269.98
12567.3,6275.74
12559.1,6280.7
12550.3,6284.83
12541.2,6288.08
12531.9,6290.43
12522.3,6291.85
12512.7,6292.32
12000.8,6292.32
11991.2,6291.85
11981.6,6290.43
11972.3,6288.08
11963.2,6284.83
11954.4,6280.7
11946.2,6275.74
11938.4,6269.98
11931.2,6263.49
11924.8,6256.34
11919,6248.58
11914,6240.3
11909.9,6231.56
11906.7,6222.47
11904.3,6213.1
11902.9,6203.55
11902.4,6193.9
11902.4,5937.99
11902.9,5928.34
11904.3,5918.79
11906.7,5909.42
11909.9,5900.33
11914,5891.59
11919,5883.31
11924.8,5875.55
11931.2,5868.39
11938.4,5861.91
11946.2,5856.15
11954.4,5851.19
11963.2,5847.06
11972.3,5843.81
11981.6,5841.46
11991.2,5840.04
12000.8,5839.57
12512.7,5839.57
Z" /> 
<path style="fill:#000000; fill-opacity:1.0; 
stroke:#000000; stroke-width:0; stroke-opacity:1; 
stroke-linecap:round; stroke-linejoin:round;fill-rule:evenodd;"
d="M 12522.3,7001.46
12531.9,7002.88
12541.2,7005.22
12550.3,7008.48
12559.1,7012.61
12567.3,7017.57
12575.1,7023.33
12582.3,7029.81
12588.7,7036.97
12594.5,7044.73
12599.5,7053.01
12603.6,7061.74
12606.8,7070.84
12609.2,7080.21
12610.6,7089.76
12611.1,7099.41
12611.1,7355.32
12610.6,7364.96
12609.2,7374.52
12606.8,7383.89
12603.6,7392.98
12599.5,7401.71
12594.5,7410
12588.7,7417.76
12582.3,7424.91
12575.1,7431.4
12567.3,7437.15
12559.1,7442.12
12550.3,7446.25
12541.2,7449.5
12531.9,7451.85
12522.3,7453.27
12512.7,7453.74
12000.8,7453.74
11991.2,7453.27
11981.6,7451.85
11972.3,7449.5
11963.2,7446.25
11954.4,7442.12
11946.2,7437.15
11938.4,7431.4
11931.2,7424.91
11924.8,7417.76
11919,7410
11914,7401.71
11909.9,7392.98
11906.7,7383.89
11904.3,7374.52
11902.9,7364.96
11902.4,7355.32
11902.4,7099.41
11902.9,7089.76
11904.3,7080.21
11906.7,7070.84
11909.9,7061.74
11914,7053.01
11919,7044.73
11924.8,7036.97
11931.2,7029.81
11938.4,7023.33
11946.2,7017.57
11954.4,7012.61
11963.2,7008.48
11972.3,7005.22
11981.6,7002.88
11991.2,7001.46
12000.8,7000.98
12512.7,7000.98
Z" /> 
</g>
<g >
</g>
<g style="fill:#000000; fill-opacity:1.0; 
stroke:#000000; stroke-width:0; stroke-opacity:1; 
stroke-linecap:round; stroke-linejoin:round;">
<path style="fill:#000000; fill-opacity:1.0; 
stroke:#000000; stroke-width:0; stroke-opacity:1; 
stroke-linecap:round; stroke-linejoin:round;fill-rule:evenodd;"
d="M 12522.3,8458.15
12531.9,8459.57
12541.2,8461.92
12550.3,8465.17
12559.1,8469.3
12567.3,8474.26
12575.1,8480.02
12582.3,8486.51
12588.7,8493.66
12594.5,8501.42
12599.5,8509.7
12603.6,8518.44
12606.8,8527.53
12609.2,8536.9
12610.6,8546.45
12611.1,8556.1
12611.1,8812.01
12610.6,8821.66
12609.2,8831.21
12606.8,8840.58
12603.6,8849.67
12599.5,8858.41
12594.5,8866.69
12588.7,8874.45
12582.3,8881.61
12575.1,8888.09
12567.3,8893.85
12559.1,8898.81
12550.3,8902.94
12541.2,8906.19
12531.9,8908.54
12522.3,8909.96
12512.7,8910.43
12000.8,8910.43
11991.2,8909.96
11981.6,8908.54
11972.3,8906.19
11963.2,8902.94
11954.4,8898.81
11946.2,8893.85
11938.4,8888.09
11931.2,8881.61
11924.8,8874.45
11919,8866.69
11914,8858.41
11909.9,8849.67
11906.7,8840.58
11904.3,8831.21
11902.9,8821.66
11902.4,8812.01
11902.4,8556.1
11902.9,8546.45
11904.3,8536.9
11906.7,8527.53
11909.9,8518.44
11914,8509.7
11919,8501.42
11924.8,8493.66
11931.2,8486.51
11938.4,8480.02
11946.2,8474.26
11954.4,8469.3
11963.2,8465.17
11972.3,8461.92
11981.6,8459.57
11991.2,8458.15
12000.8,8457.68
12512.7,8457.68
Z" /> 
<path style="fill:#000000; fill-opacity:1.0; 
stroke:#000000; stroke-width:0; stroke-opacity:1; 
stroke-linecap:round; stroke-linejoin:round;fill-rule:evenodd;"
d="M 12522.3,9619.57
12531.9,9620.99
12541.2,9623.33
12550.3,9626.59
12559.1,9630.72
12567.3,9635.68
12575.1,9641.44
12582.3,9647.92
12588.7,9655.08
12594.5,9662.84
12599.5,9671.12
12603.6,9679.85
12606.8,9688.95
12609.2,9698.32
12610.6,9707.87
12611.1,9717.52
12611.1,9973.43
12610.6,9983.07
12609.2,9992.63
12606.8,10002
12603.6,10011.1
12599.5,10019.8
12594.5,10028.1
12588.7,10035.9
12582.3,10043
12575.1,10049.5
12567.3,10055.3
12559.1,10060.2
12550.3,10064.4
12541.2,10067.6
12531.9,10070
12522.3,10071.4
12512.7,10071.9
12000.8,10071.9
11991.2,10071.4
11981.6,10070
11972.3,10067.6
11963.2,10064.4
11954.4,10060.2
11946.2,10055.3
11938.4,10049.5
11931.2,10043
11924.8,10035.9
11919,10028.1
11914,10019.8
11909.9,10011.1
11906.7,10002
11904.3,9992.63
11902.9,9983.07
11902.4,9973.43
11902.4,9717.52
11902.9,9707.87
11904.3,9698.32
11906.7,9688.95
11909.9,9679.85
11914,9671.12
11919,9662.84
11924.8,9655.08
11931.2,9647.92
11938.4,9641.44
11946.2,9635.68
11954.4,9630.72
11963.2,9626.59
11972.3,9623.33
11981.6,9620.99
11991.2,9619.57
12000.8,9619.09
12512.7,9619.09
Z" /> 
</g>
<g >
</g>
<g style="fill:#000000; fill-opacity:1.0; 
stroke:#000000; stroke-width:0; stroke-opacity:1; 
stroke-linecap:round; stroke-linejoin:round;">
<path style="fill:#000000; fill-opacity:1.0; 
stroke:#000000; stroke-width:0; stroke-opacity:1; 
stroke-linecap:round; stroke-linejoin:round;fill-rule:evenodd;"
d="M 10219.2,13448.3
10228.7,13449.7
10238.1,13452.1
10247.2,13455.3
10255.9,13459.5
10264.2,13464.4
10271.9,13470.2
10279.1,13476.7
10285.6,13483.8
10291.3,13491.6
10296.3,13499.9
10300.4,13508.6
10303.7,13517.7
10306,13527.1
10307.5,13536.6
10307.9,13546.3
10307.9,14058.1
10307.5,14067.7
10306,14077.3
10303.7,14086.6
10300.4,14095.7
10296.3,14104.5
10291.3,14112.8
10285.6,14120.5
10279.1,14127.7
10271.9,14134.2
10264.2,14139.9
10255.9,14144.9
10247.2,14149
10238.1,14152.3
10228.7,14154.6
10219.2,14156
10209.5,14156.5
9953.6,14156.5
9943.95,14156
9934.4,14154.6
9925.03,14152.3
9915.93,14149
9907.2,14144.9
9898.92,14139.9
9891.16,14134.2
9884,14127.7
9877.52,14120.5
9871.76,14112.8
9866.8,14104.5
9862.67,14095.7
9859.41,14086.6
9857.07,14077.3
9855.65,14067.7
9855.17,14058.1
9855.17,13546.3
9855.65,13536.6
9857.07,13527.1
9859.41,13517.7
9862.67,13508.6
9866.8,13499.9
9871.76,13491.6
9877.52,13483.8
9884,13476.7
9891.16,13470.2
9898.92,13464.4
9907.2,13459.5
9915.93,13455.3
9925.03,13452.1
9934.4,13449.7
9943.95,13448.3
9953.6,13447.8
10209.5,13447.8
Z" /> 
<path style="fill:#000000; fill-opacity:1.0; 
stroke:#000000; stroke-width:0; stroke-opacity:1; 
stroke-linecap:round; stroke-linejoin:round;fill-rule:evenodd;"
d="M 9057.74,13448.3
9067.29,13449.7
9076.66,13452.1
9085.75,13455.3
9094.49,13459.5
9102.77,13464.4
9110.53,13470.2
9117.69,13476.7
9124.17,13483.8
9129.93,13491.6
9134.89,13499.9
9139.02,13508.6
9142.27,13517.7
9144.62,13527.1
9146.04,13536.6
9146.51,13546.3
9146.51,14058.1
9146.04,14067.7
9144.62,14077.3
9142.27,14086.6
9139.02,14095.7
9134.89,14104.5
9129.93,14112.8
9124.17,14120.5
9117.69,14127.7
9110.53,14134.2
9102.77,14139.9
9094.49,14144.9
9085.75,14149
9076.66,14152.3
9067.29,14154.6
9057.74,14156
9048.09,14156.5
8792.18,14156.5
8782.53,14156
8772.98,14154.6
8763.61,14152.3
8754.52,14149
8745.78,14144.9
8737.5,14139.9
8729.74,14134.2
8722.59,14127.7
8716.1,14120.5
8710.34,14112.8
8705.38,14104.5
8701.25,14095.7
8698,14086.6
8695.65,14077.3
8694.23,14067.7
8693.76,14058.1
8693.76,13546.3
8694.23,13536.6
8695.65,13527.1
8698,13517.7
8701.25,13508.6
8705.38,13499.9
8710.34,13491.6
8716.1,13483.8
8722.59,13476.7
8729.74,13470.2
8737.5,13464.4
8745.78,13459.5
8754.52,13455.3
8763.61,13452.1
8772.98,13449.7
8782.53,13448.3
8792.18,13447.8
9048.09,13447.8
Z" /> 
</g>
<g >
</g>
<g style="fill:#000000; fill-opacity:1.0; 
stroke:#000000; stroke-width:0; stroke-opacity:1; 
stroke-linecap:round; stroke-linejoin:round;">
<path style="fill:#000000; fill-opacity:1.0; 
stroke:#000000; stroke-width:0; stroke-opacity:1; 
stroke-linecap:round; stroke-linejoin:round;fill-rule:evenodd;"
d="M 23939.6,7277.05
23949.2,7278.47
23958.5,7280.81
23967.6,7284.07
23976.4,7288.2
23984.7,7293.16
23992.4,7298.92
23999.6,7305.4
24006.1,7312.56
24011.8,7320.32
24016.8,7328.6
24020.9,7337.33
24024.2,7346.43
24026.5,7355.8
24027.9,7365.35
24028.4,7375
24028.4,7630.91
24027.9,7640.55
24026.5,7650.11
24024.2,7659.48
24020.9,7668.57
24016.8,7677.3
24011.8,7685.59
24006.1,7693.35
23999.6,7700.5
23992.4,7706.99
23984.7,7712.74
23976.4,7717.71
23967.6,7721.84
23958.5,7725.09
23949.2,7727.44
23939.6,7728.86
23930,7729.33
23418.2,7729.33
23408.5,7728.86
23399,7727.44
23389.6,7725.09
23380.5,7721.84
23371.8,7717.71
23363.5,7712.74
23355.7,7706.99
23348.6,7700.5
23342.1,7693.35
23336.3,7685.59
23331.4,7677.3
23327.2,7668.57
23324,7659.48
23321.6,7650.11
23320.2,7640.55
23319.7,7630.91
23319.7,7375
23320.2,7365.35
23321.6,7355.8
23324,7346.43
23327.2,7337.33
23331.4,7328.6
23336.3,7320.32
23342.1,7312.56
23348.6,7305.4
23355.7,7298.92
23363.5,7293.16
23371.8,7288.2
23380.5,7284.07
23389.6,7280.81
23399,7278.47
23408.5,7277.05
23418.2,7276.57
23930,7276.57
Z" /> 
<path style="fill:#000000; fill-opacity:1.0; 
stroke:#000000; stroke-width:0; stroke-opacity:1; 
stroke-linecap:round; stroke-linejoin:round;fill-rule:evenodd;"
d="M 23939.6,8438.47
23949.2,8439.88
23958.5,8442.23
23967.6,8445.48
23976.4,8449.61
23984.7,8454.58
23992.4,8460.33
23999.6,8466.82
24006.1,8473.98
24011.8,8481.74
24016.8,8490.02
24020.9,8498.75
24024.2,8507.85
24026.5,8517.22
24027.9,8526.77
24028.4,8536.42
24028.4,8792.32
24027.9,8801.97
24026.5,8811.52
24024.2,8820.89
24020.9,8829.99
24016.8,8838.72
24011.8,8847.01
24006.1,8854.76
23999.6,8861.92
23992.4,8868.41
23984.7,8874.16
23976.4,8879.13
23967.6,8883.26
23958.5,8886.51
23949.2,8888.86
23939.6,8890.27
23930,8890.75
23418.2,8890.75
23408.5,8890.27
23399,8888.86
23389.6,8886.51
23380.5,8883.26
23371.8,8879.13
23363.5,8874.16
23355.7,8868.41
23348.6,8861.92
23342.1,8854.76
23336.3,8847.01
23331.4,8838.72
23327.2,8829.99
23324,8820.89
23321.6,8811.52
23320.2,8801.97
23319.7,8792.32
23319.7,8536.42
23320.2,8526.77
23321.6,8517.22
23324,8507.85
23327.2,8498.75
23331.4,8490.02
23336.3,8481.74
23342.1,8473.98
23348.6,8466.82
23355.7,8460.33
23363.5,8454.58
23371.8,8449.61
23380.5,8445.48
23389.6,8442.23
23399,8439.88
23408.5,8438.47
23418.2,8437.99
23930,8437.99
Z" /> 
</g>
<g >
</g>
<g >
</g>
<g >
</g>
</g>
<g style="fill:#000000; fill-opacity:1.0; 
stroke:#000000; stroke-width:0; stroke-opacity:1; 
stroke-linecap:round; stroke-linejoin:round;">
</g>
<g style="fill:#000000; fill-opacity:1.0; 
stroke:#000000; stroke-width:39.3701; stroke-opacity:1; 
stroke-linecap:round; stroke-linejoin:round;">
</g>
<g style="fill:#000000; fill-opacity:0.0; 
stroke:#000000; stroke-width:39.3701; stroke-opacity:1; 
stroke-linecap:round; stroke-linejoin:round;">
<path d="M32926 1991
L32926 25810
" />
<path d="M3004 1991
L32926 1991
" />
<path d="M3004 25810
L3004 1991
" />
<path d="M32926 25810
L3004 25810
" />
<g >
</g>
<g >
</g>
<g >
</g>
<g >
</g>
<g >
</g>
<g >
</g>
<g >
</g>
<g >
</g>
<g >
</g>
<g >
</g>
<g >
</g>
<g >
</g>
<g >
</g>
<g >
</g>
<g >
</g>
<g >
</g>
<g >
</g>
<g >
</g>
<g >
</g>
<g >
</g>
<g >
</g>
<g >
</g>
<g >
</g>
<g >
</g>
<g >
</g>
</g> 
</svg>
