<?xml version="1.0" standalone="no"?>
 <!DOCTYPE svg PUBLIC "-//W3C//DTD SVG 1.1//EN" 
 "http://www.w3.org/Graphics/SVG/1.1/DTD/svg11.dtd"> 
<svg
  xmlns:svg="http://www.w3.org/2000/svg"
  xmlns="http://www.w3.org/2000/svg"
  xmlns:xlink="http://www.w3.org/1999/xlink"
  version="1.1"
  width="9.682480cm" height="7.523480cm" viewBox="0 0 38120 29620">
<title>SVG Picture created as main-B_Mask.svg date 2020/12/08 21:52:19 </title>
  <desc>Picture generated by PCBNEW </desc>
<g style="fill:#000000; fill-opacity:1;stroke:#000000; stroke-opacity:1;
stroke-linecap:round; stroke-linejoin:round;"
 transform="translate(0 0) scale(1 1)">
</g>
<g style="fill:#000000; fill-opacity:0.0; 
stroke:#000000; stroke-width:-0.000393701; stroke-opacity:1; 
stroke-linecap:round; stroke-linejoin:round;">
<g >
</g>
<g style="fill:#000000; fill-opacity:1.0; 
stroke:#000000; stroke-width:0; stroke-opacity:1; 
stroke-linecap:round; stroke-linejoin:round;">
<circle cx="30957.5" cy="23841.5" r="629.921" /> 
</g>
<g style="fill:#000000; fill-opacity:1.0; 
stroke:#000000; stroke-width:39.3701; stroke-opacity:1; 
stroke-linecap:round; stroke-linejoin:round;">
</g>
<g >
</g>
<g style="fill:#000000; fill-opacity:1.0; 
stroke:#000000; stroke-width:39.3701; stroke-opacity:1; 
stroke-linecap:round; stroke-linejoin:round;">
</g>
<g style="fill:#000000; fill-opacity:1.0; 
stroke:#000000; stroke-width:0; stroke-opacity:1; 
stroke-linecap:round; stroke-linejoin:round;">
<circle cx="30957.5" cy="3959.65" r="629.921" /> 
</g>
<g style="fill:#000000; fill-opacity:1.0; 
stroke:#000000; stroke-width:39.3701; stroke-opacity:1; 
stroke-linecap:round; stroke-linejoin:round;">
</g>
<g >
</g>
<g style="fill:#000000; fill-opacity:1.0; 
stroke:#000000; stroke-width:39.3701; stroke-opacity:1; 
stroke-linecap:round; stroke-linejoin:round;">
</g>
<g style="fill:#000000; fill-opacity:1.0; 
stroke:#000000; stroke-width:0; stroke-opacity:1; 
stroke-linecap:round; stroke-linejoin:round;">
<circle cx="4973.28" cy="23841.5" r="629.921" /> 
</g>
<g style="fill:#000000; fill-opacity:1.0; 
stroke:#000000; stroke-width:39.3701; stroke-opacity:1; 
stroke-linecap:round; stroke-linejoin:round;">
</g>
<g >
</g>
<g style="fill:#000000; fill-opacity:1.0; 
stroke:#000000; stroke-width:39.3701; stroke-opacity:1; 
stroke-linecap:round; stroke-linejoin:round;">
</g>
<g style="fill:#000000; fill-opacity:1.0; 
stroke:#000000; stroke-width:0; stroke-opacity:1; 
stroke-linecap:round; stroke-linejoin:round;">
<circle cx="4973.28" cy="3959.65" r="629.921" /> 
</g>
<g style="fill:#000000; fill-opacity:1.0; 
stroke:#000000; stroke-width:39.3701; stroke-opacity:1; 
stroke-linecap:round; stroke-linejoin:round;">
</g>
<g >
</g>
<g >
</g>
<g style="fill:#000000; fill-opacity:1.0; 
stroke:#000000; stroke-width:39.3701; stroke-opacity:1; 
stroke-linecap:round; stroke-linejoin:round;">
</g>
<g style="fill:#000000; fill-opacity:1.0; 
stroke:#000000; stroke-width:629.921; stroke-opacity:1; 
stroke-linecap:round; stroke-linejoin:round;">
</g>
<g style="fill:#000000; fill-opacity:0.0; 
stroke:#000000; stroke-width:629.921; stroke-opacity:1; 
stroke-linecap:round; stroke-linejoin:round;">
<path d="M27894 17739
L28209 17739
" />
<path d="M24894 19739
L25209 19739
" />
<path d="M27894 18739
L28209 18739
" />
<path d="M24894 18739
L25209 18739
" />
<path d="M27894 19739
L28209 19739
" />
</g>
<g style="fill:#000000; fill-opacity:0.0; 
stroke:#000000; stroke-width:0; stroke-opacity:1; 
stroke-linecap:round; stroke-linejoin:round;">
</g>
<g style="fill:#000000; fill-opacity:1.0; 
stroke:#000000; stroke-width:0; stroke-opacity:1; 
stroke-linecap:round; stroke-linejoin:round;">
<path style="fill:#000000; fill-opacity:1.0; 
stroke:#000000; stroke-width:0; stroke-opacity:1; 
stroke-linecap:round; stroke-linejoin:round;fill-rule:evenodd;"
d="M 24579.6,18054.1
24579.6,17424.2
25524.5,17424.2
25524.5,18054.1
Z" /> 
</g>
<g >
</g>
<g style="fill:#000000; fill-opacity:1.0; 
stroke:#000000; stroke-width:0; stroke-opacity:1; 
stroke-linecap:round; stroke-linejoin:round;">
</g>
<g style="fill:#000000; fill-opacity:1.0; 
stroke:#000000; stroke-width:629.921; stroke-opacity:1; 
stroke-linecap:round; stroke-linejoin:round;">
</g>
<g style="fill:#000000; fill-opacity:0.0; 
stroke:#000000; stroke-width:629.921; stroke-opacity:1; 
stroke-linecap:round; stroke-linejoin:round;">
<path d="M14815 16471
L14815 16156
" />
<path d="M21815 19471
L21815 19156
" />
<path d="M15815 16471
L15815 16156
" />
<path d="M20815 19471
L20815 19156
" />
<path d="M16815 16471
L16815 16156
" />
<path d="M19815 19471
L19815 19156
" />
<path d="M17815 16471
L17815 16156
" />
<path d="M18815 19471
L18815 19156
" />
<path d="M18815 16471
L18815 16156
" />
<path d="M17815 19471
L17815 19156
" />
<path d="M19815 16471
L19815 16156
" />
<path d="M16815 19471
L16815 19156
" />
<path d="M20815 16471
L20815 16156
" />
<path d="M15815 19471
L15815 19156
" />
<path d="M21815 16471
L21815 16156
" />
</g>
<g style="fill:#000000; fill-opacity:0.0; 
stroke:#000000; stroke-width:0; stroke-opacity:1; 
stroke-linecap:round; stroke-linejoin:round;">
</g>
<g style="fill:#000000; fill-opacity:1.0; 
stroke:#000000; stroke-width:0; stroke-opacity:1; 
stroke-linecap:round; stroke-linejoin:round;">
<path style="fill:#000000; fill-opacity:1.0; 
stroke:#000000; stroke-width:0; stroke-opacity:1; 
stroke-linecap:round; stroke-linejoin:round;fill-rule:evenodd;"
d="M 15130.8,19786.4
14500.8,19786.4
14500.8,18841.5
15130.8,18841.5
Z" /> 
</g>
<g >
</g>
<g >
</g>
<g >
</g>
<g style="fill:#000000; fill-opacity:1.0; 
stroke:#000000; stroke-width:0; stroke-opacity:1; 
stroke-linecap:round; stroke-linejoin:round;">
</g>
<g style="fill:#000000; fill-opacity:1.0; 
stroke:#000000; stroke-width:866.142; stroke-opacity:1; 
stroke-linecap:round; stroke-linejoin:round;">
</g>
<g style="fill:#000000; fill-opacity:0.0; 
stroke:#000000; stroke-width:866.142; stroke-opacity:1; 
stroke-linecap:round; stroke-linejoin:round;">
<path d="M11115 24176
L11115 24687
" />
<path d="M7886 24176
L7886 24687
" />
</g>
<g style="fill:#000000; fill-opacity:0.0; 
stroke:#000000; stroke-width:590.551; stroke-opacity:1; 
stroke-linecap:round; stroke-linejoin:round;">
<path d="M10288 24235
L10288 24628
" />
<path d="M9500 24235
L9500 24628
" />
</g>
<g style="fill:#000000; fill-opacity:0.0; 
stroke:#000000; stroke-width:0; stroke-opacity:1; 
stroke-linecap:round; stroke-linejoin:round;">
</g>
<g style="fill:#000000; fill-opacity:1.0; 
stroke:#000000; stroke-width:0; stroke-opacity:1; 
stroke-linecap:round; stroke-linejoin:round;">
<path style="fill:#000000; fill-opacity:1.0; 
stroke:#000000; stroke-width:0; stroke-opacity:1; 
stroke-linecap:round; stroke-linejoin:round;fill-rule:evenodd;"
d="M 8418.17,24924.2
8418.17,23940
9008.72,23940
9008.72,24924.2
Z" /> 
</g>
<g >
</g>
<g >
</g>
<g >
</g>
<g >
</g>
<g style="fill:#000000; fill-opacity:1.0; 
stroke:#000000; stroke-width:0; stroke-opacity:1; 
stroke-linecap:round; stroke-linejoin:round;">
<circle cx="28398.5" cy="3353.35" r="334.646" /> 
<circle cx="28398.5" cy="4353.35" r="334.646" /> 
<circle cx="27398.5" cy="3353.35" r="334.646" /> 
<circle cx="27398.5" cy="4353.35" r="334.646" /> 
<circle cx="26398.5" cy="3353.35" r="334.646" /> 
<circle cx="26398.5" cy="4353.35" r="334.646" /> 
<circle cx="25398.5" cy="3353.35" r="334.646" /> 
<path style="fill:#000000; fill-opacity:1.0; 
stroke:#000000; stroke-width:0; stroke-opacity:1; 
stroke-linecap:round; stroke-linejoin:round;fill-rule:evenodd;"
d="M 25733.1,4687.99
25063.8,4687.99
25063.8,4018.7
25733.1,4018.7
Z" /> 
</g>
<g >
</g>
<g style="fill:#000000; fill-opacity:1.0; 
stroke:#000000; stroke-width:0; stroke-opacity:1; 
stroke-linecap:round; stroke-linejoin:round;">
</g>
<g style="fill:#000000; fill-opacity:1.0; 
stroke:#000000; stroke-width:472.441; stroke-opacity:1; 
stroke-linecap:round; stroke-linejoin:round;">
</g>
<g style="fill:#000000; fill-opacity:0.0; 
stroke:#000000; stroke-width:472.441; stroke-opacity:1; 
stroke-linecap:round; stroke-linejoin:round;">
<path d="M27699 23054
L27916 23054
" />
</g>
<g style="fill:#000000; fill-opacity:0.0; 
stroke:#000000; stroke-width:0; stroke-opacity:1; 
stroke-linecap:round; stroke-linejoin:round;">
</g>
<g style="fill:#000000; fill-opacity:1.0; 
stroke:#000000; stroke-width:0; stroke-opacity:1; 
stroke-linecap:round; stroke-linejoin:round;">
<path style="fill:#000000; fill-opacity:1.0; 
stroke:#000000; stroke-width:0; stroke-opacity:1; 
stroke-linecap:round; stroke-linejoin:round;fill-rule:evenodd;"
d="M 28063.6,23605.8
28073.2,23607.2
28082.6,23609.6
28091.7,23612.8
28100.4,23616.9
28108.7,23621.9
28116.4,23627.7
28123.6,23634.1
28130.1,23641.3
28135.8,23649.1
28140.8,23657.3
28144.9,23666.1
28148.2,23675.2
28150.5,23684.5
28151.9,23694.1
28152.4,23703.7
28152.4,23979.3
28151.9,23989
28150.5,23998.5
28148.2,24007.9
28144.9,24017
28140.8,24025.7
28135.8,24034
28130.1,24041.8
28123.6,24048.9
28116.4,24055.4
28108.7,24061.2
28100.4,24066.1
28091.7,24070.3
28082.6,24073.5
28073.2,24075.9
28063.6,24077.3
28054,24077.8
27561.9,24077.8
27552.2,24077.3
27542.7,24075.9
27533.3,24073.5
27524.2,24070.3
27515.5,24066.1
27507.2,24061.2
27499.4,24055.4
27492.3,24048.9
27485.8,24041.8
27480,24034
27475.1,24025.7
27470.9,24017
27467.7,24007.9
27465.3,23998.5
27463.9,23989
27463.4,23979.3
27463.4,23703.7
27463.9,23694.1
27465.3,23684.5
27467.7,23675.2
27470.9,23666.1
27475.1,23657.3
27480,23649.1
27485.8,23641.3
27492.3,23634.1
27499.4,23627.7
27507.2,23621.9
27515.5,23616.9
27524.2,23612.8
27533.3,23609.6
27542.7,23607.2
27552.2,23605.8
27561.9,23605.3
28054,23605.3
Z" /> 
</g>
<g >
</g>
<g style="fill:#000000; fill-opacity:1.0; 
stroke:#000000; stroke-width:0; stroke-opacity:1; 
stroke-linecap:round; stroke-linejoin:round;">
<path style="fill:#000000; fill-opacity:1.0; 
stroke:#000000; stroke-width:0; stroke-opacity:1; 
stroke-linecap:round; stroke-linejoin:round;fill-rule:evenodd;"
d="M 8693.76,10396.7
8024.47,10396.7
8024.47,9727.36
8693.76,9727.36
Z" /> 
</g>
<g >
</g>
<g style="fill:#000000; fill-opacity:1.0; 
stroke:#000000; stroke-width:0; stroke-opacity:1; 
stroke-linecap:round; stroke-linejoin:round;">
</g>
<g style="fill:#000000; fill-opacity:1.0; 
stroke:#000000; stroke-width:472.441; stroke-opacity:1; 
stroke-linecap:round; stroke-linejoin:round;">
</g>
<g style="fill:#000000; fill-opacity:0.0; 
stroke:#000000; stroke-width:472.441; stroke-opacity:1; 
stroke-linecap:round; stroke-linejoin:round;">
<path d="M8408 7306
L8624 7306
" />
</g>
<g style="fill:#000000; fill-opacity:0.0; 
stroke:#000000; stroke-width:0; stroke-opacity:1; 
stroke-linecap:round; stroke-linejoin:round;">
</g>
<g style="fill:#000000; fill-opacity:1.0; 
stroke:#000000; stroke-width:0; stroke-opacity:1; 
stroke-linecap:round; stroke-linejoin:round;">
<path style="fill:#000000; fill-opacity:1.0; 
stroke:#000000; stroke-width:0; stroke-opacity:1; 
stroke-linecap:round; stroke-linejoin:round;fill-rule:evenodd;"
d="M 8772.3,7857.76
8781.86,7859.17
8791.23,7861.52
8800.32,7864.78
8809.05,7868.91
8817.34,7873.87
8825.1,7879.62
8832.25,7886.11
8838.74,7893.27
8844.49,7901.03
8849.46,7909.31
8853.59,7918.04
8856.84,7927.14
8859.19,7936.51
8860.61,7946.06
8861.08,7955.71
8861.08,8231.3
8860.61,8240.95
8859.19,8250.5
8856.84,8259.87
8853.59,8268.96
8849.46,8277.7
8844.49,8285.98
8838.74,8293.74
8832.25,8300.9
8825.1,8307.38
8817.34,8313.14
8809.05,8318.1
8800.32,8322.23
8791.23,8325.49
8781.86,8327.83
8772.3,8329.25
8762.66,8329.72
8270.53,8329.72
8260.88,8329.25
8251.33,8327.83
8241.96,8325.49
8232.86,8322.23
8224.13,8318.1
8215.85,8313.14
8208.09,8307.38
8200.93,8300.9
8194.44,8293.74
8188.69,8285.98
8183.73,8277.7
8179.6,8268.96
8176.34,8259.87
8173.99,8250.5
8172.58,8240.95
8172.1,8231.3
8172.1,7955.71
8172.58,7946.06
8173.99,7936.51
8176.34,7927.14
8179.6,7918.04
8183.73,7909.31
8188.69,7901.03
8194.44,7893.27
8200.93,7886.11
8208.09,7879.62
8215.85,7873.87
8224.13,7868.91
8232.86,7864.78
8241.96,7861.52
8251.33,7859.17
8260.88,7857.76
8270.53,7857.28
8762.66,7857.28
Z" /> 
</g>
<g >
</g>
<g style="fill:#000000; fill-opacity:1.0; 
stroke:#000000; stroke-width:0; stroke-opacity:1; 
stroke-linecap:round; stroke-linejoin:round;">
<circle cx="11122.9" cy="3959.65" r="334.646" /> 
<circle cx="10122.9" cy="3959.65" r="334.646" /> 
<circle cx="9122.89" cy="3959.65" r="334.646" /> 
<path style="fill:#000000; fill-opacity:1.0; 
stroke:#000000; stroke-width:0; stroke-opacity:1; 
stroke-linecap:round; stroke-linejoin:round;fill-rule:evenodd;"
d="M 8457.54,4294.29
7788.25,4294.29
7788.25,3625
8457.54,3625
Z" /> 
</g>
<g >
</g>
<g style="fill:#000000; fill-opacity:1.0; 
stroke:#000000; stroke-width:0; stroke-opacity:1; 
stroke-linecap:round; stroke-linejoin:round;">
</g>
<g style="fill:#000000; fill-opacity:1.0; 
stroke:#000000; stroke-width:472.441; stroke-opacity:1; 
stroke-linecap:round; stroke-linejoin:round;">
</g>
<g style="fill:#000000; fill-opacity:0.0; 
stroke:#000000; stroke-width:472.441; stroke-opacity:1; 
stroke-linecap:round; stroke-linejoin:round;">
<path d="M27699 12030
L27916 12030
" />
<path d="M27699 12817
L27916 12817
" />
<path d="M27699 13605
L27916 13605
" />
</g>
<g style="fill:#000000; fill-opacity:0.0; 
stroke:#000000; stroke-width:0; stroke-opacity:1; 
stroke-linecap:round; stroke-linejoin:round;">
</g>
<g style="fill:#000000; fill-opacity:1.0; 
stroke:#000000; stroke-width:0; stroke-opacity:1; 
stroke-linecap:round; stroke-linejoin:round;">
<path style="fill:#000000; fill-opacity:1.0; 
stroke:#000000; stroke-width:0; stroke-opacity:1; 
stroke-linecap:round; stroke-linejoin:round;fill-rule:evenodd;"
d="M 28063.6,14157
28073.2,14158.4
28082.6,14160.7
28091.7,14164
28100.4,14168.1
28108.7,14173.1
28116.4,14178.8
28123.6,14185.3
28130.1,14192.5
28135.8,14200.2
28140.8,14208.5
28144.9,14217.3
28148.2,14226.3
28150.5,14235.7
28151.9,14245.3
28152.4,14254.9
28152.4,14530.5
28151.9,14540.2
28150.5,14549.7
28148.2,14559.1
28144.9,14568.2
28140.8,14576.9
28135.8,14585.2
28130.1,14593
28123.6,14600.1
28116.4,14606.6
28108.7,14612.3
28100.4,14617.3
28091.7,14621.4
28082.6,14624.7
28073.2,14627
28063.6,14628.5
28054,14628.9
27561.9,14628.9
27552.2,14628.5
27542.7,14627
27533.3,14624.7
27524.2,14621.4
27515.5,14617.3
27507.2,14612.3
27499.4,14606.6
27492.3,14600.1
27485.8,14593
27480,14585.2
27475.1,14576.9
27470.9,14568.2
27467.7,14559.1
27465.3,14549.7
27463.9,14540.2
27463.4,14530.5
27463.4,14254.9
27463.9,14245.3
27465.3,14235.7
27467.7,14226.3
27470.9,14217.3
27475.1,14208.5
27480,14200.2
27485.8,14192.5
27492.3,14185.3
27499.4,14178.8
27507.2,14173.1
27515.5,14168.1
27524.2,14164
27533.3,14160.7
27542.7,14158.4
27552.2,14157
27561.9,14156.5
28054,14156.5
Z" /> 
</g>
<g >
</g>
<g style="fill:#000000; fill-opacity:1.0; 
stroke:#000000; stroke-width:0; stroke-opacity:1; 
stroke-linecap:round; stroke-linejoin:round;">
<circle cx="19540.2" cy="23054.1" r="278.74" /> 
</g>
<g style="fill:#000000; fill-opacity:1.0; 
stroke:#000000; stroke-width:39.3701; stroke-opacity:1; 
stroke-linecap:round; stroke-linejoin:round;">
</g>
<g style="fill:#000000; fill-opacity:1.0; 
stroke:#000000; stroke-width:0; stroke-opacity:1; 
stroke-linecap:round; stroke-linejoin:round;">
<circle cx="18556" cy="23054.1" r="278.74" /> 
</g>
<g style="fill:#000000; fill-opacity:1.0; 
stroke:#000000; stroke-width:39.3701; stroke-opacity:1; 
stroke-linecap:round; stroke-linejoin:round;">
</g>
<g style="fill:#000000; fill-opacity:1.0; 
stroke:#000000; stroke-width:0; stroke-opacity:1; 
stroke-linecap:round; stroke-linejoin:round;">
<circle cx="17571.7" cy="23054.1" r="278.74" /> 
</g>
<g style="fill:#000000; fill-opacity:1.0; 
stroke:#000000; stroke-width:39.3701; stroke-opacity:1; 
stroke-linecap:round; stroke-linejoin:round;">
</g>
<g style="fill:#000000; fill-opacity:1.0; 
stroke:#000000; stroke-width:0; stroke-opacity:1; 
stroke-linecap:round; stroke-linejoin:round;">
<path style="fill:#000000; fill-opacity:1.0; 
stroke:#000000; stroke-width:0; stroke-opacity:1; 
stroke-linecap:round; stroke-linejoin:round;fill-rule:evenodd;"
d="M 16308.7,23332.9
16308.7,22775.4
16866.2,22775.4
16866.2,23332.9
Z" /> 
</g>
<g >
</g>
<g >
</g>
<g >
</g>
<g >
</g>
<g >
</g>
<g >
</g>
<g >
</g>
</g>
<g style="fill:#000000; fill-opacity:1.0; 
stroke:#000000; stroke-width:0; stroke-opacity:1; 
stroke-linecap:round; stroke-linejoin:round;">
</g>
<g style="fill:#000000; fill-opacity:1.0; 
stroke:#000000; stroke-width:39.3701; stroke-opacity:1; 
stroke-linecap:round; stroke-linejoin:round;">
</g>
<g style="fill:#000000; fill-opacity:0.0; 
stroke:#000000; stroke-width:39.3701; stroke-opacity:1; 
stroke-linecap:round; stroke-linejoin:round;">
<path d="M32926 1991
L32926 25810
" />
<path d="M3004 1991
L32926 1991
" />
<path d="M3004 25810
L3004 1991
" />
<path d="M32926 25810
L3004 25810
" />
<g >
</g>
<g >
</g>
<g >
</g>
<g >
</g>
<g >
</g>
<g >
</g>
<g >
</g>
<g >
</g>
<g >
</g>
<g >
</g>
<g >
</g>
<g >
</g>
<g >
</g>
<g >
</g>
<g >
</g>
<g >
</g>
<g >
</g>
<g >
</g>
<g >
</g>
<g >
</g>
<g >
</g>
<g >
</g>
<g >
</g>
<g >
</g>
<g >
</g>
</g> 
</svg>
