<?xml version="1.0" standalone="no"?>
 <!DOCTYPE svg PUBLIC "-//W3C//DTD SVG 1.1//EN" 
 "http://www.w3.org/Graphics/SVG/1.1/DTD/svg11.dtd"> 
<svg
  xmlns:svg="http://www.w3.org/2000/svg"
  xmlns="http://www.w3.org/2000/svg"
  xmlns:xlink="http://www.w3.org/1999/xlink"
  version="1.1"
  width="9.682480cm" height="7.523480cm" viewBox="0 0 38120 29620">
<title>SVG Picture created as main-Dwgs_User.svg date 2020/12/08 21:52:19 </title>
  <desc>Picture generated by PCBNEW </desc>
<g style="fill:#000000; fill-opacity:1;stroke:#000000; stroke-opacity:1;
stroke-linecap:round; stroke-linejoin:round;"
 transform="translate(0 0) scale(1 1)">
</g>
<g style="fill:#000000; fill-opacity:0.0; 
stroke:#000000; stroke-width:-0.000393701; stroke-opacity:1; 
stroke-linecap:round; stroke-linejoin:round;">
</g>
<g style="fill:#000000; fill-opacity:0.0; 
stroke:#000000; stroke-width:59.0551; stroke-opacity:1; 
stroke-linecap:round; stroke-linejoin:round;">
<g transform="rotate(-90 34619 13900.6)">
<text x="34619" y="14097.4"
textLength="3488.85" font-size="524.934" lengthAdjust="spacingAndGlyphs"
text-anchor="middle" opacity="0">50,500 mm</text>
</g>
<path d="M34403 15325
L34403 15512
L34590 15531
L34572 15512
L34553 15475
L34553 15381
L34572 15344
L34590 15325
L34628 15306
L34722 15306
L34759 15325
L34778 15344
L34797 15381
L34797 15475
L34778 15512
L34759 15531
" />
<path d="M34403 15062
L34403 15025
L34422 14987
L34440 14969
L34478 14950
L34553 14931
L34647 14931
L34722 14950
L34759 14969
L34778 14987
L34797 15025
L34797 15062
L34778 15100
L34759 15119
L34722 15137
L34647 15156
L34553 15156
L34478 15137
L34440 15119
L34422 15100
L34403 15062
" />
<path d="M34778 14744
L34797 14744
L34834 14762
L34853 14781
" />
<path d="M34403 14388
L34403 14575
L34590 14594
L34572 14575
L34553 14538
L34553 14444
L34572 14406
L34590 14388
L34628 14369
L34722 14369
L34759 14388
L34778 14406
L34797 14444
L34797 14538
L34778 14575
L34759 14594
" />
<path d="M34403 14125
L34403 14088
L34422 14050
L34440 14031
L34478 14013
L34553 13994
L34647 13994
L34722 14013
L34759 14031
L34778 14050
L34797 14088
L34797 14125
L34778 14163
L34759 14181
L34722 14200
L34647 14219
L34553 14219
L34478 14200
L34440 14181
L34422 14163
L34403 14125
" />
<path d="M34403 13750
L34403 13713
L34422 13675
L34440 13656
L34478 13638
L34553 13619
L34647 13619
L34722 13638
L34759 13656
L34778 13675
L34797 13713
L34797 13750
L34778 13788
L34759 13806
L34722 13825
L34647 13844
L34553 13844
L34478 13825
L34440 13806
L34422 13788
L34403 13750
" />
<path d="M34797 13150
L34534 13150
" />
<path d="M34572 13150
L34553 13131
L34534 13094
L34534 13038
L34553 13000
L34590 12981
L34797 12981
" />
<path d="M34590 12981
L34553 12963
L34534 12925
L34534 12869
L34553 12831
L34590 12813
L34797 12813
" />
<path d="M34797 12625
L34534 12625
" />
<path d="M34572 12625
L34553 12607
L34534 12569
L34534 12513
L34553 12475
L34590 12457
L34797 12457
" />
<path d="M34590 12457
L34553 12438
L34534 12400
L34534 12344
L34553 12307
L34590 12288
L34797 12288
" />
<path d="M34107 23841
L34107 3959
" />
<path d="M30957 23841
L34338 23841
" />
<path d="M30957 3959
L34338 3959
" />
<path d="M34107 3959
L34338 4403
" />
<path d="M34107 3959
L33876 4403
" />
<path d="M34107 23841
L34338 23398
" />
<path d="M34107 23841
L33876 23398
" />
<text x="17965.4" y="28487.2"
textLength="3488.85" font-size="524.934" lengthAdjust="spacingAndGlyphs"
text-anchor="middle" opacity="0">66,000 mm</text>
<path d="M16521 28074
L16446 28074
L16409 28093
L16390 28112
L16353 28168
L16334 28243
L16334 28393
L16353 28430
L16371 28449
L16409 28468
L16484 28468
L16521 28449
L16540 28430
L16559 28393
L16559 28299
L16540 28262
L16521 28243
L16484 28224
L16409 28224
L16371 28243
L16353 28262
L16334 28299
" />
<path d="M16896 28074
L16821 28074
L16784 28093
L16765 28112
L16728 28168
L16709 28243
L16709 28393
L16728 28430
L16746 28449
L16784 28468
L16859 28468
L16896 28449
L16915 28430
L16934 28393
L16934 28299
L16915 28262
L16896 28243
L16859 28224
L16784 28224
L16746 28243
L16728 28262
L16709 28299
" />
<path d="M17121 28449
L17121 28468
L17103 28505
L17084 28524
" />
<path d="M17365 28074
L17402 28074
L17440 28093
L17459 28112
L17477 28149
L17496 28224
L17496 28318
L17477 28393
L17459 28430
L17440 28449
L17402 28468
L17365 28468
L17327 28449
L17309 28430
L17290 28393
L17271 28318
L17271 28224
L17290 28149
L17309 28112
L17327 28093
L17365 28074
" />
<path d="M17740 28074
L17777 28074
L17815 28093
L17834 28112
L17852 28149
L17871 28224
L17871 28318
L17852 28393
L17834 28430
L17815 28449
L17777 28468
L17740 28468
L17702 28449
L17684 28430
L17665 28393
L17646 28318
L17646 28224
L17665 28149
L17684 28112
L17702 28093
L17740 28074
" />
<path d="M18115 28074
L18152 28074
L18190 28093
L18209 28112
L18227 28149
L18246 28224
L18246 28318
L18227 28393
L18209 28430
L18190 28449
L18152 28468
L18115 28468
L18077 28449
L18059 28430
L18040 28393
L18021 28318
L18021 28224
L18040 28149
L18059 28112
L18077 28093
L18115 28074
" />
<path d="M18715 28468
L18715 28205
" />
<path d="M18715 28243
L18734 28224
L18771 28205
L18827 28205
L18865 28224
L18884 28262
L18884 28468
" />
<path d="M18884 28262
L18902 28224
L18940 28205
L18996 28205
L19034 28224
L19052 28262
L19052 28468
" />
<path d="M19240 28468
L19240 28205
" />
<path d="M19240 28243
L19258 28224
L19296 28205
L19352 28205
L19390 28224
L19408 28262
L19408 28468
" />
<path d="M19408 28262
L19427 28224
L19465 28205
L19521 28205
L19558 28224
L19577 28262
L19577 28468
" />
<path d="M30957 27778
L4973 27778
" />
<path d="M30957 23841
L30957 28009
" />
<path d="M4973 23841
L4973 28009
" />
<path d="M4973 27778
L5416 27547
" />
<path d="M4973 27778
L5416 28009
" />
<path d="M30957 27778
L30514 27547
" />
<path d="M30957 27778
L30514 28009
" />
<text x="3989.03" y="495.079"
textLength="3113.89" font-size="524.934" lengthAdjust="spacingAndGlyphs"
text-anchor="middle" opacity="0">5,000 mm</text>
<path d="M2751 82
L2564 82
L2545 270
L2564 251
L2601 232
L2695 232
L2732 251
L2751 270
L2770 307
L2770 401
L2751 438
L2732 457
L2695 476
L2601 476
L2564 457
L2545 438
" />
<path d="M2957 457
L2957 476
L2939 513
L2920 532
" />
<path d="M3201 82
L3239 82
L3276 101
L3295 120
L3314 157
L3332 232
L3332 326
L3314 401
L3295 438
L3276 457
L3239 476
L3201 476
L3164 457
L3145 438
L3126 401
L3107 326
L3107 232
L3126 157
L3145 120
L3164 101
L3201 82
" />
<path d="M3576 82
L3614 82
L3651 101
L3670 120
L3689 157
L3707 232
L3707 326
L3689 401
L3670 438
L3651 457
L3614 476
L3576 476
L3539 457
L3520 438
L3501 401
L3482 326
L3482 232
L3501 157
L3520 120
L3539 101
L3576 82
" />
<path d="M3951 82
L3989 82
L4026 101
L4045 120
L4064 157
L4082 232
L4082 326
L4064 401
L4045 438
L4026 457
L3989 476
L3951 476
L3914 457
L3895 438
L3876 401
L3857 326
L3857 232
L3876 157
L3895 120
L3914 101
L3951 82
" />
<path d="M4551 476
L4551 213
" />
<path d="M4551 251
L4570 232
L4607 213
L4663 213
L4701 232
L4720 270
L4720 476
" />
<path d="M4720 270
L4738 232
L4776 213
L4832 213
L4870 232
L4888 270
L4888 476
" />
<path d="M5076 476
L5076 213
" />
<path d="M5076 251
L5095 232
L5132 213
L5188 213
L5226 232
L5245 270
L5245 476
" />
<path d="M5245 270
L5263 232
L5301 213
L5357 213
L5395 232
L5413 270
L5413 476
" />
<path d="M4973 810
L3004 810
" />
<path d="M4973 3880
L4973 579
" />
<path d="M3004 3880
L3004 579
" />
<path d="M3004 810
L3448 579
" />
<path d="M3004 810
L3448 1040
" />
<path d="M4973 810
L4529 579
" />
<path d="M4973 810
L4529 1040
" />
<g transform="rotate(-90 1548.09 2975.39)">
<text x="1548.09" y="3172.24"
textLength="3113.89" font-size="524.934" lengthAdjust="spacingAndGlyphs"
text-anchor="middle" opacity="0">5,000 mm</text>
</g>
<path d="M1332 4212
L1332 4400
L1519 4418
L1501 4400
L1482 4362
L1482 4268
L1501 4231
L1519 4212
L1557 4193
L1651 4193
L1688 4212
L1707 4231
L1726 4268
L1726 4362
L1707 4400
L1688 4418
" />
<path d="M1707 4006
L1726 4006
L1763 4025
L1782 4044
" />
<path d="M1332 3762
L1332 3725
L1351 3687
L1369 3669
L1407 3650
L1482 3631
L1576 3631
L1651 3650
L1688 3669
L1707 3687
L1726 3725
L1726 3762
L1707 3800
L1688 3819
L1651 3837
L1576 3856
L1482 3856
L1407 3837
L1369 3819
L1351 3800
L1332 3762
" />
<path d="M1332 3387
L1332 3350
L1351 3312
L1369 3294
L1407 3275
L1482 3256
L1576 3256
L1651 3275
L1688 3294
L1707 3312
L1726 3350
L1726 3387
L1707 3425
L1688 3444
L1651 3462
L1576 3481
L1482 3481
L1407 3462
L1369 3444
L1351 3425
L1332 3387
" />
<path d="M1332 3012
L1332 2975
L1351 2937
L1369 2919
L1407 2900
L1482 2881
L1576 2881
L1651 2900
L1688 2919
L1707 2937
L1726 2975
L1726 3012
L1707 3050
L1688 3069
L1651 3087
L1576 3106
L1482 3106
L1407 3087
L1369 3069
L1351 3050
L1332 3012
" />
<path d="M1726 2412
L1463 2412
" />
<path d="M1501 2412
L1482 2394
L1463 2356
L1463 2300
L1482 2262
L1519 2244
L1726 2244
" />
<path d="M1519 2244
L1482 2225
L1463 2187
L1463 2131
L1482 2094
L1519 2075
L1726 2075
" />
<path d="M1726 1888
L1463 1888
" />
<path d="M1501 1888
L1482 1869
L1463 1831
L1463 1775
L1482 1738
L1519 1719
L1726 1719
" />
<path d="M1519 1719
L1482 1700
L1463 1663
L1463 1606
L1482 1569
L1519 1550
L1726 1550
" />
<path d="M2059 3959
L2059 1991
" />
<path d="M4973 3959
L1829 3959
" />
<path d="M4973 1991
L1829 1991
" />
<path d="M2059 1991
L2290 2434
" />
<path d="M2059 1991
L1829 2434
" />
<path d="M2059 3959
L2290 3516
" />
<path d="M2059 3959
L1829 3516
" />
<text x="17965.4" y="29471.5"
textLength="3488.85" font-size="524.934" lengthAdjust="spacingAndGlyphs"
text-anchor="middle" opacity="0">76,000 mm</text>
<path d="M16315 29059
L16578 29059
L16409 29452
" />
<path d="M16896 29059
L16821 29059
L16784 29077
L16765 29096
L16728 29152
L16709 29227
L16709 29377
L16728 29415
L16746 29433
L16784 29452
L16859 29452
L16896 29433
L16915 29415
L16934 29377
L16934 29283
L16915 29246
L16896 29227
L16859 29208
L16784 29208
L16746 29227
L16728 29246
L16709 29283
" />
<path d="M17121 29433
L17121 29452
L17103 29490
L17084 29508
" />
<path d="M17365 29059
L17402 29059
L17440 29077
L17459 29096
L17477 29133
L17496 29208
L17496 29302
L17477 29377
L17459 29415
L17440 29433
L17402 29452
L17365 29452
L17327 29433
L17309 29415
L17290 29377
L17271 29302
L17271 29208
L17290 29133
L17309 29096
L17327 29077
L17365 29059
" />
<path d="M17740 29059
L17777 29059
L17815 29077
L17834 29096
L17852 29133
L17871 29208
L17871 29302
L17852 29377
L17834 29415
L17815 29433
L17777 29452
L17740 29452
L17702 29433
L17684 29415
L17665 29377
L17646 29302
L17646 29208
L17665 29133
L17684 29096
L17702 29077
L17740 29059
" />
<path d="M18115 29059
L18152 29059
L18190 29077
L18209 29096
L18227 29133
L18246 29208
L18246 29302
L18227 29377
L18209 29415
L18190 29433
L18152 29452
L18115 29452
L18077 29433
L18059 29415
L18040 29377
L18021 29302
L18021 29208
L18040 29133
L18059 29096
L18077 29077
L18115 29059
" />
<path d="M18715 29452
L18715 29190
" />
<path d="M18715 29227
L18734 29208
L18771 29190
L18827 29190
L18865 29208
L18884 29246
L18884 29452
" />
<path d="M18884 29246
L18902 29208
L18940 29190
L18996 29190
L19034 29208
L19052 29246
L19052 29452
" />
<path d="M19240 29452
L19240 29190
" />
<path d="M19240 29227
L19258 29208
L19296 29190
L19352 29190
L19390 29208
L19408 29246
L19408 29452
" />
<path d="M19408 29246
L19427 29208
L19465 29190
L19521 29190
L19558 29208
L19577 29246
L19577 29452
" />
<path d="M32926 28762
L3004 28762
" />
<path d="M32926 25810
L32926 28993
" />
<path d="M3004 25810
L3004 28993
" />
<path d="M3004 28762
L3448 28531
" />
<path d="M3004 28762
L3448 28993
" />
<path d="M32926 28762
L32482 28531
" />
<path d="M32926 28762
L32482 28993
" />
<g transform="rotate(-90 36390.6 13900.6)">
<text x="36390.6" y="14097.4"
textLength="3488.85" font-size="524.934" lengthAdjust="spacingAndGlyphs"
text-anchor="middle" opacity="0">60,500 mm</text>
</g>
<path d="M36175 15344
L36175 15419
L36193 15456
L36212 15475
L36268 15512
L36343 15531
L36493 15531
L36531 15512
L36549 15494
L36568 15456
L36568 15381
L36549 15344
L36531 15325
L36493 15306
L36399 15306
L36362 15325
L36343 15344
L36324 15381
L36324 15456
L36343 15494
L36362 15512
L36399 15531
" />
<path d="M36175 15062
L36175 15025
L36193 14987
L36212 14969
L36250 14950
L36324 14931
L36418 14931
L36493 14950
L36531 14969
L36549 14987
L36568 15025
L36568 15062
L36549 15100
L36531 15119
L36493 15137
L36418 15156
L36324 15156
L36250 15137
L36212 15119
L36193 15100
L36175 15062
" />
<path d="M36549 14744
L36568 14744
L36606 14762
L36624 14781
" />
<path d="M36175 14388
L36175 14575
L36362 14594
L36343 14575
L36324 14538
L36324 14444
L36343 14406
L36362 14388
L36399 14369
L36493 14369
L36531 14388
L36549 14406
L36568 14444
L36568 14538
L36549 14575
L36531 14594
" />
<path d="M36175 14125
L36175 14088
L36193 14050
L36212 14031
L36250 14013
L36324 13994
L36418 13994
L36493 14013
L36531 14031
L36549 14050
L36568 14088
L36568 14125
L36549 14163
L36531 14181
L36493 14200
L36418 14219
L36324 14219
L36250 14200
L36212 14181
L36193 14163
L36175 14125
" />
<path d="M36175 13750
L36175 13713
L36193 13675
L36212 13656
L36250 13638
L36324 13619
L36418 13619
L36493 13638
L36531 13656
L36549 13675
L36568 13713
L36568 13750
L36549 13788
L36531 13806
L36493 13825
L36418 13844
L36324 13844
L36250 13825
L36212 13806
L36193 13788
L36175 13750
" />
<path d="M36568 13150
L36306 13150
" />
<path d="M36343 13150
L36324 13131
L36306 13094
L36306 13038
L36324 13000
L36362 12981
L36568 12981
" />
<path d="M36362 12981
L36324 12963
L36306 12925
L36306 12869
L36324 12831
L36362 12813
L36568 12813
" />
<path d="M36568 12625
L36306 12625
" />
<path d="M36343 12625
L36324 12607
L36306 12569
L36306 12513
L36324 12475
L36362 12457
L36568 12457
" />
<path d="M36362 12457
L36324 12438
L36306 12400
L36306 12344
L36324 12307
L36362 12288
L36568 12288
" />
<path d="M35878 25810
L35878 1991
" />
<path d="M32926 25810
L36109 25810
" />
<path d="M32926 1991
L36109 1991
" />
<path d="M35878 1991
L36109 2434
" />
<path d="M35878 1991
L35647 2434
" />
<path d="M35878 25810
L36109 25366
" />
<path d="M35878 25810
L35647 25366
" />
</g>
<g style="fill:#000000; fill-opacity:0.0; 
stroke:#000000; stroke-width:39.3701; stroke-opacity:1; 
stroke-linecap:round; stroke-linejoin:round;">
<path d="M23870 4123
L23083 4758
" />
<path d="M23870 3487
L22296 4758
" />
<path d="M23870 2851
L21508 4758
" />
<path d="M23870 2215
L20721 4758
" />
<path d="M23870 1579
L19933 4758
" />
<path d="M23870 943
L19146 4758
" />
<path d="M23664 514
L18359 4758
" />
<path d="M22876 514
L17571 4758
" />
<path d="M22089 514
L16784 4758
" />
<path d="M21302 514
L15996 4758
" />
<path d="M15209 4758
L20514 514
" />
<path d="M19727 514
L14422 4758
" />
<path d="M18939 514
L13634 4758
" />
<path d="M18152 514
L12847 4758
" />
<path d="M17365 514
L12847 4123
" />
<path d="M16577 514
L12847 3487
" />
<path d="M15790 514
L12847 2851
" />
<path d="M15002 514
L12847 2215
" />
<path d="M14215 514
L12847 1579
" />
<path d="M13428 514
L12847 943
" />
<path d="M23870 514
L12847 514
" />
<path d="M23870 4758
L23870 514
" />
<path d="M23870 4758
L12847 4758
" />
<path d="M12847 4758
L12847 514
" />
<g >
</g>
<g >
</g>
<g >
</g>
<g >
</g>
<g >
</g>
<g >
</g>
<g >
</g>
<g >
</g>
<g >
</g>
<g >
</g>
<g >
</g>
<g >
</g>
<g >
</g>
<g >
</g>
<g >
</g>
<g >
</g>
<g >
</g>
<g >
</g>
<g >
</g>
<g >
</g>
<g >
</g>
<g >
</g>
<g >
</g>
<g >
</g>
<g >
</g>
</g>
<g style="fill:#000000; fill-opacity:0.0; 
stroke:#000000; stroke-width:39.3701; stroke-opacity:1; 
stroke-linecap:round; stroke-linejoin:round;">
<path d="M32926 1991
L32926 25810
" />
<path d="M3004 1991
L32926 1991
" />
<path d="M3004 25810
L3004 1991
" />
<path d="M32926 25810
L3004 25810
" />
<g >
</g>
<g >
</g>
<g >
</g>
<g >
</g>
<g >
</g>
<g >
</g>
<g >
</g>
<g >
</g>
<g >
</g>
<g >
</g>
<g >
</g>
<g >
</g>
<g >
</g>
<g >
</g>
<g >
</g>
<g >
</g>
<g >
</g>
<g >
</g>
<g >
</g>
<g >
</g>
<g >
</g>
<g >
</g>
<g >
</g>
<g >
</g>
<g >
</g>
</g> 
</svg>
